ISO-10303-21;
HEADER;
/* Generated by software containing ST-Developer
 * from STEP Tools, Inc. (www.steptools.com) 
 */

FILE_DESCRIPTION(
/* description */ (''),
/* implementation_level */ '2;1');

FILE_NAME(
/* name */ 'Camera_Holder.step',
/* time_stamp */ '2026-05-27T23:13:43+02:00',
/* author */ (''),
/* organization */ (''),
/* preprocessor_version */ 'ST-DEVELOPER v20.1',
/* originating_system */ 'Autodesk Translation Framework v15.8.0.0',
/* authorisation */ '');

FILE_SCHEMA (('AUTOMOTIVE_DESIGN { 1 0 10303 214 3 1 1 }'));
ENDSEC;

DATA;
#10=MECHANICAL_DESIGN_GEOMETRIC_PRESENTATION_REPRESENTATION('',(#13),#183);
#11=SHAPE_REPRESENTATION_RELATIONSHIP('SRR','None',#190,#12);
#12=ADVANCED_BREP_SHAPE_REPRESENTATION('',(#14),#182);
#13=STYLED_ITEM('',(#199),#14);
#14=MANIFOLD_SOLID_BREP('Body117',#107);
#15=FACE_OUTER_BOUND('',#21,.T.);
#16=FACE_OUTER_BOUND('',#22,.T.);
#17=FACE_OUTER_BOUND('',#23,.T.);
#18=FACE_OUTER_BOUND('',#24,.T.);
#19=FACE_OUTER_BOUND('',#25,.T.);
#20=FACE_OUTER_BOUND('',#26,.T.);
#21=EDGE_LOOP('',(#71,#72,#73,#74));
#22=EDGE_LOOP('',(#75,#76,#77,#78));
#23=EDGE_LOOP('',(#79,#80,#81,#82));
#24=EDGE_LOOP('',(#83,#84,#85,#86));
#25=EDGE_LOOP('',(#87,#88,#89,#90));
#26=EDGE_LOOP('',(#91,#92,#93,#94));
#27=LINE('',#157,#39);
#28=LINE('',#159,#40);
#29=LINE('',#161,#41);
#30=LINE('',#162,#42);
#31=LINE('',#165,#43);
#32=LINE('',#167,#44);
#33=LINE('',#168,#45);
#34=LINE('',#171,#46);
#35=LINE('',#173,#47);
#36=LINE('',#174,#48);
#37=LINE('',#176,#49);
#38=LINE('',#177,#50);
#39=VECTOR('',#131,10.);
#40=VECTOR('',#132,10.);
#41=VECTOR('',#133,10.);
#42=VECTOR('',#134,10.);
#43=VECTOR('',#137,10.);
#44=VECTOR('',#138,10.);
#45=VECTOR('',#139,10.);
#46=VECTOR('',#142,10.);
#47=VECTOR('',#143,10.);
#48=VECTOR('',#144,10.);
#49=VECTOR('',#147,10.);
#50=VECTOR('',#148,10.);
#51=VERTEX_POINT('',#155);
#52=VERTEX_POINT('',#156);
#53=VERTEX_POINT('',#158);
#54=VERTEX_POINT('',#160);
#55=VERTEX_POINT('',#164);
#56=VERTEX_POINT('',#166);
#57=VERTEX_POINT('',#170);
#58=VERTEX_POINT('',#172);
#59=EDGE_CURVE('',#51,#52,#27,.T.);
#60=EDGE_CURVE('',#51,#53,#28,.T.);
#61=EDGE_CURVE('',#54,#53,#29,.T.);
#62=EDGE_CURVE('',#52,#54,#30,.T.);
#63=EDGE_CURVE('',#52,#55,#31,.T.);
#64=EDGE_CURVE('',#56,#54,#32,.T.);
#65=EDGE_CURVE('',#55,#56,#33,.T.);
#66=EDGE_CURVE('',#55,#57,#34,.T.);
#67=EDGE_CURVE('',#58,#56,#35,.T.);
#68=EDGE_CURVE('',#57,#58,#36,.T.);
#69=EDGE_CURVE('',#57,#51,#37,.T.);
#70=EDGE_CURVE('',#53,#58,#38,.T.);
#71=ORIENTED_EDGE('',*,*,#59,.F.);
#72=ORIENTED_EDGE('',*,*,#60,.T.);
#73=ORIENTED_EDGE('',*,*,#61,.F.);
#74=ORIENTED_EDGE('',*,*,#62,.F.);
#75=ORIENTED_EDGE('',*,*,#63,.F.);
#76=ORIENTED_EDGE('',*,*,#62,.T.);
#77=ORIENTED_EDGE('',*,*,#64,.F.);
#78=ORIENTED_EDGE('',*,*,#65,.F.);
#79=ORIENTED_EDGE('',*,*,#66,.F.);
#80=ORIENTED_EDGE('',*,*,#65,.T.);
#81=ORIENTED_EDGE('',*,*,#67,.F.);
#82=ORIENTED_EDGE('',*,*,#68,.F.);
#83=ORIENTED_EDGE('',*,*,#69,.F.);
#84=ORIENTED_EDGE('',*,*,#68,.T.);
#85=ORIENTED_EDGE('',*,*,#70,.F.);
#86=ORIENTED_EDGE('',*,*,#60,.F.);
#87=ORIENTED_EDGE('',*,*,#70,.T.);
#88=ORIENTED_EDGE('',*,*,#67,.T.);
#89=ORIENTED_EDGE('',*,*,#64,.T.);
#90=ORIENTED_EDGE('',*,*,#61,.T.);
#91=ORIENTED_EDGE('',*,*,#69,.T.);
#92=ORIENTED_EDGE('',*,*,#59,.T.);
#93=ORIENTED_EDGE('',*,*,#63,.T.);
#94=ORIENTED_EDGE('',*,*,#66,.T.);
#95=PLANE('',#121);
#96=PLANE('',#122);
#97=PLANE('',#123);
#98=PLANE('',#124);
#99=PLANE('',#125);
#100=PLANE('',#126);
#101=ADVANCED_FACE('',(#15),#95,.T.);
#102=ADVANCED_FACE('',(#16),#96,.T.);
#103=ADVANCED_FACE('',(#17),#97,.T.);
#104=ADVANCED_FACE('',(#18),#98,.T.);
#105=ADVANCED_FACE('',(#19),#99,.T.);
#106=ADVANCED_FACE('',(#20),#100,.F.);
#107=CLOSED_SHELL('',(#101,#102,#103,#104,#105,#106));
#108=DERIVED_UNIT_ELEMENT(#110,1.);
#109=DERIVED_UNIT_ELEMENT(#185,-3.);
#110=(
MASS_UNIT()
NAMED_UNIT(*)
SI_UNIT(.KILO.,.GRAM.)
);
#111=DERIVED_UNIT((#108,#109));
#112=MEASURE_REPRESENTATION_ITEM('density measure',
POSITIVE_RATIO_MEASURE(7850.),#111);
#113=PROPERTY_DEFINITION_REPRESENTATION(#118,#115);
#114=PROPERTY_DEFINITION_REPRESENTATION(#119,#116);
#115=REPRESENTATION('material name',(#117),#182);
#116=REPRESENTATION('density',(#112),#182);
#117=DESCRIPTIVE_REPRESENTATION_ITEM('Steel','Steel');
#118=PROPERTY_DEFINITION('material property','material name',#192);
#119=PROPERTY_DEFINITION('material property','density of part',#192);
#120=AXIS2_PLACEMENT_3D('',#153,#127,#128);
#121=AXIS2_PLACEMENT_3D('',#154,#129,#130);
#122=AXIS2_PLACEMENT_3D('',#163,#135,#136);
#123=AXIS2_PLACEMENT_3D('',#169,#140,#141);
#124=AXIS2_PLACEMENT_3D('',#175,#145,#146);
#125=AXIS2_PLACEMENT_3D('',#178,#149,#150);
#126=AXIS2_PLACEMENT_3D('',#179,#151,#152);
#127=DIRECTION('axis',(0.,0.,1.));
#128=DIRECTION('refdir',(1.,0.,0.));
#129=DIRECTION('center_axis',(-1.,0.,0.));
#130=DIRECTION('ref_axis',(0.,1.41246570218176E-64,-1.));
#131=DIRECTION('',(0.,-1.41246570218176E-64,1.));
#132=DIRECTION('',(0.,-1.,0.));
#133=DIRECTION('',(0.,1.41246570218176E-64,-1.));
#134=DIRECTION('',(0.,-1.,0.));
#135=DIRECTION('center_axis',(0.,0.,1.));
#136=DIRECTION('ref_axis',(-1.,-1.41246570218177E-64,0.));
#137=DIRECTION('',(1.,1.41246570218177E-64,0.));
#138=DIRECTION('',(-1.,-1.41246570218177E-64,0.));
#139=DIRECTION('',(0.,-1.,0.));
#140=DIRECTION('center_axis',(1.,0.,0.));
#141=DIRECTION('ref_axis',(0.,0.,1.));
#142=DIRECTION('',(0.,0.,-1.));
#143=DIRECTION('',(0.,0.,1.));
#144=DIRECTION('',(0.,-1.,0.));
#145=DIRECTION('center_axis',(0.,0.,-1.));
#146=DIRECTION('ref_axis',(1.,0.,0.));
#147=DIRECTION('',(-1.,0.,0.));
#148=DIRECTION('',(1.,0.,0.));
#149=DIRECTION('center_axis',(0.,-1.,0.));
#150=DIRECTION('ref_axis',(0.,0.,-1.));
#151=DIRECTION('center_axis',(7.06232851090885E-65,-1.,-7.06232851090882E-65));
#152=DIRECTION('ref_axis',(1.,7.06232851090885E-65,0.));
#153=CARTESIAN_POINT('',(0.,0.,0.));
#154=CARTESIAN_POINT('Origin',(-4.0500000000001,64.0487613908094,265.582302798155));
#155=CARTESIAN_POINT('',(-4.0500000000001,64.0487613908094,257.582302798155));
#156=CARTESIAN_POINT('',(-4.0500000000001,64.0487613908094,265.582302798155));
#157=CARTESIAN_POINT('',(-4.0500000000001,64.0487613908094,257.582302798155));
#158=CARTESIAN_POINT('',(-4.0500000000001,34.0487613908094,257.582302798155));
#159=CARTESIAN_POINT('',(-4.0500000000001,64.0487613908094,257.582302798155));
#160=CARTESIAN_POINT('',(-4.0500000000001,34.0487613908094,265.582302798155));
#161=CARTESIAN_POINT('',(-4.0500000000001,34.0487613908094,257.582302798155));
#162=CARTESIAN_POINT('',(-4.0500000000001,64.0487613908094,265.582302798155));
#163=CARTESIAN_POINT('Origin',(3.9499999999999,64.0487613908094,265.582302798155));
#164=CARTESIAN_POINT('',(3.9499999999999,64.0487613908094,265.582302798155));
#165=CARTESIAN_POINT('',(-4.0500000000001,64.0487613908094,265.582302798155));
#166=CARTESIAN_POINT('',(3.9499999999999,34.0487613908094,265.582302798155));
#167=CARTESIAN_POINT('',(-4.0500000000001,34.0487613908094,265.582302798155));
#168=CARTESIAN_POINT('',(3.9499999999999,64.0487613908094,265.582302798155));
#169=CARTESIAN_POINT('Origin',(3.9499999999999,64.0487613908094,257.582302798155));
#170=CARTESIAN_POINT('',(3.9499999999999,64.0487613908094,257.582302798155));
#171=CARTESIAN_POINT('',(3.9499999999999,64.0487613908094,265.582302798155));
#172=CARTESIAN_POINT('',(3.9499999999999,34.0487613908094,257.582302798155));
#173=CARTESIAN_POINT('',(3.9499999999999,34.0487613908094,265.582302798155));
#174=CARTESIAN_POINT('',(3.9499999999999,64.0487613908094,257.582302798155));
#175=CARTESIAN_POINT('Origin',(-4.0500000000001,64.0487613908094,257.582302798155));
#176=CARTESIAN_POINT('',(3.9499999999999,64.0487613908094,257.582302798155));
#177=CARTESIAN_POINT('',(3.9499999999999,34.0487613908094,257.582302798155));
#178=CARTESIAN_POINT('Origin',(-0.0500000000001011,34.0487613908094,261.582302798155));
#179=CARTESIAN_POINT('Origin',(-0.0500000000001011,64.0487613908094,261.582302798155));
#180=UNCERTAINTY_MEASURE_WITH_UNIT(LENGTH_MEASURE(0.01),#184,
'DISTANCE_ACCURACY_VALUE',
'Maximum model space distance between geometric entities at asserted c
onnectivities');
#181=UNCERTAINTY_MEASURE_WITH_UNIT(LENGTH_MEASURE(0.01),#184,
'DISTANCE_ACCURACY_VALUE',
'Maximum model space distance between geometric entities at asserted c
onnectivities');
#182=(
GEOMETRIC_REPRESENTATION_CONTEXT(3)
GLOBAL_UNCERTAINTY_ASSIGNED_CONTEXT((#180))
GLOBAL_UNIT_ASSIGNED_CONTEXT((#184,#186,#187))
REPRESENTATION_CONTEXT('','3D')
);
#183=(
GEOMETRIC_REPRESENTATION_CONTEXT(3)
GLOBAL_UNCERTAINTY_ASSIGNED_CONTEXT((#181))
GLOBAL_UNIT_ASSIGNED_CONTEXT((#184,#186,#187))
REPRESENTATION_CONTEXT('','3D')
);
#184=(
LENGTH_UNIT()
NAMED_UNIT(*)
SI_UNIT(.MILLI.,.METRE.)
);
#185=(
LENGTH_UNIT()
NAMED_UNIT(*)
SI_UNIT($,.METRE.)
);
#186=(
NAMED_UNIT(*)
PLANE_ANGLE_UNIT()
SI_UNIT($,.RADIAN.)
);
#187=(
NAMED_UNIT(*)
SI_UNIT($,.STERADIAN.)
SOLID_ANGLE_UNIT()
);
#188=SHAPE_DEFINITION_REPRESENTATION(#189,#190);
#189=PRODUCT_DEFINITION_SHAPE('',$,#192);
#190=SHAPE_REPRESENTATION('',(#120),#182);
#191=PRODUCT_DEFINITION_CONTEXT('part definition',#196,'design');
#192=PRODUCT_DEFINITION('2026-03-24-17-31-42-097','Head',#193,#191);
#193=PRODUCT_DEFINITION_FORMATION('',$,#198);
#194=PRODUCT_RELATED_PRODUCT_CATEGORY('Head','Head',(#198));
#195=APPLICATION_PROTOCOL_DEFINITION('international standard',
'automotive_design',2009,#196);
#196=APPLICATION_CONTEXT(
'Core Data for Automotive Mechanical Design Process');
#197=PRODUCT_CONTEXT('part definition',#196,'mechanical');
#198=PRODUCT('2026-03-24-17-31-42-097','Head',$,(#197));
#199=PRESENTATION_STYLE_ASSIGNMENT((#235));
#200=PRESENTATION_STYLE_ASSIGNMENT((#236));
#201=PRESENTATION_STYLE_ASSIGNMENT((#237));
#202=PRESENTATION_STYLE_ASSIGNMENT((#238));
#203=PRESENTATION_STYLE_ASSIGNMENT((#239));
#204=PRESENTATION_STYLE_ASSIGNMENT((#240));
#205=PRESENTATION_STYLE_ASSIGNMENT((#241));
#206=PRESENTATION_STYLE_ASSIGNMENT((#242));
#207=PRESENTATION_STYLE_ASSIGNMENT((#243));
#208=PRESENTATION_STYLE_ASSIGNMENT((#244));
#209=PRESENTATION_STYLE_ASSIGNMENT((#245));
#210=PRESENTATION_STYLE_ASSIGNMENT((#246));
#211=PRESENTATION_STYLE_ASSIGNMENT((#247));
#212=PRESENTATION_STYLE_ASSIGNMENT((#248));
#213=PRESENTATION_STYLE_ASSIGNMENT((#249));
#214=PRESENTATION_STYLE_ASSIGNMENT((#250));
#215=PRESENTATION_STYLE_ASSIGNMENT((#251));
#216=PRESENTATION_STYLE_ASSIGNMENT((#252));
#217=PRESENTATION_STYLE_ASSIGNMENT((#253));
#218=PRESENTATION_STYLE_ASSIGNMENT((#254));
#219=PRESENTATION_STYLE_ASSIGNMENT((#255));
#220=PRESENTATION_STYLE_ASSIGNMENT((#256));
#221=PRESENTATION_STYLE_ASSIGNMENT((#257));
#222=PRESENTATION_STYLE_ASSIGNMENT((#258));
#223=PRESENTATION_STYLE_ASSIGNMENT((#259));
#224=PRESENTATION_STYLE_ASSIGNMENT((#260));
#225=PRESENTATION_STYLE_ASSIGNMENT((#261));
#226=PRESENTATION_STYLE_ASSIGNMENT((#262));
#227=PRESENTATION_STYLE_ASSIGNMENT((#263));
#228=PRESENTATION_STYLE_ASSIGNMENT((#264));
#229=PRESENTATION_STYLE_ASSIGNMENT((#265));
#230=PRESENTATION_STYLE_ASSIGNMENT((#266));
#231=PRESENTATION_STYLE_ASSIGNMENT((#267));
#232=PRESENTATION_STYLE_ASSIGNMENT((#268));
#233=PRESENTATION_STYLE_ASSIGNMENT((#269));
#234=PRESENTATION_STYLE_ASSIGNMENT((#270));
#235=SURFACE_STYLE_USAGE(.BOTH.,#271);
#236=SURFACE_STYLE_USAGE(.BOTH.,#272);
#237=SURFACE_STYLE_USAGE(.BOTH.,#273);
#238=SURFACE_STYLE_USAGE(.BOTH.,#274);
#239=SURFACE_STYLE_USAGE(.BOTH.,#275);
#240=SURFACE_STYLE_USAGE(.BOTH.,#276);
#241=SURFACE_STYLE_USAGE(.BOTH.,#277);
#242=SURFACE_STYLE_USAGE(.BOTH.,#278);
#243=SURFACE_STYLE_USAGE(.BOTH.,#279);
#244=SURFACE_STYLE_USAGE(.BOTH.,#280);
#245=SURFACE_STYLE_USAGE(.BOTH.,#281);
#246=SURFACE_STYLE_USAGE(.BOTH.,#282);
#247=SURFACE_STYLE_USAGE(.BOTH.,#283);
#248=SURFACE_STYLE_USAGE(.BOTH.,#284);
#249=SURFACE_STYLE_USAGE(.BOTH.,#285);
#250=SURFACE_STYLE_USAGE(.BOTH.,#286);
#251=SURFACE_STYLE_USAGE(.BOTH.,#287);
#252=SURFACE_STYLE_USAGE(.BOTH.,#288);
#253=SURFACE_STYLE_USAGE(.BOTH.,#289);
#254=SURFACE_STYLE_USAGE(.BOTH.,#290);
#255=SURFACE_STYLE_USAGE(.BOTH.,#291);
#256=SURFACE_STYLE_USAGE(.BOTH.,#292);
#257=SURFACE_STYLE_USAGE(.BOTH.,#293);
#258=SURFACE_STYLE_USAGE(.BOTH.,#294);
#259=SURFACE_STYLE_USAGE(.BOTH.,#295);
#260=SURFACE_STYLE_USAGE(.BOTH.,#296);
#261=SURFACE_STYLE_USAGE(.BOTH.,#297);
#262=SURFACE_STYLE_USAGE(.BOTH.,#298);
#263=SURFACE_STYLE_USAGE(.BOTH.,#299);
#264=SURFACE_STYLE_USAGE(.BOTH.,#300);
#265=SURFACE_STYLE_USAGE(.BOTH.,#301);
#266=SURFACE_STYLE_USAGE(.BOTH.,#302);
#267=SURFACE_STYLE_USAGE(.BOTH.,#303);
#268=SURFACE_STYLE_USAGE(.BOTH.,#304);
#269=SURFACE_STYLE_USAGE(.BOTH.,#305);
#270=SURFACE_STYLE_USAGE(.BOTH.,#306);
#271=SURFACE_SIDE_STYLE('',(#307));
#272=SURFACE_SIDE_STYLE('',(#308));
#273=SURFACE_SIDE_STYLE('',(#309));
#274=SURFACE_SIDE_STYLE('',(#310));
#275=SURFACE_SIDE_STYLE('',(#311));
#276=SURFACE_SIDE_STYLE('',(#312));
#277=SURFACE_SIDE_STYLE('',(#313));
#278=SURFACE_SIDE_STYLE('',(#314));
#279=SURFACE_SIDE_STYLE('',(#315));
#280=SURFACE_SIDE_STYLE('',(#316));
#281=SURFACE_SIDE_STYLE('',(#317));
#282=SURFACE_SIDE_STYLE('',(#318));
#283=SURFACE_SIDE_STYLE('',(#319));
#284=SURFACE_SIDE_STYLE('',(#320));
#285=SURFACE_SIDE_STYLE('',(#321));
#286=SURFACE_SIDE_STYLE('',(#322));
#287=SURFACE_SIDE_STYLE('',(#323));
#288=SURFACE_SIDE_STYLE('',(#324));
#289=SURFACE_SIDE_STYLE('',(#325));
#290=SURFACE_SIDE_STYLE('',(#326));
#291=SURFACE_SIDE_STYLE('',(#327));
#292=SURFACE_SIDE_STYLE('',(#328));
#293=SURFACE_SIDE_STYLE('',(#329));
#294=SURFACE_SIDE_STYLE('',(#330));
#295=SURFACE_SIDE_STYLE('',(#331));
#296=SURFACE_SIDE_STYLE('',(#332));
#297=SURFACE_SIDE_STYLE('',(#333));
#298=SURFACE_SIDE_STYLE('',(#334));
#299=SURFACE_SIDE_STYLE('',(#335));
#300=SURFACE_SIDE_STYLE('',(#336));
#301=SURFACE_SIDE_STYLE('',(#337));
#302=SURFACE_SIDE_STYLE('',(#338));
#303=SURFACE_SIDE_STYLE('',(#339));
#304=SURFACE_SIDE_STYLE('',(#340));
#305=SURFACE_SIDE_STYLE('',(#341));
#306=SURFACE_SIDE_STYLE('',(#342));
#307=SURFACE_STYLE_FILL_AREA(#343);
#308=SURFACE_STYLE_FILL_AREA(#344);
#309=SURFACE_STYLE_FILL_AREA(#345);
#310=SURFACE_STYLE_FILL_AREA(#346);
#311=SURFACE_STYLE_FILL_AREA(#347);
#312=SURFACE_STYLE_FILL_AREA(#348);
#313=SURFACE_STYLE_FILL_AREA(#349);
#314=SURFACE_STYLE_FILL_AREA(#350);
#315=SURFACE_STYLE_FILL_AREA(#351);
#316=SURFACE_STYLE_FILL_AREA(#352);
#317=SURFACE_STYLE_FILL_AREA(#353);
#318=SURFACE_STYLE_FILL_AREA(#354);
#319=SURFACE_STYLE_FILL_AREA(#355);
#320=SURFACE_STYLE_FILL_AREA(#356);
#321=SURFACE_STYLE_FILL_AREA(#357);
#322=SURFACE_STYLE_FILL_AREA(#358);
#323=SURFACE_STYLE_FILL_AREA(#359);
#324=SURFACE_STYLE_FILL_AREA(#360);
#325=SURFACE_STYLE_FILL_AREA(#361);
#326=SURFACE_STYLE_FILL_AREA(#362);
#327=SURFACE_STYLE_FILL_AREA(#363);
#328=SURFACE_STYLE_FILL_AREA(#364);
#329=SURFACE_STYLE_FILL_AREA(#365);
#330=SURFACE_STYLE_FILL_AREA(#366);
#331=SURFACE_STYLE_FILL_AREA(#367);
#332=SURFACE_STYLE_FILL_AREA(#368);
#333=SURFACE_STYLE_FILL_AREA(#369);
#334=SURFACE_STYLE_FILL_AREA(#370);
#335=SURFACE_STYLE_FILL_AREA(#371);
#336=SURFACE_STYLE_FILL_AREA(#372);
#337=SURFACE_STYLE_FILL_AREA(#373);
#338=SURFACE_STYLE_FILL_AREA(#374);
#339=SURFACE_STYLE_FILL_AREA(#375);
#340=SURFACE_STYLE_FILL_AREA(#376);
#341=SURFACE_STYLE_FILL_AREA(#377);
#342=SURFACE_STYLE_FILL_AREA(#378);
#343=FILL_AREA_STYLE('Steel - Satin',(#379));
#344=FILL_AREA_STYLE('Glass - Light Color (Blue)',(#380));
#345=FILL_AREA_STYLE('Paint - Enamel Glossy (Blue)',(#381));
#346=FILL_AREA_STYLE('Opaque(130,116,95)',(#382));
#347=FILL_AREA_STYLE('Opaque(244,229,167)',(#383));
#348=FILL_AREA_STYLE('Opaque(25,25,25)',(#384));
#349=FILL_AREA_STYLE('Opaque(160,160,160)',(#385));
#350=FILL_AREA_STYLE('Opaque(76,76,76)',(#386));
#351=FILL_AREA_STYLE('Opaque(251,250,245)',(#387));
#352=FILL_AREA_STYLE('Opaque(77,77,77)',(#388));
#353=FILL_AREA_STYLE('Opaque(187,197,203)',(#389));
#354=FILL_AREA_STYLE('Opaque(63,63,63)',(#390));
#355=FILL_AREA_STYLE('Opaque(191,191,191)',(#391));
#356=FILL_AREA_STYLE('Opaque(5,5,5)',(#392));
#357=FILL_AREA_STYLE('Opaque(188,80,47)',(#393));
#358=FILL_AREA_STYLE('Opaque(243,203,124)',(#394));
#359=FILL_AREA_STYLE('Opaque(128,128,128)',(#395));
#360=FILL_AREA_STYLE('Opaque(255,255,255)',(#396));
#361=FILL_AREA_STYLE('Opaque(196,196,196)',(#397));
#362=FILL_AREA_STYLE('Opaque(64,64,64)',(#398));
#363=FILL_AREA_STYLE('Opaque(215,208,192)',(#399));
#364=FILL_AREA_STYLE('Opaque(144,96,0)',(#400));
#365=FILL_AREA_STYLE('Opaque(246,246,243)',(#401));
#366=FILL_AREA_STYLE('Opaque(153,130,94)',(#402));
#367=FILL_AREA_STYLE('Opaque(48,59,150)',(#403));
#368=FILL_AREA_STYLE('Opaque(123,129,122)',(#404));
#369=FILL_AREA_STYLE('Opaque(245,245,246)',(#405));
#370=FILL_AREA_STYLE('Opaque(212,214,212)',(#406));
#371=FILL_AREA_STYLE('Opaque(229,234,237)',(#407));
#372=FILL_AREA_STYLE('Opaque(73,169,84)',(#408));
#373=FILL_AREA_STYLE('Opaque(211,214,211)',(#409));
#374=FILL_AREA_STYLE('Opaque(163,169,170)',(#410));
#375=FILL_AREA_STYLE('Opaque(73,73,73)',(#411));
#376=FILL_AREA_STYLE('Opaque(165,159,143)',(#412));
#377=FILL_AREA_STYLE('Opaque(217,196,147)',(#413));
#378=FILL_AREA_STYLE('Paint - Enamel Glossy (Red)',(#414));
#379=FILL_AREA_STYLE_COLOUR('Steel - Satin',#415);
#380=FILL_AREA_STYLE_COLOUR('Glass - Light Color (Blue)',#416);
#381=FILL_AREA_STYLE_COLOUR('Paint - Enamel Glossy (Blue)',#417);
#382=FILL_AREA_STYLE_COLOUR('Opaque(130,116,95)',#418);
#383=FILL_AREA_STYLE_COLOUR('Opaque(244,229,167)',#419);
#384=FILL_AREA_STYLE_COLOUR('Opaque(25,25,25)',#420);
#385=FILL_AREA_STYLE_COLOUR('Opaque(160,160,160)',#421);
#386=FILL_AREA_STYLE_COLOUR('Opaque(76,76,76)',#422);
#387=FILL_AREA_STYLE_COLOUR('Opaque(251,250,245)',#423);
#388=FILL_AREA_STYLE_COLOUR('Opaque(77,77,77)',#424);
#389=FILL_AREA_STYLE_COLOUR('Opaque(187,197,203)',#425);
#390=FILL_AREA_STYLE_COLOUR('Opaque(63,63,63)',#426);
#391=FILL_AREA_STYLE_COLOUR('Opaque(191,191,191)',#427);
#392=FILL_AREA_STYLE_COLOUR('Opaque(5,5,5)',#428);
#393=FILL_AREA_STYLE_COLOUR('Opaque(188,80,47)',#429);
#394=FILL_AREA_STYLE_COLOUR('Opaque(243,203,124)',#430);
#395=FILL_AREA_STYLE_COLOUR('Opaque(128,128,128)',#431);
#396=FILL_AREA_STYLE_COLOUR('Opaque(255,255,255)',#432);
#397=FILL_AREA_STYLE_COLOUR('Opaque(196,196,196)',#433);
#398=FILL_AREA_STYLE_COLOUR('Opaque(64,64,64)',#434);
#399=FILL_AREA_STYLE_COLOUR('Opaque(215,208,192)',#435);
#400=FILL_AREA_STYLE_COLOUR('Opaque(144,96,0)',#436);
#401=FILL_AREA_STYLE_COLOUR('Opaque(246,246,243)',#437);
#402=FILL_AREA_STYLE_COLOUR('Opaque(153,130,94)',#438);
#403=FILL_AREA_STYLE_COLOUR('Opaque(48,59,150)',#439);
#404=FILL_AREA_STYLE_COLOUR('Opaque(123,129,122)',#440);
#405=FILL_AREA_STYLE_COLOUR('Opaque(245,245,246)',#441);
#406=FILL_AREA_STYLE_COLOUR('Opaque(212,214,212)',#442);
#407=FILL_AREA_STYLE_COLOUR('Opaque(229,234,237)',#443);
#408=FILL_AREA_STYLE_COLOUR('Opaque(73,169,84)',#444);
#409=FILL_AREA_STYLE_COLOUR('Opaque(211,214,211)',#445);
#410=FILL_AREA_STYLE_COLOUR('Opaque(163,169,170)',#446);
#411=FILL_AREA_STYLE_COLOUR('Opaque(73,73,73)',#447);
#412=FILL_AREA_STYLE_COLOUR('Opaque(165,159,143)',#448);
#413=FILL_AREA_STYLE_COLOUR('Opaque(217,196,147)',#449);
#414=FILL_AREA_STYLE_COLOUR('Paint - Enamel Glossy (Red)',#450);
#415=COLOUR_RGB('Steel - Satin',0.627450980392157,0.627450980392157,0.627450980392157);
#416=COLOUR_RGB('Glass - Light Color (Blue)',0.423529411764706,0.768627450980392,
0.854901960784314);
#417=COLOUR_RGB('Paint - Enamel Glossy (Blue)',0.188235294117647,0.231372549019608,
0.588235294117647);
#418=COLOUR_RGB('Opaque(130,116,95)',0.509803921568627,0.454901960784314,
0.372549019607843);
#419=COLOUR_RGB('Opaque(244,229,167)',0.956862745098039,0.898039215686275,
0.654901960784314);
#420=COLOUR_RGB('Opaque(25,25,25)',0.0980392156862745,0.0980392156862745,
0.0980392156862745);
#421=COLOUR_RGB('Opaque(160,160,160)',0.627450980392157,0.627450980392157,
0.627450980392157);
#422=COLOUR_RGB('Opaque(76,76,76)',0.298039215686275,0.298039215686275,
0.298039215686275);
#423=COLOUR_RGB('Opaque(251,250,245)',0.984313725490196,0.980392156862745,
0.96078431372549);
#424=COLOUR_RGB('Opaque(77,77,77)',0.301960784313725,0.301960784313725,
0.301960784313725);
#425=COLOUR_RGB('Opaque(187,197,203)',0.733333333333333,0.772549019607843,
0.796078431372549);
#426=COLOUR_RGB('Opaque(63,63,63)',0.250980392156863,0.250980392156863,
0.250980392156863);
#427=COLOUR_RGB('Opaque(191,191,191)',0.749019607843137,0.749019607843137,
0.749019607843137);
#428=COLOUR_RGB('Opaque(5,5,5)',0.0196078431372549,0.0196078431372549,0.0196078431372549);
#429=COLOUR_RGB('Opaque(188,80,47)',0.737254901960784,0.313725490196078,
0.184313725490196);
#430=COLOUR_RGB('Opaque(243,203,124)',0.952941176470588,0.796078431372549,
0.486274509803922);
#431=COLOUR_RGB('Opaque(128,128,128)',0.501960784313725,0.501960784313725,
0.501960784313725);
#432=COLOUR_RGB('Opaque(255,255,255)',1.,1.,1.);
#433=COLOUR_RGB('Opaque(196,196,196)',0.768627450980392,0.768627450980392,
0.768627450980392);
#434=COLOUR_RGB('Opaque(64,64,64)',0.250980392156863,0.250980392156863,
0.250980392156863);
#435=COLOUR_RGB('Opaque(215,208,192)',0.843137254901961,0.815686274509804,
0.752941176470588);
#436=COLOUR_RGB('Opaque(144,96,0)',0.564705882352941,0.376470588235294,
0.);
#437=COLOUR_RGB('Opaque(246,246,243)',0.964705882352941,0.964705882352941,
0.952941176470588);
#438=COLOUR_RGB('Opaque(153,130,94)',0.6,0.509803921568627,0.368627450980392);
#439=COLOUR_RGB('Opaque(48,59,150)',0.188235294117647,0.231372549019608,
0.588235294117647);
#440=COLOUR_RGB('Opaque(123,129,122)',0.482352941176471,0.505882352941176,
0.47843137254902);
#441=COLOUR_RGB('Opaque(245,245,246)',0.96078431372549,0.96078431372549,
0.964705882352941);
#442=COLOUR_RGB('Opaque(212,214,212)',0.831372549019608,0.83921568627451,
0.831372549019608);
#443=COLOUR_RGB('Opaque(229,234,237)',0.898039215686275,0.917647058823529,
0.929411764705882);
#444=COLOUR_RGB('Opaque(73,169,84)',0.286274509803922,0.662745098039216,
0.329411764705882);
#445=COLOUR_RGB('Opaque(211,214,211)',0.827450980392157,0.83921568627451,
0.827450980392157);
#446=COLOUR_RGB('Opaque(163,169,170)',0.63921568627451,0.662745098039216,
0.666666666666667);
#447=COLOUR_RGB('Opaque(73,73,73)',0.286274509803922,0.286274509803922,
0.286274509803922);
#448=COLOUR_RGB('Opaque(165,159,143)',0.647058823529412,0.623529411764706,
0.56078431372549);
#449=COLOUR_RGB('Opaque(217,196,147)',0.850980392156863,0.768627450980392,
0.576470588235294);
#450=COLOUR_RGB('Paint - Enamel Glossy (Red)',0.768627450980392,0.207843137254902,
0.152941176470588);
ENDSEC;
END-ISO-10303-21;
