ISO-10303-21;
HEADER;
/* Generated by software containing ST-Developer
 * from STEP Tools, Inc. (www.steptools.com) 
 */

FILE_DESCRIPTION(
/* description */ (''),
/* implementation_level */ '2;1');

FILE_NAME(
/* name */ 'Servo_Holder.step',
/* time_stamp */ '2026-05-27T23:12:46+02:00',
/* author */ (''),
/* organization */ (''),
/* preprocessor_version */ 'ST-DEVELOPER v20.1',
/* originating_system */ 'Autodesk Translation Framework v15.8.0.0',
/* authorisation */ '');

FILE_SCHEMA (('AUTOMOTIVE_DESIGN { 1 0 10303 214 3 1 1 }'));
ENDSEC;

DATA;
#10=MECHANICAL_DESIGN_GEOMETRIC_PRESENTATION_REPRESENTATION('',(#13),#764);
#11=SHAPE_REPRESENTATION_RELATIONSHIP('SRR','None',#771,#12);
#12=ADVANCED_BREP_SHAPE_REPRESENTATION('',(#14),#763);
#13=STYLED_ITEM('',(#780),#14);
#14=MANIFOLD_SOLID_BREP('Body124',#468);
#15=FACE_BOUND('',#67,.T.);
#16=FACE_BOUND('',#68,.T.);
#17=FACE_BOUND('',#70,.T.);
#18=FACE_BOUND('',#71,.T.);
#19=FACE_BOUND('',#72,.T.);
#20=FACE_BOUND('',#76,.T.);
#21=FACE_BOUND('',#88,.T.);
#22=FACE_BOUND('',#92,.T.);
#23=FACE_BOUND('',#93,.T.);
#24=PLANE('',#488);
#25=PLANE('',#489);
#26=PLANE('',#490);
#27=PLANE('',#496);
#28=PLANE('',#497);
#29=PLANE('',#499);
#30=PLANE('',#500);
#31=PLANE('',#501);
#32=PLANE('',#502);
#33=PLANE('',#503);
#34=PLANE('',#504);
#35=PLANE('',#505);
#36=PLANE('',#506);
#37=PLANE('',#507);
#38=PLANE('',#510);
#39=PLANE('',#512);
#40=PLANE('',#513);
#41=FACE_OUTER_BOUND('',#63,.T.);
#42=FACE_OUTER_BOUND('',#64,.T.);
#43=FACE_OUTER_BOUND('',#65,.T.);
#44=FACE_OUTER_BOUND('',#66,.T.);
#45=FACE_OUTER_BOUND('',#69,.T.);
#46=FACE_OUTER_BOUND('',#73,.T.);
#47=FACE_OUTER_BOUND('',#74,.T.);
#48=FACE_OUTER_BOUND('',#75,.T.);
#49=FACE_OUTER_BOUND('',#77,.T.);
#50=FACE_OUTER_BOUND('',#78,.T.);
#51=FACE_OUTER_BOUND('',#79,.T.);
#52=FACE_OUTER_BOUND('',#80,.T.);
#53=FACE_OUTER_BOUND('',#81,.T.);
#54=FACE_OUTER_BOUND('',#82,.T.);
#55=FACE_OUTER_BOUND('',#83,.T.);
#56=FACE_OUTER_BOUND('',#84,.T.);
#57=FACE_OUTER_BOUND('',#85,.T.);
#58=FACE_OUTER_BOUND('',#86,.T.);
#59=FACE_OUTER_BOUND('',#87,.T.);
#60=FACE_OUTER_BOUND('',#89,.T.);
#61=FACE_OUTER_BOUND('',#90,.T.);
#62=FACE_OUTER_BOUND('',#91,.T.);
#63=EDGE_LOOP('',(#315,#316,#317,#318));
#64=EDGE_LOOP('',(#319,#320,#321,#322));
#65=EDGE_LOOP('',(#323,#324,#325,#326));
#66=EDGE_LOOP('',(#327,#328,#329,#330));
#67=EDGE_LOOP('',(#331));
#68=EDGE_LOOP('',(#332));
#69=EDGE_LOOP('',(#333,#334,#335,#336,#337,#338,#339,#340,#341));
#70=EDGE_LOOP('',(#342,#343,#344,#345));
#71=EDGE_LOOP('',(#346));
#72=EDGE_LOOP('',(#347));
#73=EDGE_LOOP('',(#348,#349,#350,#351));
#74=EDGE_LOOP('',(#352,#353,#354,#355));
#75=EDGE_LOOP('',(#356,#357,#358,#359));
#76=EDGE_LOOP('',(#360));
#77=EDGE_LOOP('',(#361,#362,#363,#364,#365,#366,#367,#368));
#78=EDGE_LOOP('',(#369,#370,#371,#372,#373,#374,#375,#376));
#79=EDGE_LOOP('',(#377,#378,#379,#380));
#80=EDGE_LOOP('',(#381,#382,#383,#384));
#81=EDGE_LOOP('',(#385,#386,#387,#388,#389,#390));
#82=EDGE_LOOP('',(#391,#392,#393,#394));
#83=EDGE_LOOP('',(#395,#396,#397,#398,#399,#400,#401,#402));
#84=EDGE_LOOP('',(#403,#404,#405,#406));
#85=EDGE_LOOP('',(#407,#408,#409,#410));
#86=EDGE_LOOP('',(#411,#412,#413,#414));
#87=EDGE_LOOP('',(#415,#416,#417,#418));
#88=EDGE_LOOP('',(#419));
#89=EDGE_LOOP('',(#420,#421,#422,#423));
#90=EDGE_LOOP('',(#424,#425,#426,#427,#428,#429,#430));
#91=EDGE_LOOP('',(#431,#432,#433,#434,#435,#436,#437,#438));
#92=EDGE_LOOP('',(#439));
#93=EDGE_LOOP('',(#440));
#94=LINE('',#638,#147);
#95=LINE('',#644,#148);
#96=LINE('',#649,#149);
#97=LINE('',#651,#150);
#98=LINE('',#653,#151);
#99=LINE('',#654,#152);
#100=LINE('',#657,#153);
#101=LINE('',#659,#154);
#102=LINE('',#660,#155);
#103=LINE('',#663,#156);
#104=LINE('',#665,#157);
#105=LINE('',#667,#158);
#106=LINE('',#669,#159);
#107=LINE('',#671,#160);
#108=LINE('',#673,#161);
#109=LINE('',#677,#162);
#110=LINE('',#679,#163);
#111=LINE('',#681,#164);
#112=LINE('',#682,#165);
#113=LINE('',#689,#166);
#114=LINE('',#693,#167);
#115=LINE('',#694,#168);
#116=LINE('',#698,#169);
#117=LINE('',#700,#170);
#118=LINE('',#702,#171);
#119=LINE('',#703,#172);
#120=LINE('',#708,#173);
#121=LINE('',#710,#174);
#122=LINE('',#712,#175);
#123=LINE('',#714,#176);
#124=LINE('',#715,#177);
#125=LINE('',#716,#178);
#126=LINE('',#718,#179);
#127=LINE('',#720,#180);
#128=LINE('',#722,#181);
#129=LINE('',#724,#182);
#130=LINE('',#726,#183);
#131=LINE('',#727,#184);
#132=LINE('',#730,#185);
#133=LINE('',#732,#186);
#134=LINE('',#733,#187);
#135=LINE('',#736,#188);
#136=LINE('',#737,#189);
#137=LINE('',#740,#190);
#138=LINE('',#741,#191);
#139=LINE('',#742,#192);
#140=LINE('',#744,#193);
#141=LINE('',#746,#194);
#142=LINE('',#747,#195);
#143=LINE('',#749,#196);
#144=LINE('',#753,#197);
#145=LINE('',#757,#198);
#146=LINE('',#759,#199);
#147=VECTOR('',#520,1.5);
#148=VECTOR('',#527,1.5);
#149=VECTOR('',#532,10.);
#150=VECTOR('',#533,10.);
#151=VECTOR('',#534,10.);
#152=VECTOR('',#535,10.);
#153=VECTOR('',#538,10.);
#154=VECTOR('',#539,10.);
#155=VECTOR('',#540,10.);
#156=VECTOR('',#543,10.);
#157=VECTOR('',#544,10.);
#158=VECTOR('',#545,10.);
#159=VECTOR('',#546,10.);
#160=VECTOR('',#547,10.);
#161=VECTOR('',#548,10.);
#162=VECTOR('',#551,10.);
#163=VECTOR('',#552,10.);
#164=VECTOR('',#553,10.);
#165=VECTOR('',#554,10.);
#166=VECTOR('',#561,10.);
#167=VECTOR('',#566,10.);
#168=VECTOR('',#567,10.);
#169=VECTOR('',#570,10.);
#170=VECTOR('',#571,10.);
#171=VECTOR('',#572,10.);
#172=VECTOR('',#573,10.);
#173=VECTOR('',#578,10.);
#174=VECTOR('',#579,10.);
#175=VECTOR('',#580,10.);
#176=VECTOR('',#581,10.);
#177=VECTOR('',#582,10.);
#178=VECTOR('',#583,10.);
#179=VECTOR('',#586,10.);
#180=VECTOR('',#587,10.);
#181=VECTOR('',#588,10.);
#182=VECTOR('',#589,10.);
#183=VECTOR('',#590,10.);
#184=VECTOR('',#591,10.);
#185=VECTOR('',#594,10.);
#186=VECTOR('',#595,10.);
#187=VECTOR('',#596,10.);
#188=VECTOR('',#599,10.);
#189=VECTOR('',#600,10.);
#190=VECTOR('',#603,10.);
#191=VECTOR('',#604,10.);
#192=VECTOR('',#605,10.);
#193=VECTOR('',#608,10.);
#194=VECTOR('',#611,10.);
#195=VECTOR('',#612,10.);
#196=VECTOR('',#615,10.);
#197=VECTOR('',#620,1.05000000000001);
#198=VECTOR('',#627,1.05000000000001);
#199=VECTOR('',#630,10.);
#200=CIRCLE('',#483,1.5);
#201=CIRCLE('',#484,1.5);
#202=CIRCLE('',#486,1.5);
#203=CIRCLE('',#487,1.5);
#204=CIRCLE('',#491,5.);
#205=CIRCLE('',#492,1.05000000000001);
#206=CIRCLE('',#493,1.05000000000001);
#207=CIRCLE('',#495,5.);
#208=CIRCLE('',#498,1.05000000000001);
#209=CIRCLE('',#509,1.05000000000001);
#210=VERTEX_POINT('',#635);
#211=VERTEX_POINT('',#637);
#212=VERTEX_POINT('',#641);
#213=VERTEX_POINT('',#643);
#214=VERTEX_POINT('',#647);
#215=VERTEX_POINT('',#648);
#216=VERTEX_POINT('',#650);
#217=VERTEX_POINT('',#652);
#218=VERTEX_POINT('',#656);
#219=VERTEX_POINT('',#658);
#220=VERTEX_POINT('',#662);
#221=VERTEX_POINT('',#664);
#222=VERTEX_POINT('',#666);
#223=VERTEX_POINT('',#668);
#224=VERTEX_POINT('',#670);
#225=VERTEX_POINT('',#672);
#226=VERTEX_POINT('',#675);
#227=VERTEX_POINT('',#676);
#228=VERTEX_POINT('',#678);
#229=VERTEX_POINT('',#680);
#230=VERTEX_POINT('',#683);
#231=VERTEX_POINT('',#685);
#232=VERTEX_POINT('',#688);
#233=VERTEX_POINT('',#692);
#234=VERTEX_POINT('',#696);
#235=VERTEX_POINT('',#697);
#236=VERTEX_POINT('',#699);
#237=VERTEX_POINT('',#701);
#238=VERTEX_POINT('',#704);
#239=VERTEX_POINT('',#707);
#240=VERTEX_POINT('',#709);
#241=VERTEX_POINT('',#711);
#242=VERTEX_POINT('',#713);
#243=VERTEX_POINT('',#719);
#244=VERTEX_POINT('',#721);
#245=VERTEX_POINT('',#723);
#246=VERTEX_POINT('',#725);
#247=VERTEX_POINT('',#729);
#248=VERTEX_POINT('',#731);
#249=VERTEX_POINT('',#735);
#250=VERTEX_POINT('',#739);
#251=VERTEX_POINT('',#752);
#252=EDGE_CURVE('',#210,#210,#200,.T.);
#253=EDGE_CURVE('',#210,#211,#94,.T.);
#254=EDGE_CURVE('',#211,#211,#201,.T.);
#255=EDGE_CURVE('',#212,#212,#202,.T.);
#256=EDGE_CURVE('',#212,#213,#95,.T.);
#257=EDGE_CURVE('',#213,#213,#203,.T.);
#258=EDGE_CURVE('',#214,#215,#96,.T.);
#259=EDGE_CURVE('',#216,#214,#97,.T.);
#260=EDGE_CURVE('',#217,#216,#98,.T.);
#261=EDGE_CURVE('',#215,#217,#99,.T.);
#262=EDGE_CURVE('',#216,#218,#100,.T.);
#263=EDGE_CURVE('',#219,#218,#101,.T.);
#264=EDGE_CURVE('',#219,#217,#102,.T.);
#265=EDGE_CURVE('',#220,#214,#103,.T.);
#266=EDGE_CURVE('',#221,#220,#104,.T.);
#267=EDGE_CURVE('',#221,#222,#105,.T.);
#268=EDGE_CURVE('',#223,#222,#106,.T.);
#269=EDGE_CURVE('',#224,#223,#107,.T.);
#270=EDGE_CURVE('',#224,#225,#108,.T.);
#271=EDGE_CURVE('',#218,#225,#204,.T.);
#272=EDGE_CURVE('',#226,#227,#109,.T.);
#273=EDGE_CURVE('',#227,#228,#110,.T.);
#274=EDGE_CURVE('',#228,#229,#111,.T.);
#275=EDGE_CURVE('',#226,#229,#112,.T.);
#276=EDGE_CURVE('',#230,#230,#205,.T.);
#277=EDGE_CURVE('',#231,#231,#206,.T.);
#278=EDGE_CURVE('',#225,#232,#113,.T.);
#279=EDGE_CURVE('',#232,#219,#207,.T.);
#280=EDGE_CURVE('',#233,#224,#114,.T.);
#281=EDGE_CURVE('',#232,#233,#115,.T.);
#282=EDGE_CURVE('',#234,#235,#116,.T.);
#283=EDGE_CURVE('',#235,#236,#117,.T.);
#284=EDGE_CURVE('',#236,#237,#118,.T.);
#285=EDGE_CURVE('',#234,#237,#119,.T.);
#286=EDGE_CURVE('',#238,#238,#208,.T.);
#287=EDGE_CURVE('',#236,#239,#120,.T.);
#288=EDGE_CURVE('',#240,#239,#121,.T.);
#289=EDGE_CURVE('',#241,#240,#122,.T.);
#290=EDGE_CURVE('',#242,#241,#123,.T.);
#291=EDGE_CURVE('',#242,#226,#124,.T.);
#292=EDGE_CURVE('',#229,#237,#125,.T.);
#293=EDGE_CURVE('',#234,#228,#126,.T.);
#294=EDGE_CURVE('',#227,#243,#127,.T.);
#295=EDGE_CURVE('',#244,#243,#128,.T.);
#296=EDGE_CURVE('',#245,#244,#129,.T.);
#297=EDGE_CURVE('',#246,#245,#130,.T.);
#298=EDGE_CURVE('',#246,#235,#131,.T.);
#299=EDGE_CURVE('',#247,#220,#132,.T.);
#300=EDGE_CURVE('',#247,#248,#133,.T.);
#301=EDGE_CURVE('',#221,#248,#134,.T.);
#302=EDGE_CURVE('',#222,#249,#135,.T.);
#303=EDGE_CURVE('',#249,#248,#136,.T.);
#304=EDGE_CURVE('',#245,#250,#137,.T.);
#305=EDGE_CURVE('',#250,#249,#138,.T.);
#306=EDGE_CURVE('',#247,#246,#139,.T.);
#307=EDGE_CURVE('',#223,#250,#140,.T.);
#308=EDGE_CURVE('',#244,#241,#141,.T.);
#309=EDGE_CURVE('',#240,#233,#142,.T.);
#310=EDGE_CURVE('',#242,#243,#143,.T.);
#311=EDGE_CURVE('',#231,#251,#144,.T.);
#312=EDGE_CURVE('',#251,#251,#209,.T.);
#313=EDGE_CURVE('',#230,#238,#145,.T.);
#314=EDGE_CURVE('',#239,#215,#146,.T.);
#315=ORIENTED_EDGE('',*,*,#252,.F.);
#316=ORIENTED_EDGE('',*,*,#253,.T.);
#317=ORIENTED_EDGE('',*,*,#254,.F.);
#318=ORIENTED_EDGE('',*,*,#253,.F.);
#319=ORIENTED_EDGE('',*,*,#255,.F.);
#320=ORIENTED_EDGE('',*,*,#256,.T.);
#321=ORIENTED_EDGE('',*,*,#257,.F.);
#322=ORIENTED_EDGE('',*,*,#256,.F.);
#323=ORIENTED_EDGE('',*,*,#258,.F.);
#324=ORIENTED_EDGE('',*,*,#259,.F.);
#325=ORIENTED_EDGE('',*,*,#260,.F.);
#326=ORIENTED_EDGE('',*,*,#261,.F.);
#327=ORIENTED_EDGE('',*,*,#260,.T.);
#328=ORIENTED_EDGE('',*,*,#262,.T.);
#329=ORIENTED_EDGE('',*,*,#263,.F.);
#330=ORIENTED_EDGE('',*,*,#264,.T.);
#331=ORIENTED_EDGE('',*,*,#252,.T.);
#332=ORIENTED_EDGE('',*,*,#255,.T.);
#333=ORIENTED_EDGE('',*,*,#259,.T.);
#334=ORIENTED_EDGE('',*,*,#265,.F.);
#335=ORIENTED_EDGE('',*,*,#266,.F.);
#336=ORIENTED_EDGE('',*,*,#267,.T.);
#337=ORIENTED_EDGE('',*,*,#268,.F.);
#338=ORIENTED_EDGE('',*,*,#269,.F.);
#339=ORIENTED_EDGE('',*,*,#270,.T.);
#340=ORIENTED_EDGE('',*,*,#271,.F.);
#341=ORIENTED_EDGE('',*,*,#262,.F.);
#342=ORIENTED_EDGE('',*,*,#272,.T.);
#343=ORIENTED_EDGE('',*,*,#273,.T.);
#344=ORIENTED_EDGE('',*,*,#274,.T.);
#345=ORIENTED_EDGE('',*,*,#275,.F.);
#346=ORIENTED_EDGE('',*,*,#276,.T.);
#347=ORIENTED_EDGE('',*,*,#277,.T.);
#348=ORIENTED_EDGE('',*,*,#271,.T.);
#349=ORIENTED_EDGE('',*,*,#278,.T.);
#350=ORIENTED_EDGE('',*,*,#279,.T.);
#351=ORIENTED_EDGE('',*,*,#263,.T.);
#352=ORIENTED_EDGE('',*,*,#278,.F.);
#353=ORIENTED_EDGE('',*,*,#270,.F.);
#354=ORIENTED_EDGE('',*,*,#280,.F.);
#355=ORIENTED_EDGE('',*,*,#281,.F.);
#356=ORIENTED_EDGE('',*,*,#282,.T.);
#357=ORIENTED_EDGE('',*,*,#283,.T.);
#358=ORIENTED_EDGE('',*,*,#284,.T.);
#359=ORIENTED_EDGE('',*,*,#285,.F.);
#360=ORIENTED_EDGE('',*,*,#286,.T.);
#361=ORIENTED_EDGE('',*,*,#284,.F.);
#362=ORIENTED_EDGE('',*,*,#287,.T.);
#363=ORIENTED_EDGE('',*,*,#288,.F.);
#364=ORIENTED_EDGE('',*,*,#289,.F.);
#365=ORIENTED_EDGE('',*,*,#290,.F.);
#366=ORIENTED_EDGE('',*,*,#291,.T.);
#367=ORIENTED_EDGE('',*,*,#275,.T.);
#368=ORIENTED_EDGE('',*,*,#292,.T.);
#369=ORIENTED_EDGE('',*,*,#282,.F.);
#370=ORIENTED_EDGE('',*,*,#293,.T.);
#371=ORIENTED_EDGE('',*,*,#273,.F.);
#372=ORIENTED_EDGE('',*,*,#294,.T.);
#373=ORIENTED_EDGE('',*,*,#295,.F.);
#374=ORIENTED_EDGE('',*,*,#296,.F.);
#375=ORIENTED_EDGE('',*,*,#297,.F.);
#376=ORIENTED_EDGE('',*,*,#298,.T.);
#377=ORIENTED_EDGE('',*,*,#299,.F.);
#378=ORIENTED_EDGE('',*,*,#300,.T.);
#379=ORIENTED_EDGE('',*,*,#301,.F.);
#380=ORIENTED_EDGE('',*,*,#266,.T.);
#381=ORIENTED_EDGE('',*,*,#302,.F.);
#382=ORIENTED_EDGE('',*,*,#267,.F.);
#383=ORIENTED_EDGE('',*,*,#301,.T.);
#384=ORIENTED_EDGE('',*,*,#303,.F.);
#385=ORIENTED_EDGE('',*,*,#304,.T.);
#386=ORIENTED_EDGE('',*,*,#305,.T.);
#387=ORIENTED_EDGE('',*,*,#303,.T.);
#388=ORIENTED_EDGE('',*,*,#300,.F.);
#389=ORIENTED_EDGE('',*,*,#306,.T.);
#390=ORIENTED_EDGE('',*,*,#297,.T.);
#391=ORIENTED_EDGE('',*,*,#302,.T.);
#392=ORIENTED_EDGE('',*,*,#305,.F.);
#393=ORIENTED_EDGE('',*,*,#307,.F.);
#394=ORIENTED_EDGE('',*,*,#268,.T.);
#395=ORIENTED_EDGE('',*,*,#269,.T.);
#396=ORIENTED_EDGE('',*,*,#307,.T.);
#397=ORIENTED_EDGE('',*,*,#304,.F.);
#398=ORIENTED_EDGE('',*,*,#296,.T.);
#399=ORIENTED_EDGE('',*,*,#308,.T.);
#400=ORIENTED_EDGE('',*,*,#289,.T.);
#401=ORIENTED_EDGE('',*,*,#309,.T.);
#402=ORIENTED_EDGE('',*,*,#280,.T.);
#403=ORIENTED_EDGE('',*,*,#310,.T.);
#404=ORIENTED_EDGE('',*,*,#294,.F.);
#405=ORIENTED_EDGE('',*,*,#272,.F.);
#406=ORIENTED_EDGE('',*,*,#291,.F.);
#407=ORIENTED_EDGE('',*,*,#285,.T.);
#408=ORIENTED_EDGE('',*,*,#292,.F.);
#409=ORIENTED_EDGE('',*,*,#274,.F.);
#410=ORIENTED_EDGE('',*,*,#293,.F.);
#411=ORIENTED_EDGE('',*,*,#277,.F.);
#412=ORIENTED_EDGE('',*,*,#311,.T.);
#413=ORIENTED_EDGE('',*,*,#312,.F.);
#414=ORIENTED_EDGE('',*,*,#311,.F.);
#415=ORIENTED_EDGE('',*,*,#310,.F.);
#416=ORIENTED_EDGE('',*,*,#290,.T.);
#417=ORIENTED_EDGE('',*,*,#308,.F.);
#418=ORIENTED_EDGE('',*,*,#295,.T.);
#419=ORIENTED_EDGE('',*,*,#312,.T.);
#420=ORIENTED_EDGE('',*,*,#276,.F.);
#421=ORIENTED_EDGE('',*,*,#313,.T.);
#422=ORIENTED_EDGE('',*,*,#286,.F.);
#423=ORIENTED_EDGE('',*,*,#313,.F.);
#424=ORIENTED_EDGE('',*,*,#261,.T.);
#425=ORIENTED_EDGE('',*,*,#264,.F.);
#426=ORIENTED_EDGE('',*,*,#279,.F.);
#427=ORIENTED_EDGE('',*,*,#281,.T.);
#428=ORIENTED_EDGE('',*,*,#309,.F.);
#429=ORIENTED_EDGE('',*,*,#288,.T.);
#430=ORIENTED_EDGE('',*,*,#314,.T.);
#431=ORIENTED_EDGE('',*,*,#258,.T.);
#432=ORIENTED_EDGE('',*,*,#314,.F.);
#433=ORIENTED_EDGE('',*,*,#287,.F.);
#434=ORIENTED_EDGE('',*,*,#283,.F.);
#435=ORIENTED_EDGE('',*,*,#298,.F.);
#436=ORIENTED_EDGE('',*,*,#306,.F.);
#437=ORIENTED_EDGE('',*,*,#299,.T.);
#438=ORIENTED_EDGE('',*,*,#265,.T.);
#439=ORIENTED_EDGE('',*,*,#254,.T.);
#440=ORIENTED_EDGE('',*,*,#257,.T.);
#441=CYLINDRICAL_SURFACE('',#482,1.5);
#442=CYLINDRICAL_SURFACE('',#485,1.5);
#443=CYLINDRICAL_SURFACE('',#494,5.);
#444=CYLINDRICAL_SURFACE('',#508,1.05000000000001);
#445=CYLINDRICAL_SURFACE('',#511,1.05000000000001);
#446=ADVANCED_FACE('',(#41),#441,.F.);
#447=ADVANCED_FACE('',(#42),#442,.F.);
#448=ADVANCED_FACE('',(#43),#24,.F.);
#449=ADVANCED_FACE('',(#44,#15,#16),#25,.T.);
#450=ADVANCED_FACE('',(#45,#17,#18,#19),#26,.T.);
#451=ADVANCED_FACE('',(#46),#443,.F.);
#452=ADVANCED_FACE('',(#47),#27,.F.);
#453=ADVANCED_FACE('',(#48,#20),#28,.F.);
#454=ADVANCED_FACE('',(#49),#29,.T.);
#455=ADVANCED_FACE('',(#50),#30,.T.);
#456=ADVANCED_FACE('',(#51),#31,.F.);
#457=ADVANCED_FACE('',(#52),#32,.F.);
#458=ADVANCED_FACE('',(#53),#33,.T.);
#459=ADVANCED_FACE('',(#54),#34,.T.);
#460=ADVANCED_FACE('',(#55),#35,.T.);
#461=ADVANCED_FACE('',(#56),#36,.F.);
#462=ADVANCED_FACE('',(#57),#37,.F.);
#463=ADVANCED_FACE('',(#58),#444,.F.);
#464=ADVANCED_FACE('',(#59,#21),#38,.F.);
#465=ADVANCED_FACE('',(#60),#445,.F.);
#466=ADVANCED_FACE('',(#61),#39,.T.);
#467=ADVANCED_FACE('',(#62,#22,#23),#40,.F.);
#468=CLOSED_SHELL('',(#446,#447,#448,#449,#450,#451,#452,#453,#454,#455,
#456,#457,#458,#459,#460,#461,#462,#463,#464,#465,#466,#467));
#469=DERIVED_UNIT_ELEMENT(#471,1.);
#470=DERIVED_UNIT_ELEMENT(#766,-3.);
#471=(
MASS_UNIT()
NAMED_UNIT(*)
SI_UNIT(.KILO.,.GRAM.)
);
#472=DERIVED_UNIT((#469,#470));
#473=MEASURE_REPRESENTATION_ITEM('density measure',
POSITIVE_RATIO_MEASURE(7850.),#472);
#474=PROPERTY_DEFINITION_REPRESENTATION(#479,#476);
#475=PROPERTY_DEFINITION_REPRESENTATION(#480,#477);
#476=REPRESENTATION('material name',(#478),#763);
#477=REPRESENTATION('density',(#473),#763);
#478=DESCRIPTIVE_REPRESENTATION_ITEM('Steel','Steel');
#479=PROPERTY_DEFINITION('material property','material name',#773);
#480=PROPERTY_DEFINITION('material property','density of part',#773);
#481=AXIS2_PLACEMENT_3D('',#633,#514,#515);
#482=AXIS2_PLACEMENT_3D('',#634,#516,#517);
#483=AXIS2_PLACEMENT_3D('',#636,#518,#519);
#484=AXIS2_PLACEMENT_3D('',#639,#521,#522);
#485=AXIS2_PLACEMENT_3D('',#640,#523,#524);
#486=AXIS2_PLACEMENT_3D('',#642,#525,#526);
#487=AXIS2_PLACEMENT_3D('',#645,#528,#529);
#488=AXIS2_PLACEMENT_3D('',#646,#530,#531);
#489=AXIS2_PLACEMENT_3D('',#655,#536,#537);
#490=AXIS2_PLACEMENT_3D('',#661,#541,#542);
#491=AXIS2_PLACEMENT_3D('',#674,#549,#550);
#492=AXIS2_PLACEMENT_3D('',#684,#555,#556);
#493=AXIS2_PLACEMENT_3D('',#686,#557,#558);
#494=AXIS2_PLACEMENT_3D('',#687,#559,#560);
#495=AXIS2_PLACEMENT_3D('',#690,#562,#563);
#496=AXIS2_PLACEMENT_3D('',#691,#564,#565);
#497=AXIS2_PLACEMENT_3D('',#695,#568,#569);
#498=AXIS2_PLACEMENT_3D('',#705,#574,#575);
#499=AXIS2_PLACEMENT_3D('',#706,#576,#577);
#500=AXIS2_PLACEMENT_3D('',#717,#584,#585);
#501=AXIS2_PLACEMENT_3D('',#728,#592,#593);
#502=AXIS2_PLACEMENT_3D('',#734,#597,#598);
#503=AXIS2_PLACEMENT_3D('',#738,#601,#602);
#504=AXIS2_PLACEMENT_3D('',#743,#606,#607);
#505=AXIS2_PLACEMENT_3D('',#745,#609,#610);
#506=AXIS2_PLACEMENT_3D('',#748,#613,#614);
#507=AXIS2_PLACEMENT_3D('',#750,#616,#617);
#508=AXIS2_PLACEMENT_3D('',#751,#618,#619);
#509=AXIS2_PLACEMENT_3D('',#754,#621,#622);
#510=AXIS2_PLACEMENT_3D('',#755,#623,#624);
#511=AXIS2_PLACEMENT_3D('',#756,#625,#626);
#512=AXIS2_PLACEMENT_3D('',#758,#628,#629);
#513=AXIS2_PLACEMENT_3D('',#760,#631,#632);
#514=DIRECTION('axis',(0.,0.,1.));
#515=DIRECTION('refdir',(1.,0.,0.));
#516=DIRECTION('center_axis',(0.,0.,1.));
#517=DIRECTION('ref_axis',(1.,0.,0.));
#518=DIRECTION('center_axis',(0.,0.,1.));
#519=DIRECTION('ref_axis',(1.,0.,0.));
#520=DIRECTION('',(0.,0.,1.));
#521=DIRECTION('center_axis',(0.,0.,-1.));
#522=DIRECTION('ref_axis',(1.,0.,0.));
#523=DIRECTION('center_axis',(0.,0.,1.));
#524=DIRECTION('ref_axis',(1.,0.,0.));
#525=DIRECTION('center_axis',(0.,0.,1.));
#526=DIRECTION('ref_axis',(1.,0.,0.));
#527=DIRECTION('',(0.,0.,1.));
#528=DIRECTION('center_axis',(0.,0.,-1.));
#529=DIRECTION('ref_axis',(1.,0.,0.));
#530=DIRECTION('center_axis',(0.,1.,0.));
#531=DIRECTION('ref_axis',(0.,0.,1.));
#532=DIRECTION('',(1.,0.,0.));
#533=DIRECTION('',(0.,0.,1.));
#534=DIRECTION('',(-1.,0.,0.));
#535=DIRECTION('',(0.,0.,-1.));
#536=DIRECTION('center_axis',(0.,0.,-1.));
#537=DIRECTION('ref_axis',(-1.,0.,0.));
#538=DIRECTION('',(0.,1.,0.));
#539=DIRECTION('',(-1.,-1.04360964314765E-14,0.));
#540=DIRECTION('',(0.,-1.,0.));
#541=DIRECTION('center_axis',(-1.,0.,0.));
#542=DIRECTION('ref_axis',(0.,1.,0.));
#543=DIRECTION('',(0.,-1.,0.));
#544=DIRECTION('',(4.31138895803302E-16,0.,1.));
#545=DIRECTION('',(-1.05160162135114E-14,1.,0.));
#546=DIRECTION('',(-2.22044604925031E-16,-3.33066907387548E-15,1.));
#547=DIRECTION('',(-1.05160162135114E-14,1.,-2.30783204404543E-30));
#548=DIRECTION('',(4.3113889580334E-16,-3.5527136788005E-15,1.));
#549=DIRECTION('center_axis',(-1.,0.,0.));
#550=DIRECTION('ref_axis',(-7.53644380168212E-15,0.707106781186547,0.707106781186547));
#551=DIRECTION('',(-1.05160162135114E-14,1.,-2.30783204404543E-30));
#552=DIRECTION('',(4.31138895803302E-16,7.07956512430688E-30,1.));
#553=DIRECTION('',(1.05160162135114E-14,-1.,2.30783204404543E-30));
#554=DIRECTION('',(4.31138895803346E-16,-4.20643506224438E-15,1.));
#555=DIRECTION('center_axis',(1.,1.05160162135114E-14,1.295031404676E-17));
#556=DIRECTION('ref_axis',(1.05160162135114E-14,-1.,-8.76223111179418E-29));
#557=DIRECTION('center_axis',(1.,1.05160162135114E-14,1.295031404676E-17));
#558=DIRECTION('ref_axis',(1.05160162135114E-14,-1.,-8.76223111179418E-29));
#559=DIRECTION('center_axis',(1.,1.04360964314765E-14,0.));
#560=DIRECTION('ref_axis',(-7.53644380168212E-15,0.707106781186547,0.707106781186547));
#561=DIRECTION('',(1.,1.04360964314765E-14,0.));
#562=DIRECTION('center_axis',(1.,0.,0.));
#563=DIRECTION('ref_axis',(-7.53644380168212E-15,0.707106781186547,0.707106781186547));
#564=DIRECTION('center_axis',(-1.04360964314765E-14,1.,3.5527136788005E-15));
#565=DIRECTION('ref_axis',(0.,-3.5527136788005E-15,1.));
#566=DIRECTION('',(-1.,-1.04360964314765E-14,-2.22044604925032E-16));
#567=DIRECTION('',(-3.76977777716236E-29,3.5527136788005E-15,-1.));
#568=DIRECTION('center_axis',(-1.,-1.05160162135114E-14,4.31138895803302E-16));
#569=DIRECTION('ref_axis',(1.05160162135114E-14,-1.,-8.76223111179418E-29));
#570=DIRECTION('',(-2.22044604925031E-16,-3.33066907387548E-15,1.));
#571=DIRECTION('',(1.05160162135114E-14,-1.,0.));
#572=DIRECTION('',(1.29503140467161E-17,4.21425863417404E-15,-1.));
#573=DIRECTION('',(9.10382880192632E-15,-1.,1.99426344815991E-30));
#574=DIRECTION('center_axis',(-1.,-1.05160162135114E-14,-1.295031404676E-17));
#575=DIRECTION('ref_axis',(1.05160162135114E-14,-1.,-8.76223111179418E-29));
#576=DIRECTION('center_axis',(-1.04360964314765E-14,1.,4.20643506224438E-15));
#577=DIRECTION('ref_axis',(4.31138895803346E-16,-4.20643506224438E-15,1.));
#578=DIRECTION('',(1.,1.04360964314765E-14,0.));
#579=DIRECTION('',(4.46344030292903E-29,-4.20643506224438E-15,1.));
#580=DIRECTION('',(1.,9.10382880192628E-15,2.22044604925029E-16));
#581=DIRECTION('',(1.2950314046736E-17,2.34111940823167E-15,-1.));
#582=DIRECTION('',(-1.,-1.04360964314765E-14,-2.22044604925031E-16));
#583=DIRECTION('',(1.,1.04360964314765E-14,2.22044604925031E-16));
#584=DIRECTION('center_axis',(1.08801856413265E-14,-1.,-1.79290674784187E-15));
#585=DIRECTION('ref_axis',(-4.31138895803321E-16,1.79290674784186E-15,-1.));
#586=DIRECTION('',(-1.,-1.08801856413265E-14,-2.22044604925031E-16));
#587=DIRECTION('',(1.,1.08801856413265E-14,2.22044604925031E-16));
#588=DIRECTION('',(-2.22044604925031E-16,-2.71926214689378E-32,1.));
#589=DIRECTION('',(-1.,-9.10382880192632E-15,-2.22044604925029E-16));
#590=DIRECTION('',(2.22044604925031E-16,2.71926214689378E-32,-1.));
#591=DIRECTION('',(-1.,-1.08801856413265E-14,0.));
#592=DIRECTION('center_axis',(0.,-1.,0.));
#593=DIRECTION('ref_axis',(0.,0.,-1.));
#594=DIRECTION('',(-1.,0.,0.));
#595=DIRECTION('',(0.,0.,-1.));
#596=DIRECTION('',(1.,0.,0.));
#597=DIRECTION('center_axis',(0.,0.,-1.));
#598=DIRECTION('ref_axis',(1.,0.,0.));
#599=DIRECTION('',(1.,1.06581410364015E-14,0.));
#600=DIRECTION('',(1.05160162135114E-14,-1.,2.30783204404543E-30));
#601=DIRECTION('center_axis',(1.,1.06109811203112E-14,0.));
#602=DIRECTION('ref_axis',(-1.06109811203112E-14,1.,0.));
#603=DIRECTION('',(-1.05160162135114E-14,1.,-2.30783204404543E-30));
#604=DIRECTION('',(4.31138895803322E-16,-1.930822651522E-15,1.));
#605=DIRECTION('',(1.06109811203112E-14,-1.,0.));
#606=DIRECTION('center_axis',(-1.08801856413265E-14,1.,1.93082265152201E-15));
#607=DIRECTION('ref_axis',(4.31138895803322E-16,-1.930822651522E-15,1.));
#608=DIRECTION('',(1.,1.06581410364015E-14,0.));
#609=DIRECTION('center_axis',(2.2204460492501E-16,2.11471052309563E-15,
-1.));
#610=DIRECTION('ref_axis',(1.05160162135114E-14,-1.,-2.11471052309563E-15));
#611=DIRECTION('',(9.10382880192632E-15,-1.,-2.11471052309563E-15));
#612=DIRECTION('',(1.06109811203112E-14,-1.,2.30783204404543E-30));
#613=DIRECTION('center_axis',(2.22044604925031E-16,2.71926214689378E-32,
-1.));
#614=DIRECTION('ref_axis',(2.22044604925031E-16,-1.,2.21111851073754E-32));
#615=DIRECTION('',(-9.10382880192628E-15,1.,-1.9942634481599E-30));
#616=DIRECTION('center_axis',(-2.22044604925031E-16,-2.71926214689378E-32,
1.));
#617=DIRECTION('ref_axis',(-2.22044604925031E-16,1.,-2.21111851073754E-32));
#618=DIRECTION('center_axis',(-1.,-1.02140518265514E-14,-2.22044604925031E-16));
#619=DIRECTION('ref_axis',(1.02140518265514E-14,-1.,-8.76893606809458E-29));
#620=DIRECTION('',(1.,1.02140518265514E-14,2.22044604925031E-16));
#621=DIRECTION('center_axis',(-1.,-1.05160162135114E-14,-1.295031404676E-17));
#622=DIRECTION('ref_axis',(1.05160162135114E-14,-1.,-8.76223111179418E-29));
#623=DIRECTION('center_axis',(-1.,-1.05160162135114E-14,4.31138895803303E-16));
#624=DIRECTION('ref_axis',(1.05160162135114E-14,-1.,-8.76223111179418E-29));
#625=DIRECTION('center_axis',(-1.,-1.02140518265514E-14,-2.22044604925031E-16));
#626=DIRECTION('ref_axis',(1.02140518265514E-14,-1.,-8.76893606809458E-29));
#627=DIRECTION('',(1.,1.02140518265514E-14,2.22044604925031E-16));
#628=DIRECTION('center_axis',(1.,0.,0.));
#629=DIRECTION('ref_axis',(0.,-1.,0.));
#630=DIRECTION('',(1.06109811203112E-14,-1.,0.));
#631=DIRECTION('center_axis',(0.,0.,-1.));
#632=DIRECTION('ref_axis',(1.,0.,0.));
#633=CARTESIAN_POINT('',(0.,0.,0.));
#634=CARTESIAN_POINT('Origin',(18.4500000000001,19.408876698821,276.482302798403));
#635=CARTESIAN_POINT('',(16.9500000000001,19.408876698821,276.482302798403));
#636=CARTESIAN_POINT('Origin',(18.4500000000001,19.408876698821,276.482302798403));
#637=CARTESIAN_POINT('',(16.9500000000001,19.408876698821,278.482302798403));
#638=CARTESIAN_POINT('',(16.9500000000001,19.408876698821,276.482302798403));
#639=CARTESIAN_POINT('Origin',(18.4500000000001,19.408876698821,278.482302798403));
#640=CARTESIAN_POINT('Origin',(18.4500000000001,2.15391790435322,276.482302798403));
#641=CARTESIAN_POINT('',(16.9500000000001,2.15391790435322,276.482302798403));
#642=CARTESIAN_POINT('Origin',(18.4500000000001,2.15391790435322,276.482302798403));
#643=CARTESIAN_POINT('',(16.9500000000001,2.15391790435322,278.482302798403));
#644=CARTESIAN_POINT('',(16.9500000000001,2.15391790435322,276.482302798403));
#645=CARTESIAN_POINT('Origin',(18.4500000000001,2.15391790435322,278.482302798403));
#646=CARTESIAN_POINT('Origin',(23.4500000000003,-0.169920329077864,278.482302798403));
#647=CARTESIAN_POINT('',(13.4499999999999,-0.169920329077864,278.482302798403));
#648=CARTESIAN_POINT('',(23.4500000000003,-0.169920329077864,278.482302798403));
#649=CARTESIAN_POINT('',(20.9500000000002,-0.169920329077864,278.482302798403));
#650=CARTESIAN_POINT('',(13.4499999999999,-0.169920329077864,276.482302798403));
#651=CARTESIAN_POINT('',(13.4499999999999,-0.169920329077864,278.482302798403));
#652=CARTESIAN_POINT('',(23.4500000000003,-0.169920329077864,276.482302798403));
#653=CARTESIAN_POINT('',(20.9500000000002,-0.169920329077864,276.482302798403));
#654=CARTESIAN_POINT('',(23.4500000000003,-0.169920329077864,278.482302798403));
#655=CARTESIAN_POINT('Origin',(18.4500000000001,5.78942053033979,276.482302798403));
#656=CARTESIAN_POINT('',(13.4499999999999,22.7487613897574,276.482302798403));
#657=CARTESIAN_POINT('',(13.4499999999999,27.7487613897574,276.482302798403));
#658=CARTESIAN_POINT('',(23.4500000000003,22.7487613897575,276.482302798403));
#659=CARTESIAN_POINT('',(15.95,22.7487613897574,276.482302798403));
#660=CARTESIAN_POINT('',(23.4500000000003,-16.1699203290779,276.482302798403));
#661=CARTESIAN_POINT('Origin',(13.4499999999999,-16.1699203290779,278.482302798403));
#662=CARTESIAN_POINT('',(13.4499999999999,50.0000009685755,278.482302798403));
#663=CARTESIAN_POINT('',(13.4499999999999,27.7487613897574,278.482302798403));
#664=CARTESIAN_POINT('',(13.4499999999998,50.0000009685755,273.482302798403));
#665=CARTESIAN_POINT('',(13.4499999999998,50.0000009685755,271.796802798403));
#666=CARTESIAN_POINT('',(13.4499999999999,50.3487613897574,273.482302798403));
#667=CARTESIAN_POINT('',(13.45,39.0487613897569,273.482302798403));
#668=CARTESIAN_POINT('',(13.4499999999998,50.3487613897565,240.282302798403));
#669=CARTESIAN_POINT('',(13.4499999999998,50.3487613897565,272.482302798403));
#670=CARTESIAN_POINT('',(13.4500000000001,27.7487613897565,240.282302798403));
#671=CARTESIAN_POINT('',(13.4499999999999,45.3487613897565,240.282302798403));
#672=CARTESIAN_POINT('',(13.4500000000001,27.7487613897574,271.482302798403));
#673=CARTESIAN_POINT('',(13.4500000000001,27.7487613897574,271.296802798403));
#674=CARTESIAN_POINT('Origin',(13.4499999999995,22.7487613897574,271.482302798403));
#675=CARTESIAN_POINT('',(13.45,32.2487613897565,244.582577031497));
#676=CARTESIAN_POINT('',(13.4499999999999,45.8487613897565,244.582577031497));
#677=CARTESIAN_POINT('',(13.45,35.8987613897565,244.582577031497));
#678=CARTESIAN_POINT('',(13.4499999999999,45.8487613897565,268.182302798403));
#679=CARTESIAN_POINT('',(13.4499999999999,45.8487613897565,268.896802798403));
#680=CARTESIAN_POINT('',(13.45,32.2487613897564,268.182302798403));
#681=CARTESIAN_POINT('',(13.4499999999999,42.1987613897565,268.182302798403));
#682=CARTESIAN_POINT('',(13.45,32.2487613897565,240.282302798403));
#683=CARTESIAN_POINT('',(13.4499999999999,40.0987613897565,270.282302798403));
#684=CARTESIAN_POINT('Origin',(13.45,39.0487613897565,270.282302798403));
#685=CARTESIAN_POINT('',(13.45,40.0987613897565,242.482302798403));
#686=CARTESIAN_POINT('Origin',(13.45,39.0487613897565,242.482302798403));
#687=CARTESIAN_POINT('Origin',(15.95,22.7487613897574,271.482302798403));
#688=CARTESIAN_POINT('',(23.4500000000001,27.7487613897575,271.482302798403));
#689=CARTESIAN_POINT('',(15.95,27.7487613897574,271.482302798403));
#690=CARTESIAN_POINT('Origin',(23.4500000000004,22.7487613897575,271.482302798403));
#691=CARTESIAN_POINT('Origin',(13.4500000000001,27.7487613897574,272.482302798403));
#692=CARTESIAN_POINT('',(23.4500000000001,27.7487613897566,240.282302798403));
#693=CARTESIAN_POINT('',(14.4500000000001,27.7487613897575,240.282302798403));
#694=CARTESIAN_POINT('',(23.4500000000001,27.7487613897575,272.982302798403));
#695=CARTESIAN_POINT('Origin',(15.45,39.0487613897565,270.111302798403));
#696=CARTESIAN_POINT('',(15.4499999999999,45.8487613897565,268.182302798403));
#697=CARTESIAN_POINT('',(15.4499999999999,45.8487613897565,278.482302798403));
#698=CARTESIAN_POINT('',(15.4499999999999,45.8487613897565,272.482302798403));
#699=CARTESIAN_POINT('',(15.45,32.2487613897564,278.482302798403));
#700=CARTESIAN_POINT('',(15.45,39.5243809929015,278.482302798403));
#701=CARTESIAN_POINT('',(15.45,32.2487613897565,268.182302798403));
#702=CARTESIAN_POINT('',(15.45,32.2487613897565,267.740302798403));
#703=CARTESIAN_POINT('',(15.4499999999999,45.3487613897565,268.182302798403));
#704=CARTESIAN_POINT('',(15.4499999999999,40.0987613897565,270.282302798403));
#705=CARTESIAN_POINT('Origin',(15.45,39.0487613897565,270.282302798403));
#706=CARTESIAN_POINT('Origin',(13.45,32.2487613897565,245.024577031497));
#707=CARTESIAN_POINT('',(23.4500000000001,32.2487613897565,278.482302798403));
#708=CARTESIAN_POINT('',(15.4750001303852,32.2487613897564,278.482302798403));
#709=CARTESIAN_POINT('',(23.4500000000001,32.2487613897566,240.282302798403));
#710=CARTESIAN_POINT('',(23.4500000000001,32.2487613897566,259.25343991495));
#711=CARTESIAN_POINT('',(15.45,32.2487613897566,240.282302798403));
#712=CARTESIAN_POINT('',(14.45,32.2487613897565,240.282302798403));
#713=CARTESIAN_POINT('',(15.45,32.2487613897566,244.582577031497));
#714=CARTESIAN_POINT('',(15.45,32.2487613897566,245.024577031497));
#715=CARTESIAN_POINT('',(14.45,32.2487613897565,244.582577031497));
#716=CARTESIAN_POINT('',(14.45,32.2487613897564,268.182302798403));
#717=CARTESIAN_POINT('Origin',(13.4499999999999,45.8487613897565,267.740302798403));
#718=CARTESIAN_POINT('',(14.4499999999999,45.8487613897565,268.182302798403));
#719=CARTESIAN_POINT('',(15.4499999999999,45.8487613897565,244.582577031497));
#720=CARTESIAN_POINT('',(14.4499999999999,45.8487613897565,244.582577031497));
#721=CARTESIAN_POINT('',(15.4499999999999,45.8487613897565,240.282302798403));
#722=CARTESIAN_POINT('',(15.4499999999999,45.8487613897565,245.024577031497));
#723=CARTESIAN_POINT('',(23.4499999999999,45.8487613897566,240.282302798403));
#724=CARTESIAN_POINT('',(14.4499999999999,45.8487613897565,240.282302798403));
#725=CARTESIAN_POINT('',(23.4499999999999,45.8487613897566,278.482302798403));
#726=CARTESIAN_POINT('',(23.4499999999999,45.8487613897566,250.73243991495));
#727=CARTESIAN_POINT('',(15.4750001303851,45.8487613897565,278.482302798403));
#728=CARTESIAN_POINT('Origin',(25.000000372529,50.0000009685755,273.482302798403));
#729=CARTESIAN_POINT('',(23.4499999999999,50.0000009685755,278.482302798403));
#730=CARTESIAN_POINT('',(21.2500003166497,50.0000009685755,278.482302798403));
#731=CARTESIAN_POINT('',(23.4499999999998,50.0000009685755,273.482302798403));
#732=CARTESIAN_POINT('',(23.4499999999999,50.0000009685755,273.482302798403));
#733=CARTESIAN_POINT('',(10.0000001490116,50.0000009685755,273.482302798403));
#734=CARTESIAN_POINT('Origin',(10.0000001490116,65.0000009685755,273.482302798403));
#735=CARTESIAN_POINT('',(23.4499999999998,50.3487613897566,273.482302798403));
#736=CARTESIAN_POINT('',(18.4499999999998,50.3487613897565,273.482302798403));
#737=CARTESIAN_POINT('',(23.4499999999999,45.3487613897566,273.482302798403));
#738=CARTESIAN_POINT('Origin',(23.4500000000001,27.7487613897575,273.482302798403));
#739=CARTESIAN_POINT('',(23.4499999999998,50.3487613897566,240.282302798403));
#740=CARTESIAN_POINT('',(23.4499999999999,45.3487613897566,240.282302798403));
#741=CARTESIAN_POINT('',(23.4499999999998,50.3487613897566,272.482302798403));
#742=CARTESIAN_POINT('',(23.4500000000001,33.874380992902,278.482302798403));
#743=CARTESIAN_POINT('Origin',(13.4499999999998,50.3487613897565,240.282302798403));
#744=CARTESIAN_POINT('',(18.4499999999998,50.3487613897566,240.282302798403));
#745=CARTESIAN_POINT('Origin',(15.45,38.4487613897566,240.282302798403));
#746=CARTESIAN_POINT('',(15.4499999999999,41.8987613897566,240.282302798403));
#747=CARTESIAN_POINT('',(23.4500000000002,21.3737613897566,240.282302798403));
#748=CARTESIAN_POINT('Origin',(15.45,32.7487613897566,244.582577031497));
#749=CARTESIAN_POINT('',(15.45,32.7487613897566,244.582577031497));
#750=CARTESIAN_POINT('Origin',(15.4499999999999,45.3487613897565,268.182302798403));
#751=CARTESIAN_POINT('Origin',(15.45,39.0487613897566,242.482302798403));
#752=CARTESIAN_POINT('',(15.45,40.0987613897566,242.482302798403));
#753=CARTESIAN_POINT('',(15.45,40.0987613897566,242.482302798403));
#754=CARTESIAN_POINT('Origin',(15.45,39.0487613897566,242.482302798403));
#755=CARTESIAN_POINT('Origin',(15.45,39.0487613897565,242.65343991495));
#756=CARTESIAN_POINT('Origin',(15.45,39.0487613897565,270.282302798403));
#757=CARTESIAN_POINT('',(15.4499999999999,40.0987613897565,270.282302798403));
#758=CARTESIAN_POINT('Origin',(23.4500000000003,27.7487613897574,278.482302798403));
#759=CARTESIAN_POINT('',(23.4500000000001,33.874380992902,278.482302798403));
#760=CARTESIAN_POINT('Origin',(18.4500000000001,5.78942053033979,278.482302798403));
#761=UNCERTAINTY_MEASURE_WITH_UNIT(LENGTH_MEASURE(0.01),#765,
'DISTANCE_ACCURACY_VALUE',
'Maximum model space distance between geometric entities at asserted c
onnectivities');
#762=UNCERTAINTY_MEASURE_WITH_UNIT(LENGTH_MEASURE(0.01),#765,
'DISTANCE_ACCURACY_VALUE',
'Maximum model space distance between geometric entities at asserted c
onnectivities');
#763=(
GEOMETRIC_REPRESENTATION_CONTEXT(3)
GLOBAL_UNCERTAINTY_ASSIGNED_CONTEXT((#761))
GLOBAL_UNIT_ASSIGNED_CONTEXT((#765,#767,#768))
REPRESENTATION_CONTEXT('','3D')
);
#764=(
GEOMETRIC_REPRESENTATION_CONTEXT(3)
GLOBAL_UNCERTAINTY_ASSIGNED_CONTEXT((#762))
GLOBAL_UNIT_ASSIGNED_CONTEXT((#765,#767,#768))
REPRESENTATION_CONTEXT('','3D')
);
#765=(
LENGTH_UNIT()
NAMED_UNIT(*)
SI_UNIT(.MILLI.,.METRE.)
);
#766=(
LENGTH_UNIT()
NAMED_UNIT(*)
SI_UNIT($,.METRE.)
);
#767=(
NAMED_UNIT(*)
PLANE_ANGLE_UNIT()
SI_UNIT($,.RADIAN.)
);
#768=(
NAMED_UNIT(*)
SI_UNIT($,.STERADIAN.)
SOLID_ANGLE_UNIT()
);
#769=SHAPE_DEFINITION_REPRESENTATION(#770,#771);
#770=PRODUCT_DEFINITION_SHAPE('',$,#773);
#771=SHAPE_REPRESENTATION('',(#481),#763);
#772=PRODUCT_DEFINITION_CONTEXT('part definition',#777,'design');
#773=PRODUCT_DEFINITION('2026-03-24-17-31-42-097','Head',#774,#772);
#774=PRODUCT_DEFINITION_FORMATION('',$,#779);
#775=PRODUCT_RELATED_PRODUCT_CATEGORY('Head','Head',(#779));
#776=APPLICATION_PROTOCOL_DEFINITION('international standard',
'automotive_design',2009,#777);
#777=APPLICATION_CONTEXT(
'Core Data for Automotive Mechanical Design Process');
#778=PRODUCT_CONTEXT('part definition',#777,'mechanical');
#779=PRODUCT('2026-03-24-17-31-42-097','Head',$,(#778));
#780=PRESENTATION_STYLE_ASSIGNMENT((#816));
#781=PRESENTATION_STYLE_ASSIGNMENT((#817));
#782=PRESENTATION_STYLE_ASSIGNMENT((#818));
#783=PRESENTATION_STYLE_ASSIGNMENT((#819));
#784=PRESENTATION_STYLE_ASSIGNMENT((#820));
#785=PRESENTATION_STYLE_ASSIGNMENT((#821));
#786=PRESENTATION_STYLE_ASSIGNMENT((#822));
#787=PRESENTATION_STYLE_ASSIGNMENT((#823));
#788=PRESENTATION_STYLE_ASSIGNMENT((#824));
#789=PRESENTATION_STYLE_ASSIGNMENT((#825));
#790=PRESENTATION_STYLE_ASSIGNMENT((#826));
#791=PRESENTATION_STYLE_ASSIGNMENT((#827));
#792=PRESENTATION_STYLE_ASSIGNMENT((#828));
#793=PRESENTATION_STYLE_ASSIGNMENT((#829));
#794=PRESENTATION_STYLE_ASSIGNMENT((#830));
#795=PRESENTATION_STYLE_ASSIGNMENT((#831));
#796=PRESENTATION_STYLE_ASSIGNMENT((#832));
#797=PRESENTATION_STYLE_ASSIGNMENT((#833));
#798=PRESENTATION_STYLE_ASSIGNMENT((#834));
#799=PRESENTATION_STYLE_ASSIGNMENT((#835));
#800=PRESENTATION_STYLE_ASSIGNMENT((#836));
#801=PRESENTATION_STYLE_ASSIGNMENT((#837));
#802=PRESENTATION_STYLE_ASSIGNMENT((#838));
#803=PRESENTATION_STYLE_ASSIGNMENT((#839));
#804=PRESENTATION_STYLE_ASSIGNMENT((#840));
#805=PRESENTATION_STYLE_ASSIGNMENT((#841));
#806=PRESENTATION_STYLE_ASSIGNMENT((#842));
#807=PRESENTATION_STYLE_ASSIGNMENT((#843));
#808=PRESENTATION_STYLE_ASSIGNMENT((#844));
#809=PRESENTATION_STYLE_ASSIGNMENT((#845));
#810=PRESENTATION_STYLE_ASSIGNMENT((#846));
#811=PRESENTATION_STYLE_ASSIGNMENT((#847));
#812=PRESENTATION_STYLE_ASSIGNMENT((#848));
#813=PRESENTATION_STYLE_ASSIGNMENT((#849));
#814=PRESENTATION_STYLE_ASSIGNMENT((#850));
#815=PRESENTATION_STYLE_ASSIGNMENT((#851));
#816=SURFACE_STYLE_USAGE(.BOTH.,#852);
#817=SURFACE_STYLE_USAGE(.BOTH.,#853);
#818=SURFACE_STYLE_USAGE(.BOTH.,#854);
#819=SURFACE_STYLE_USAGE(.BOTH.,#855);
#820=SURFACE_STYLE_USAGE(.BOTH.,#856);
#821=SURFACE_STYLE_USAGE(.BOTH.,#857);
#822=SURFACE_STYLE_USAGE(.BOTH.,#858);
#823=SURFACE_STYLE_USAGE(.BOTH.,#859);
#824=SURFACE_STYLE_USAGE(.BOTH.,#860);
#825=SURFACE_STYLE_USAGE(.BOTH.,#861);
#826=SURFACE_STYLE_USAGE(.BOTH.,#862);
#827=SURFACE_STYLE_USAGE(.BOTH.,#863);
#828=SURFACE_STYLE_USAGE(.BOTH.,#864);
#829=SURFACE_STYLE_USAGE(.BOTH.,#865);
#830=SURFACE_STYLE_USAGE(.BOTH.,#866);
#831=SURFACE_STYLE_USAGE(.BOTH.,#867);
#832=SURFACE_STYLE_USAGE(.BOTH.,#868);
#833=SURFACE_STYLE_USAGE(.BOTH.,#869);
#834=SURFACE_STYLE_USAGE(.BOTH.,#870);
#835=SURFACE_STYLE_USAGE(.BOTH.,#871);
#836=SURFACE_STYLE_USAGE(.BOTH.,#872);
#837=SURFACE_STYLE_USAGE(.BOTH.,#873);
#838=SURFACE_STYLE_USAGE(.BOTH.,#874);
#839=SURFACE_STYLE_USAGE(.BOTH.,#875);
#840=SURFACE_STYLE_USAGE(.BOTH.,#876);
#841=SURFACE_STYLE_USAGE(.BOTH.,#877);
#842=SURFACE_STYLE_USAGE(.BOTH.,#878);
#843=SURFACE_STYLE_USAGE(.BOTH.,#879);
#844=SURFACE_STYLE_USAGE(.BOTH.,#880);
#845=SURFACE_STYLE_USAGE(.BOTH.,#881);
#846=SURFACE_STYLE_USAGE(.BOTH.,#882);
#847=SURFACE_STYLE_USAGE(.BOTH.,#883);
#848=SURFACE_STYLE_USAGE(.BOTH.,#884);
#849=SURFACE_STYLE_USAGE(.BOTH.,#885);
#850=SURFACE_STYLE_USAGE(.BOTH.,#886);
#851=SURFACE_STYLE_USAGE(.BOTH.,#887);
#852=SURFACE_SIDE_STYLE('',(#888));
#853=SURFACE_SIDE_STYLE('',(#889));
#854=SURFACE_SIDE_STYLE('',(#890));
#855=SURFACE_SIDE_STYLE('',(#891));
#856=SURFACE_SIDE_STYLE('',(#892));
#857=SURFACE_SIDE_STYLE('',(#893));
#858=SURFACE_SIDE_STYLE('',(#894));
#859=SURFACE_SIDE_STYLE('',(#895));
#860=SURFACE_SIDE_STYLE('',(#896));
#861=SURFACE_SIDE_STYLE('',(#897));
#862=SURFACE_SIDE_STYLE('',(#898));
#863=SURFACE_SIDE_STYLE('',(#899));
#864=SURFACE_SIDE_STYLE('',(#900));
#865=SURFACE_SIDE_STYLE('',(#901));
#866=SURFACE_SIDE_STYLE('',(#902));
#867=SURFACE_SIDE_STYLE('',(#903));
#868=SURFACE_SIDE_STYLE('',(#904));
#869=SURFACE_SIDE_STYLE('',(#905));
#870=SURFACE_SIDE_STYLE('',(#906));
#871=SURFACE_SIDE_STYLE('',(#907));
#872=SURFACE_SIDE_STYLE('',(#908));
#873=SURFACE_SIDE_STYLE('',(#909));
#874=SURFACE_SIDE_STYLE('',(#910));
#875=SURFACE_SIDE_STYLE('',(#911));
#876=SURFACE_SIDE_STYLE('',(#912));
#877=SURFACE_SIDE_STYLE('',(#913));
#878=SURFACE_SIDE_STYLE('',(#914));
#879=SURFACE_SIDE_STYLE('',(#915));
#880=SURFACE_SIDE_STYLE('',(#916));
#881=SURFACE_SIDE_STYLE('',(#917));
#882=SURFACE_SIDE_STYLE('',(#918));
#883=SURFACE_SIDE_STYLE('',(#919));
#884=SURFACE_SIDE_STYLE('',(#920));
#885=SURFACE_SIDE_STYLE('',(#921));
#886=SURFACE_SIDE_STYLE('',(#922));
#887=SURFACE_SIDE_STYLE('',(#923));
#888=SURFACE_STYLE_FILL_AREA(#924);
#889=SURFACE_STYLE_FILL_AREA(#925);
#890=SURFACE_STYLE_FILL_AREA(#926);
#891=SURFACE_STYLE_FILL_AREA(#927);
#892=SURFACE_STYLE_FILL_AREA(#928);
#893=SURFACE_STYLE_FILL_AREA(#929);
#894=SURFACE_STYLE_FILL_AREA(#930);
#895=SURFACE_STYLE_FILL_AREA(#931);
#896=SURFACE_STYLE_FILL_AREA(#932);
#897=SURFACE_STYLE_FILL_AREA(#933);
#898=SURFACE_STYLE_FILL_AREA(#934);
#899=SURFACE_STYLE_FILL_AREA(#935);
#900=SURFACE_STYLE_FILL_AREA(#936);
#901=SURFACE_STYLE_FILL_AREA(#937);
#902=SURFACE_STYLE_FILL_AREA(#938);
#903=SURFACE_STYLE_FILL_AREA(#939);
#904=SURFACE_STYLE_FILL_AREA(#940);
#905=SURFACE_STYLE_FILL_AREA(#941);
#906=SURFACE_STYLE_FILL_AREA(#942);
#907=SURFACE_STYLE_FILL_AREA(#943);
#908=SURFACE_STYLE_FILL_AREA(#944);
#909=SURFACE_STYLE_FILL_AREA(#945);
#910=SURFACE_STYLE_FILL_AREA(#946);
#911=SURFACE_STYLE_FILL_AREA(#947);
#912=SURFACE_STYLE_FILL_AREA(#948);
#913=SURFACE_STYLE_FILL_AREA(#949);
#914=SURFACE_STYLE_FILL_AREA(#950);
#915=SURFACE_STYLE_FILL_AREA(#951);
#916=SURFACE_STYLE_FILL_AREA(#952);
#917=SURFACE_STYLE_FILL_AREA(#953);
#918=SURFACE_STYLE_FILL_AREA(#954);
#919=SURFACE_STYLE_FILL_AREA(#955);
#920=SURFACE_STYLE_FILL_AREA(#956);
#921=SURFACE_STYLE_FILL_AREA(#957);
#922=SURFACE_STYLE_FILL_AREA(#958);
#923=SURFACE_STYLE_FILL_AREA(#959);
#924=FILL_AREA_STYLE('Steel - Satin',(#960));
#925=FILL_AREA_STYLE('Glass - Light Color (Blue)',(#961));
#926=FILL_AREA_STYLE('Paint - Enamel Glossy (Blue)',(#962));
#927=FILL_AREA_STYLE('Opaque(130,116,95)',(#963));
#928=FILL_AREA_STYLE('Opaque(244,229,167)',(#964));
#929=FILL_AREA_STYLE('Opaque(25,25,25)',(#965));
#930=FILL_AREA_STYLE('Opaque(160,160,160)',(#966));
#931=FILL_AREA_STYLE('Opaque(76,76,76)',(#967));
#932=FILL_AREA_STYLE('Opaque(251,250,245)',(#968));
#933=FILL_AREA_STYLE('Opaque(77,77,77)',(#969));
#934=FILL_AREA_STYLE('Opaque(187,197,203)',(#970));
#935=FILL_AREA_STYLE('Opaque(63,63,63)',(#971));
#936=FILL_AREA_STYLE('Opaque(191,191,191)',(#972));
#937=FILL_AREA_STYLE('Opaque(5,5,5)',(#973));
#938=FILL_AREA_STYLE('Opaque(188,80,47)',(#974));
#939=FILL_AREA_STYLE('Opaque(243,203,124)',(#975));
#940=FILL_AREA_STYLE('Opaque(128,128,128)',(#976));
#941=FILL_AREA_STYLE('Opaque(255,255,255)',(#977));
#942=FILL_AREA_STYLE('Opaque(196,196,196)',(#978));
#943=FILL_AREA_STYLE('Opaque(64,64,64)',(#979));
#944=FILL_AREA_STYLE('Opaque(215,208,192)',(#980));
#945=FILL_AREA_STYLE('Opaque(144,96,0)',(#981));
#946=FILL_AREA_STYLE('Opaque(246,246,243)',(#982));
#947=FILL_AREA_STYLE('Opaque(153,130,94)',(#983));
#948=FILL_AREA_STYLE('Opaque(48,59,150)',(#984));
#949=FILL_AREA_STYLE('Opaque(123,129,122)',(#985));
#950=FILL_AREA_STYLE('Opaque(245,245,246)',(#986));
#951=FILL_AREA_STYLE('Opaque(212,214,212)',(#987));
#952=FILL_AREA_STYLE('Opaque(229,234,237)',(#988));
#953=FILL_AREA_STYLE('Opaque(73,169,84)',(#989));
#954=FILL_AREA_STYLE('Opaque(211,214,211)',(#990));
#955=FILL_AREA_STYLE('Opaque(163,169,170)',(#991));
#956=FILL_AREA_STYLE('Opaque(73,73,73)',(#992));
#957=FILL_AREA_STYLE('Opaque(165,159,143)',(#993));
#958=FILL_AREA_STYLE('Opaque(217,196,147)',(#994));
#959=FILL_AREA_STYLE('Paint - Enamel Glossy (Red)',(#995));
#960=FILL_AREA_STYLE_COLOUR('Steel - Satin',#996);
#961=FILL_AREA_STYLE_COLOUR('Glass - Light Color (Blue)',#997);
#962=FILL_AREA_STYLE_COLOUR('Paint - Enamel Glossy (Blue)',#998);
#963=FILL_AREA_STYLE_COLOUR('Opaque(130,116,95)',#999);
#964=FILL_AREA_STYLE_COLOUR('Opaque(244,229,167)',#1000);
#965=FILL_AREA_STYLE_COLOUR('Opaque(25,25,25)',#1001);
#966=FILL_AREA_STYLE_COLOUR('Opaque(160,160,160)',#1002);
#967=FILL_AREA_STYLE_COLOUR('Opaque(76,76,76)',#1003);
#968=FILL_AREA_STYLE_COLOUR('Opaque(251,250,245)',#1004);
#969=FILL_AREA_STYLE_COLOUR('Opaque(77,77,77)',#1005);
#970=FILL_AREA_STYLE_COLOUR('Opaque(187,197,203)',#1006);
#971=FILL_AREA_STYLE_COLOUR('Opaque(63,63,63)',#1007);
#972=FILL_AREA_STYLE_COLOUR('Opaque(191,191,191)',#1008);
#973=FILL_AREA_STYLE_COLOUR('Opaque(5,5,5)',#1009);
#974=FILL_AREA_STYLE_COLOUR('Opaque(188,80,47)',#1010);
#975=FILL_AREA_STYLE_COLOUR('Opaque(243,203,124)',#1011);
#976=FILL_AREA_STYLE_COLOUR('Opaque(128,128,128)',#1012);
#977=FILL_AREA_STYLE_COLOUR('Opaque(255,255,255)',#1013);
#978=FILL_AREA_STYLE_COLOUR('Opaque(196,196,196)',#1014);
#979=FILL_AREA_STYLE_COLOUR('Opaque(64,64,64)',#1015);
#980=FILL_AREA_STYLE_COLOUR('Opaque(215,208,192)',#1016);
#981=FILL_AREA_STYLE_COLOUR('Opaque(144,96,0)',#1017);
#982=FILL_AREA_STYLE_COLOUR('Opaque(246,246,243)',#1018);
#983=FILL_AREA_STYLE_COLOUR('Opaque(153,130,94)',#1019);
#984=FILL_AREA_STYLE_COLOUR('Opaque(48,59,150)',#1020);
#985=FILL_AREA_STYLE_COLOUR('Opaque(123,129,122)',#1021);
#986=FILL_AREA_STYLE_COLOUR('Opaque(245,245,246)',#1022);
#987=FILL_AREA_STYLE_COLOUR('Opaque(212,214,212)',#1023);
#988=FILL_AREA_STYLE_COLOUR('Opaque(229,234,237)',#1024);
#989=FILL_AREA_STYLE_COLOUR('Opaque(73,169,84)',#1025);
#990=FILL_AREA_STYLE_COLOUR('Opaque(211,214,211)',#1026);
#991=FILL_AREA_STYLE_COLOUR('Opaque(163,169,170)',#1027);
#992=FILL_AREA_STYLE_COLOUR('Opaque(73,73,73)',#1028);
#993=FILL_AREA_STYLE_COLOUR('Opaque(165,159,143)',#1029);
#994=FILL_AREA_STYLE_COLOUR('Opaque(217,196,147)',#1030);
#995=FILL_AREA_STYLE_COLOUR('Paint - Enamel Glossy (Red)',#1031);
#996=COLOUR_RGB('Steel - Satin',0.627450980392157,0.627450980392157,0.627450980392157);
#997=COLOUR_RGB('Glass - Light Color (Blue)',0.423529411764706,0.768627450980392,
0.854901960784314);
#998=COLOUR_RGB('Paint - Enamel Glossy (Blue)',0.188235294117647,0.231372549019608,
0.588235294117647);
#999=COLOUR_RGB('Opaque(130,116,95)',0.509803921568627,0.454901960784314,
0.372549019607843);
#1000=COLOUR_RGB('Opaque(244,229,167)',0.956862745098039,0.898039215686275,
0.654901960784314);
#1001=COLOUR_RGB('Opaque(25,25,25)',0.0980392156862745,0.0980392156862745,
0.0980392156862745);
#1002=COLOUR_RGB('Opaque(160,160,160)',0.627450980392157,0.627450980392157,
0.627450980392157);
#1003=COLOUR_RGB('Opaque(76,76,76)',0.298039215686275,0.298039215686275,
0.298039215686275);
#1004=COLOUR_RGB('Opaque(251,250,245)',0.984313725490196,0.980392156862745,
0.96078431372549);
#1005=COLOUR_RGB('Opaque(77,77,77)',0.301960784313725,0.301960784313725,
0.301960784313725);
#1006=COLOUR_RGB('Opaque(187,197,203)',0.733333333333333,0.772549019607843,
0.796078431372549);
#1007=COLOUR_RGB('Opaque(63,63,63)',0.250980392156863,0.250980392156863,
0.250980392156863);
#1008=COLOUR_RGB('Opaque(191,191,191)',0.749019607843137,0.749019607843137,
0.749019607843137);
#1009=COLOUR_RGB('Opaque(5,5,5)',0.0196078431372549,0.0196078431372549,
0.0196078431372549);
#1010=COLOUR_RGB('Opaque(188,80,47)',0.737254901960784,0.313725490196078,
0.184313725490196);
#1011=COLOUR_RGB('Opaque(243,203,124)',0.952941176470588,0.796078431372549,
0.486274509803922);
#1012=COLOUR_RGB('Opaque(128,128,128)',0.501960784313725,0.501960784313725,
0.501960784313725);
#1013=COLOUR_RGB('Opaque(255,255,255)',1.,1.,1.);
#1014=COLOUR_RGB('Opaque(196,196,196)',0.768627450980392,0.768627450980392,
0.768627450980392);
#1015=COLOUR_RGB('Opaque(64,64,64)',0.250980392156863,0.250980392156863,
0.250980392156863);
#1016=COLOUR_RGB('Opaque(215,208,192)',0.843137254901961,0.815686274509804,
0.752941176470588);
#1017=COLOUR_RGB('Opaque(144,96,0)',0.564705882352941,0.376470588235294,
0.);
#1018=COLOUR_RGB('Opaque(246,246,243)',0.964705882352941,0.964705882352941,
0.952941176470588);
#1019=COLOUR_RGB('Opaque(153,130,94)',0.6,0.509803921568627,0.368627450980392);
#1020=COLOUR_RGB('Opaque(48,59,150)',0.188235294117647,0.231372549019608,
0.588235294117647);
#1021=COLOUR_RGB('Opaque(123,129,122)',0.482352941176471,0.505882352941176,
0.47843137254902);
#1022=COLOUR_RGB('Opaque(245,245,246)',0.96078431372549,0.96078431372549,
0.964705882352941);
#1023=COLOUR_RGB('Opaque(212,214,212)',0.831372549019608,0.83921568627451,
0.831372549019608);
#1024=COLOUR_RGB('Opaque(229,234,237)',0.898039215686275,0.917647058823529,
0.929411764705882);
#1025=COLOUR_RGB('Opaque(73,169,84)',0.286274509803922,0.662745098039216,
0.329411764705882);
#1026=COLOUR_RGB('Opaque(211,214,211)',0.827450980392157,0.83921568627451,
0.827450980392157);
#1027=COLOUR_RGB('Opaque(163,169,170)',0.63921568627451,0.662745098039216,
0.666666666666667);
#1028=COLOUR_RGB('Opaque(73,73,73)',0.286274509803922,0.286274509803922,
0.286274509803922);
#1029=COLOUR_RGB('Opaque(165,159,143)',0.647058823529412,0.623529411764706,
0.56078431372549);
#1030=COLOUR_RGB('Opaque(217,196,147)',0.850980392156863,0.768627450980392,
0.576470588235294);
#1031=COLOUR_RGB('Paint - Enamel Glossy (Red)',0.768627450980392,0.207843137254902,
0.152941176470588);
ENDSEC;
END-ISO-10303-21;
