ISO-10303-21;
HEADER;
/* Generated by software containing ST-Developer
 * from STEP Tools, Inc. (www.steptools.com) 
 */

FILE_DESCRIPTION(
/* description */ (''),
/* implementation_level */ '2;1');

FILE_NAME(
/* name */ 'Hose Clamp.step',
/* time_stamp */ '2026-05-27T22:01:27+02:00',
/* author */ (''),
/* organization */ (''),
/* preprocessor_version */ 'ST-DEVELOPER v20.1',
/* originating_system */ 'Autodesk Translation Framework v15.8.0.0',
/* authorisation */ '');

FILE_SCHEMA (('AUTOMOTIVE_DESIGN { 1 0 10303 214 3 1 1 }'));
ENDSEC;

DATA;
#10=MECHANICAL_DESIGN_GEOMETRIC_PRESENTATION_REPRESENTATION('',(#13),#670);
#11=SHAPE_REPRESENTATION_RELATIONSHIP('SRR','None',#677,#12);
#12=ADVANCED_BREP_SHAPE_REPRESENTATION('',(#14),#669);
#13=STYLED_ITEM('',(#686),#14);
#14=MANIFOLD_SOLID_BREP('Body1',#393);
#15=FACE_BOUND('',#57,.T.);
#16=FACE_BOUND('',#58,.T.);
#17=FACE_BOUND('',#61,.T.);
#18=FACE_BOUND('',#62,.T.);
#19=FACE_BOUND('',#65,.T.);
#20=FACE_BOUND('',#66,.T.);
#21=FACE_BOUND('',#77,.T.);
#22=FACE_BOUND('',#78,.T.);
#23=PLANE('',#410);
#24=PLANE('',#412);
#25=PLANE('',#417);
#26=PLANE('',#420);
#27=PLANE('',#422);
#28=PLANE('',#427);
#29=PLANE('',#435);
#30=PLANE('',#440);
#31=PLANE('',#441);
#32=PLANE('',#443);
#33=PLANE('',#444);
#34=FACE_OUTER_BOUND('',#54,.T.);
#35=FACE_OUTER_BOUND('',#55,.T.);
#36=FACE_OUTER_BOUND('',#56,.T.);
#37=FACE_OUTER_BOUND('',#59,.T.);
#38=FACE_OUTER_BOUND('',#60,.T.);
#39=FACE_OUTER_BOUND('',#63,.T.);
#40=FACE_OUTER_BOUND('',#64,.T.);
#41=FACE_OUTER_BOUND('',#67,.T.);
#42=FACE_OUTER_BOUND('',#68,.T.);
#43=FACE_OUTER_BOUND('',#69,.T.);
#44=FACE_OUTER_BOUND('',#70,.T.);
#45=FACE_OUTER_BOUND('',#71,.T.);
#46=FACE_OUTER_BOUND('',#72,.T.);
#47=FACE_OUTER_BOUND('',#73,.T.);
#48=FACE_OUTER_BOUND('',#74,.T.);
#49=FACE_OUTER_BOUND('',#75,.T.);
#50=FACE_OUTER_BOUND('',#76,.T.);
#51=FACE_OUTER_BOUND('',#79,.T.);
#52=FACE_OUTER_BOUND('',#80,.T.);
#53=FACE_OUTER_BOUND('',#81,.T.);
#54=EDGE_LOOP('',(#258,#259,#260,#261));
#55=EDGE_LOOP('',(#262,#263,#264,#265));
#56=EDGE_LOOP('',(#266,#267,#268,#269,#270,#271,#272));
#57=EDGE_LOOP('',(#273));
#58=EDGE_LOOP('',(#274));
#59=EDGE_LOOP('',(#275,#276,#277,#278));
#60=EDGE_LOOP('',(#279,#280,#281,#282,#283,#284));
#61=EDGE_LOOP('',(#285));
#62=EDGE_LOOP('',(#286));
#63=EDGE_LOOP('',(#287,#288,#289,#290,#291,#292,#293,#294));
#64=EDGE_LOOP('',(#295,#296,#297,#298,#299,#300,#301,#302));
#65=EDGE_LOOP('',(#303));
#66=EDGE_LOOP('',(#304));
#67=EDGE_LOOP('',(#305,#306,#307,#308));
#68=EDGE_LOOP('',(#309,#310,#311,#312));
#69=EDGE_LOOP('',(#313,#314,#315,#316));
#70=EDGE_LOOP('',(#317,#318,#319,#320));
#71=EDGE_LOOP('',(#321,#322,#323,#324));
#72=EDGE_LOOP('',(#325,#326,#327,#328));
#73=EDGE_LOOP('',(#329,#330,#331,#332,#333,#334,#335));
#74=EDGE_LOOP('',(#336,#337,#338,#339));
#75=EDGE_LOOP('',(#340,#341,#342,#343));
#76=EDGE_LOOP('',(#344,#345,#346,#347,#348,#349));
#77=EDGE_LOOP('',(#350));
#78=EDGE_LOOP('',(#351));
#79=EDGE_LOOP('',(#352,#353,#354,#355));
#80=EDGE_LOOP('',(#356,#357,#358,#359));
#81=EDGE_LOOP('',(#360,#361,#362,#363));
#82=LINE('',#564,#117);
#83=LINE('',#567,#118);
#84=LINE('',#570,#119);
#85=LINE('',#573,#120);
#86=LINE('',#576,#121);
#87=LINE('',#578,#122);
#88=LINE('',#580,#123);
#89=LINE('',#582,#124);
#90=LINE('',#583,#125);
#91=LINE('',#590,#126);
#92=LINE('',#594,#127);
#93=LINE('',#596,#128);
#94=LINE('',#597,#129);
#95=LINE('',#607,#130);
#96=LINE('',#608,#131);
#97=LINE('',#610,#132);
#98=LINE('',#611,#133);
#99=LINE('',#615,#134);
#100=LINE('',#616,#135);
#101=LINE('',#618,#136);
#102=LINE('',#620,#137);
#103=LINE('',#622,#138);
#104=LINE('',#624,#139);
#105=LINE('',#625,#140);
#106=LINE('',#633,#141);
#107=LINE('',#637,#142);
#108=LINE('',#640,#143);
#109=LINE('',#643,#144);
#110=LINE('',#646,#145);
#111=LINE('',#649,#146);
#112=LINE('',#653,#147);
#113=LINE('',#656,#148);
#114=LINE('',#660,#149);
#115=LINE('',#662,#150);
#116=LINE('',#663,#151);
#117=VECTOR('',#451,10.);
#118=VECTOR('',#454,10.);
#119=VECTOR('',#457,10.);
#120=VECTOR('',#460,10.);
#121=VECTOR('',#463,10.);
#122=VECTOR('',#464,10.);
#123=VECTOR('',#465,10.);
#124=VECTOR('',#466,10.);
#125=VECTOR('',#467,10.);
#126=VECTOR('',#474,10.);
#127=VECTOR('',#479,10.);
#128=VECTOR('',#480,10.);
#129=VECTOR('',#481,10.);
#130=VECTOR('',#490,10.);
#131=VECTOR('',#491,10.);
#132=VECTOR('',#492,10.);
#133=VECTOR('',#493,10.);
#134=VECTOR('',#496,10.);
#135=VECTOR('',#497,10.);
#136=VECTOR('',#498,10.);
#137=VECTOR('',#499,10.);
#138=VECTOR('',#500,10.);
#139=VECTOR('',#501,10.);
#140=VECTOR('',#502,10.);
#141=VECTOR('',#511,10.);
#142=VECTOR('',#516,10.);
#143=VECTOR('',#519,1.6);
#144=VECTOR('',#524,1.6);
#145=VECTOR('',#527,1.6);
#146=VECTOR('',#532,1.6);
#147=VECTOR('',#535,10.);
#148=VECTOR('',#540,10.);
#149=VECTOR('',#547,10.);
#150=VECTOR('',#550,10.);
#151=VECTOR('',#551,10.);
#152=CIRCLE('',#408,12.5);
#153=CIRCLE('',#409,12.5);
#154=CIRCLE('',#411,11.);
#155=CIRCLE('',#413,1.6);
#156=CIRCLE('',#414,1.6);
#157=CIRCLE('',#416,11.);
#158=CIRCLE('',#418,1.6);
#159=CIRCLE('',#419,1.6);
#160=CIRCLE('',#421,10.75);
#161=CIRCLE('',#423,1.6);
#162=CIRCLE('',#424,1.6);
#163=CIRCLE('',#426,10.75);
#164=CIRCLE('',#428,8.);
#165=CIRCLE('',#430,1.6);
#166=CIRCLE('',#433,1.6);
#167=CIRCLE('',#436,8.);
#168=CIRCLE('',#437,11.);
#169=CIRCLE('',#439,11.);
#170=VERTEX_POINT('',#560);
#171=VERTEX_POINT('',#561);
#172=VERTEX_POINT('',#563);
#173=VERTEX_POINT('',#565);
#174=VERTEX_POINT('',#569);
#175=VERTEX_POINT('',#571);
#176=VERTEX_POINT('',#575);
#177=VERTEX_POINT('',#577);
#178=VERTEX_POINT('',#579);
#179=VERTEX_POINT('',#581);
#180=VERTEX_POINT('',#584);
#181=VERTEX_POINT('',#586);
#182=VERTEX_POINT('',#589);
#183=VERTEX_POINT('',#593);
#184=VERTEX_POINT('',#595);
#185=VERTEX_POINT('',#598);
#186=VERTEX_POINT('',#600);
#187=VERTEX_POINT('',#603);
#188=VERTEX_POINT('',#604);
#189=VERTEX_POINT('',#606);
#190=VERTEX_POINT('',#609);
#191=VERTEX_POINT('',#613);
#192=VERTEX_POINT('',#614);
#193=VERTEX_POINT('',#617);
#194=VERTEX_POINT('',#619);
#195=VERTEX_POINT('',#621);
#196=VERTEX_POINT('',#623);
#197=VERTEX_POINT('',#626);
#198=VERTEX_POINT('',#628);
#199=VERTEX_POINT('',#631);
#200=VERTEX_POINT('',#635);
#201=VERTEX_POINT('',#639);
#202=VERTEX_POINT('',#645);
#203=VERTEX_POINT('',#651);
#204=VERTEX_POINT('',#652);
#205=EDGE_CURVE('',#170,#171,#152,.T.);
#206=EDGE_CURVE('',#172,#170,#82,.T.);
#207=EDGE_CURVE('',#173,#172,#153,.T.);
#208=EDGE_CURVE('',#171,#173,#83,.T.);
#209=EDGE_CURVE('',#174,#172,#84,.T.);
#210=EDGE_CURVE('',#175,#174,#154,.T.);
#211=EDGE_CURVE('',#173,#175,#85,.T.);
#212=EDGE_CURVE('',#176,#175,#86,.T.);
#213=EDGE_CURVE('',#176,#177,#87,.T.);
#214=EDGE_CURVE('',#178,#177,#88,.T.);
#215=EDGE_CURVE('',#178,#179,#89,.T.);
#216=EDGE_CURVE('',#171,#179,#90,.T.);
#217=EDGE_CURVE('',#180,#180,#155,.T.);
#218=EDGE_CURVE('',#181,#181,#156,.T.);
#219=EDGE_CURVE('',#174,#182,#91,.T.);
#220=EDGE_CURVE('',#176,#182,#157,.T.);
#221=EDGE_CURVE('',#183,#170,#92,.T.);
#222=EDGE_CURVE('',#184,#183,#93,.T.);
#223=EDGE_CURVE('',#182,#184,#94,.T.);
#224=EDGE_CURVE('',#185,#185,#158,.T.);
#225=EDGE_CURVE('',#186,#186,#159,.T.);
#226=EDGE_CURVE('',#187,#188,#160,.T.);
#227=EDGE_CURVE('',#188,#189,#95,.T.);
#228=EDGE_CURVE('',#189,#183,#96,.T.);
#229=EDGE_CURVE('',#179,#190,#97,.T.);
#230=EDGE_CURVE('',#190,#187,#98,.T.);
#231=EDGE_CURVE('',#191,#192,#99,.T.);
#232=EDGE_CURVE('',#192,#187,#100,.T.);
#233=EDGE_CURVE('',#190,#193,#101,.T.);
#234=EDGE_CURVE('',#194,#193,#102,.T.);
#235=EDGE_CURVE('',#195,#194,#103,.T.);
#236=EDGE_CURVE('',#196,#195,#104,.T.);
#237=EDGE_CURVE('',#191,#196,#105,.T.);
#238=EDGE_CURVE('',#197,#197,#161,.T.);
#239=EDGE_CURVE('',#198,#198,#162,.T.);
#240=EDGE_CURVE('',#192,#199,#163,.T.);
#241=EDGE_CURVE('',#188,#199,#106,.T.);
#242=EDGE_CURVE('',#200,#191,#164,.T.);
#243=EDGE_CURVE('',#199,#200,#107,.T.);
#244=EDGE_CURVE('',#186,#201,#108,.T.);
#245=EDGE_CURVE('',#201,#201,#165,.T.);
#246=EDGE_CURVE('',#198,#181,#109,.T.);
#247=EDGE_CURVE('',#185,#202,#110,.T.);
#248=EDGE_CURVE('',#202,#202,#166,.T.);
#249=EDGE_CURVE('',#197,#180,#111,.T.);
#250=EDGE_CURVE('',#203,#204,#112,.T.);
#251=EDGE_CURVE('',#204,#196,#167,.T.);
#252=EDGE_CURVE('',#195,#176,#168,.T.);
#253=EDGE_CURVE('',#203,#184,#113,.T.);
#254=EDGE_CURVE('',#177,#194,#169,.T.);
#255=EDGE_CURVE('',#193,#178,#114,.T.);
#256=EDGE_CURVE('',#204,#200,#115,.T.);
#257=EDGE_CURVE('',#203,#189,#116,.T.);
#258=ORIENTED_EDGE('',*,*,#205,.F.);
#259=ORIENTED_EDGE('',*,*,#206,.F.);
#260=ORIENTED_EDGE('',*,*,#207,.F.);
#261=ORIENTED_EDGE('',*,*,#208,.F.);
#262=ORIENTED_EDGE('',*,*,#209,.F.);
#263=ORIENTED_EDGE('',*,*,#210,.F.);
#264=ORIENTED_EDGE('',*,*,#211,.F.);
#265=ORIENTED_EDGE('',*,*,#207,.T.);
#266=ORIENTED_EDGE('',*,*,#208,.T.);
#267=ORIENTED_EDGE('',*,*,#211,.T.);
#268=ORIENTED_EDGE('',*,*,#212,.F.);
#269=ORIENTED_EDGE('',*,*,#213,.T.);
#270=ORIENTED_EDGE('',*,*,#214,.F.);
#271=ORIENTED_EDGE('',*,*,#215,.T.);
#272=ORIENTED_EDGE('',*,*,#216,.F.);
#273=ORIENTED_EDGE('',*,*,#217,.T.);
#274=ORIENTED_EDGE('',*,*,#218,.T.);
#275=ORIENTED_EDGE('',*,*,#210,.T.);
#276=ORIENTED_EDGE('',*,*,#219,.T.);
#277=ORIENTED_EDGE('',*,*,#220,.F.);
#278=ORIENTED_EDGE('',*,*,#212,.T.);
#279=ORIENTED_EDGE('',*,*,#209,.T.);
#280=ORIENTED_EDGE('',*,*,#206,.T.);
#281=ORIENTED_EDGE('',*,*,#221,.F.);
#282=ORIENTED_EDGE('',*,*,#222,.F.);
#283=ORIENTED_EDGE('',*,*,#223,.F.);
#284=ORIENTED_EDGE('',*,*,#219,.F.);
#285=ORIENTED_EDGE('',*,*,#224,.T.);
#286=ORIENTED_EDGE('',*,*,#225,.T.);
#287=ORIENTED_EDGE('',*,*,#226,.T.);
#288=ORIENTED_EDGE('',*,*,#227,.T.);
#289=ORIENTED_EDGE('',*,*,#228,.T.);
#290=ORIENTED_EDGE('',*,*,#221,.T.);
#291=ORIENTED_EDGE('',*,*,#205,.T.);
#292=ORIENTED_EDGE('',*,*,#216,.T.);
#293=ORIENTED_EDGE('',*,*,#229,.T.);
#294=ORIENTED_EDGE('',*,*,#230,.T.);
#295=ORIENTED_EDGE('',*,*,#231,.T.);
#296=ORIENTED_EDGE('',*,*,#232,.T.);
#297=ORIENTED_EDGE('',*,*,#230,.F.);
#298=ORIENTED_EDGE('',*,*,#233,.T.);
#299=ORIENTED_EDGE('',*,*,#234,.F.);
#300=ORIENTED_EDGE('',*,*,#235,.F.);
#301=ORIENTED_EDGE('',*,*,#236,.F.);
#302=ORIENTED_EDGE('',*,*,#237,.F.);
#303=ORIENTED_EDGE('',*,*,#238,.T.);
#304=ORIENTED_EDGE('',*,*,#239,.T.);
#305=ORIENTED_EDGE('',*,*,#232,.F.);
#306=ORIENTED_EDGE('',*,*,#240,.T.);
#307=ORIENTED_EDGE('',*,*,#241,.F.);
#308=ORIENTED_EDGE('',*,*,#226,.F.);
#309=ORIENTED_EDGE('',*,*,#240,.F.);
#310=ORIENTED_EDGE('',*,*,#231,.F.);
#311=ORIENTED_EDGE('',*,*,#242,.F.);
#312=ORIENTED_EDGE('',*,*,#243,.F.);
#313=ORIENTED_EDGE('',*,*,#225,.F.);
#314=ORIENTED_EDGE('',*,*,#244,.T.);
#315=ORIENTED_EDGE('',*,*,#245,.F.);
#316=ORIENTED_EDGE('',*,*,#244,.F.);
#317=ORIENTED_EDGE('',*,*,#239,.F.);
#318=ORIENTED_EDGE('',*,*,#246,.T.);
#319=ORIENTED_EDGE('',*,*,#218,.F.);
#320=ORIENTED_EDGE('',*,*,#246,.F.);
#321=ORIENTED_EDGE('',*,*,#224,.F.);
#322=ORIENTED_EDGE('',*,*,#247,.T.);
#323=ORIENTED_EDGE('',*,*,#248,.F.);
#324=ORIENTED_EDGE('',*,*,#247,.F.);
#325=ORIENTED_EDGE('',*,*,#238,.F.);
#326=ORIENTED_EDGE('',*,*,#249,.T.);
#327=ORIENTED_EDGE('',*,*,#217,.F.);
#328=ORIENTED_EDGE('',*,*,#249,.F.);
#329=ORIENTED_EDGE('',*,*,#250,.T.);
#330=ORIENTED_EDGE('',*,*,#251,.T.);
#331=ORIENTED_EDGE('',*,*,#236,.T.);
#332=ORIENTED_EDGE('',*,*,#252,.T.);
#333=ORIENTED_EDGE('',*,*,#220,.T.);
#334=ORIENTED_EDGE('',*,*,#223,.T.);
#335=ORIENTED_EDGE('',*,*,#253,.F.);
#336=ORIENTED_EDGE('',*,*,#252,.F.);
#337=ORIENTED_EDGE('',*,*,#235,.T.);
#338=ORIENTED_EDGE('',*,*,#254,.F.);
#339=ORIENTED_EDGE('',*,*,#213,.F.);
#340=ORIENTED_EDGE('',*,*,#234,.T.);
#341=ORIENTED_EDGE('',*,*,#255,.T.);
#342=ORIENTED_EDGE('',*,*,#214,.T.);
#343=ORIENTED_EDGE('',*,*,#254,.T.);
#344=ORIENTED_EDGE('',*,*,#243,.T.);
#345=ORIENTED_EDGE('',*,*,#256,.F.);
#346=ORIENTED_EDGE('',*,*,#250,.F.);
#347=ORIENTED_EDGE('',*,*,#257,.T.);
#348=ORIENTED_EDGE('',*,*,#227,.F.);
#349=ORIENTED_EDGE('',*,*,#241,.T.);
#350=ORIENTED_EDGE('',*,*,#245,.T.);
#351=ORIENTED_EDGE('',*,*,#248,.T.);
#352=ORIENTED_EDGE('',*,*,#242,.T.);
#353=ORIENTED_EDGE('',*,*,#237,.T.);
#354=ORIENTED_EDGE('',*,*,#251,.F.);
#355=ORIENTED_EDGE('',*,*,#256,.T.);
#356=ORIENTED_EDGE('',*,*,#215,.F.);
#357=ORIENTED_EDGE('',*,*,#255,.F.);
#358=ORIENTED_EDGE('',*,*,#233,.F.);
#359=ORIENTED_EDGE('',*,*,#229,.F.);
#360=ORIENTED_EDGE('',*,*,#253,.T.);
#361=ORIENTED_EDGE('',*,*,#222,.T.);
#362=ORIENTED_EDGE('',*,*,#228,.F.);
#363=ORIENTED_EDGE('',*,*,#257,.F.);
#364=CYLINDRICAL_SURFACE('',#407,12.5);
#365=CYLINDRICAL_SURFACE('',#415,11.);
#366=CYLINDRICAL_SURFACE('',#425,10.75);
#367=CYLINDRICAL_SURFACE('',#429,1.6);
#368=CYLINDRICAL_SURFACE('',#431,1.6);
#369=CYLINDRICAL_SURFACE('',#432,1.6);
#370=CYLINDRICAL_SURFACE('',#434,1.6);
#371=CYLINDRICAL_SURFACE('',#438,11.);
#372=CYLINDRICAL_SURFACE('',#442,8.);
#373=ADVANCED_FACE('',(#34),#364,.T.);
#374=ADVANCED_FACE('',(#35),#23,.F.);
#375=ADVANCED_FACE('',(#36,#15,#16),#24,.T.);
#376=ADVANCED_FACE('',(#37),#365,.T.);
#377=ADVANCED_FACE('',(#38,#17,#18),#25,.T.);
#378=ADVANCED_FACE('',(#39),#26,.F.);
#379=ADVANCED_FACE('',(#40,#19,#20),#27,.F.);
#380=ADVANCED_FACE('',(#41),#366,.F.);
#381=ADVANCED_FACE('',(#42),#28,.T.);
#382=ADVANCED_FACE('',(#43),#367,.F.);
#383=ADVANCED_FACE('',(#44),#368,.F.);
#384=ADVANCED_FACE('',(#45),#369,.F.);
#385=ADVANCED_FACE('',(#46),#370,.F.);
#386=ADVANCED_FACE('',(#47),#29,.T.);
#387=ADVANCED_FACE('',(#48),#371,.F.);
#388=ADVANCED_FACE('',(#49),#30,.T.);
#389=ADVANCED_FACE('',(#50,#21,#22),#31,.F.);
#390=ADVANCED_FACE('',(#51),#372,.F.);
#391=ADVANCED_FACE('',(#52),#32,.T.);
#392=ADVANCED_FACE('',(#53),#33,.T.);
#393=CLOSED_SHELL('',(#373,#374,#375,#376,#377,#378,#379,#380,#381,#382,
#383,#384,#385,#386,#387,#388,#389,#390,#391,#392));
#394=DERIVED_UNIT_ELEMENT(#396,1.);
#395=DERIVED_UNIT_ELEMENT(#672,-3.);
#396=(
MASS_UNIT()
NAMED_UNIT(*)
SI_UNIT(.KILO.,.GRAM.)
);
#397=DERIVED_UNIT((#394,#395));
#398=MEASURE_REPRESENTATION_ITEM('density measure',
POSITIVE_RATIO_MEASURE(7850.),#397);
#399=PROPERTY_DEFINITION_REPRESENTATION(#404,#401);
#400=PROPERTY_DEFINITION_REPRESENTATION(#405,#402);
#401=REPRESENTATION('material name',(#403),#669);
#402=REPRESENTATION('density',(#398),#669);
#403=DESCRIPTIVE_REPRESENTATION_ITEM('Steel','Steel');
#404=PROPERTY_DEFINITION('material property','material name',#679);
#405=PROPERTY_DEFINITION('material property','density of part',#679);
#406=AXIS2_PLACEMENT_3D('',#558,#445,#446);
#407=AXIS2_PLACEMENT_3D('',#559,#447,#448);
#408=AXIS2_PLACEMENT_3D('',#562,#449,#450);
#409=AXIS2_PLACEMENT_3D('',#566,#452,#453);
#410=AXIS2_PLACEMENT_3D('',#568,#455,#456);
#411=AXIS2_PLACEMENT_3D('',#572,#458,#459);
#412=AXIS2_PLACEMENT_3D('',#574,#461,#462);
#413=AXIS2_PLACEMENT_3D('',#585,#468,#469);
#414=AXIS2_PLACEMENT_3D('',#587,#470,#471);
#415=AXIS2_PLACEMENT_3D('',#588,#472,#473);
#416=AXIS2_PLACEMENT_3D('',#591,#475,#476);
#417=AXIS2_PLACEMENT_3D('',#592,#477,#478);
#418=AXIS2_PLACEMENT_3D('',#599,#482,#483);
#419=AXIS2_PLACEMENT_3D('',#601,#484,#485);
#420=AXIS2_PLACEMENT_3D('',#602,#486,#487);
#421=AXIS2_PLACEMENT_3D('',#605,#488,#489);
#422=AXIS2_PLACEMENT_3D('',#612,#494,#495);
#423=AXIS2_PLACEMENT_3D('',#627,#503,#504);
#424=AXIS2_PLACEMENT_3D('',#629,#505,#506);
#425=AXIS2_PLACEMENT_3D('',#630,#507,#508);
#426=AXIS2_PLACEMENT_3D('',#632,#509,#510);
#427=AXIS2_PLACEMENT_3D('',#634,#512,#513);
#428=AXIS2_PLACEMENT_3D('',#636,#514,#515);
#429=AXIS2_PLACEMENT_3D('',#638,#517,#518);
#430=AXIS2_PLACEMENT_3D('',#641,#520,#521);
#431=AXIS2_PLACEMENT_3D('',#642,#522,#523);
#432=AXIS2_PLACEMENT_3D('',#644,#525,#526);
#433=AXIS2_PLACEMENT_3D('',#647,#528,#529);
#434=AXIS2_PLACEMENT_3D('',#648,#530,#531);
#435=AXIS2_PLACEMENT_3D('',#650,#533,#534);
#436=AXIS2_PLACEMENT_3D('',#654,#536,#537);
#437=AXIS2_PLACEMENT_3D('',#655,#538,#539);
#438=AXIS2_PLACEMENT_3D('',#657,#541,#542);
#439=AXIS2_PLACEMENT_3D('',#658,#543,#544);
#440=AXIS2_PLACEMENT_3D('',#659,#545,#546);
#441=AXIS2_PLACEMENT_3D('',#661,#548,#549);
#442=AXIS2_PLACEMENT_3D('',#664,#552,#553);
#443=AXIS2_PLACEMENT_3D('',#665,#554,#555);
#444=AXIS2_PLACEMENT_3D('',#666,#556,#557);
#445=DIRECTION('axis',(0.,0.,1.));
#446=DIRECTION('refdir',(1.,0.,0.));
#447=DIRECTION('center_axis',(0.,0.,1.));
#448=DIRECTION('ref_axis',(9.49410759657493E-16,1.,0.));
#449=DIRECTION('center_axis',(0.,0.,-1.));
#450=DIRECTION('ref_axis',(1.,0.,0.));
#451=DIRECTION('',(0.,0.,-1.));
#452=DIRECTION('center_axis',(0.,0.,1.));
#453=DIRECTION('ref_axis',(1.,0.,0.));
#454=DIRECTION('',(0.,0.,1.));
#455=DIRECTION('center_axis',(0.,0.,-1.));
#456=DIRECTION('ref_axis',(1.,0.,0.));
#457=DIRECTION('',(-9.25185853854297E-17,-1.,0.));
#458=DIRECTION('center_axis',(0.,0.,1.));
#459=DIRECTION('ref_axis',(1.,0.,0.));
#460=DIRECTION('',(9.25185853854297E-17,1.,0.));
#461=DIRECTION('center_axis',(1.,-9.25185853854297E-17,0.));
#462=DIRECTION('ref_axis',(0.,0.,1.));
#463=DIRECTION('',(0.,0.,-1.));
#464=DIRECTION('',(0.,0.,1.));
#465=DIRECTION('',(9.25185853854297E-17,1.,0.));
#466=DIRECTION('',(0.,0.,-1.));
#467=DIRECTION('',(-9.25185853854297E-17,-1.,0.));
#468=DIRECTION('center_axis',(-1.,9.25185853854297E-17,0.));
#469=DIRECTION('ref_axis',(0.,-1.,0.));
#470=DIRECTION('center_axis',(-1.,9.25185853854297E-17,0.));
#471=DIRECTION('ref_axis',(0.,-1.,0.));
#472=DIRECTION('center_axis',(0.,0.,1.));
#473=DIRECTION('ref_axis',(2.83276944882399E-16,1.,0.));
#474=DIRECTION('',(0.,0.,1.));
#475=DIRECTION('center_axis',(0.,0.,1.));
#476=DIRECTION('ref_axis',(1.,0.,0.));
#477=DIRECTION('center_axis',(-1.,9.25185853854297E-17,0.));
#478=DIRECTION('ref_axis',(0.,0.,-1.));
#479=DIRECTION('',(9.25185853854297E-17,1.,0.));
#480=DIRECTION('',(0.,0.,-1.));
#481=DIRECTION('',(-9.25185853854297E-17,-1.,0.));
#482=DIRECTION('center_axis',(1.,-9.25185853854297E-17,0.));
#483=DIRECTION('ref_axis',(0.,-1.,0.));
#484=DIRECTION('center_axis',(1.,-9.25185853854297E-17,0.));
#485=DIRECTION('ref_axis',(0.,-1.,0.));
#486=DIRECTION('center_axis',(0.,0.,1.));
#487=DIRECTION('ref_axis',(1.,0.,0.));
#488=DIRECTION('center_axis',(0.,0.,1.));
#489=DIRECTION('ref_axis',(1.,0.,0.));
#490=DIRECTION('',(-9.25185853854297E-17,-1.,0.));
#491=DIRECTION('',(-1.,1.22464679914735E-16,0.));
#492=DIRECTION('',(-1.,1.22464679914735E-16,0.));
#493=DIRECTION('',(1.2335811384724E-16,1.,0.));
#494=DIRECTION('center_axis',(1.,-1.2335811384724E-16,0.));
#495=DIRECTION('ref_axis',(0.,0.,-1.));
#496=DIRECTION('',(-1.2335811384724E-16,-1.,0.));
#497=DIRECTION('',(0.,0.,-1.));
#498=DIRECTION('',(0.,0.,1.));
#499=DIRECTION('',(-9.25185853854297E-17,-1.,0.));
#500=DIRECTION('',(0.,0.,1.));
#501=DIRECTION('',(-1.2335811384724E-16,-1.,0.));
#502=DIRECTION('',(0.,0.,1.));
#503=DIRECTION('center_axis',(1.,-1.2335811384724E-16,0.));
#504=DIRECTION('ref_axis',(0.,-1.,0.));
#505=DIRECTION('center_axis',(1.,-1.2335811384724E-16,0.));
#506=DIRECTION('ref_axis',(0.,-1.,0.));
#507=DIRECTION('center_axis',(0.,0.,1.));
#508=DIRECTION('ref_axis',(-3.82856869892695E-16,1.,0.));
#509=DIRECTION('center_axis',(0.,0.,1.));
#510=DIRECTION('ref_axis',(1.,0.,0.));
#511=DIRECTION('',(0.,0.,1.));
#512=DIRECTION('center_axis',(0.,0.,-1.));
#513=DIRECTION('ref_axis',(1.,0.,0.));
#514=DIRECTION('center_axis',(0.,0.,-1.));
#515=DIRECTION('ref_axis',(1.,0.,0.));
#516=DIRECTION('',(1.2335811384724E-16,1.,0.));
#517=DIRECTION('center_axis',(1.,0.,0.));
#518=DIRECTION('ref_axis',(0.,-1.,0.));
#519=DIRECTION('',(1.,0.,0.));
#520=DIRECTION('center_axis',(-1.,1.2335811384724E-16,0.));
#521=DIRECTION('ref_axis',(0.,-1.,0.));
#522=DIRECTION('center_axis',(1.,0.,0.));
#523=DIRECTION('ref_axis',(0.,-1.,0.));
#524=DIRECTION('',(1.,0.,0.));
#525=DIRECTION('center_axis',(1.,0.,0.));
#526=DIRECTION('ref_axis',(0.,-1.,0.));
#527=DIRECTION('',(1.,0.,0.));
#528=DIRECTION('center_axis',(-1.,1.2335811384724E-16,0.));
#529=DIRECTION('ref_axis',(0.,-1.,0.));
#530=DIRECTION('center_axis',(1.,0.,0.));
#531=DIRECTION('ref_axis',(0.,-1.,0.));
#532=DIRECTION('',(1.,0.,0.));
#533=DIRECTION('center_axis',(0.,0.,1.));
#534=DIRECTION('ref_axis',(1.,0.,0.));
#535=DIRECTION('',(1.2335811384724E-16,1.,0.));
#536=DIRECTION('center_axis',(0.,0.,-1.));
#537=DIRECTION('ref_axis',(1.,0.,0.));
#538=DIRECTION('center_axis',(0.,0.,1.));
#539=DIRECTION('ref_axis',(1.,0.,0.));
#540=DIRECTION('',(-1.,1.22464679914735E-16,0.));
#541=DIRECTION('center_axis',(0.,0.,1.));
#542=DIRECTION('ref_axis',(1.,0.,0.));
#543=DIRECTION('center_axis',(0.,0.,-1.));
#544=DIRECTION('ref_axis',(1.,0.,0.));
#545=DIRECTION('center_axis',(0.,0.,1.));
#546=DIRECTION('ref_axis',(-1.,1.22464679914735E-16,0.));
#547=DIRECTION('',(1.,-1.22464679914735E-16,0.));
#548=DIRECTION('center_axis',(-1.,1.2335811384724E-16,0.));
#549=DIRECTION('ref_axis',(0.,0.,1.));
#550=DIRECTION('',(0.,0.,-1.));
#551=DIRECTION('',(0.,0.,-1.));
#552=DIRECTION('center_axis',(0.,0.,1.));
#553=DIRECTION('ref_axis',(5.0532154980743E-16,1.,0.));
#554=DIRECTION('center_axis',(-9.25185853854297E-17,-1.,0.));
#555=DIRECTION('ref_axis',(0.,0.,-1.));
#556=DIRECTION('center_axis',(-9.25185853854297E-17,-1.,0.));
#557=DIRECTION('ref_axis',(0.,0.,-1.));
#558=CARTESIAN_POINT('',(0.,0.,0.));
#559=CARTESIAN_POINT('Origin',(9.71445146547012E-15,-1.37043154602168E-15,
-9.));
#560=CARTESIAN_POINT('',(-4.50000002980232,-11.6619037781907,-9.));
#561=CARTESIAN_POINT('',(4.50000002980233,-11.6619037781907,-9.));
#562=CARTESIAN_POINT('Origin',(9.71445146547012E-15,-1.37043154602168E-15,
-9.));
#563=CARTESIAN_POINT('',(-4.50000002980232,-11.6619037781907,5.));
#564=CARTESIAN_POINT('',(-4.50000002980232,-11.6619037781907,-9.));
#565=CARTESIAN_POINT('',(4.50000002980233,-11.6619037781907,5.));
#566=CARTESIAN_POINT('Origin',(9.71445146547012E-15,-1.37043154602168E-15,
5.));
#567=CARTESIAN_POINT('',(4.50000002980232,-11.6619037781907,-9.));
#568=CARTESIAN_POINT('Origin',(8.88178419700125E-15,0.419048110904636,5.));
#569=CARTESIAN_POINT('',(-4.50000002980232,-10.0374299365813,5.));
#570=CARTESIAN_POINT('',(-4.50000002980232,-5.29047594454768,5.));
#571=CARTESIAN_POINT('',(4.50000002980233,-10.0374299365813,5.));
#572=CARTESIAN_POINT('Origin',(0.,0.,5.));
#573=CARTESIAN_POINT('',(4.50000002980232,-5.29047594454768,5.));
#574=CARTESIAN_POINT('Origin',(4.50000002980232,-11.,0.));
#575=CARTESIAN_POINT('',(4.50000002980232,-10.0374299365813,30.));
#576=CARTESIAN_POINT('',(4.50000002980232,-10.0374299365813,0.));
#577=CARTESIAN_POINT('',(4.50000002980232,-10.0374299365813,30.0208072322523));
#578=CARTESIAN_POINT('',(4.50000002980232,-10.0374299365813,28.5208072322523));
#579=CARTESIAN_POINT('',(4.50000002980232,-17.,30.0208072322523));
#580=CARTESIAN_POINT('',(4.50000002980232,-11.,30.0208072322523));
#581=CARTESIAN_POINT('',(4.50000002980232,-17.,-9.));
#582=CARTESIAN_POINT('',(4.50000002980232,-17.,0.));
#583=CARTESIAN_POINT('',(4.50000002980232,-11.,-9.));
#584=CARTESIAN_POINT('',(4.50000002980232,-11.9187149682907,21.9834207694256));
#585=CARTESIAN_POINT('Origin',(4.50000002980232,-13.5187149682907,21.9834207694256));
#586=CARTESIAN_POINT('',(4.50000002980232,-11.9187149682907,6.73665393537721));
#587=CARTESIAN_POINT('Origin',(4.50000002980232,-13.5187149682907,6.73665393537721));
#588=CARTESIAN_POINT('Origin',(0.,0.,0.));
#589=CARTESIAN_POINT('',(-4.50000002980232,-10.0374299365813,30.));
#590=CARTESIAN_POINT('',(-4.50000002980232,-10.0374299365813,0.));
#591=CARTESIAN_POINT('Origin',(0.,0.,30.));
#592=CARTESIAN_POINT('Origin',(-4.50000002980232,-11.,30.));
#593=CARTESIAN_POINT('',(-4.50000002980232,-17.,-9.));
#594=CARTESIAN_POINT('',(-4.50000002980232,-11.,-9.));
#595=CARTESIAN_POINT('',(-4.50000002980232,-17.,30.));
#596=CARTESIAN_POINT('',(-4.50000002980232,-17.,0.));
#597=CARTESIAN_POINT('',(-4.50000002980232,-11.,30.));
#598=CARTESIAN_POINT('',(-4.50000002980232,-11.9187149682907,21.9834207694256));
#599=CARTESIAN_POINT('Origin',(-4.50000002980232,-13.5187149682907,21.9834207694256));
#600=CARTESIAN_POINT('',(-4.50000002980232,-11.9187149682907,6.73665393537721));
#601=CARTESIAN_POINT('Origin',(-4.50000002980232,-13.5187149682907,6.73665393537721));
#602=CARTESIAN_POINT('Origin',(0.,0.,-9.));
#603=CARTESIAN_POINT('',(2.00000002980233,-10.5623150814957,-9.));
#604=CARTESIAN_POINT('',(-2.00000002980233,-10.5623150814957,-9.));
#605=CARTESIAN_POINT('Origin',(-3.60822483003176E-15,-9.0205620750794E-16,
-9.));
#606=CARTESIAN_POINT('',(-2.00000002980232,-17.,-9.));
#607=CARTESIAN_POINT('',(-2.00000002980232,-11.,-9.));
#608=CARTESIAN_POINT('',(-2.00000002980232,-17.,-9.));
#609=CARTESIAN_POINT('',(2.00000002980232,-17.,-9.));
#610=CARTESIAN_POINT('',(4.50000002980232,-17.,-9.));
#611=CARTESIAN_POINT('',(2.00000002980232,-5.5,-9.));
#612=CARTESIAN_POINT('Origin',(2.00000002980232,-11.,30.0000004470348));
#613=CARTESIAN_POINT('',(2.00000002980232,-7.74596668471991,5.));
#614=CARTESIAN_POINT('',(2.00000002980233,-10.5623150814957,5.));
#615=CARTESIAN_POINT('',(2.00000002980232,-5.5,5.));
#616=CARTESIAN_POINT('',(2.00000002980232,-10.5623150814957,0.));
#617=CARTESIAN_POINT('',(2.00000002980232,-17.,30.0208072322523));
#618=CARTESIAN_POINT('',(2.00000002980232,-17.,28.5208072322523));
#619=CARTESIAN_POINT('',(2.00000002980232,-10.8166538208815,30.0208072322523));
#620=CARTESIAN_POINT('',(2.00000002980232,-11.,30.0208072322523));
#621=CARTESIAN_POINT('',(2.00000002980232,-10.8166538208815,30.0000004470348));
#622=CARTESIAN_POINT('',(2.00000002980232,-10.8166538208815,28.5208072322523));
#623=CARTESIAN_POINT('',(2.00000002980232,-7.74596668471991,30.0000004470348));
#624=CARTESIAN_POINT('',(2.00000002980232,-5.5,30.));
#625=CARTESIAN_POINT('',(2.00000002980232,-7.74596668471991,0.));
#626=CARTESIAN_POINT('',(2.00000002980232,-11.9187149682907,21.9834207694256));
#627=CARTESIAN_POINT('Origin',(2.00000002980232,-13.5187149682907,21.9834207694256));
#628=CARTESIAN_POINT('',(2.00000002980232,-11.9187149682907,6.73665393537721));
#629=CARTESIAN_POINT('Origin',(2.00000002980232,-13.5187149682907,6.73665393537721));
#630=CARTESIAN_POINT('Origin',(-3.60822483003176E-15,-9.0205620750794E-16,
0.));
#631=CARTESIAN_POINT('',(-2.00000002980233,-10.5623150814957,5.));
#632=CARTESIAN_POINT('Origin',(-3.60822483003176E-15,-9.0205620750794E-16,
5.));
#633=CARTESIAN_POINT('',(-2.00000002980232,-10.5623150814957,0.));
#634=CARTESIAN_POINT('Origin',(-4.44089209850063E-15,0.0938424592521692,
5.));
#635=CARTESIAN_POINT('',(-2.00000002980232,-7.74596668471991,5.));
#636=CARTESIAN_POINT('Origin',(0.,0.,5.));
#637=CARTESIAN_POINT('',(-2.00000002980232,-5.5,5.));
#638=CARTESIAN_POINT('Origin',(-4.50000002980232,-13.5187149682907,6.73665393537721));
#639=CARTESIAN_POINT('',(-2.00000002980232,-11.9187149682907,6.73665393537721));
#640=CARTESIAN_POINT('',(-4.50000002980232,-11.9187149682907,6.73665393537721));
#641=CARTESIAN_POINT('Origin',(-2.00000002980232,-13.5187149682907,6.73665393537721));
#642=CARTESIAN_POINT('Origin',(-4.50000002980232,-13.5187149682907,6.73665393537721));
#643=CARTESIAN_POINT('',(-4.50000002980232,-11.9187149682907,6.73665393537721));
#644=CARTESIAN_POINT('Origin',(-4.50000002980232,-13.5187149682907,21.9834207694256));
#645=CARTESIAN_POINT('',(-2.00000002980232,-11.9187149682907,21.9834207694256));
#646=CARTESIAN_POINT('',(-4.50000002980232,-11.9187149682907,21.9834207694256));
#647=CARTESIAN_POINT('Origin',(-2.00000002980232,-13.5187149682907,21.9834207694256));
#648=CARTESIAN_POINT('Origin',(-4.50000002980232,-13.5187149682907,21.9834207694256));
#649=CARTESIAN_POINT('',(-4.50000002980232,-11.9187149682907,21.9834207694256));
#650=CARTESIAN_POINT('Origin',(0.,0.,30.));
#651=CARTESIAN_POINT('',(-2.00000002980232,-17.,30.));
#652=CARTESIAN_POINT('',(-2.00000002980232,-7.74596668471991,30.0000004470348));
#653=CARTESIAN_POINT('',(-2.00000002980232,-5.5,30.));
#654=CARTESIAN_POINT('Origin',(0.,0.,30.));
#655=CARTESIAN_POINT('Origin',(0.,0.,30.));
#656=CARTESIAN_POINT('',(-4.50000002980232,-17.,30.));
#657=CARTESIAN_POINT('Origin',(0.,0.,28.5208072322523));
#658=CARTESIAN_POINT('Origin',(0.,0.,30.0208072322523));
#659=CARTESIAN_POINT('Origin',(4.50000002980232,-11.,30.0208072322523));
#660=CARTESIAN_POINT('',(2.00000002980232,-17.,30.0208072322523));
#661=CARTESIAN_POINT('Origin',(-2.00000002980232,-11.,0.));
#662=CARTESIAN_POINT('',(-2.00000002980232,-7.74596668471991,0.));
#663=CARTESIAN_POINT('',(-2.00000002980232,-17.,0.));
#664=CARTESIAN_POINT('Origin',(0.,0.,0.));
#665=CARTESIAN_POINT('Origin',(3.25000002980232,-17.,14.2604036161261));
#666=CARTESIAN_POINT('Origin',(-3.25000002980232,-17.,15.));
#667=UNCERTAINTY_MEASURE_WITH_UNIT(LENGTH_MEASURE(0.01),#671,
'DISTANCE_ACCURACY_VALUE',
'Maximum model space distance between geometric entities at asserted c
onnectivities');
#668=UNCERTAINTY_MEASURE_WITH_UNIT(LENGTH_MEASURE(0.01),#671,
'DISTANCE_ACCURACY_VALUE',
'Maximum model space distance between geometric entities at asserted c
onnectivities');
#669=(
GEOMETRIC_REPRESENTATION_CONTEXT(3)
GLOBAL_UNCERTAINTY_ASSIGNED_CONTEXT((#667))
GLOBAL_UNIT_ASSIGNED_CONTEXT((#671,#673,#674))
REPRESENTATION_CONTEXT('','3D')
);
#670=(
GEOMETRIC_REPRESENTATION_CONTEXT(3)
GLOBAL_UNCERTAINTY_ASSIGNED_CONTEXT((#668))
GLOBAL_UNIT_ASSIGNED_CONTEXT((#671,#673,#674))
REPRESENTATION_CONTEXT('','3D')
);
#671=(
LENGTH_UNIT()
NAMED_UNIT(*)
SI_UNIT(.MILLI.,.METRE.)
);
#672=(
LENGTH_UNIT()
NAMED_UNIT(*)
SI_UNIT($,.METRE.)
);
#673=(
NAMED_UNIT(*)
PLANE_ANGLE_UNIT()
SI_UNIT($,.RADIAN.)
);
#674=(
NAMED_UNIT(*)
SI_UNIT($,.STERADIAN.)
SOLID_ANGLE_UNIT()
);
#675=SHAPE_DEFINITION_REPRESENTATION(#676,#677);
#676=PRODUCT_DEFINITION_SHAPE('',$,#679);
#677=SHAPE_REPRESENTATION('',(#406),#669);
#678=PRODUCT_DEFINITION_CONTEXT('part definition',#683,'design');
#679=PRODUCT_DEFINITION('2026-04-03-09-30-00-354','collier de serrage',
#680,#678);
#680=PRODUCT_DEFINITION_FORMATION('',$,#685);
#681=PRODUCT_RELATED_PRODUCT_CATEGORY('collier de serrage',
'collier de serrage',(#685));
#682=APPLICATION_PROTOCOL_DEFINITION('international standard',
'automotive_design',2009,#683);
#683=APPLICATION_CONTEXT(
'Core Data for Automotive Mechanical Design Process');
#684=PRODUCT_CONTEXT('part definition',#683,'mechanical');
#685=PRODUCT('2026-04-03-09-30-00-354','collier de serrage',$,(#684));
#686=PRESENTATION_STYLE_ASSIGNMENT((#687));
#687=SURFACE_STYLE_USAGE(.BOTH.,#688);
#688=SURFACE_SIDE_STYLE('',(#689));
#689=SURFACE_STYLE_FILL_AREA(#690);
#690=FILL_AREA_STYLE('Steel - Satin',(#691));
#691=FILL_AREA_STYLE_COLOUR('Steel - Satin',#692);
#692=COLOUR_RGB('Steel - Satin',0.627450980392157,0.627450980392157,0.627450980392157);
ENDSEC;
END-ISO-10303-21;
