ISO-10303-21;
HEADER;
/* Generated by software containing ST-Developer
 * from STEP Tools, Inc. (www.steptools.com) 
 */

FILE_DESCRIPTION(
/* description */ (''),
/* implementation_level */ '2;1');

FILE_NAME(
/* name */ 'Internal Plate (Bottom).step',
/* time_stamp */ '2026-05-27T22:04:39+02:00',
/* author */ (''),
/* organization */ (''),
/* preprocessor_version */ 'ST-DEVELOPER v20.1',
/* originating_system */ 'Autodesk Translation Framework v15.8.0.0',
/* authorisation */ '');

FILE_SCHEMA (('AUTOMOTIVE_DESIGN { 1 0 10303 214 3 1 1 }'));
ENDSEC;

DATA;
#10=MECHANICAL_DESIGN_GEOMETRIC_PRESENTATION_REPRESENTATION('',(#13),#1571);
#11=SHAPE_REPRESENTATION_RELATIONSHIP('SRR','None',#1577,#12);
#12=ADVANCED_BREP_SHAPE_REPRESENTATION('',(#14),#1570);
#13=STYLED_ITEM('',(#1586),#14);
#14=MANIFOLD_SOLID_BREP('Body35',#987);
#15=FACE_BOUND('',#165,.T.);
#16=FACE_BOUND('',#166,.T.);
#17=FACE_BOUND('',#167,.T.);
#18=FACE_BOUND('',#168,.T.);
#19=FACE_BOUND('',#169,.T.);
#20=FACE_BOUND('',#170,.T.);
#21=FACE_BOUND('',#171,.T.);
#22=FACE_BOUND('',#172,.T.);
#23=FACE_BOUND('',#173,.T.);
#24=FACE_BOUND('',#174,.T.);
#25=FACE_BOUND('',#175,.T.);
#26=FACE_BOUND('',#176,.T.);
#27=FACE_BOUND('',#177,.T.);
#28=FACE_BOUND('',#178,.T.);
#29=FACE_BOUND('',#179,.T.);
#30=FACE_BOUND('',#183,.T.);
#31=FACE_BOUND('',#184,.T.);
#32=FACE_BOUND('',#185,.T.);
#33=FACE_BOUND('',#186,.T.);
#34=FACE_BOUND('',#187,.T.);
#35=FACE_BOUND('',#188,.T.);
#36=FACE_BOUND('',#189,.T.);
#37=FACE_BOUND('',#190,.T.);
#38=FACE_BOUND('',#191,.T.);
#39=FACE_BOUND('',#192,.T.);
#40=FACE_BOUND('',#193,.T.);
#41=FACE_BOUND('',#194,.T.);
#42=FACE_BOUND('',#195,.T.);
#43=FACE_BOUND('',#196,.T.);
#44=FACE_BOUND('',#197,.T.);
#45=PLANE('',#1001);
#46=PLANE('',#1002);
#47=PLANE('',#1003);
#48=PLANE('',#1004);
#49=PLANE('',#1005);
#50=PLANE('',#1006);
#51=PLANE('',#1007);
#52=PLANE('',#1008);
#53=PLANE('',#1009);
#54=PLANE('',#1010);
#55=PLANE('',#1011);
#56=PLANE('',#1012);
#57=PLANE('',#1013);
#58=PLANE('',#1014);
#59=PLANE('',#1015);
#60=PLANE('',#1016);
#61=PLANE('',#1017);
#62=PLANE('',#1018);
#63=PLANE('',#1025);
#64=PLANE('',#1026);
#65=PLANE('',#1027);
#66=PLANE('',#1028);
#67=PLANE('',#1029);
#68=PLANE('',#1030);
#69=PLANE('',#1031);
#70=PLANE('',#1032);
#71=PLANE('',#1033);
#72=PLANE('',#1034);
#73=PLANE('',#1035);
#74=PLANE('',#1036);
#75=PLANE('',#1037);
#76=PLANE('',#1038);
#77=PLANE('',#1043);
#78=PLANE('',#1044);
#79=PLANE('',#1045);
#80=PLANE('',#1050);
#81=FACE_OUTER_BOUND('',#127,.T.);
#82=FACE_OUTER_BOUND('',#128,.T.);
#83=FACE_OUTER_BOUND('',#129,.T.);
#84=FACE_OUTER_BOUND('',#130,.T.);
#85=FACE_OUTER_BOUND('',#131,.T.);
#86=FACE_OUTER_BOUND('',#132,.T.);
#87=FACE_OUTER_BOUND('',#133,.T.);
#88=FACE_OUTER_BOUND('',#134,.T.);
#89=FACE_OUTER_BOUND('',#135,.T.);
#90=FACE_OUTER_BOUND('',#136,.T.);
#91=FACE_OUTER_BOUND('',#137,.T.);
#92=FACE_OUTER_BOUND('',#138,.T.);
#93=FACE_OUTER_BOUND('',#139,.T.);
#94=FACE_OUTER_BOUND('',#140,.T.);
#95=FACE_OUTER_BOUND('',#141,.T.);
#96=FACE_OUTER_BOUND('',#142,.T.);
#97=FACE_OUTER_BOUND('',#143,.T.);
#98=FACE_OUTER_BOUND('',#144,.T.);
#99=FACE_OUTER_BOUND('',#145,.T.);
#100=FACE_OUTER_BOUND('',#146,.T.);
#101=FACE_OUTER_BOUND('',#147,.T.);
#102=FACE_OUTER_BOUND('',#148,.T.);
#103=FACE_OUTER_BOUND('',#149,.T.);
#104=FACE_OUTER_BOUND('',#150,.T.);
#105=FACE_OUTER_BOUND('',#151,.T.);
#106=FACE_OUTER_BOUND('',#152,.T.);
#107=FACE_OUTER_BOUND('',#153,.T.);
#108=FACE_OUTER_BOUND('',#154,.T.);
#109=FACE_OUTER_BOUND('',#155,.T.);
#110=FACE_OUTER_BOUND('',#156,.T.);
#111=FACE_OUTER_BOUND('',#157,.T.);
#112=FACE_OUTER_BOUND('',#158,.T.);
#113=FACE_OUTER_BOUND('',#159,.T.);
#114=FACE_OUTER_BOUND('',#160,.T.);
#115=FACE_OUTER_BOUND('',#161,.T.);
#116=FACE_OUTER_BOUND('',#162,.T.);
#117=FACE_OUTER_BOUND('',#163,.T.);
#118=FACE_OUTER_BOUND('',#164,.T.);
#119=FACE_OUTER_BOUND('',#180,.T.);
#120=FACE_OUTER_BOUND('',#181,.T.);
#121=FACE_OUTER_BOUND('',#182,.T.);
#122=FACE_OUTER_BOUND('',#198,.T.);
#123=FACE_OUTER_BOUND('',#199,.T.);
#124=FACE_OUTER_BOUND('',#200,.T.);
#125=FACE_OUTER_BOUND('',#201,.T.);
#126=FACE_OUTER_BOUND('',#202,.T.);
#127=EDGE_LOOP('',(#667,#668,#669,#670));
#128=EDGE_LOOP('',(#671,#672,#673,#674));
#129=EDGE_LOOP('',(#675,#676,#677,#678));
#130=EDGE_LOOP('',(#679,#680,#681,#682));
#131=EDGE_LOOP('',(#683,#684,#685,#686));
#132=EDGE_LOOP('',(#687,#688,#689,#690));
#133=EDGE_LOOP('',(#691,#692,#693,#694));
#134=EDGE_LOOP('',(#695,#696,#697,#698));
#135=EDGE_LOOP('',(#699,#700,#701,#702));
#136=EDGE_LOOP('',(#703,#704,#705,#706));
#137=EDGE_LOOP('',(#707,#708,#709,#710));
#138=EDGE_LOOP('',(#711,#712,#713,#714));
#139=EDGE_LOOP('',(#715,#716,#717,#718));
#140=EDGE_LOOP('',(#719,#720,#721,#722));
#141=EDGE_LOOP('',(#723,#724,#725,#726));
#142=EDGE_LOOP('',(#727,#728,#729,#730));
#143=EDGE_LOOP('',(#731,#732,#733,#734));
#144=EDGE_LOOP('',(#735,#736,#737,#738));
#145=EDGE_LOOP('',(#739,#740,#741,#742));
#146=EDGE_LOOP('',(#743,#744,#745,#746));
#147=EDGE_LOOP('',(#747,#748,#749,#750));
#148=EDGE_LOOP('',(#751,#752,#753,#754));
#149=EDGE_LOOP('',(#755,#756,#757,#758));
#150=EDGE_LOOP('',(#759,#760,#761,#762));
#151=EDGE_LOOP('',(#763,#764,#765,#766));
#152=EDGE_LOOP('',(#767,#768,#769,#770));
#153=EDGE_LOOP('',(#771,#772,#773,#774));
#154=EDGE_LOOP('',(#775,#776,#777,#778));
#155=EDGE_LOOP('',(#779,#780,#781,#782));
#156=EDGE_LOOP('',(#783,#784,#785,#786));
#157=EDGE_LOOP('',(#787,#788,#789,#790));
#158=EDGE_LOOP('',(#791,#792,#793,#794));
#159=EDGE_LOOP('',(#795,#796,#797,#798));
#160=EDGE_LOOP('',(#799,#800,#801,#802));
#161=EDGE_LOOP('',(#803,#804,#805,#806));
#162=EDGE_LOOP('',(#807,#808,#809,#810));
#163=EDGE_LOOP('',(#811,#812,#813,#814));
#164=EDGE_LOOP('',(#815,#816,#817,#818,#819,#820,#821,#822,#823,#824,#825,
#826,#827,#828));
#165=EDGE_LOOP('',(#829));
#166=EDGE_LOOP('',(#830));
#167=EDGE_LOOP('',(#831));
#168=EDGE_LOOP('',(#832));
#169=EDGE_LOOP('',(#833,#834,#835,#836));
#170=EDGE_LOOP('',(#837,#838,#839,#840));
#171=EDGE_LOOP('',(#841,#842,#843,#844));
#172=EDGE_LOOP('',(#845,#846,#847,#848));
#173=EDGE_LOOP('',(#849));
#174=EDGE_LOOP('',(#850));
#175=EDGE_LOOP('',(#851,#852,#853,#854));
#176=EDGE_LOOP('',(#855));
#177=EDGE_LOOP('',(#856));
#178=EDGE_LOOP('',(#857));
#179=EDGE_LOOP('',(#858));
#180=EDGE_LOOP('',(#859,#860,#861,#862));
#181=EDGE_LOOP('',(#863,#864,#865,#866));
#182=EDGE_LOOP('',(#867,#868,#869,#870,#871,#872,#873,#874,#875,#876,#877,
#878,#879,#880));
#183=EDGE_LOOP('',(#881));
#184=EDGE_LOOP('',(#882));
#185=EDGE_LOOP('',(#883));
#186=EDGE_LOOP('',(#884));
#187=EDGE_LOOP('',(#885,#886,#887,#888));
#188=EDGE_LOOP('',(#889,#890,#891,#892));
#189=EDGE_LOOP('',(#893,#894,#895,#896));
#190=EDGE_LOOP('',(#897,#898,#899,#900));
#191=EDGE_LOOP('',(#901));
#192=EDGE_LOOP('',(#902));
#193=EDGE_LOOP('',(#903,#904,#905,#906));
#194=EDGE_LOOP('',(#907));
#195=EDGE_LOOP('',(#908));
#196=EDGE_LOOP('',(#909));
#197=EDGE_LOOP('',(#910));
#198=EDGE_LOOP('',(#911,#912,#913,#914));
#199=EDGE_LOOP('',(#915,#916,#917,#918));
#200=EDGE_LOOP('',(#919,#920,#921,#922));
#201=EDGE_LOOP('',(#923,#924,#925,#926));
#202=EDGE_LOOP('',(#927,#928,#929,#930));
#203=LINE('',#1306,#315);
#204=LINE('',#1312,#316);
#205=LINE('',#1318,#317);
#206=LINE('',#1324,#318);
#207=LINE('',#1329,#319);
#208=LINE('',#1331,#320);
#209=LINE('',#1333,#321);
#210=LINE('',#1334,#322);
#211=LINE('',#1337,#323);
#212=LINE('',#1339,#324);
#213=LINE('',#1340,#325);
#214=LINE('',#1343,#326);
#215=LINE('',#1345,#327);
#216=LINE('',#1346,#328);
#217=LINE('',#1348,#329);
#218=LINE('',#1349,#330);
#219=LINE('',#1353,#331);
#220=LINE('',#1355,#332);
#221=LINE('',#1357,#333);
#222=LINE('',#1358,#334);
#223=LINE('',#1361,#335);
#224=LINE('',#1363,#336);
#225=LINE('',#1364,#337);
#226=LINE('',#1367,#338);
#227=LINE('',#1369,#339);
#228=LINE('',#1370,#340);
#229=LINE('',#1372,#341);
#230=LINE('',#1373,#342);
#231=LINE('',#1377,#343);
#232=LINE('',#1379,#344);
#233=LINE('',#1381,#345);
#234=LINE('',#1382,#346);
#235=LINE('',#1385,#347);
#236=LINE('',#1387,#348);
#237=LINE('',#1388,#349);
#238=LINE('',#1391,#350);
#239=LINE('',#1393,#351);
#240=LINE('',#1394,#352);
#241=LINE('',#1396,#353);
#242=LINE('',#1397,#354);
#243=LINE('',#1401,#355);
#244=LINE('',#1403,#356);
#245=LINE('',#1405,#357);
#246=LINE('',#1406,#358);
#247=LINE('',#1410,#359);
#248=LINE('',#1412,#360);
#249=LINE('',#1414,#361);
#250=LINE('',#1415,#362);
#251=LINE('',#1419,#363);
#252=LINE('',#1421,#364);
#253=LINE('',#1423,#365);
#254=LINE('',#1424,#366);
#255=LINE('',#1428,#367);
#256=LINE('',#1430,#368);
#257=LINE('',#1432,#369);
#258=LINE('',#1433,#370);
#259=LINE('',#1437,#371);
#260=LINE('',#1438,#372);
#261=LINE('',#1439,#373);
#262=LINE('',#1443,#374);
#263=LINE('',#1444,#375);
#264=LINE('',#1445,#376);
#265=LINE('',#1450,#377);
#266=LINE('',#1456,#378);
#267=LINE('',#1460,#379);
#268=LINE('',#1462,#380);
#269=LINE('',#1463,#381);
#270=LINE('',#1466,#382);
#271=LINE('',#1468,#383);
#272=LINE('',#1469,#384);
#273=LINE('',#1473,#385);
#274=LINE('',#1475,#386);
#275=LINE('',#1477,#387);
#276=LINE('',#1478,#388);
#277=LINE('',#1480,#389);
#278=LINE('',#1481,#390);
#279=LINE('',#1483,#391);
#280=LINE('',#1484,#392);
#281=LINE('',#1487,#393);
#282=LINE('',#1489,#394);
#283=LINE('',#1490,#395);
#284=LINE('',#1493,#396);
#285=LINE('',#1495,#397);
#286=LINE('',#1496,#398);
#287=LINE('',#1498,#399);
#288=LINE('',#1499,#400);
#289=LINE('',#1502,#401);
#290=LINE('',#1504,#402);
#291=LINE('',#1505,#403);
#292=LINE('',#1508,#404);
#293=LINE('',#1510,#405);
#294=LINE('',#1511,#406);
#295=LINE('',#1515,#407);
#296=LINE('',#1517,#408);
#297=LINE('',#1519,#409);
#298=LINE('',#1520,#410);
#299=LINE('',#1522,#411);
#300=LINE('',#1523,#412);
#301=LINE('',#1525,#413);
#302=LINE('',#1526,#414);
#303=LINE('',#1529,#415);
#304=LINE('',#1531,#416);
#305=LINE('',#1532,#417);
#306=LINE('',#1543,#418);
#307=LINE('',#1544,#419);
#308=LINE('',#1547,#420);
#309=LINE('',#1548,#421);
#310=LINE('',#1550,#422);
#311=LINE('',#1561,#423);
#312=LINE('',#1563,#424);
#313=LINE('',#1565,#425);
#314=LINE('',#1567,#426);
#315=VECTOR('',#1061,2.25);
#316=VECTOR('',#1068,2.25);
#317=VECTOR('',#1075,2.25);
#318=VECTOR('',#1082,2.25);
#319=VECTOR('',#1087,10.);
#320=VECTOR('',#1088,10.);
#321=VECTOR('',#1089,10.);
#322=VECTOR('',#1090,10.);
#323=VECTOR('',#1093,10.);
#324=VECTOR('',#1094,10.);
#325=VECTOR('',#1095,10.);
#326=VECTOR('',#1098,10.);
#327=VECTOR('',#1099,10.);
#328=VECTOR('',#1100,10.);
#329=VECTOR('',#1103,10.);
#330=VECTOR('',#1104,10.);
#331=VECTOR('',#1107,10.);
#332=VECTOR('',#1108,10.);
#333=VECTOR('',#1109,10.);
#334=VECTOR('',#1110,10.);
#335=VECTOR('',#1113,10.);
#336=VECTOR('',#1114,10.);
#337=VECTOR('',#1115,10.);
#338=VECTOR('',#1118,10.);
#339=VECTOR('',#1119,10.);
#340=VECTOR('',#1120,10.);
#341=VECTOR('',#1123,10.);
#342=VECTOR('',#1124,10.);
#343=VECTOR('',#1127,10.);
#344=VECTOR('',#1128,10.);
#345=VECTOR('',#1129,10.);
#346=VECTOR('',#1130,10.);
#347=VECTOR('',#1133,10.);
#348=VECTOR('',#1134,10.);
#349=VECTOR('',#1135,10.);
#350=VECTOR('',#1138,10.);
#351=VECTOR('',#1139,10.);
#352=VECTOR('',#1140,10.);
#353=VECTOR('',#1143,10.);
#354=VECTOR('',#1144,10.);
#355=VECTOR('',#1147,10.);
#356=VECTOR('',#1148,10.);
#357=VECTOR('',#1149,10.);
#358=VECTOR('',#1150,10.);
#359=VECTOR('',#1153,10.);
#360=VECTOR('',#1154,10.);
#361=VECTOR('',#1155,10.);
#362=VECTOR('',#1156,10.);
#363=VECTOR('',#1159,10.);
#364=VECTOR('',#1160,10.);
#365=VECTOR('',#1161,10.);
#366=VECTOR('',#1162,10.);
#367=VECTOR('',#1165,10.);
#368=VECTOR('',#1166,10.);
#369=VECTOR('',#1167,10.);
#370=VECTOR('',#1168,10.);
#371=VECTOR('',#1171,10.);
#372=VECTOR('',#1172,10.);
#373=VECTOR('',#1173,10.);
#374=VECTOR('',#1176,10.);
#375=VECTOR('',#1177,10.);
#376=VECTOR('',#1178,10.);
#377=VECTOR('',#1183,1.5);
#378=VECTOR('',#1190,1.5);
#379=VECTOR('',#1195,10.);
#380=VECTOR('',#1196,10.);
#381=VECTOR('',#1197,10.);
#382=VECTOR('',#1200,10.);
#383=VECTOR('',#1201,10.);
#384=VECTOR('',#1202,10.);
#385=VECTOR('',#1205,10.);
#386=VECTOR('',#1206,10.);
#387=VECTOR('',#1207,10.);
#388=VECTOR('',#1208,10.);
#389=VECTOR('',#1211,10.);
#390=VECTOR('',#1212,10.);
#391=VECTOR('',#1215,10.);
#392=VECTOR('',#1216,10.);
#393=VECTOR('',#1219,10.);
#394=VECTOR('',#1220,10.);
#395=VECTOR('',#1221,10.);
#396=VECTOR('',#1224,10.);
#397=VECTOR('',#1225,10.);
#398=VECTOR('',#1226,10.);
#399=VECTOR('',#1229,10.);
#400=VECTOR('',#1230,10.);
#401=VECTOR('',#1233,10.);
#402=VECTOR('',#1234,10.);
#403=VECTOR('',#1235,10.);
#404=VECTOR('',#1238,10.);
#405=VECTOR('',#1239,10.);
#406=VECTOR('',#1240,10.);
#407=VECTOR('',#1243,10.);
#408=VECTOR('',#1244,10.);
#409=VECTOR('',#1245,10.);
#410=VECTOR('',#1246,10.);
#411=VECTOR('',#1249,10.);
#412=VECTOR('',#1250,10.);
#413=VECTOR('',#1253,10.);
#414=VECTOR('',#1254,10.);
#415=VECTOR('',#1257,10.);
#416=VECTOR('',#1258,10.);
#417=VECTOR('',#1259,10.);
#418=VECTOR('',#1270,10.);
#419=VECTOR('',#1271,10.);
#420=VECTOR('',#1274,10.);
#421=VECTOR('',#1275,10.);
#422=VECTOR('',#1278,10.);
#423=VECTOR('',#1291,2.25);
#424=VECTOR('',#1294,2.25);
#425=VECTOR('',#1297,2.25);
#426=VECTOR('',#1300,2.25);
#427=CIRCLE('',#990,2.25);
#428=CIRCLE('',#991,2.25);
#429=CIRCLE('',#993,2.25);
#430=CIRCLE('',#994,2.25);
#431=CIRCLE('',#996,2.25);
#432=CIRCLE('',#997,2.25);
#433=CIRCLE('',#999,2.25);
#434=CIRCLE('',#1000,2.25);
#435=CIRCLE('',#1020,1.5);
#436=CIRCLE('',#1021,1.5);
#437=CIRCLE('',#1023,1.5);
#438=CIRCLE('',#1024,1.5);
#439=CIRCLE('',#1039,2.25);
#440=CIRCLE('',#1040,2.25);
#441=CIRCLE('',#1041,2.25);
#442=CIRCLE('',#1042,2.25);
#443=CIRCLE('',#1046,2.25);
#444=CIRCLE('',#1047,2.25);
#445=CIRCLE('',#1048,2.25);
#446=CIRCLE('',#1049,2.25);
#447=VERTEX_POINT('',#1303);
#448=VERTEX_POINT('',#1305);
#449=VERTEX_POINT('',#1309);
#450=VERTEX_POINT('',#1311);
#451=VERTEX_POINT('',#1315);
#452=VERTEX_POINT('',#1317);
#453=VERTEX_POINT('',#1321);
#454=VERTEX_POINT('',#1323);
#455=VERTEX_POINT('',#1327);
#456=VERTEX_POINT('',#1328);
#457=VERTEX_POINT('',#1330);
#458=VERTEX_POINT('',#1332);
#459=VERTEX_POINT('',#1336);
#460=VERTEX_POINT('',#1338);
#461=VERTEX_POINT('',#1342);
#462=VERTEX_POINT('',#1344);
#463=VERTEX_POINT('',#1351);
#464=VERTEX_POINT('',#1352);
#465=VERTEX_POINT('',#1354);
#466=VERTEX_POINT('',#1356);
#467=VERTEX_POINT('',#1360);
#468=VERTEX_POINT('',#1362);
#469=VERTEX_POINT('',#1366);
#470=VERTEX_POINT('',#1368);
#471=VERTEX_POINT('',#1375);
#472=VERTEX_POINT('',#1376);
#473=VERTEX_POINT('',#1378);
#474=VERTEX_POINT('',#1380);
#475=VERTEX_POINT('',#1384);
#476=VERTEX_POINT('',#1386);
#477=VERTEX_POINT('',#1390);
#478=VERTEX_POINT('',#1392);
#479=VERTEX_POINT('',#1399);
#480=VERTEX_POINT('',#1400);
#481=VERTEX_POINT('',#1402);
#482=VERTEX_POINT('',#1404);
#483=VERTEX_POINT('',#1408);
#484=VERTEX_POINT('',#1409);
#485=VERTEX_POINT('',#1411);
#486=VERTEX_POINT('',#1413);
#487=VERTEX_POINT('',#1417);
#488=VERTEX_POINT('',#1418);
#489=VERTEX_POINT('',#1420);
#490=VERTEX_POINT('',#1422);
#491=VERTEX_POINT('',#1426);
#492=VERTEX_POINT('',#1427);
#493=VERTEX_POINT('',#1429);
#494=VERTEX_POINT('',#1431);
#495=VERTEX_POINT('',#1435);
#496=VERTEX_POINT('',#1436);
#497=VERTEX_POINT('',#1441);
#498=VERTEX_POINT('',#1442);
#499=VERTEX_POINT('',#1447);
#500=VERTEX_POINT('',#1449);
#501=VERTEX_POINT('',#1453);
#502=VERTEX_POINT('',#1455);
#503=VERTEX_POINT('',#1459);
#504=VERTEX_POINT('',#1461);
#505=VERTEX_POINT('',#1465);
#506=VERTEX_POINT('',#1467);
#507=VERTEX_POINT('',#1471);
#508=VERTEX_POINT('',#1472);
#509=VERTEX_POINT('',#1474);
#510=VERTEX_POINT('',#1476);
#511=VERTEX_POINT('',#1486);
#512=VERTEX_POINT('',#1488);
#513=VERTEX_POINT('',#1492);
#514=VERTEX_POINT('',#1494);
#515=VERTEX_POINT('',#1501);
#516=VERTEX_POINT('',#1503);
#517=VERTEX_POINT('',#1507);
#518=VERTEX_POINT('',#1509);
#519=VERTEX_POINT('',#1513);
#520=VERTEX_POINT('',#1514);
#521=VERTEX_POINT('',#1516);
#522=VERTEX_POINT('',#1518);
#523=VERTEX_POINT('',#1528);
#524=VERTEX_POINT('',#1530);
#525=VERTEX_POINT('',#1533);
#526=VERTEX_POINT('',#1535);
#527=VERTEX_POINT('',#1537);
#528=VERTEX_POINT('',#1539);
#529=VERTEX_POINT('',#1542);
#530=VERTEX_POINT('',#1546);
#531=VERTEX_POINT('',#1551);
#532=VERTEX_POINT('',#1553);
#533=VERTEX_POINT('',#1555);
#534=VERTEX_POINT('',#1557);
#535=EDGE_CURVE('',#447,#447,#427,.T.);
#536=EDGE_CURVE('',#447,#448,#203,.T.);
#537=EDGE_CURVE('',#448,#448,#428,.T.);
#538=EDGE_CURVE('',#449,#449,#429,.T.);
#539=EDGE_CURVE('',#449,#450,#204,.T.);
#540=EDGE_CURVE('',#450,#450,#430,.T.);
#541=EDGE_CURVE('',#451,#451,#431,.T.);
#542=EDGE_CURVE('',#451,#452,#205,.T.);
#543=EDGE_CURVE('',#452,#452,#432,.T.);
#544=EDGE_CURVE('',#453,#453,#433,.T.);
#545=EDGE_CURVE('',#453,#454,#206,.T.);
#546=EDGE_CURVE('',#454,#454,#434,.T.);
#547=EDGE_CURVE('',#455,#456,#207,.T.);
#548=EDGE_CURVE('',#455,#457,#208,.T.);
#549=EDGE_CURVE('',#458,#457,#209,.T.);
#550=EDGE_CURVE('',#456,#458,#210,.T.);
#551=EDGE_CURVE('',#459,#455,#211,.T.);
#552=EDGE_CURVE('',#459,#460,#212,.T.);
#553=EDGE_CURVE('',#457,#460,#213,.T.);
#554=EDGE_CURVE('',#461,#459,#214,.T.);
#555=EDGE_CURVE('',#461,#462,#215,.T.);
#556=EDGE_CURVE('',#460,#462,#216,.T.);
#557=EDGE_CURVE('',#456,#461,#217,.T.);
#558=EDGE_CURVE('',#462,#458,#218,.T.);
#559=EDGE_CURVE('',#463,#464,#219,.T.);
#560=EDGE_CURVE('',#463,#465,#220,.T.);
#561=EDGE_CURVE('',#466,#465,#221,.T.);
#562=EDGE_CURVE('',#464,#466,#222,.T.);
#563=EDGE_CURVE('',#467,#463,#223,.T.);
#564=EDGE_CURVE('',#467,#468,#224,.T.);
#565=EDGE_CURVE('',#465,#468,#225,.T.);
#566=EDGE_CURVE('',#469,#467,#226,.T.);
#567=EDGE_CURVE('',#469,#470,#227,.T.);
#568=EDGE_CURVE('',#468,#470,#228,.T.);
#569=EDGE_CURVE('',#464,#469,#229,.T.);
#570=EDGE_CURVE('',#470,#466,#230,.T.);
#571=EDGE_CURVE('',#471,#472,#231,.T.);
#572=EDGE_CURVE('',#471,#473,#232,.T.);
#573=EDGE_CURVE('',#474,#473,#233,.T.);
#574=EDGE_CURVE('',#472,#474,#234,.T.);
#575=EDGE_CURVE('',#475,#471,#235,.T.);
#576=EDGE_CURVE('',#475,#476,#236,.T.);
#577=EDGE_CURVE('',#473,#476,#237,.T.);
#578=EDGE_CURVE('',#477,#475,#238,.T.);
#579=EDGE_CURVE('',#477,#478,#239,.T.);
#580=EDGE_CURVE('',#476,#478,#240,.T.);
#581=EDGE_CURVE('',#472,#477,#241,.T.);
#582=EDGE_CURVE('',#478,#474,#242,.T.);
#583=EDGE_CURVE('',#479,#480,#243,.T.);
#584=EDGE_CURVE('',#481,#479,#244,.T.);
#585=EDGE_CURVE('',#482,#481,#245,.T.);
#586=EDGE_CURVE('',#482,#480,#246,.T.);
#587=EDGE_CURVE('',#483,#484,#247,.T.);
#588=EDGE_CURVE('',#485,#483,#248,.T.);
#589=EDGE_CURVE('',#486,#485,#249,.T.);
#590=EDGE_CURVE('',#486,#484,#250,.T.);
#591=EDGE_CURVE('',#487,#488,#251,.T.);
#592=EDGE_CURVE('',#488,#489,#252,.T.);
#593=EDGE_CURVE('',#489,#490,#253,.T.);
#594=EDGE_CURVE('',#490,#487,#254,.T.);
#595=EDGE_CURVE('',#491,#492,#255,.T.);
#596=EDGE_CURVE('',#492,#493,#256,.T.);
#597=EDGE_CURVE('',#493,#494,#257,.T.);
#598=EDGE_CURVE('',#494,#491,#258,.T.);
#599=EDGE_CURVE('',#495,#496,#259,.T.);
#600=EDGE_CURVE('',#495,#487,#260,.T.);
#601=EDGE_CURVE('',#496,#490,#261,.T.);
#602=EDGE_CURVE('',#497,#498,#262,.T.);
#603=EDGE_CURVE('',#498,#489,#263,.T.);
#604=EDGE_CURVE('',#497,#488,#264,.T.);
#605=EDGE_CURVE('',#499,#499,#435,.T.);
#606=EDGE_CURVE('',#499,#500,#265,.T.);
#607=EDGE_CURVE('',#500,#500,#436,.T.);
#608=EDGE_CURVE('',#501,#501,#437,.T.);
#609=EDGE_CURVE('',#501,#502,#266,.T.);
#610=EDGE_CURVE('',#502,#502,#438,.T.);
#611=EDGE_CURVE('',#497,#503,#267,.T.);
#612=EDGE_CURVE('',#503,#504,#268,.T.);
#613=EDGE_CURVE('',#498,#504,#269,.T.);
#614=EDGE_CURVE('',#505,#495,#270,.T.);
#615=EDGE_CURVE('',#506,#496,#271,.T.);
#616=EDGE_CURVE('',#505,#506,#272,.T.);
#617=EDGE_CURVE('',#507,#508,#273,.T.);
#618=EDGE_CURVE('',#508,#509,#274,.T.);
#619=EDGE_CURVE('',#510,#509,#275,.T.);
#620=EDGE_CURVE('',#507,#510,#276,.T.);
#621=EDGE_CURVE('',#508,#491,#277,.T.);
#622=EDGE_CURVE('',#509,#494,#278,.T.);
#623=EDGE_CURVE('',#506,#493,#279,.T.);
#624=EDGE_CURVE('',#505,#492,#280,.T.);
#625=EDGE_CURVE('',#511,#486,#281,.T.);
#626=EDGE_CURVE('',#511,#512,#282,.T.);
#627=EDGE_CURVE('',#484,#512,#283,.T.);
#628=EDGE_CURVE('',#512,#513,#284,.T.);
#629=EDGE_CURVE('',#514,#511,#285,.T.);
#630=EDGE_CURVE('',#514,#513,#286,.T.);
#631=EDGE_CURVE('',#513,#483,#287,.T.);
#632=EDGE_CURVE('',#485,#514,#288,.T.);
#633=EDGE_CURVE('',#503,#515,#289,.T.);
#634=EDGE_CURVE('',#516,#515,#290,.T.);
#635=EDGE_CURVE('',#504,#516,#291,.T.);
#636=EDGE_CURVE('',#515,#517,#292,.T.);
#637=EDGE_CURVE('',#517,#518,#293,.T.);
#638=EDGE_CURVE('',#518,#516,#294,.T.);
#639=EDGE_CURVE('',#519,#520,#295,.T.);
#640=EDGE_CURVE('',#521,#519,#296,.T.);
#641=EDGE_CURVE('',#522,#521,#297,.T.);
#642=EDGE_CURVE('',#522,#520,#298,.T.);
#643=EDGE_CURVE('',#520,#479,#299,.T.);
#644=EDGE_CURVE('',#481,#522,#300,.T.);
#645=EDGE_CURVE('',#480,#519,#301,.T.);
#646=EDGE_CURVE('',#521,#482,#302,.T.);
#647=EDGE_CURVE('',#517,#523,#303,.T.);
#648=EDGE_CURVE('',#507,#524,#304,.T.);
#649=EDGE_CURVE('',#523,#524,#305,.T.);
#650=EDGE_CURVE('',#525,#525,#439,.T.);
#651=EDGE_CURVE('',#526,#526,#440,.T.);
#652=EDGE_CURVE('',#527,#527,#441,.T.);
#653=EDGE_CURVE('',#528,#528,#442,.T.);
#654=EDGE_CURVE('',#510,#529,#306,.T.);
#655=EDGE_CURVE('',#524,#529,#307,.T.);
#656=EDGE_CURVE('',#530,#523,#308,.T.);
#657=EDGE_CURVE('',#518,#530,#309,.T.);
#658=EDGE_CURVE('',#529,#530,#310,.T.);
#659=EDGE_CURVE('',#531,#531,#443,.T.);
#660=EDGE_CURVE('',#532,#532,#444,.T.);
#661=EDGE_CURVE('',#533,#533,#445,.T.);
#662=EDGE_CURVE('',#534,#534,#446,.T.);
#663=EDGE_CURVE('',#531,#525,#311,.T.);
#664=EDGE_CURVE('',#532,#526,#312,.T.);
#665=EDGE_CURVE('',#533,#527,#313,.T.);
#666=EDGE_CURVE('',#534,#528,#314,.T.);
#667=ORIENTED_EDGE('',*,*,#535,.F.);
#668=ORIENTED_EDGE('',*,*,#536,.T.);
#669=ORIENTED_EDGE('',*,*,#537,.F.);
#670=ORIENTED_EDGE('',*,*,#536,.F.);
#671=ORIENTED_EDGE('',*,*,#538,.F.);
#672=ORIENTED_EDGE('',*,*,#539,.T.);
#673=ORIENTED_EDGE('',*,*,#540,.F.);
#674=ORIENTED_EDGE('',*,*,#539,.F.);
#675=ORIENTED_EDGE('',*,*,#541,.F.);
#676=ORIENTED_EDGE('',*,*,#542,.T.);
#677=ORIENTED_EDGE('',*,*,#543,.F.);
#678=ORIENTED_EDGE('',*,*,#542,.F.);
#679=ORIENTED_EDGE('',*,*,#544,.F.);
#680=ORIENTED_EDGE('',*,*,#545,.T.);
#681=ORIENTED_EDGE('',*,*,#546,.F.);
#682=ORIENTED_EDGE('',*,*,#545,.F.);
#683=ORIENTED_EDGE('',*,*,#547,.F.);
#684=ORIENTED_EDGE('',*,*,#548,.T.);
#685=ORIENTED_EDGE('',*,*,#549,.F.);
#686=ORIENTED_EDGE('',*,*,#550,.F.);
#687=ORIENTED_EDGE('',*,*,#551,.F.);
#688=ORIENTED_EDGE('',*,*,#552,.T.);
#689=ORIENTED_EDGE('',*,*,#553,.F.);
#690=ORIENTED_EDGE('',*,*,#548,.F.);
#691=ORIENTED_EDGE('',*,*,#554,.F.);
#692=ORIENTED_EDGE('',*,*,#555,.T.);
#693=ORIENTED_EDGE('',*,*,#556,.F.);
#694=ORIENTED_EDGE('',*,*,#552,.F.);
#695=ORIENTED_EDGE('',*,*,#557,.F.);
#696=ORIENTED_EDGE('',*,*,#550,.T.);
#697=ORIENTED_EDGE('',*,*,#558,.F.);
#698=ORIENTED_EDGE('',*,*,#555,.F.);
#699=ORIENTED_EDGE('',*,*,#559,.F.);
#700=ORIENTED_EDGE('',*,*,#560,.T.);
#701=ORIENTED_EDGE('',*,*,#561,.F.);
#702=ORIENTED_EDGE('',*,*,#562,.F.);
#703=ORIENTED_EDGE('',*,*,#563,.F.);
#704=ORIENTED_EDGE('',*,*,#564,.T.);
#705=ORIENTED_EDGE('',*,*,#565,.F.);
#706=ORIENTED_EDGE('',*,*,#560,.F.);
#707=ORIENTED_EDGE('',*,*,#566,.F.);
#708=ORIENTED_EDGE('',*,*,#567,.T.);
#709=ORIENTED_EDGE('',*,*,#568,.F.);
#710=ORIENTED_EDGE('',*,*,#564,.F.);
#711=ORIENTED_EDGE('',*,*,#569,.F.);
#712=ORIENTED_EDGE('',*,*,#562,.T.);
#713=ORIENTED_EDGE('',*,*,#570,.F.);
#714=ORIENTED_EDGE('',*,*,#567,.F.);
#715=ORIENTED_EDGE('',*,*,#571,.F.);
#716=ORIENTED_EDGE('',*,*,#572,.T.);
#717=ORIENTED_EDGE('',*,*,#573,.F.);
#718=ORIENTED_EDGE('',*,*,#574,.F.);
#719=ORIENTED_EDGE('',*,*,#575,.F.);
#720=ORIENTED_EDGE('',*,*,#576,.T.);
#721=ORIENTED_EDGE('',*,*,#577,.F.);
#722=ORIENTED_EDGE('',*,*,#572,.F.);
#723=ORIENTED_EDGE('',*,*,#578,.F.);
#724=ORIENTED_EDGE('',*,*,#579,.T.);
#725=ORIENTED_EDGE('',*,*,#580,.F.);
#726=ORIENTED_EDGE('',*,*,#576,.F.);
#727=ORIENTED_EDGE('',*,*,#581,.F.);
#728=ORIENTED_EDGE('',*,*,#574,.T.);
#729=ORIENTED_EDGE('',*,*,#582,.F.);
#730=ORIENTED_EDGE('',*,*,#579,.F.);
#731=ORIENTED_EDGE('',*,*,#583,.F.);
#732=ORIENTED_EDGE('',*,*,#584,.F.);
#733=ORIENTED_EDGE('',*,*,#585,.F.);
#734=ORIENTED_EDGE('',*,*,#586,.T.);
#735=ORIENTED_EDGE('',*,*,#587,.F.);
#736=ORIENTED_EDGE('',*,*,#588,.F.);
#737=ORIENTED_EDGE('',*,*,#589,.F.);
#738=ORIENTED_EDGE('',*,*,#590,.T.);
#739=ORIENTED_EDGE('',*,*,#591,.T.);
#740=ORIENTED_EDGE('',*,*,#592,.T.);
#741=ORIENTED_EDGE('',*,*,#593,.T.);
#742=ORIENTED_EDGE('',*,*,#594,.T.);
#743=ORIENTED_EDGE('',*,*,#595,.T.);
#744=ORIENTED_EDGE('',*,*,#596,.T.);
#745=ORIENTED_EDGE('',*,*,#597,.T.);
#746=ORIENTED_EDGE('',*,*,#598,.T.);
#747=ORIENTED_EDGE('',*,*,#599,.F.);
#748=ORIENTED_EDGE('',*,*,#600,.T.);
#749=ORIENTED_EDGE('',*,*,#594,.F.);
#750=ORIENTED_EDGE('',*,*,#601,.F.);
#751=ORIENTED_EDGE('',*,*,#602,.T.);
#752=ORIENTED_EDGE('',*,*,#603,.T.);
#753=ORIENTED_EDGE('',*,*,#592,.F.);
#754=ORIENTED_EDGE('',*,*,#604,.F.);
#755=ORIENTED_EDGE('',*,*,#605,.F.);
#756=ORIENTED_EDGE('',*,*,#606,.T.);
#757=ORIENTED_EDGE('',*,*,#607,.T.);
#758=ORIENTED_EDGE('',*,*,#606,.F.);
#759=ORIENTED_EDGE('',*,*,#608,.F.);
#760=ORIENTED_EDGE('',*,*,#609,.T.);
#761=ORIENTED_EDGE('',*,*,#610,.T.);
#762=ORIENTED_EDGE('',*,*,#609,.F.);
#763=ORIENTED_EDGE('',*,*,#611,.T.);
#764=ORIENTED_EDGE('',*,*,#612,.T.);
#765=ORIENTED_EDGE('',*,*,#613,.F.);
#766=ORIENTED_EDGE('',*,*,#602,.F.);
#767=ORIENTED_EDGE('',*,*,#614,.T.);
#768=ORIENTED_EDGE('',*,*,#599,.T.);
#769=ORIENTED_EDGE('',*,*,#615,.F.);
#770=ORIENTED_EDGE('',*,*,#616,.F.);
#771=ORIENTED_EDGE('',*,*,#617,.T.);
#772=ORIENTED_EDGE('',*,*,#618,.T.);
#773=ORIENTED_EDGE('',*,*,#619,.F.);
#774=ORIENTED_EDGE('',*,*,#620,.F.);
#775=ORIENTED_EDGE('',*,*,#618,.F.);
#776=ORIENTED_EDGE('',*,*,#621,.T.);
#777=ORIENTED_EDGE('',*,*,#598,.F.);
#778=ORIENTED_EDGE('',*,*,#622,.F.);
#779=ORIENTED_EDGE('',*,*,#616,.T.);
#780=ORIENTED_EDGE('',*,*,#623,.T.);
#781=ORIENTED_EDGE('',*,*,#596,.F.);
#782=ORIENTED_EDGE('',*,*,#624,.F.);
#783=ORIENTED_EDGE('',*,*,#625,.F.);
#784=ORIENTED_EDGE('',*,*,#626,.T.);
#785=ORIENTED_EDGE('',*,*,#627,.F.);
#786=ORIENTED_EDGE('',*,*,#590,.F.);
#787=ORIENTED_EDGE('',*,*,#628,.F.);
#788=ORIENTED_EDGE('',*,*,#626,.F.);
#789=ORIENTED_EDGE('',*,*,#629,.F.);
#790=ORIENTED_EDGE('',*,*,#630,.T.);
#791=ORIENTED_EDGE('',*,*,#631,.F.);
#792=ORIENTED_EDGE('',*,*,#630,.F.);
#793=ORIENTED_EDGE('',*,*,#632,.F.);
#794=ORIENTED_EDGE('',*,*,#588,.T.);
#795=ORIENTED_EDGE('',*,*,#612,.F.);
#796=ORIENTED_EDGE('',*,*,#633,.T.);
#797=ORIENTED_EDGE('',*,*,#634,.F.);
#798=ORIENTED_EDGE('',*,*,#635,.F.);
#799=ORIENTED_EDGE('',*,*,#636,.T.);
#800=ORIENTED_EDGE('',*,*,#637,.T.);
#801=ORIENTED_EDGE('',*,*,#638,.T.);
#802=ORIENTED_EDGE('',*,*,#634,.T.);
#803=ORIENTED_EDGE('',*,*,#639,.F.);
#804=ORIENTED_EDGE('',*,*,#640,.F.);
#805=ORIENTED_EDGE('',*,*,#641,.F.);
#806=ORIENTED_EDGE('',*,*,#642,.T.);
#807=ORIENTED_EDGE('',*,*,#643,.F.);
#808=ORIENTED_EDGE('',*,*,#642,.F.);
#809=ORIENTED_EDGE('',*,*,#644,.F.);
#810=ORIENTED_EDGE('',*,*,#584,.T.);
#811=ORIENTED_EDGE('',*,*,#645,.F.);
#812=ORIENTED_EDGE('',*,*,#586,.F.);
#813=ORIENTED_EDGE('',*,*,#646,.F.);
#814=ORIENTED_EDGE('',*,*,#640,.T.);
#815=ORIENTED_EDGE('',*,*,#647,.F.);
#816=ORIENTED_EDGE('',*,*,#636,.F.);
#817=ORIENTED_EDGE('',*,*,#633,.F.);
#818=ORIENTED_EDGE('',*,*,#611,.F.);
#819=ORIENTED_EDGE('',*,*,#604,.T.);
#820=ORIENTED_EDGE('',*,*,#591,.F.);
#821=ORIENTED_EDGE('',*,*,#600,.F.);
#822=ORIENTED_EDGE('',*,*,#614,.F.);
#823=ORIENTED_EDGE('',*,*,#624,.T.);
#824=ORIENTED_EDGE('',*,*,#595,.F.);
#825=ORIENTED_EDGE('',*,*,#621,.F.);
#826=ORIENTED_EDGE('',*,*,#617,.F.);
#827=ORIENTED_EDGE('',*,*,#648,.T.);
#828=ORIENTED_EDGE('',*,*,#649,.F.);
#829=ORIENTED_EDGE('',*,*,#537,.T.);
#830=ORIENTED_EDGE('',*,*,#540,.T.);
#831=ORIENTED_EDGE('',*,*,#543,.T.);
#832=ORIENTED_EDGE('',*,*,#546,.T.);
#833=ORIENTED_EDGE('',*,*,#549,.T.);
#834=ORIENTED_EDGE('',*,*,#553,.T.);
#835=ORIENTED_EDGE('',*,*,#556,.T.);
#836=ORIENTED_EDGE('',*,*,#558,.T.);
#837=ORIENTED_EDGE('',*,*,#561,.T.);
#838=ORIENTED_EDGE('',*,*,#565,.T.);
#839=ORIENTED_EDGE('',*,*,#568,.T.);
#840=ORIENTED_EDGE('',*,*,#570,.T.);
#841=ORIENTED_EDGE('',*,*,#573,.T.);
#842=ORIENTED_EDGE('',*,*,#577,.T.);
#843=ORIENTED_EDGE('',*,*,#580,.T.);
#844=ORIENTED_EDGE('',*,*,#582,.T.);
#845=ORIENTED_EDGE('',*,*,#645,.T.);
#846=ORIENTED_EDGE('',*,*,#639,.T.);
#847=ORIENTED_EDGE('',*,*,#643,.T.);
#848=ORIENTED_EDGE('',*,*,#583,.T.);
#849=ORIENTED_EDGE('',*,*,#607,.F.);
#850=ORIENTED_EDGE('',*,*,#610,.F.);
#851=ORIENTED_EDGE('',*,*,#627,.T.);
#852=ORIENTED_EDGE('',*,*,#628,.T.);
#853=ORIENTED_EDGE('',*,*,#631,.T.);
#854=ORIENTED_EDGE('',*,*,#587,.T.);
#855=ORIENTED_EDGE('',*,*,#650,.T.);
#856=ORIENTED_EDGE('',*,*,#651,.T.);
#857=ORIENTED_EDGE('',*,*,#652,.T.);
#858=ORIENTED_EDGE('',*,*,#653,.T.);
#859=ORIENTED_EDGE('',*,*,#620,.T.);
#860=ORIENTED_EDGE('',*,*,#654,.T.);
#861=ORIENTED_EDGE('',*,*,#655,.F.);
#862=ORIENTED_EDGE('',*,*,#648,.F.);
#863=ORIENTED_EDGE('',*,*,#647,.T.);
#864=ORIENTED_EDGE('',*,*,#656,.F.);
#865=ORIENTED_EDGE('',*,*,#657,.F.);
#866=ORIENTED_EDGE('',*,*,#637,.F.);
#867=ORIENTED_EDGE('',*,*,#657,.T.);
#868=ORIENTED_EDGE('',*,*,#658,.F.);
#869=ORIENTED_EDGE('',*,*,#654,.F.);
#870=ORIENTED_EDGE('',*,*,#619,.T.);
#871=ORIENTED_EDGE('',*,*,#622,.T.);
#872=ORIENTED_EDGE('',*,*,#597,.F.);
#873=ORIENTED_EDGE('',*,*,#623,.F.);
#874=ORIENTED_EDGE('',*,*,#615,.T.);
#875=ORIENTED_EDGE('',*,*,#601,.T.);
#876=ORIENTED_EDGE('',*,*,#593,.F.);
#877=ORIENTED_EDGE('',*,*,#603,.F.);
#878=ORIENTED_EDGE('',*,*,#613,.T.);
#879=ORIENTED_EDGE('',*,*,#635,.T.);
#880=ORIENTED_EDGE('',*,*,#638,.F.);
#881=ORIENTED_EDGE('',*,*,#535,.T.);
#882=ORIENTED_EDGE('',*,*,#538,.T.);
#883=ORIENTED_EDGE('',*,*,#541,.T.);
#884=ORIENTED_EDGE('',*,*,#544,.T.);
#885=ORIENTED_EDGE('',*,*,#547,.T.);
#886=ORIENTED_EDGE('',*,*,#557,.T.);
#887=ORIENTED_EDGE('',*,*,#554,.T.);
#888=ORIENTED_EDGE('',*,*,#551,.T.);
#889=ORIENTED_EDGE('',*,*,#559,.T.);
#890=ORIENTED_EDGE('',*,*,#569,.T.);
#891=ORIENTED_EDGE('',*,*,#566,.T.);
#892=ORIENTED_EDGE('',*,*,#563,.T.);
#893=ORIENTED_EDGE('',*,*,#571,.T.);
#894=ORIENTED_EDGE('',*,*,#581,.T.);
#895=ORIENTED_EDGE('',*,*,#578,.T.);
#896=ORIENTED_EDGE('',*,*,#575,.T.);
#897=ORIENTED_EDGE('',*,*,#625,.T.);
#898=ORIENTED_EDGE('',*,*,#589,.T.);
#899=ORIENTED_EDGE('',*,*,#632,.T.);
#900=ORIENTED_EDGE('',*,*,#629,.T.);
#901=ORIENTED_EDGE('',*,*,#608,.T.);
#902=ORIENTED_EDGE('',*,*,#605,.T.);
#903=ORIENTED_EDGE('',*,*,#646,.T.);
#904=ORIENTED_EDGE('',*,*,#585,.T.);
#905=ORIENTED_EDGE('',*,*,#644,.T.);
#906=ORIENTED_EDGE('',*,*,#641,.T.);
#907=ORIENTED_EDGE('',*,*,#659,.T.);
#908=ORIENTED_EDGE('',*,*,#660,.T.);
#909=ORIENTED_EDGE('',*,*,#661,.T.);
#910=ORIENTED_EDGE('',*,*,#662,.T.);
#911=ORIENTED_EDGE('',*,*,#658,.T.);
#912=ORIENTED_EDGE('',*,*,#656,.T.);
#913=ORIENTED_EDGE('',*,*,#649,.T.);
#914=ORIENTED_EDGE('',*,*,#655,.T.);
#915=ORIENTED_EDGE('',*,*,#659,.F.);
#916=ORIENTED_EDGE('',*,*,#663,.T.);
#917=ORIENTED_EDGE('',*,*,#650,.F.);
#918=ORIENTED_EDGE('',*,*,#663,.F.);
#919=ORIENTED_EDGE('',*,*,#660,.F.);
#920=ORIENTED_EDGE('',*,*,#664,.T.);
#921=ORIENTED_EDGE('',*,*,#651,.F.);
#922=ORIENTED_EDGE('',*,*,#664,.F.);
#923=ORIENTED_EDGE('',*,*,#661,.F.);
#924=ORIENTED_EDGE('',*,*,#665,.T.);
#925=ORIENTED_EDGE('',*,*,#652,.F.);
#926=ORIENTED_EDGE('',*,*,#665,.F.);
#927=ORIENTED_EDGE('',*,*,#662,.F.);
#928=ORIENTED_EDGE('',*,*,#666,.T.);
#929=ORIENTED_EDGE('',*,*,#653,.F.);
#930=ORIENTED_EDGE('',*,*,#666,.F.);
#931=CYLINDRICAL_SURFACE('',#989,2.25);
#932=CYLINDRICAL_SURFACE('',#992,2.25);
#933=CYLINDRICAL_SURFACE('',#995,2.25);
#934=CYLINDRICAL_SURFACE('',#998,2.25);
#935=CYLINDRICAL_SURFACE('',#1019,1.5);
#936=CYLINDRICAL_SURFACE('',#1022,1.5);
#937=CYLINDRICAL_SURFACE('',#1051,2.25);
#938=CYLINDRICAL_SURFACE('',#1052,2.25);
#939=CYLINDRICAL_SURFACE('',#1053,2.25);
#940=CYLINDRICAL_SURFACE('',#1054,2.25);
#941=ADVANCED_FACE('',(#81),#931,.F.);
#942=ADVANCED_FACE('',(#82),#932,.F.);
#943=ADVANCED_FACE('',(#83),#933,.F.);
#944=ADVANCED_FACE('',(#84),#934,.F.);
#945=ADVANCED_FACE('',(#85),#45,.F.);
#946=ADVANCED_FACE('',(#86),#46,.F.);
#947=ADVANCED_FACE('',(#87),#47,.F.);
#948=ADVANCED_FACE('',(#88),#48,.F.);
#949=ADVANCED_FACE('',(#89),#49,.F.);
#950=ADVANCED_FACE('',(#90),#50,.F.);
#951=ADVANCED_FACE('',(#91),#51,.F.);
#952=ADVANCED_FACE('',(#92),#52,.F.);
#953=ADVANCED_FACE('',(#93),#53,.F.);
#954=ADVANCED_FACE('',(#94),#54,.F.);
#955=ADVANCED_FACE('',(#95),#55,.F.);
#956=ADVANCED_FACE('',(#96),#56,.F.);
#957=ADVANCED_FACE('',(#97),#57,.F.);
#958=ADVANCED_FACE('',(#98),#58,.F.);
#959=ADVANCED_FACE('',(#99),#59,.T.);
#960=ADVANCED_FACE('',(#100),#60,.T.);
#961=ADVANCED_FACE('',(#101),#61,.T.);
#962=ADVANCED_FACE('',(#102),#62,.T.);
#963=ADVANCED_FACE('',(#103),#935,.F.);
#964=ADVANCED_FACE('',(#104),#936,.F.);
#965=ADVANCED_FACE('',(#105),#63,.T.);
#966=ADVANCED_FACE('',(#106),#64,.T.);
#967=ADVANCED_FACE('',(#107),#65,.T.);
#968=ADVANCED_FACE('',(#108),#66,.T.);
#969=ADVANCED_FACE('',(#109),#67,.T.);
#970=ADVANCED_FACE('',(#110),#68,.F.);
#971=ADVANCED_FACE('',(#111),#69,.F.);
#972=ADVANCED_FACE('',(#112),#70,.F.);
#973=ADVANCED_FACE('',(#113),#71,.T.);
#974=ADVANCED_FACE('',(#114),#72,.T.);
#975=ADVANCED_FACE('',(#115),#73,.F.);
#976=ADVANCED_FACE('',(#116),#74,.F.);
#977=ADVANCED_FACE('',(#117),#75,.F.);
#978=ADVANCED_FACE('',(#118,#15,#16,#17,#18,#19,#20,#21,#22,#23,#24,#25,
#26,#27,#28,#29),#76,.T.);
#979=ADVANCED_FACE('',(#119),#77,.T.);
#980=ADVANCED_FACE('',(#120),#78,.T.);
#981=ADVANCED_FACE('',(#121,#30,#31,#32,#33,#34,#35,#36,#37,#38,#39,#40,
#41,#42,#43,#44),#79,.T.);
#982=ADVANCED_FACE('',(#122),#80,.T.);
#983=ADVANCED_FACE('',(#123),#937,.F.);
#984=ADVANCED_FACE('',(#124),#938,.F.);
#985=ADVANCED_FACE('',(#125),#939,.F.);
#986=ADVANCED_FACE('',(#126),#940,.F.);
#987=CLOSED_SHELL('',(#941,#942,#943,#944,#945,#946,#947,#948,#949,#950,
#951,#952,#953,#954,#955,#956,#957,#958,#959,#960,#961,#962,#963,#964,#965,
#966,#967,#968,#969,#970,#971,#972,#973,#974,#975,#976,#977,#978,#979,#980,
#981,#982,#983,#984,#985,#986));
#988=AXIS2_PLACEMENT_3D('',#1301,#1055,#1056);
#989=AXIS2_PLACEMENT_3D('',#1302,#1057,#1058);
#990=AXIS2_PLACEMENT_3D('',#1304,#1059,#1060);
#991=AXIS2_PLACEMENT_3D('',#1307,#1062,#1063);
#992=AXIS2_PLACEMENT_3D('',#1308,#1064,#1065);
#993=AXIS2_PLACEMENT_3D('',#1310,#1066,#1067);
#994=AXIS2_PLACEMENT_3D('',#1313,#1069,#1070);
#995=AXIS2_PLACEMENT_3D('',#1314,#1071,#1072);
#996=AXIS2_PLACEMENT_3D('',#1316,#1073,#1074);
#997=AXIS2_PLACEMENT_3D('',#1319,#1076,#1077);
#998=AXIS2_PLACEMENT_3D('',#1320,#1078,#1079);
#999=AXIS2_PLACEMENT_3D('',#1322,#1080,#1081);
#1000=AXIS2_PLACEMENT_3D('',#1325,#1083,#1084);
#1001=AXIS2_PLACEMENT_3D('',#1326,#1085,#1086);
#1002=AXIS2_PLACEMENT_3D('',#1335,#1091,#1092);
#1003=AXIS2_PLACEMENT_3D('',#1341,#1096,#1097);
#1004=AXIS2_PLACEMENT_3D('',#1347,#1101,#1102);
#1005=AXIS2_PLACEMENT_3D('',#1350,#1105,#1106);
#1006=AXIS2_PLACEMENT_3D('',#1359,#1111,#1112);
#1007=AXIS2_PLACEMENT_3D('',#1365,#1116,#1117);
#1008=AXIS2_PLACEMENT_3D('',#1371,#1121,#1122);
#1009=AXIS2_PLACEMENT_3D('',#1374,#1125,#1126);
#1010=AXIS2_PLACEMENT_3D('',#1383,#1131,#1132);
#1011=AXIS2_PLACEMENT_3D('',#1389,#1136,#1137);
#1012=AXIS2_PLACEMENT_3D('',#1395,#1141,#1142);
#1013=AXIS2_PLACEMENT_3D('',#1398,#1145,#1146);
#1014=AXIS2_PLACEMENT_3D('',#1407,#1151,#1152);
#1015=AXIS2_PLACEMENT_3D('',#1416,#1157,#1158);
#1016=AXIS2_PLACEMENT_3D('',#1425,#1163,#1164);
#1017=AXIS2_PLACEMENT_3D('',#1434,#1169,#1170);
#1018=AXIS2_PLACEMENT_3D('',#1440,#1174,#1175);
#1019=AXIS2_PLACEMENT_3D('',#1446,#1179,#1180);
#1020=AXIS2_PLACEMENT_3D('',#1448,#1181,#1182);
#1021=AXIS2_PLACEMENT_3D('',#1451,#1184,#1185);
#1022=AXIS2_PLACEMENT_3D('',#1452,#1186,#1187);
#1023=AXIS2_PLACEMENT_3D('',#1454,#1188,#1189);
#1024=AXIS2_PLACEMENT_3D('',#1457,#1191,#1192);
#1025=AXIS2_PLACEMENT_3D('',#1458,#1193,#1194);
#1026=AXIS2_PLACEMENT_3D('',#1464,#1198,#1199);
#1027=AXIS2_PLACEMENT_3D('',#1470,#1203,#1204);
#1028=AXIS2_PLACEMENT_3D('',#1479,#1209,#1210);
#1029=AXIS2_PLACEMENT_3D('',#1482,#1213,#1214);
#1030=AXIS2_PLACEMENT_3D('',#1485,#1217,#1218);
#1031=AXIS2_PLACEMENT_3D('',#1491,#1222,#1223);
#1032=AXIS2_PLACEMENT_3D('',#1497,#1227,#1228);
#1033=AXIS2_PLACEMENT_3D('',#1500,#1231,#1232);
#1034=AXIS2_PLACEMENT_3D('',#1506,#1236,#1237);
#1035=AXIS2_PLACEMENT_3D('',#1512,#1241,#1242);
#1036=AXIS2_PLACEMENT_3D('',#1521,#1247,#1248);
#1037=AXIS2_PLACEMENT_3D('',#1524,#1251,#1252);
#1038=AXIS2_PLACEMENT_3D('',#1527,#1255,#1256);
#1039=AXIS2_PLACEMENT_3D('',#1534,#1260,#1261);
#1040=AXIS2_PLACEMENT_3D('',#1536,#1262,#1263);
#1041=AXIS2_PLACEMENT_3D('',#1538,#1264,#1265);
#1042=AXIS2_PLACEMENT_3D('',#1540,#1266,#1267);
#1043=AXIS2_PLACEMENT_3D('',#1541,#1268,#1269);
#1044=AXIS2_PLACEMENT_3D('',#1545,#1272,#1273);
#1045=AXIS2_PLACEMENT_3D('',#1549,#1276,#1277);
#1046=AXIS2_PLACEMENT_3D('',#1552,#1279,#1280);
#1047=AXIS2_PLACEMENT_3D('',#1554,#1281,#1282);
#1048=AXIS2_PLACEMENT_3D('',#1556,#1283,#1284);
#1049=AXIS2_PLACEMENT_3D('',#1558,#1285,#1286);
#1050=AXIS2_PLACEMENT_3D('',#1559,#1287,#1288);
#1051=AXIS2_PLACEMENT_3D('',#1560,#1289,#1290);
#1052=AXIS2_PLACEMENT_3D('',#1562,#1292,#1293);
#1053=AXIS2_PLACEMENT_3D('',#1564,#1295,#1296);
#1054=AXIS2_PLACEMENT_3D('',#1566,#1298,#1299);
#1055=DIRECTION('axis',(0.,0.,1.));
#1056=DIRECTION('refdir',(1.,0.,0.));
#1057=DIRECTION('center_axis',(2.77555756156289E-15,-1.66533453693774E-15,
-1.));
#1058=DIRECTION('ref_axis',(-0.866025403784437,0.500000000000003,-3.23637062644832E-15));
#1059=DIRECTION('center_axis',(0.,0.,-1.));
#1060=DIRECTION('ref_axis',(-0.866025403784437,0.500000000000003,-3.23637062644832E-15));
#1061=DIRECTION('',(2.77555756156289E-15,-1.66533453693774E-15,-1.));
#1062=DIRECTION('center_axis',(0.,0.,1.));
#1063=DIRECTION('ref_axis',(-0.866025403784437,0.500000000000003,-3.23637062644832E-15));
#1064=DIRECTION('center_axis',(2.22044604925031E-15,-1.66533453693773E-15,
-1.));
#1065=DIRECTION('ref_axis',(-0.866025403784437,0.500000000000003,-2.75562995485243E-15));
#1066=DIRECTION('center_axis',(0.,0.,-1.));
#1067=DIRECTION('ref_axis',(-0.866025403784437,0.500000000000003,-2.75562995485243E-15));
#1068=DIRECTION('',(2.22044604925031E-15,-1.66533453693773E-15,-1.));
#1069=DIRECTION('center_axis',(0.,0.,1.));
#1070=DIRECTION('ref_axis',(-0.866025403784437,0.500000000000003,-2.75562995485243E-15));
#1071=DIRECTION('center_axis',(2.22044604925031E-15,-1.66533453693773E-15,
-1.));
#1072=DIRECTION('ref_axis',(-0.866025403784437,0.500000000000003,-2.75562995485243E-15));
#1073=DIRECTION('center_axis',(0.,0.,-1.));
#1074=DIRECTION('ref_axis',(-0.866025403784437,0.500000000000003,-2.75562995485243E-15));
#1075=DIRECTION('',(2.22044604925031E-15,-1.66533453693773E-15,-1.));
#1076=DIRECTION('center_axis',(0.,0.,1.));
#1077=DIRECTION('ref_axis',(-0.866025403784437,0.500000000000003,-2.75562995485243E-15));
#1078=DIRECTION('center_axis',(2.77555756156289E-15,-1.52655665885959E-15,
-1.));
#1079=DIRECTION('ref_axis',(-0.866025403784437,0.500000000000003,-3.16698168740925E-15));
#1080=DIRECTION('center_axis',(0.,0.,-1.));
#1081=DIRECTION('ref_axis',(-0.866025403784437,0.500000000000003,-3.16698168740925E-15));
#1082=DIRECTION('',(2.77555756156289E-15,-1.52655665885959E-15,-1.));
#1083=DIRECTION('center_axis',(0.,0.,1.));
#1084=DIRECTION('ref_axis',(-0.866025403784437,0.500000000000003,-3.16698168740925E-15));
#1085=DIRECTION('center_axis',(-0.866025403784439,-0.5,0.));
#1086=DIRECTION('ref_axis',(-0.5,0.866025403784439,0.));
#1087=DIRECTION('',(-0.5,0.866025403784439,0.));
#1088=DIRECTION('',(0.,0.,-1.));
#1089=DIRECTION('',(0.5,-0.866025403784439,0.));
#1090=DIRECTION('',(0.,0.,-1.));
#1091=DIRECTION('center_axis',(0.5,-0.866025403784438,0.));
#1092=DIRECTION('ref_axis',(-0.866025403784439,-0.5,0.));
#1093=DIRECTION('',(-0.866025403784439,-0.5,0.));
#1094=DIRECTION('',(0.,0.,-1.));
#1095=DIRECTION('',(0.866025403784439,0.5,0.));
#1096=DIRECTION('center_axis',(0.866025403784439,0.5,0.));
#1097=DIRECTION('ref_axis',(0.5,-0.866025403784439,0.));
#1098=DIRECTION('',(0.5,-0.866025403784439,0.));
#1099=DIRECTION('',(0.,0.,-1.));
#1100=DIRECTION('',(-0.5,0.866025403784439,0.));
#1101=DIRECTION('center_axis',(-0.5,0.866025403784438,0.));
#1102=DIRECTION('ref_axis',(0.866025403784439,0.5,0.));
#1103=DIRECTION('',(0.866025403784439,0.5,0.));
#1104=DIRECTION('',(-0.866025403784439,-0.5,0.));
#1105=DIRECTION('center_axis',(0.866025403784439,-0.499999999999999,0.));
#1106=DIRECTION('ref_axis',(-0.499999999999999,-0.866025403784439,0.));
#1107=DIRECTION('',(-0.499999999999999,-0.866025403784439,0.));
#1108=DIRECTION('',(0.,0.,-1.));
#1109=DIRECTION('',(0.499999999999999,0.866025403784439,0.));
#1110=DIRECTION('',(0.,0.,-1.));
#1111=DIRECTION('center_axis',(0.499999999999999,0.866025403784439,0.));
#1112=DIRECTION('ref_axis',(0.866025403784439,-0.499999999999999,0.));
#1113=DIRECTION('',(0.866025403784439,-0.499999999999999,0.));
#1114=DIRECTION('',(0.,0.,-1.));
#1115=DIRECTION('',(-0.866025403784439,0.499999999999999,0.));
#1116=DIRECTION('center_axis',(-0.866025403784439,0.499999999999999,0.));
#1117=DIRECTION('ref_axis',(0.499999999999999,0.866025403784439,0.));
#1118=DIRECTION('',(0.499999999999999,0.866025403784439,0.));
#1119=DIRECTION('',(0.,0.,-1.));
#1120=DIRECTION('',(-0.499999999999999,-0.866025403784439,0.));
#1121=DIRECTION('center_axis',(-0.499999999999999,-0.866025403784439,0.));
#1122=DIRECTION('ref_axis',(-0.866025403784439,0.499999999999999,0.));
#1123=DIRECTION('',(-0.866025403784439,0.499999999999999,0.));
#1124=DIRECTION('',(0.866025403784439,-0.499999999999999,0.));
#1125=DIRECTION('center_axis',(1.,0.,0.));
#1126=DIRECTION('ref_axis',(0.,-1.,0.));
#1127=DIRECTION('',(0.,-1.,0.));
#1128=DIRECTION('',(0.,0.,-1.));
#1129=DIRECTION('',(0.,1.,0.));
#1130=DIRECTION('',(0.,0.,-1.));
#1131=DIRECTION('center_axis',(0.,1.,0.));
#1132=DIRECTION('ref_axis',(1.,0.,0.));
#1133=DIRECTION('',(1.,0.,0.));
#1134=DIRECTION('',(0.,0.,-1.));
#1135=DIRECTION('',(-1.,0.,0.));
#1136=DIRECTION('center_axis',(-1.,0.,0.));
#1137=DIRECTION('ref_axis',(0.,1.,0.));
#1138=DIRECTION('',(0.,1.,0.));
#1139=DIRECTION('',(0.,0.,-1.));
#1140=DIRECTION('',(0.,-1.,0.));
#1141=DIRECTION('center_axis',(0.,-1.,0.));
#1142=DIRECTION('ref_axis',(-1.,0.,0.));
#1143=DIRECTION('',(-1.,0.,0.));
#1144=DIRECTION('',(1.,0.,0.));
#1145=DIRECTION('center_axis',(-1.,0.,0.));
#1146=DIRECTION('ref_axis',(0.,1.,0.));
#1147=DIRECTION('',(0.,-1.,0.));
#1148=DIRECTION('',(0.,0.,-1.));
#1149=DIRECTION('',(0.,1.,0.));
#1150=DIRECTION('',(0.,0.,-1.));
#1151=DIRECTION('center_axis',(1.,5.9211894646675E-16,0.));
#1152=DIRECTION('ref_axis',(5.9211894646675E-16,-1.,0.));
#1153=DIRECTION('',(-5.9211894646675E-16,1.,0.));
#1154=DIRECTION('',(0.,0.,-1.));
#1155=DIRECTION('',(5.9211894646675E-16,-1.,0.));
#1156=DIRECTION('',(0.,0.,-1.));
#1157=DIRECTION('center_axis',(-0.863209487793246,0.504845897461514,0.));
#1158=DIRECTION('ref_axis',(0.,0.,1.));
#1159=DIRECTION('',(-0.504845897461513,-0.863209487793247,0.));
#1160=DIRECTION('',(0.,0.,1.));
#1161=DIRECTION('',(0.504845897461513,0.863209487793247,0.));
#1162=DIRECTION('',(0.,0.,-1.));
#1163=DIRECTION('center_axis',(0.868814116094647,0.495138396485949,0.));
#1164=DIRECTION('ref_axis',(0.,0.,-1.));
#1165=DIRECTION('',(-0.495138396485948,0.868814116094648,0.));
#1166=DIRECTION('',(0.,0.,1.));
#1167=DIRECTION('',(0.495138396485948,-0.868814116094648,0.));
#1168=DIRECTION('',(0.,0.,-1.));
#1169=DIRECTION('center_axis',(0.504845897461513,0.863209487793247,0.));
#1170=DIRECTION('ref_axis',(0.,0.,-1.));
#1171=DIRECTION('',(0.,0.,1.));
#1172=DIRECTION('',(-0.863209487793247,0.504845897461513,0.));
#1173=DIRECTION('',(-0.863209487793247,0.504845897461513,0.));
#1174=DIRECTION('center_axis',(-0.504845897461513,-0.863209487793247,0.));
#1175=DIRECTION('ref_axis',(0.,0.,1.));
#1176=DIRECTION('',(0.,0.,1.));
#1177=DIRECTION('',(-0.863209487793247,0.504845897461513,0.));
#1178=DIRECTION('',(-0.863209487793247,0.504845897461513,0.));
#1179=DIRECTION('center_axis',(0.,0.,1.));
#1180=DIRECTION('ref_axis',(-1.,0.,0.));
#1181=DIRECTION('center_axis',(0.,0.,-1.));
#1182=DIRECTION('ref_axis',(-1.,0.,0.));
#1183=DIRECTION('',(0.,0.,-1.));
#1184=DIRECTION('center_axis',(0.,0.,-1.));
#1185=DIRECTION('ref_axis',(-1.,0.,0.));
#1186=DIRECTION('center_axis',(0.,0.,1.));
#1187=DIRECTION('ref_axis',(-1.,0.,0.));
#1188=DIRECTION('center_axis',(0.,0.,-1.));
#1189=DIRECTION('ref_axis',(-1.,0.,0.));
#1190=DIRECTION('',(0.,0.,-1.));
#1191=DIRECTION('center_axis',(0.,0.,-1.));
#1192=DIRECTION('ref_axis',(-1.,0.,0.));
#1193=DIRECTION('center_axis',(-0.868814116094648,-0.495138396485948,0.));
#1194=DIRECTION('ref_axis',(0.495138396485948,-0.868814116094648,0.));
#1195=DIRECTION('',(0.495138396485948,-0.868814116094648,0.));
#1196=DIRECTION('',(0.,0.,1.));
#1197=DIRECTION('',(0.495138396485948,-0.868814116094648,0.));
#1198=DIRECTION('center_axis',(0.00560462830140078,0.999984293947462,0.));
#1199=DIRECTION('ref_axis',(-0.999984293947461,0.00560462830140078,0.));
#1200=DIRECTION('',(-0.999984293947461,0.00560462830140078,0.));
#1201=DIRECTION('',(-0.999984293947461,0.00560462830140078,0.));
#1202=DIRECTION('',(0.,0.,1.));
#1203=DIRECTION('center_axis',(0.863209487793247,-0.504845897461513,0.));
#1204=DIRECTION('ref_axis',(0.504845897461513,0.863209487793247,0.));
#1205=DIRECTION('',(0.504845897461513,0.863209487793247,0.));
#1206=DIRECTION('',(0.,0.,1.));
#1207=DIRECTION('',(0.504845897461513,0.863209487793247,0.));
#1208=DIRECTION('',(0.,0.,1.));
#1209=DIRECTION('center_axis',(0.495138396485948,-0.868814116094648,0.));
#1210=DIRECTION('ref_axis',(0.,0.,-1.));
#1211=DIRECTION('',(0.868814116094648,0.495138396485948,0.));
#1212=DIRECTION('',(0.868814116094648,0.495138396485948,0.));
#1213=DIRECTION('center_axis',(-0.495138396485948,0.868814116094648,0.));
#1214=DIRECTION('ref_axis',(0.,0.,1.));
#1215=DIRECTION('',(0.868814116094648,0.495138396485948,0.));
#1216=DIRECTION('',(0.868814116094648,0.495138396485948,0.));
#1217=DIRECTION('center_axis',(-2.22044601616309E-15,1.,0.));
#1218=DIRECTION('ref_axis',(1.,2.22044601616309E-15,0.));
#1219=DIRECTION('',(1.,2.22044601616309E-15,0.));
#1220=DIRECTION('',(0.,0.,-1.));
#1221=DIRECTION('',(-1.,-2.22044601616309E-15,0.));
#1222=DIRECTION('center_axis',(-1.,-5.9211894646675E-16,0.));
#1223=DIRECTION('ref_axis',(-5.9211894646675E-16,1.,0.));
#1224=DIRECTION('',(5.9211894646675E-16,-1.,0.));
#1225=DIRECTION('',(-5.9211894646675E-16,1.,0.));
#1226=DIRECTION('',(0.,0.,-1.));
#1227=DIRECTION('center_axis',(4.44089203232618E-15,-1.,0.));
#1228=DIRECTION('ref_axis',(-1.,-4.44089203232618E-15,0.));
#1229=DIRECTION('',(1.,4.44089203232618E-15,0.));
#1230=DIRECTION('',(-1.,-4.44089203232618E-15,0.));
#1231=DIRECTION('center_axis',(0.00560462830140018,0.999984293947462,0.));
#1232=DIRECTION('ref_axis',(0.,0.,-1.));
#1233=DIRECTION('',(-0.999984293947461,0.00560462830140018,0.));
#1234=DIRECTION('',(0.,0.,-1.));
#1235=DIRECTION('',(-0.999984293947461,0.00560462830140018,0.));
#1236=DIRECTION('center_axis',(-0.999984293947462,0.00560462830140018,0.));
#1237=DIRECTION('ref_axis',(0.,0.,1.));
#1238=DIRECTION('',(-0.00560462830140098,-0.999984293947462,0.));
#1239=DIRECTION('',(0.,0.,1.));
#1240=DIRECTION('',(0.00560462830140077,0.999984293947462,0.));
#1241=DIRECTION('center_axis',(1.,0.,0.));
#1242=DIRECTION('ref_axis',(0.,-1.,0.));
#1243=DIRECTION('',(0.,1.,0.));
#1244=DIRECTION('',(0.,0.,-1.));
#1245=DIRECTION('',(0.,-1.,0.));
#1246=DIRECTION('',(0.,0.,-1.));
#1247=DIRECTION('center_axis',(0.,1.,0.));
#1248=DIRECTION('ref_axis',(1.,0.,0.));
#1249=DIRECTION('',(-1.,0.,0.));
#1250=DIRECTION('',(1.,0.,0.));
#1251=DIRECTION('center_axis',(0.,-1.,0.));
#1252=DIRECTION('ref_axis',(-1.,0.,0.));
#1253=DIRECTION('',(1.,0.,0.));
#1254=DIRECTION('',(-1.,0.,0.));
#1255=DIRECTION('center_axis',(0.,0.,-1.));
#1256=DIRECTION('ref_axis',(0.00560462830140077,0.999984293947462,0.));
#1257=DIRECTION('',(0.999984293947461,-0.00560462830140018,0.));
#1258=DIRECTION('',(0.999984293947461,-0.00560462830140018,0.));
#1259=DIRECTION('',(0.00560462830140077,0.999984293947462,0.));
#1260=DIRECTION('center_axis',(0.,0.,1.));
#1261=DIRECTION('ref_axis',(0.86602540378444,0.499999999999997,-2.95881487029203E-15));
#1262=DIRECTION('center_axis',(0.,0.,1.));
#1263=DIRECTION('ref_axis',(0.86602540378444,0.499999999999997,-2.47807419869614E-15));
#1264=DIRECTION('center_axis',(0.,0.,1.));
#1265=DIRECTION('ref_axis',(0.86602540378444,0.499999999999997,-2.95881487029203E-15));
#1266=DIRECTION('center_axis',(0.,0.,1.));
#1267=DIRECTION('ref_axis',(0.86602540378444,0.499999999999997,-2.71844453449409E-15));
#1268=DIRECTION('center_axis',(0.00560462830140018,0.999984293947462,0.));
#1269=DIRECTION('ref_axis',(0.,0.,1.));
#1270=DIRECTION('',(0.999984293947461,-0.00560462830140018,0.));
#1271=DIRECTION('',(0.,0.,1.));
#1272=DIRECTION('center_axis',(-0.00560462830140018,-0.999984293947462,
0.));
#1273=DIRECTION('ref_axis',(0.,0.,-1.));
#1274=DIRECTION('',(0.,0.,-1.));
#1275=DIRECTION('',(0.999984293947461,-0.00560462830140018,0.));
#1276=DIRECTION('center_axis',(0.,0.,1.));
#1277=DIRECTION('ref_axis',(-0.00560462830140077,-0.999984293947462,0.));
#1278=DIRECTION('',(-0.00560462830140077,-0.999984293947462,0.));
#1279=DIRECTION('center_axis',(0.,0.,-1.));
#1280=DIRECTION('ref_axis',(0.86602540378444,0.499999999999997,-2.95881487029203E-15));
#1281=DIRECTION('center_axis',(0.,0.,-1.));
#1282=DIRECTION('ref_axis',(0.86602540378444,0.499999999999997,-2.47807419869614E-15));
#1283=DIRECTION('center_axis',(0.,0.,-1.));
#1284=DIRECTION('ref_axis',(0.86602540378444,0.499999999999997,-2.95881487029203E-15));
#1285=DIRECTION('center_axis',(0.,0.,-1.));
#1286=DIRECTION('ref_axis',(0.86602540378444,0.499999999999997,-2.71844453449409E-15));
#1287=DIRECTION('center_axis',(0.999984293947462,-0.00560462830140018,0.));
#1288=DIRECTION('ref_axis',(0.,0.,-1.));
#1289=DIRECTION('center_axis',(-2.77555756156289E-15,-1.11022302462516E-15,
-1.));
#1290=DIRECTION('ref_axis',(0.86602540378444,0.499999999999997,-2.95881487029203E-15));
#1291=DIRECTION('',(-2.77555756156289E-15,-1.11022302462516E-15,-1.));
#1292=DIRECTION('center_axis',(-2.22044604925031E-15,-1.11022302462516E-15,
-1.));
#1293=DIRECTION('ref_axis',(0.86602540378444,0.499999999999997,-2.47807419869614E-15));
#1294=DIRECTION('',(-2.22044604925031E-15,-1.11022302462516E-15,-1.));
#1295=DIRECTION('center_axis',(-2.77555756156289E-15,-1.11022302462516E-15,
-1.));
#1296=DIRECTION('ref_axis',(0.86602540378444,0.499999999999997,-2.95881487029203E-15));
#1297=DIRECTION('',(-2.77555756156289E-15,-1.11022302462516E-15,-1.));
#1298=DIRECTION('center_axis',(-2.4980018054066E-15,-1.11022302462516E-15,
-1.));
#1299=DIRECTION('ref_axis',(0.86602540378444,0.499999999999997,-2.71844453449409E-15));
#1300=DIRECTION('',(-2.4980018054066E-15,-1.11022302462516E-15,-1.));
#1301=CARTESIAN_POINT('',(0.,0.,0.));
#1302=CARTESIAN_POINT('Origin',(-54.1431510374353,49.3069866206861,65.9289112427372));
#1303=CARTESIAN_POINT('',(-52.1945938789203,48.1819866206861,64.9999999999996));
#1304=CARTESIAN_POINT('Origin',(-54.1431510374353,49.3069866206861,64.9999999999996));
#1305=CARTESIAN_POINT('',(-52.1945938789203,48.181986620686,59.9999999999995));
#1306=CARTESIAN_POINT('',(-52.1945938789203,48.1819866206861,65.9289112427372));
#1307=CARTESIAN_POINT('Origin',(-54.1431510374353,49.3069866206861,59.9999999999995));
#1308=CARTESIAN_POINT('Origin',(-103.320065573675,36.1300720844465,65.9289112427371));
#1309=CARTESIAN_POINT('',(-101.37150841516,35.0050720844465,64.9999999999996));
#1310=CARTESIAN_POINT('Origin',(-103.320065573675,36.1300720844465,64.9999999999996));
#1311=CARTESIAN_POINT('',(-101.37150841516,35.0050720844465,59.9999999999995));
#1312=CARTESIAN_POINT('',(-101.37150841516,35.0050720844465,65.9289112427371));
#1313=CARTESIAN_POINT('Origin',(-103.320065573675,36.1300720844465,59.9999999999995));
#1314=CARTESIAN_POINT('Origin',(-85.3200655736751,67.3069866206862,65.9289112427371));
#1315=CARTESIAN_POINT('',(-83.3715084151601,66.1819866206862,64.9999999999996));
#1316=CARTESIAN_POINT('Origin',(-85.3200655736751,67.3069866206862,64.9999999999996));
#1317=CARTESIAN_POINT('',(-83.3715084151601,66.1819866206862,59.9999999999995));
#1318=CARTESIAN_POINT('',(-83.3715084151601,66.1819866206862,65.9289112427371));
#1319=CARTESIAN_POINT('Origin',(-85.320065573675,67.3069866206862,59.9999999999995));
#1320=CARTESIAN_POINT('Origin',(-72.1431510374355,18.1300720844464,65.9289112427372));
#1321=CARTESIAN_POINT('',(-70.1945938789205,17.0050720844464,64.9999999999997));
#1322=CARTESIAN_POINT('Origin',(-72.1431510374355,18.1300720844464,64.9999999999996));
#1323=CARTESIAN_POINT('',(-70.1945938789205,17.0050720844463,59.9999999999995));
#1324=CARTESIAN_POINT('',(-70.1945938789205,17.0050720844464,65.9289112427372));
#1325=CARTESIAN_POINT('Origin',(-72.1431510374355,18.1300720844464,59.9999999999995));
#1326=CARTESIAN_POINT('Origin',(-47.2846676860088,-30.1259975292975,65.0000000000001));
#1327=CARTESIAN_POINT('',(-47.2846676860088,-30.1259975292975,65.0000000000001));
#1328=CARTESIAN_POINT('',(-62.2846676860088,-4.14523541576431,65.0000000000001));
#1329=CARTESIAN_POINT('',(-34.5712364716319,-52.1463063311303,65.));
#1330=CARTESIAN_POINT('',(-47.2846676860088,-30.1259975292975,60.0000000000001));
#1331=CARTESIAN_POINT('',(-47.2846676860088,-30.1259975292975,65.0000000000001));
#1332=CARTESIAN_POINT('',(-62.2846676860088,-4.14523541576431,60.0000000000001));
#1333=CARTESIAN_POINT('',(-20.5440822949917,-76.4420500506732,60.));
#1334=CARTESIAN_POINT('',(-62.2846676860088,-4.14523541576431,65.0000000000001));
#1335=CARTESIAN_POINT('Origin',(-42.9545406670866,-27.6259975292975,65.0000000000001));
#1336=CARTESIAN_POINT('',(-42.9545406670866,-27.6259975292975,65.0000000000001));
#1337=CARTESIAN_POINT('',(-24.1907015479202,-16.7926899628159,65.));
#1338=CARTESIAN_POINT('',(-42.9545406670866,-27.6259975292975,60.0000000000001));
#1339=CARTESIAN_POINT('',(-42.9545406670866,-27.6259975292975,65.0000000000001));
#1340=CARTESIAN_POINT('',(-38.400006144356,-24.9964357965655,60.));
#1341=CARTESIAN_POINT('Origin',(-57.9545406670866,-1.6452354157643,65.0000000000001));
#1342=CARTESIAN_POINT('',(-57.9545406670866,-1.6452354157643,65.0000000000001));
#1343=CARTESIAN_POINT('',(-37.7411094527097,-36.6559252743637,65.));
#1344=CARTESIAN_POINT('',(-57.9545406670866,-1.6452354157643,60.0000000000001));
#1345=CARTESIAN_POINT('',(-57.9545406670866,-1.6452354157643,65.0000000000001));
#1346=CARTESIAN_POINT('',(-23.7139552760695,-60.9516689939066,60.));
#1347=CARTESIAN_POINT('Origin',(-62.2846676860088,-4.14523541576431,65.0000000000001));
#1348=CARTESIAN_POINT('',(-41.3557650573813,7.93807215071727,65.));
#1349=CARTESIAN_POINT('',(-55.5650696538171,-0.265673683032324,60.));
#1350=CARTESIAN_POINT('Origin',(43.0104203794321,-3.21115845620801,65.0000000000001));
#1351=CARTESIAN_POINT('',(43.0104203794321,-3.21115845620801,65.0000000000001));
#1352=CARTESIAN_POINT('',(28.0104203794321,-29.1919205697412,65.0000000000001));
#1353=CARTESIAN_POINT('',(30.004036484361,-25.7388761852169,65.));
#1354=CARTESIAN_POINT('',(43.0104203794321,-3.21115845620801,60.0000000000001));
#1355=CARTESIAN_POINT('',(43.0104203794321,-3.21115845620801,65.0000000000001));
#1356=CARTESIAN_POINT('',(28.0104203794321,-29.1919205697412,60.0000000000001));
#1357=CARTESIAN_POINT('',(15.885807097823,-50.1923667956127,60.));
#1358=CARTESIAN_POINT('',(28.0104203794321,-29.1919205697412,65.0000000000001));
#1359=CARTESIAN_POINT('Origin',(38.6802933605099,-0.711158456208015,65.0000000000001));
#1360=CARTESIAN_POINT('',(38.6802933605099,-0.711158456208015,65.0000000000001));
#1361=CARTESIAN_POINT('',(42.3465305753261,-2.82786149909516,65.));
#1362=CARTESIAN_POINT('',(38.6802933605099,-0.711158456208016,60.0000000000001));
#1363=CARTESIAN_POINT('',(38.6802933605099,-0.711158456208015,65.0000000000001));
#1364=CARTESIAN_POINT('',(56.2826095420686,-10.8738604419918,60.));
#1365=CARTESIAN_POINT('Origin',(23.6802933605099,-26.6919205697412,65.0000000000001));
#1366=CARTESIAN_POINT('',(23.6802933605099,-26.6919205697412,65.0000000000001));
#1367=CARTESIAN_POINT('',(18.1739094654388,-36.2292572419835,65.));
#1368=CARTESIAN_POINT('',(23.6802933605099,-26.6919205697412,60.0000000000001));
#1369=CARTESIAN_POINT('',(23.6802933605099,-26.6919205697412,65.0000000000001));
#1370=CARTESIAN_POINT('',(4.05568007890078,-60.6827478523793,60.));
#1371=CARTESIAN_POINT('Origin',(28.0104203794321,-29.1919205697412,65.0000000000001));
#1372=CARTESIAN_POINT('',(29.5115940847872,-30.0586236126283,65.));
#1373=CARTESIAN_POINT('',(43.4476730515297,-38.104622555525,60.));
#1374=CARTESIAN_POINT('Origin',(12.9282909855333,49.3089877309516,65.0000009685755));
#1375=CARTESIAN_POINT('',(12.9282909855333,49.3089877309516,65.0000009685755));
#1376=CARTESIAN_POINT('',(12.9282909855333,44.3089877309516,65.0000009685755));
#1377=CARTESIAN_POINT('',(12.9282909855333,-0.345506134524203,65.));
#1378=CARTESIAN_POINT('',(12.9282909855333,49.3089877309516,60.0000009685755));
#1379=CARTESIAN_POINT('',(12.9282909855333,49.3089877309516,65.0000009685755));
#1380=CARTESIAN_POINT('',(12.9282909855333,44.3089877309516,60.0000009685755));
#1381=CARTESIAN_POINT('',(12.9282909855333,-32.8449956878167,60.));
#1382=CARTESIAN_POINT('',(12.9282909855333,44.3089877309516,65.0000009685755));
#1383=CARTESIAN_POINT('Origin',(-32.0717090144667,49.3089877309516,65.0000009685755));
#1384=CARTESIAN_POINT('',(-32.0717090144667,49.3089877309516,65.0000009685755));
#1385=CARTESIAN_POINT('',(-6.03585450723336,49.3089877309516,65.));
#1386=CARTESIAN_POINT('',(-32.0717090144667,49.3089877309516,60.0000009685755));
#1387=CARTESIAN_POINT('',(-32.0717090144667,49.3089877309516,65.0000009685755));
#1388=CARTESIAN_POINT('',(-6.21800492702889,49.3089877309516,60.));
#1389=CARTESIAN_POINT('Origin',(-32.0717090144667,44.3089877309516,65.0000009685755));
#1390=CARTESIAN_POINT('',(-32.0717090144667,44.3089877309516,65.0000009685755));
#1391=CARTESIAN_POINT('',(-32.0717090144667,-2.8455061345242,65.));
#1392=CARTESIAN_POINT('',(-32.0717090144667,44.3089877309516,60.0000009685755));
#1393=CARTESIAN_POINT('',(-32.0717090144667,44.3089877309516,65.0000009685755));
#1394=CARTESIAN_POINT('',(-32.0717090144667,-35.3449956878167,60.));
#1395=CARTESIAN_POINT('Origin',(12.9282909855333,44.3089877309516,65.0000009685755));
#1396=CARTESIAN_POINT('',(16.4641454927666,44.3089877309516,65.));
#1397=CARTESIAN_POINT('',(16.2819950729711,44.3089877309516,60.));
#1398=CARTESIAN_POINT('Origin',(18.0000002682209,-84.0000008046627,65.));
#1399=CARTESIAN_POINT('',(18.0000002682209,-54.0000008046627,60.));
#1400=CARTESIAN_POINT('',(18.0000002682209,-84.0000008046627,60.));
#1401=CARTESIAN_POINT('',(18.0000002682209,-91.8314689019759,60.));
#1402=CARTESIAN_POINT('',(18.0000002682209,-54.0000008046627,65.));
#1403=CARTESIAN_POINT('',(18.0000002682209,-54.0000008046627,65.));
#1404=CARTESIAN_POINT('',(18.0000002682209,-84.0000008046627,65.));
#1405=CARTESIAN_POINT('',(18.0000002682209,-91.9996077510179,65.));
#1406=CARTESIAN_POINT('',(18.0000002682209,-84.0000008046627,65.));
#1407=CARTESIAN_POINT('Origin',(-37.8135371588412,-54.0000008046627,65.));
#1408=CARTESIAN_POINT('',(-37.8135371588412,-84.0000008046627,60.));
#1409=CARTESIAN_POINT('',(-37.8135371588412,-54.0000008046627,60.));
#1410=CARTESIAN_POINT('',(-37.8135371588412,-76.8314689019759,60.));
#1411=CARTESIAN_POINT('',(-37.8135371588412,-84.0000008046627,65.));
#1412=CARTESIAN_POINT('',(-37.8135371588412,-84.0000008046627,65.));
#1413=CARTESIAN_POINT('',(-37.8135371588412,-54.0000008046627,65.));
#1414=CARTESIAN_POINT('',(-37.8135371588412,-76.9996077510179,65.));
#1415=CARTESIAN_POINT('',(-37.8135371588412,-54.0000008046627,65.));
#1416=CARTESIAN_POINT('Origin',(-95.5252242848748,87.0726772663561,60.));
#1417=CARTESIAN_POINT('',(-95.5252242848748,87.0726772663561,60.));
#1418=CARTESIAN_POINT('',(-125.815978132566,35.2801079987613,60.));
#1419=CARTESIAN_POINT('',(-95.5252242848748,87.0726772663561,60.));
#1420=CARTESIAN_POINT('',(-125.815978132566,35.2801079987613,65.));
#1421=CARTESIAN_POINT('',(-125.815978132566,35.2801079987613,60.));
#1422=CARTESIAN_POINT('',(-95.5252242848748,87.0726772663561,65.));
#1423=CARTESIAN_POINT('',(-95.5252242848748,87.0726772663561,65.));
#1424=CARTESIAN_POINT('',(-95.5252242848748,87.0726772663561,60.));
#1425=CARTESIAN_POINT('Origin',(106.763671393843,33.9765650391815,60.));
#1426=CARTESIAN_POINT('',(106.763671393843,33.9765650391815,60.));
#1427=CARTESIAN_POINT('',(77.055367604686,86.1054120048603,60.));
#1428=CARTESIAN_POINT('',(106.763671393843,33.9765650391815,60.));
#1429=CARTESIAN_POINT('',(77.055367604686,86.1054120048603,65.));
#1430=CARTESIAN_POINT('',(77.055367604686,86.1054120048603,60.));
#1431=CARTESIAN_POINT('',(106.763671393843,33.9765650391815,65.));
#1432=CARTESIAN_POINT('',(106.763671393843,33.9765650391815,65.));
#1433=CARTESIAN_POINT('',(106.763671393843,33.9765650391815,60.));
#1434=CARTESIAN_POINT('Origin',(-39.4166075783138,54.2576939313577,65.));
#1435=CARTESIAN_POINT('',(-39.4166075783138,54.2576939313577,60.));
#1436=CARTESIAN_POINT('',(-39.4166075783138,54.2576939313577,65.));
#1437=CARTESIAN_POINT('',(-39.4166075783138,54.2576939313577,60.));
#1438=CARTESIAN_POINT('',(-39.4166075783138,54.2576939313577,60.));
#1439=CARTESIAN_POINT('',(-39.4166075783138,54.2576939313577,65.));
#1440=CARTESIAN_POINT('Origin',(-69.7073614260046,2.46512466376291,60.));
#1441=CARTESIAN_POINT('',(-69.7073614260046,2.46512466376291,60.));
#1442=CARTESIAN_POINT('',(-69.7073614260046,2.46512466376291,65.));
#1443=CARTESIAN_POINT('',(-69.7073614260046,2.46512466376291,60.));
#1444=CARTESIAN_POINT('',(-69.7073614260046,2.46512466376291,65.));
#1445=CARTESIAN_POINT('',(-69.7073614260046,2.46512466376291,60.));
#1446=CARTESIAN_POINT('Origin',(-50.,10.,60.));
#1447=CARTESIAN_POINT('',(-48.5,10.,65.));
#1448=CARTESIAN_POINT('Origin',(-50.,10.,65.));
#1449=CARTESIAN_POINT('',(-48.5,10.,60.));
#1450=CARTESIAN_POINT('',(-48.5,10.,60.));
#1451=CARTESIAN_POINT('Origin',(-50.,10.,60.));
#1452=CARTESIAN_POINT('Origin',(28.3999150811987,10.,60.));
#1453=CARTESIAN_POINT('',(29.8999150811987,10.,65.));
#1454=CARTESIAN_POINT('Origin',(28.3999150811987,10.,65.));
#1455=CARTESIAN_POINT('',(29.8999150811987,10.,60.));
#1456=CARTESIAN_POINT('',(29.8999150811987,10.,60.));
#1457=CARTESIAN_POINT('Origin',(28.3999150811987,10.,60.));
#1458=CARTESIAN_POINT('Origin',(-69.7073614260046,2.46512466376291,60.));
#1459=CARTESIAN_POINT('',(-39.9990576368477,-49.6637223019159,60.));
#1460=CARTESIAN_POINT('',(-69.7073614260046,2.46512466376291,60.));
#1461=CARTESIAN_POINT('',(-39.9990576368477,-49.6637223019159,65.));
#1462=CARTESIAN_POINT('',(-39.9990576368477,-49.6637223019159,60.));
#1463=CARTESIAN_POINT('',(-69.7073614260046,2.46512466376291,65.));
#1464=CARTESIAN_POINT('Origin',(20.5824500585339,53.9214162332737,60.));
#1465=CARTESIAN_POINT('',(20.5824500585339,53.9214162332737,60.));
#1466=CARTESIAN_POINT('',(20.5824500585339,53.9214162332737,60.));
#1467=CARTESIAN_POINT('',(20.5824500585339,53.9214162332737,65.));
#1468=CARTESIAN_POINT('',(20.5824500585339,53.9214162332737,65.));
#1469=CARTESIAN_POINT('',(20.5824500585339,53.9214162332737,60.));
#1470=CARTESIAN_POINT('Origin',(20.,-50.,60.));
#1471=CARTESIAN_POINT('',(20.,-50.,60.));
#1472=CARTESIAN_POINT('',(50.2907538476908,1.7925692675948,60.));
#1473=CARTESIAN_POINT('',(20.,-50.,60.));
#1474=CARTESIAN_POINT('',(50.2907538476908,1.7925692675948,65.));
#1475=CARTESIAN_POINT('',(50.2907538476908,1.7925692675948,60.));
#1476=CARTESIAN_POINT('',(20.,-50.,65.));
#1477=CARTESIAN_POINT('',(20.,-50.,65.));
#1478=CARTESIAN_POINT('',(20.,-50.,60.));
#1479=CARTESIAN_POINT('Origin',(50.2907538476908,1.7925692675948,65.));
#1480=CARTESIAN_POINT('',(50.2907538476908,1.7925692675948,60.));
#1481=CARTESIAN_POINT('',(50.2907538476908,1.7925692675948,65.));
#1482=CARTESIAN_POINT('Origin',(20.5824500585339,53.9214162332737,60.));
#1483=CARTESIAN_POINT('',(20.5824500585339,53.9214162332737,65.));
#1484=CARTESIAN_POINT('',(20.5824500585339,53.9214162332737,60.));
#1485=CARTESIAN_POINT('Origin',(-41.8135372184458,-54.0000008046627,65.));
#1486=CARTESIAN_POINT('',(-41.8135372184458,-54.0000008046627,65.));
#1487=CARTESIAN_POINT('',(-41.0884478474424,-54.0000008046627,65.));
#1488=CARTESIAN_POINT('',(-41.8135372184458,-54.0000008046627,60.));
#1489=CARTESIAN_POINT('',(-41.8135372184458,-54.0000008046627,65.));
#1490=CARTESIAN_POINT('',(-40.9062974276468,-54.0000008046627,60.));
#1491=CARTESIAN_POINT('Origin',(-41.8135372184458,-84.0000008046627,65.));
#1492=CARTESIAN_POINT('',(-41.8135372184458,-84.0000008046627,60.));
#1493=CARTESIAN_POINT('',(-41.8135372184458,-66.8318615532893,60.));
#1494=CARTESIAN_POINT('',(-41.8135372184458,-84.0000008046627,65.));
#1495=CARTESIAN_POINT('',(-41.8135372184458,-99.3313511065818,65.));
#1496=CARTESIAN_POINT('',(-41.8135372184458,-84.0000008046627,65.));
#1497=CARTESIAN_POINT('Origin',(-37.8135371588412,-84.0000008046627,65.));
#1498=CARTESIAN_POINT('',(-39.0464131053795,-84.0000008046627,60.));
#1499=CARTESIAN_POINT('',(-39.08844781764,-84.0000008046627,65.));
#1500=CARTESIAN_POINT('Origin',(-39.9990576368477,-49.6637223019159,65.));
#1501=CARTESIAN_POINT('',(-44.998979106585,-49.6356991604089,60.));
#1502=CARTESIAN_POINT('',(-39.9990576368477,-49.6637223019159,60.));
#1503=CARTESIAN_POINT('',(-44.998979106585,-49.6356991604089,65.));
#1504=CARTESIAN_POINT('',(-44.998979106585,-49.6356991604089,60.));
#1505=CARTESIAN_POINT('',(-39.9990576368477,-49.6637223019159,65.));
#1506=CARTESIAN_POINT('Origin',(-45.279210521655,-99.634913857782,65.));
#1507=CARTESIAN_POINT('',(-45.3632799461761,-114.634678266994,60.));
#1508=CARTESIAN_POINT('',(-44.998979106585,-49.6356991604089,60.));
#1509=CARTESIAN_POINT('',(-45.3632799461761,-114.634678266994,65.));
#1510=CARTESIAN_POINT('',(-45.3632799461761,-114.634678266994,60.));
#1511=CARTESIAN_POINT('',(-45.2792105216551,-99.634913857782,65.));
#1512=CARTESIAN_POINT('Origin',(22.0000003278255,-54.0000008046627,65.));
#1513=CARTESIAN_POINT('',(22.0000003278255,-84.0000008046627,60.));
#1514=CARTESIAN_POINT('',(22.0000003278255,-54.0000008046627,60.));
#1515=CARTESIAN_POINT('',(22.0000003278255,-84.4994899556239,60.));
#1516=CARTESIAN_POINT('',(22.0000003278255,-84.0000008046627,65.));
#1517=CARTESIAN_POINT('',(22.0000003278255,-84.0000008046627,65.));
#1518=CARTESIAN_POINT('',(22.0000003278255,-54.0000008046627,65.));
#1519=CARTESIAN_POINT('',(22.0000003278255,-52.0000004023314,65.));
#1520=CARTESIAN_POINT('',(22.0000003278255,-54.0000008046627,65.));
#1521=CARTESIAN_POINT('Origin',(18.0000002682209,-54.0000008046627,65.));
#1522=CARTESIAN_POINT('',(18.8178497143149,-54.0000008046627,60.));
#1523=CARTESIAN_POINT('',(19.0000001341104,-54.0000008046627,65.));
#1524=CARTESIAN_POINT('Origin',(22.0000003278255,-84.0000008046627,65.));
#1525=CARTESIAN_POINT('',(20.8178497441172,-84.0000008046627,60.));
#1526=CARTESIAN_POINT('',(20.8598844563777,-84.0000008046627,65.));
#1527=CARTESIAN_POINT('Origin',(19.6356991604089,-114.998979106585,60.));
#1528=CARTESIAN_POINT('',(24.6356206301463,-115.027002248092,60.));
#1529=CARTESIAN_POINT('',(19.635699160409,-114.998979106585,60.));
#1530=CARTESIAN_POINT('',(24.9999214697373,-50.028023141507,60.));
#1531=CARTESIAN_POINT('',(20.,-50.,60.));
#1532=CARTESIAN_POINT('',(24.7196900546673,-100.02723783888,60.));
#1533=CARTESIAN_POINT('',(50.9399675478263,15.7156791002439,59.9999999999998));
#1534=CARTESIAN_POINT('Origin',(52.8885247063413,16.8406791002439,59.9999999999998));
#1535=CARTESIAN_POINT('',(82.1168820840661,33.7156791002438,59.9999999999997));
#1536=CARTESIAN_POINT('Origin',(84.0654392425811,34.8406791002437,59.9999999999997));
#1537=CARTESIAN_POINT('',(64.1168820840662,64.8925936364836,59.9999999999997));
#1538=CARTESIAN_POINT('Origin',(66.0654392425812,66.0175936364836,59.9999999999997));
#1539=CARTESIAN_POINT('',(32.9399675478264,46.8925936364837,59.9999999999998));
#1540=CARTESIAN_POINT('Origin',(34.8885247063414,48.0175936364837,59.9999999999998));
#1541=CARTESIAN_POINT('Origin',(20.,-50.,60.));
#1542=CARTESIAN_POINT('',(24.9999214697373,-50.028023141507,65.));
#1543=CARTESIAN_POINT('',(20.,-50.,65.));
#1544=CARTESIAN_POINT('',(24.9999214697373,-50.028023141507,60.));
#1545=CARTESIAN_POINT('Origin',(19.635699160409,-114.998979106585,65.));
#1546=CARTESIAN_POINT('',(24.6356206301463,-115.027002248092,65.));
#1547=CARTESIAN_POINT('',(24.6356206301463,-115.027002248092,60.));
#1548=CARTESIAN_POINT('',(19.635699160409,-114.998979106585,65.));
#1549=CARTESIAN_POINT('Origin',(20.,-50.,65.));
#1550=CARTESIAN_POINT('',(24.7196900546673,-100.02723783888,65.));
#1551=CARTESIAN_POINT('',(50.9399675478263,15.7156791002439,64.9999999999998));
#1552=CARTESIAN_POINT('Origin',(52.8885247063413,16.8406791002439,64.9999999999998));
#1553=CARTESIAN_POINT('',(82.1168820840661,33.7156791002438,64.9999999999998));
#1554=CARTESIAN_POINT('Origin',(84.0654392425811,34.8406791002437,64.9999999999998));
#1555=CARTESIAN_POINT('',(64.1168820840662,64.8925936364836,64.9999999999997));
#1556=CARTESIAN_POINT('Origin',(66.0654392425812,66.0175936364836,64.9999999999997));
#1557=CARTESIAN_POINT('',(32.9399675478264,46.8925936364837,64.9999999999999));
#1558=CARTESIAN_POINT('Origin',(34.8885247063414,48.0175936364837,64.9999999999999));
#1559=CARTESIAN_POINT('Origin',(24.7196900546673,-100.02723783888,60.));
#1560=CARTESIAN_POINT('Origin',(52.8885247063413,16.8406791002439,65.9289112427372));
#1561=CARTESIAN_POINT('',(50.9399675478263,15.7156791002439,65.9289112427372));
#1562=CARTESIAN_POINT('Origin',(84.0654392425811,34.8406791002437,65.9289112427371));
#1563=CARTESIAN_POINT('',(82.1168820840661,33.7156791002438,65.9289112427371));
#1564=CARTESIAN_POINT('Origin',(66.0654392425812,66.0175936364836,65.9289112427371));
#1565=CARTESIAN_POINT('',(64.1168820840662,64.8925936364836,65.9289112427371));
#1566=CARTESIAN_POINT('Origin',(34.8885247063414,48.0175936364837,65.9289112427372));
#1567=CARTESIAN_POINT('',(32.9399675478264,46.8925936364837,65.9289112427372));
#1568=UNCERTAINTY_MEASURE_WITH_UNIT(LENGTH_MEASURE(0.01),#1572,
'DISTANCE_ACCURACY_VALUE',
'Maximum model space distance between geometric entities at asserted c
onnectivities');
#1569=UNCERTAINTY_MEASURE_WITH_UNIT(LENGTH_MEASURE(0.01),#1572,
'DISTANCE_ACCURACY_VALUE',
'Maximum model space distance between geometric entities at asserted c
onnectivities');
#1570=(
GEOMETRIC_REPRESENTATION_CONTEXT(3)
GLOBAL_UNCERTAINTY_ASSIGNED_CONTEXT((#1568))
GLOBAL_UNIT_ASSIGNED_CONTEXT((#1572,#1573,#1574))
REPRESENTATION_CONTEXT('','3D')
);
#1571=(
GEOMETRIC_REPRESENTATION_CONTEXT(3)
GLOBAL_UNCERTAINTY_ASSIGNED_CONTEXT((#1569))
GLOBAL_UNIT_ASSIGNED_CONTEXT((#1572,#1573,#1574))
REPRESENTATION_CONTEXT('','3D')
);
#1572=(
LENGTH_UNIT()
NAMED_UNIT(*)
SI_UNIT(.MILLI.,.METRE.)
);
#1573=(
NAMED_UNIT(*)
PLANE_ANGLE_UNIT()
SI_UNIT($,.RADIAN.)
);
#1574=(
NAMED_UNIT(*)
SI_UNIT($,.STERADIAN.)
SOLID_ANGLE_UNIT()
);
#1575=SHAPE_DEFINITION_REPRESENTATION(#1576,#1577);
#1576=PRODUCT_DEFINITION_SHAPE('',$,#1579);
#1577=SHAPE_REPRESENTATION('',(#988),#1570);
#1578=PRODUCT_DEFINITION_CONTEXT('part definition',#1583,'design');
#1579=PRODUCT_DEFINITION('2026-04-22-14-29-57-430','Reworked body',#1580,
#1578);
#1580=PRODUCT_DEFINITION_FORMATION('',$,#1585);
#1581=PRODUCT_RELATED_PRODUCT_CATEGORY('Reworked body','Reworked body',
(#1585));
#1582=APPLICATION_PROTOCOL_DEFINITION('international standard',
'automotive_design',2009,#1583);
#1583=APPLICATION_CONTEXT(
'Core Data for Automotive Mechanical Design Process');
#1584=PRODUCT_CONTEXT('part definition',#1583,'mechanical');
#1585=PRODUCT('2026-04-22-14-29-57-430','Reworked body',$,(#1584));
#1586=PRESENTATION_STYLE_ASSIGNMENT((#1590));
#1587=PRESENTATION_STYLE_ASSIGNMENT((#1591));
#1588=PRESENTATION_STYLE_ASSIGNMENT((#1592));
#1589=PRESENTATION_STYLE_ASSIGNMENT((#1593));
#1590=SURFACE_STYLE_USAGE(.BOTH.,#1594);
#1591=SURFACE_STYLE_USAGE(.BOTH.,#1595);
#1592=SURFACE_STYLE_USAGE(.BOTH.,#1596);
#1593=SURFACE_STYLE_USAGE(.BOTH.,#1597);
#1594=SURFACE_SIDE_STYLE('',(#1598));
#1595=SURFACE_SIDE_STYLE('',(#1599));
#1596=SURFACE_SIDE_STYLE('',(#1600));
#1597=SURFACE_SIDE_STYLE('',(#1601));
#1598=SURFACE_STYLE_FILL_AREA(#1602);
#1599=SURFACE_STYLE_FILL_AREA(#1603);
#1600=SURFACE_STYLE_FILL_AREA(#1604);
#1601=SURFACE_STYLE_FILL_AREA(#1605);
#1602=FILL_AREA_STYLE('Steel - Satin',(#1606));
#1603=FILL_AREA_STYLE('Opaque(255,255,255)',(#1607));
#1604=FILL_AREA_STYLE('Opaque(198,193,188)',(#1608));
#1605=FILL_AREA_STYLE('Opaque(255,220,64)',(#1609));
#1606=FILL_AREA_STYLE_COLOUR('Steel - Satin',#1610);
#1607=FILL_AREA_STYLE_COLOUR('Opaque(255,255,255)',#1611);
#1608=FILL_AREA_STYLE_COLOUR('Opaque(198,193,188)',#1612);
#1609=FILL_AREA_STYLE_COLOUR('Opaque(255,220,64)',#1613);
#1610=COLOUR_RGB('Steel - Satin',0.627450980392157,0.627450980392157,0.627450980392157);
#1611=COLOUR_RGB('Opaque(255,255,255)',1.,1.,1.);
#1612=COLOUR_RGB('Opaque(198,193,188)',0.776470588235294,0.756862745098039,
0.737254901960784);
#1613=COLOUR_RGB('Opaque(255,220,64)',1.,0.862745098039216,0.250980392156863);
ENDSEC;
END-ISO-10303-21;
