ISO-10303-21;
HEADER;
/* Generated by software containing ST-Developer
 * from STEP Tools, Inc. (www.steptools.com) 
 */

FILE_DESCRIPTION(
/* description */ (''),
/* implementation_level */ '2;1');

FILE_NAME(
/* name */ 'Internal Plate (Side for LiPo).step',
/* time_stamp */ '2026-05-27T22:08:24+02:00',
/* author */ (''),
/* organization */ (''),
/* preprocessor_version */ 'ST-DEVELOPER v20.1',
/* originating_system */ 'Autodesk Translation Framework v15.8.0.0',
/* authorisation */ '');

FILE_SCHEMA (('AUTOMOTIVE_DESIGN { 1 0 10303 214 3 1 1 }'));
ENDSEC;

DATA;
#10=MECHANICAL_DESIGN_GEOMETRIC_PRESENTATION_REPRESENTATION('',(#13),#439);
#11=SHAPE_REPRESENTATION_RELATIONSHIP('SRR','None',#445,#12);
#12=ADVANCED_BREP_SHAPE_REPRESENTATION('',(#14),#438);
#13=STYLED_ITEM('',(#454),#14);
#14=MANIFOLD_SOLID_BREP('Body24',#279);
#15=FACE_BOUND('',#33,.T.);
#16=FACE_BOUND('',#43,.T.);
#17=FACE_OUTER_BOUND('',#31,.T.);
#18=FACE_OUTER_BOUND('',#32,.T.);
#19=FACE_OUTER_BOUND('',#34,.T.);
#20=FACE_OUTER_BOUND('',#35,.T.);
#21=FACE_OUTER_BOUND('',#36,.T.);
#22=FACE_OUTER_BOUND('',#37,.T.);
#23=FACE_OUTER_BOUND('',#38,.T.);
#24=FACE_OUTER_BOUND('',#39,.T.);
#25=FACE_OUTER_BOUND('',#40,.T.);
#26=FACE_OUTER_BOUND('',#41,.T.);
#27=FACE_OUTER_BOUND('',#42,.T.);
#28=FACE_OUTER_BOUND('',#44,.T.);
#29=FACE_OUTER_BOUND('',#45,.T.);
#30=FACE_OUTER_BOUND('',#46,.T.);
#31=EDGE_LOOP('',(#179,#180,#181,#182));
#32=EDGE_LOOP('',(#183,#184,#185,#186,#187,#188,#189,#190));
#33=EDGE_LOOP('',(#191,#192,#193,#194));
#34=EDGE_LOOP('',(#195,#196,#197,#198));
#35=EDGE_LOOP('',(#199,#200,#201,#202));
#36=EDGE_LOOP('',(#203,#204,#205,#206));
#37=EDGE_LOOP('',(#207,#208,#209,#210));
#38=EDGE_LOOP('',(#211,#212,#213,#214));
#39=EDGE_LOOP('',(#215,#216,#217,#218));
#40=EDGE_LOOP('',(#219,#220,#221,#222));
#41=EDGE_LOOP('',(#223,#224,#225,#226));
#42=EDGE_LOOP('',(#227,#228,#229,#230,#231,#232,#233,#234));
#43=EDGE_LOOP('',(#235,#236,#237,#238));
#44=EDGE_LOOP('',(#239,#240,#241,#242));
#45=EDGE_LOOP('',(#243,#244,#245,#246));
#46=EDGE_LOOP('',(#247,#248,#249,#250));
#47=LINE('',#365,#83);
#48=LINE('',#367,#84);
#49=LINE('',#369,#85);
#50=LINE('',#370,#86);
#51=LINE('',#374,#87);
#52=LINE('',#376,#88);
#53=LINE('',#378,#89);
#54=LINE('',#380,#90);
#55=LINE('',#382,#91);
#56=LINE('',#384,#92);
#57=LINE('',#386,#93);
#58=LINE('',#387,#94);
#59=LINE('',#389,#95);
#60=LINE('',#391,#96);
#61=LINE('',#392,#97);
#62=LINE('',#395,#98);
#63=LINE('',#396,#99);
#64=LINE('',#399,#100);
#65=LINE('',#400,#101);
#66=LINE('',#402,#102);
#67=LINE('',#405,#103);
#68=LINE('',#407,#104);
#69=LINE('',#408,#105);
#70=LINE('',#411,#106);
#71=LINE('',#413,#107);
#72=LINE('',#414,#108);
#73=LINE('',#416,#109);
#74=LINE('',#419,#110);
#75=LINE('',#420,#111);
#76=LINE('',#423,#112);
#77=LINE('',#424,#113);
#78=LINE('',#428,#114);
#79=LINE('',#429,#115);
#80=LINE('',#430,#116);
#81=LINE('',#432,#117);
#82=LINE('',#434,#118);
#83=VECTOR('',#299,10.);
#84=VECTOR('',#300,10.);
#85=VECTOR('',#301,10.);
#86=VECTOR('',#302,10.);
#87=VECTOR('',#305,10.);
#88=VECTOR('',#306,10.);
#89=VECTOR('',#307,10.);
#90=VECTOR('',#308,10.);
#91=VECTOR('',#309,10.);
#92=VECTOR('',#310,10.);
#93=VECTOR('',#311,10.);
#94=VECTOR('',#312,10.);
#95=VECTOR('',#313,10.);
#96=VECTOR('',#314,10.);
#97=VECTOR('',#315,10.);
#98=VECTOR('',#318,10.);
#99=VECTOR('',#319,10.);
#100=VECTOR('',#322,10.);
#101=VECTOR('',#323,10.);
#102=VECTOR('',#326,10.);
#103=VECTOR('',#329,10.);
#104=VECTOR('',#330,10.);
#105=VECTOR('',#331,10.);
#106=VECTOR('',#334,10.);
#107=VECTOR('',#335,10.);
#108=VECTOR('',#336,10.);
#109=VECTOR('',#339,10.);
#110=VECTOR('',#342,10.);
#111=VECTOR('',#343,10.);
#112=VECTOR('',#346,10.);
#113=VECTOR('',#347,10.);
#114=VECTOR('',#350,10.);
#115=VECTOR('',#351,10.);
#116=VECTOR('',#352,10.);
#117=VECTOR('',#355,10.);
#118=VECTOR('',#358,10.);
#119=VERTEX_POINT('',#363);
#120=VERTEX_POINT('',#364);
#121=VERTEX_POINT('',#366);
#122=VERTEX_POINT('',#368);
#123=VERTEX_POINT('',#372);
#124=VERTEX_POINT('',#373);
#125=VERTEX_POINT('',#375);
#126=VERTEX_POINT('',#377);
#127=VERTEX_POINT('',#379);
#128=VERTEX_POINT('',#381);
#129=VERTEX_POINT('',#383);
#130=VERTEX_POINT('',#385);
#131=VERTEX_POINT('',#388);
#132=VERTEX_POINT('',#390);
#133=VERTEX_POINT('',#394);
#134=VERTEX_POINT('',#398);
#135=VERTEX_POINT('',#404);
#136=VERTEX_POINT('',#406);
#137=VERTEX_POINT('',#410);
#138=VERTEX_POINT('',#412);
#139=VERTEX_POINT('',#418);
#140=VERTEX_POINT('',#422);
#141=VERTEX_POINT('',#426);
#142=VERTEX_POINT('',#427);
#143=EDGE_CURVE('',#119,#120,#47,.T.);
#144=EDGE_CURVE('',#121,#119,#48,.T.);
#145=EDGE_CURVE('',#122,#121,#49,.T.);
#146=EDGE_CURVE('',#120,#122,#50,.T.);
#147=EDGE_CURVE('',#123,#124,#51,.T.);
#148=EDGE_CURVE('',#125,#123,#52,.T.);
#149=EDGE_CURVE('',#125,#126,#53,.T.);
#150=EDGE_CURVE('',#126,#127,#54,.T.);
#151=EDGE_CURVE('',#128,#127,#55,.T.);
#152=EDGE_CURVE('',#129,#128,#56,.T.);
#153=EDGE_CURVE('',#129,#130,#57,.T.);
#154=EDGE_CURVE('',#130,#124,#58,.T.);
#155=EDGE_CURVE('',#131,#122,#59,.T.);
#156=EDGE_CURVE('',#121,#132,#60,.T.);
#157=EDGE_CURVE('',#132,#131,#61,.T.);
#158=EDGE_CURVE('',#120,#133,#62,.T.);
#159=EDGE_CURVE('',#131,#133,#63,.T.);
#160=EDGE_CURVE('',#133,#134,#64,.T.);
#161=EDGE_CURVE('',#132,#134,#65,.T.);
#162=EDGE_CURVE('',#134,#119,#66,.T.);
#163=EDGE_CURVE('',#135,#126,#67,.T.);
#164=EDGE_CURVE('',#135,#136,#68,.T.);
#165=EDGE_CURVE('',#127,#136,#69,.T.);
#166=EDGE_CURVE('',#129,#137,#70,.T.);
#167=EDGE_CURVE('',#138,#128,#71,.T.);
#168=EDGE_CURVE('',#137,#138,#72,.T.);
#169=EDGE_CURVE('',#136,#138,#73,.T.);
#170=EDGE_CURVE('',#139,#125,#74,.T.);
#171=EDGE_CURVE('',#139,#135,#75,.T.);
#172=EDGE_CURVE('',#137,#140,#76,.T.);
#173=EDGE_CURVE('',#140,#130,#77,.T.);
#174=EDGE_CURVE('',#141,#142,#78,.T.);
#175=EDGE_CURVE('',#141,#140,#79,.T.);
#176=EDGE_CURVE('',#139,#142,#80,.T.);
#177=EDGE_CURVE('',#124,#141,#81,.T.);
#178=EDGE_CURVE('',#142,#123,#82,.T.);
#179=ORIENTED_EDGE('',*,*,#143,.F.);
#180=ORIENTED_EDGE('',*,*,#144,.F.);
#181=ORIENTED_EDGE('',*,*,#145,.F.);
#182=ORIENTED_EDGE('',*,*,#146,.F.);
#183=ORIENTED_EDGE('',*,*,#147,.F.);
#184=ORIENTED_EDGE('',*,*,#148,.F.);
#185=ORIENTED_EDGE('',*,*,#149,.T.);
#186=ORIENTED_EDGE('',*,*,#150,.T.);
#187=ORIENTED_EDGE('',*,*,#151,.F.);
#188=ORIENTED_EDGE('',*,*,#152,.F.);
#189=ORIENTED_EDGE('',*,*,#153,.T.);
#190=ORIENTED_EDGE('',*,*,#154,.T.);
#191=ORIENTED_EDGE('',*,*,#155,.T.);
#192=ORIENTED_EDGE('',*,*,#145,.T.);
#193=ORIENTED_EDGE('',*,*,#156,.T.);
#194=ORIENTED_EDGE('',*,*,#157,.T.);
#195=ORIENTED_EDGE('',*,*,#158,.F.);
#196=ORIENTED_EDGE('',*,*,#146,.T.);
#197=ORIENTED_EDGE('',*,*,#155,.F.);
#198=ORIENTED_EDGE('',*,*,#159,.T.);
#199=ORIENTED_EDGE('',*,*,#160,.F.);
#200=ORIENTED_EDGE('',*,*,#159,.F.);
#201=ORIENTED_EDGE('',*,*,#157,.F.);
#202=ORIENTED_EDGE('',*,*,#161,.T.);
#203=ORIENTED_EDGE('',*,*,#162,.F.);
#204=ORIENTED_EDGE('',*,*,#161,.F.);
#205=ORIENTED_EDGE('',*,*,#156,.F.);
#206=ORIENTED_EDGE('',*,*,#144,.T.);
#207=ORIENTED_EDGE('',*,*,#163,.F.);
#208=ORIENTED_EDGE('',*,*,#164,.T.);
#209=ORIENTED_EDGE('',*,*,#165,.F.);
#210=ORIENTED_EDGE('',*,*,#150,.F.);
#211=ORIENTED_EDGE('',*,*,#166,.F.);
#212=ORIENTED_EDGE('',*,*,#152,.T.);
#213=ORIENTED_EDGE('',*,*,#167,.F.);
#214=ORIENTED_EDGE('',*,*,#168,.F.);
#215=ORIENTED_EDGE('',*,*,#169,.T.);
#216=ORIENTED_EDGE('',*,*,#167,.T.);
#217=ORIENTED_EDGE('',*,*,#151,.T.);
#218=ORIENTED_EDGE('',*,*,#165,.T.);
#219=ORIENTED_EDGE('',*,*,#163,.T.);
#220=ORIENTED_EDGE('',*,*,#149,.F.);
#221=ORIENTED_EDGE('',*,*,#170,.F.);
#222=ORIENTED_EDGE('',*,*,#171,.T.);
#223=ORIENTED_EDGE('',*,*,#166,.T.);
#224=ORIENTED_EDGE('',*,*,#172,.T.);
#225=ORIENTED_EDGE('',*,*,#173,.T.);
#226=ORIENTED_EDGE('',*,*,#153,.F.);
#227=ORIENTED_EDGE('',*,*,#174,.F.);
#228=ORIENTED_EDGE('',*,*,#175,.T.);
#229=ORIENTED_EDGE('',*,*,#172,.F.);
#230=ORIENTED_EDGE('',*,*,#168,.T.);
#231=ORIENTED_EDGE('',*,*,#169,.F.);
#232=ORIENTED_EDGE('',*,*,#164,.F.);
#233=ORIENTED_EDGE('',*,*,#171,.F.);
#234=ORIENTED_EDGE('',*,*,#176,.T.);
#235=ORIENTED_EDGE('',*,*,#158,.T.);
#236=ORIENTED_EDGE('',*,*,#160,.T.);
#237=ORIENTED_EDGE('',*,*,#162,.T.);
#238=ORIENTED_EDGE('',*,*,#143,.T.);
#239=ORIENTED_EDGE('',*,*,#177,.F.);
#240=ORIENTED_EDGE('',*,*,#154,.F.);
#241=ORIENTED_EDGE('',*,*,#173,.F.);
#242=ORIENTED_EDGE('',*,*,#175,.F.);
#243=ORIENTED_EDGE('',*,*,#178,.F.);
#244=ORIENTED_EDGE('',*,*,#176,.F.);
#245=ORIENTED_EDGE('',*,*,#170,.T.);
#246=ORIENTED_EDGE('',*,*,#148,.T.);
#247=ORIENTED_EDGE('',*,*,#177,.T.);
#248=ORIENTED_EDGE('',*,*,#174,.T.);
#249=ORIENTED_EDGE('',*,*,#178,.T.);
#250=ORIENTED_EDGE('',*,*,#147,.T.);
#251=PLANE('',#281);
#252=PLANE('',#282);
#253=PLANE('',#283);
#254=PLANE('',#284);
#255=PLANE('',#285);
#256=PLANE('',#286);
#257=PLANE('',#287);
#258=PLANE('',#288);
#259=PLANE('',#289);
#260=PLANE('',#290);
#261=PLANE('',#291);
#262=PLANE('',#292);
#263=PLANE('',#293);
#264=PLANE('',#294);
#265=ADVANCED_FACE('',(#17),#251,.F.);
#266=ADVANCED_FACE('',(#18,#15),#252,.T.);
#267=ADVANCED_FACE('',(#19),#253,.F.);
#268=ADVANCED_FACE('',(#20),#254,.F.);
#269=ADVANCED_FACE('',(#21),#255,.F.);
#270=ADVANCED_FACE('',(#22),#256,.T.);
#271=ADVANCED_FACE('',(#23),#257,.T.);
#272=ADVANCED_FACE('',(#24),#258,.T.);
#273=ADVANCED_FACE('',(#25),#259,.T.);
#274=ADVANCED_FACE('',(#26),#260,.T.);
#275=ADVANCED_FACE('',(#27,#16),#261,.T.);
#276=ADVANCED_FACE('',(#28),#262,.T.);
#277=ADVANCED_FACE('',(#29),#263,.T.);
#278=ADVANCED_FACE('',(#30),#264,.F.);
#279=CLOSED_SHELL('',(#265,#266,#267,#268,#269,#270,#271,#272,#273,#274,
#275,#276,#277,#278));
#280=AXIS2_PLACEMENT_3D('',#361,#295,#296);
#281=AXIS2_PLACEMENT_3D('',#362,#297,#298);
#282=AXIS2_PLACEMENT_3D('',#371,#303,#304);
#283=AXIS2_PLACEMENT_3D('',#393,#316,#317);
#284=AXIS2_PLACEMENT_3D('',#397,#320,#321);
#285=AXIS2_PLACEMENT_3D('',#401,#324,#325);
#286=AXIS2_PLACEMENT_3D('',#403,#327,#328);
#287=AXIS2_PLACEMENT_3D('',#409,#332,#333);
#288=AXIS2_PLACEMENT_3D('',#415,#337,#338);
#289=AXIS2_PLACEMENT_3D('',#417,#340,#341);
#290=AXIS2_PLACEMENT_3D('',#421,#344,#345);
#291=AXIS2_PLACEMENT_3D('',#425,#348,#349);
#292=AXIS2_PLACEMENT_3D('',#431,#353,#354);
#293=AXIS2_PLACEMENT_3D('',#433,#356,#357);
#294=AXIS2_PLACEMENT_3D('',#435,#359,#360);
#295=DIRECTION('axis',(0.,0.,1.));
#296=DIRECTION('refdir',(1.,0.,0.));
#297=DIRECTION('center_axis',(1.,0.,0.));
#298=DIRECTION('ref_axis',(0.,0.,-1.));
#299=DIRECTION('',(0.,0.,-1.));
#300=DIRECTION('',(0.,-1.,0.));
#301=DIRECTION('',(0.,0.,1.));
#302=DIRECTION('',(0.,1.,0.));
#303=DIRECTION('center_axis',(0.,1.,0.));
#304=DIRECTION('ref_axis',(-1.,0.,0.));
#305=DIRECTION('',(-1.,0.,0.));
#306=DIRECTION('',(0.,0.,1.));
#307=DIRECTION('',(-1.,0.,0.));
#308=DIRECTION('',(0.,0.,-1.));
#309=DIRECTION('',(1.,0.,0.));
#310=DIRECTION('',(0.,0.,-1.));
#311=DIRECTION('',(-1.,0.,0.));
#312=DIRECTION('',(0.,0.,1.));
#313=DIRECTION('',(1.,0.,0.));
#314=DIRECTION('',(-1.,0.,0.));
#315=DIRECTION('',(0.,0.,-1.));
#316=DIRECTION('center_axis',(0.,0.,-1.));
#317=DIRECTION('ref_axis',(1.,0.,0.));
#318=DIRECTION('',(-1.,0.,0.));
#319=DIRECTION('',(0.,-1.,0.));
#320=DIRECTION('center_axis',(-1.,0.,0.));
#321=DIRECTION('ref_axis',(0.,0.,-1.));
#322=DIRECTION('',(0.,0.,1.));
#323=DIRECTION('',(0.,-1.,0.));
#324=DIRECTION('center_axis',(0.,0.,1.));
#325=DIRECTION('ref_axis',(-1.,0.,0.));
#326=DIRECTION('',(1.,0.,0.));
#327=DIRECTION('center_axis',(1.,0.,0.));
#328=DIRECTION('ref_axis',(0.,-1.,0.));
#329=DIRECTION('',(0.,1.,0.));
#330=DIRECTION('',(0.,0.,-1.));
#331=DIRECTION('',(0.,-1.,0.));
#332=DIRECTION('center_axis',(-1.,0.,0.));
#333=DIRECTION('ref_axis',(0.,1.,0.));
#334=DIRECTION('',(0.,-1.,0.));
#335=DIRECTION('',(0.,1.,0.));
#336=DIRECTION('',(0.,0.,-1.));
#337=DIRECTION('center_axis',(0.,0.,-1.));
#338=DIRECTION('ref_axis',(-1.,0.,0.));
#339=DIRECTION('',(-1.,0.,0.));
#340=DIRECTION('center_axis',(0.,0.,-1.));
#341=DIRECTION('ref_axis',(-1.,0.,0.));
#342=DIRECTION('',(0.,1.,0.));
#343=DIRECTION('',(-1.,0.,0.));
#344=DIRECTION('center_axis',(0.,0.,-1.));
#345=DIRECTION('ref_axis',(-1.,0.,0.));
#346=DIRECTION('',(-1.,0.,0.));
#347=DIRECTION('',(0.,1.,0.));
#348=DIRECTION('center_axis',(0.,-1.,0.));
#349=DIRECTION('ref_axis',(1.,0.,0.));
#350=DIRECTION('',(1.,0.,0.));
#351=DIRECTION('',(0.,0.,-1.));
#352=DIRECTION('',(0.,0.,1.));
#353=DIRECTION('center_axis',(-1.,0.,0.));
#354=DIRECTION('ref_axis',(0.,-1.,0.));
#355=DIRECTION('',(0.,-1.,0.));
#356=DIRECTION('center_axis',(1.,0.,0.));
#357=DIRECTION('ref_axis',(0.,1.,0.));
#358=DIRECTION('',(0.,1.,0.));
#359=DIRECTION('center_axis',(0.,0.,-1.));
#360=DIRECTION('ref_axis',(-1.,0.,0.));
#361=CARTESIAN_POINT('',(0.,0.,0.));
#362=CARTESIAN_POINT('Origin',(-6.,49.3089877309516,73.836799966885));
#363=CARTESIAN_POINT('',(-6.,44.3089877309516,90.));
#364=CARTESIAN_POINT('',(-6.,44.3089877309516,73.836799966885));
#365=CARTESIAN_POINT('',(-6.,44.3089877309516,85.9183999834425));
#366=CARTESIAN_POINT('',(-6.,49.3089877309516,90.));
#367=CARTESIAN_POINT('',(-6.,49.3089877309516,90.));
#368=CARTESIAN_POINT('',(-6.,49.3089877309516,73.836799966885));
#369=CARTESIAN_POINT('',(-6.,49.3089877309516,85.9183999834425));
#370=CARTESIAN_POINT('',(-6.,49.3089877309516,73.836799966885));
#371=CARTESIAN_POINT('Origin',(20.5932315546898,49.3089877309516,98.));
#372=CARTESIAN_POINT('',(20.5932315546898,49.3089877309516,100.));
#373=CARTESIAN_POINT('',(-40.4067684453102,49.3089877309516,100.));
#374=CARTESIAN_POINT('',(5.34323155468984,49.3089877309516,100.));
#375=CARTESIAN_POINT('',(20.5932315546898,49.3089877309516,65.0000009685755));
#376=CARTESIAN_POINT('',(20.5932315546898,49.3089877309516,98.));
#377=CARTESIAN_POINT('',(12.9282909855333,49.3089877309516,65.0000009685755));
#378=CARTESIAN_POINT('',(20.5932315546898,49.3089877309516,65.0000009685755));
#379=CARTESIAN_POINT('',(12.9282909855333,49.3089877309516,60.0000009685755));
#380=CARTESIAN_POINT('',(12.9282909855333,49.3089877309516,65.0000009685755));
#381=CARTESIAN_POINT('',(-32.0717090144667,49.3089877309516,60.0000009685755));
#382=CARTESIAN_POINT('',(12.9282909855333,49.3089877309516,60.0000009685755));
#383=CARTESIAN_POINT('',(-32.0717090144667,49.3089877309516,65.0000009685755));
#384=CARTESIAN_POINT('',(-32.0717090144667,49.3089877309516,65.0000009685755));
#385=CARTESIAN_POINT('',(-40.4067684453102,49.3089877309516,65.0000009685755));
#386=CARTESIAN_POINT('',(20.5932315546898,49.3089877309516,65.0000009685755));
#387=CARTESIAN_POINT('',(-40.4067684453102,49.3089877309516,98.));
#388=CARTESIAN_POINT('',(-34.9987153483885,49.3089877309516,73.836799966885));
#389=CARTESIAN_POINT('',(-2.20338422265508,49.3089877309516,73.836799966885));
#390=CARTESIAN_POINT('',(-34.9987153483885,49.3089877309516,90.));
#391=CARTESIAN_POINT('',(-2.20338422265508,49.3089877309516,90.));
#392=CARTESIAN_POINT('',(-34.9987153483885,49.3089877309516,94.));
#393=CARTESIAN_POINT('Origin',(-34.9987153483885,49.3089877309516,73.836799966885));
#394=CARTESIAN_POINT('',(-34.9987153483885,44.3089877309516,73.836799966885));
#395=CARTESIAN_POINT('',(-32.7033842226551,44.3089877309516,73.836799966885));
#396=CARTESIAN_POINT('',(-34.9987153483885,49.3089877309516,73.836799966885));
#397=CARTESIAN_POINT('Origin',(-34.9987153483885,49.3089877309516,90.));
#398=CARTESIAN_POINT('',(-34.9987153483885,44.3089877309516,90.));
#399=CARTESIAN_POINT('',(-34.9987153483885,44.3089877309516,94.));
#400=CARTESIAN_POINT('',(-34.9987153483885,49.3089877309516,90.));
#401=CARTESIAN_POINT('Origin',(-25.,49.3089877309516,90.));
#402=CARTESIAN_POINT('',(-32.7033842226551,44.3089877309516,90.));
#403=CARTESIAN_POINT('Origin',(12.9282909855333,49.3089877309516,65.0000009685755));
#404=CARTESIAN_POINT('',(12.9282909855333,44.3089877309516,65.0000009685755));
#405=CARTESIAN_POINT('',(12.9282909855333,46.8089877309516,65.0000009685755));
#406=CARTESIAN_POINT('',(12.9282909855333,44.3089877309516,60.0000009685755));
#407=CARTESIAN_POINT('',(12.9282909855333,44.3089877309516,65.0000009685755));
#408=CARTESIAN_POINT('',(12.9282909855333,44.3089877309516,60.0000009685755));
#409=CARTESIAN_POINT('Origin',(-32.0717090144667,44.3089877309516,65.0000009685755));
#410=CARTESIAN_POINT('',(-32.0717090144667,44.3089877309516,65.0000009685755));
#411=CARTESIAN_POINT('',(-32.0717090144667,44.3089877309516,65.0000009685755));
#412=CARTESIAN_POINT('',(-32.0717090144667,44.3089877309516,60.0000009685755));
#413=CARTESIAN_POINT('',(-32.0717090144667,49.3089877309516,60.0000009685755));
#414=CARTESIAN_POINT('',(-32.0717090144667,44.3089877309516,65.0000009685755));
#415=CARTESIAN_POINT('Origin',(-9.57170901446672,46.8089877309516,60.0000009685755));
#416=CARTESIAN_POINT('',(-32.0717090144667,44.3089877309516,60.0000009685755));
#417=CARTESIAN_POINT('Origin',(20.5932315546898,44.3089877309516,65.0000009685755));
#418=CARTESIAN_POINT('',(20.5932315546898,44.3089877309516,65.0000009685755));
#419=CARTESIAN_POINT('',(20.5932315546898,44.3089877309516,65.0000009685755));
#420=CARTESIAN_POINT('',(20.5932315546898,44.3089877309516,65.0000009685755));
#421=CARTESIAN_POINT('Origin',(20.5932315546898,44.3089877309516,65.0000009685755));
#422=CARTESIAN_POINT('',(-40.4067684453102,44.3089877309516,65.0000009685755));
#423=CARTESIAN_POINT('',(20.5932315546898,44.3089877309516,65.0000009685755));
#424=CARTESIAN_POINT('',(-40.4067684453102,44.3089877309516,65.0000009685755));
#425=CARTESIAN_POINT('Origin',(-40.4067684453102,44.3089877309516,98.));
#426=CARTESIAN_POINT('',(-40.4067684453102,44.3089877309516,100.));
#427=CARTESIAN_POINT('',(20.5932315546898,44.3089877309516,100.));
#428=CARTESIAN_POINT('',(-25.1567684453102,44.3089877309516,100.));
#429=CARTESIAN_POINT('',(-40.4067684453102,44.3089877309516,91.));
#430=CARTESIAN_POINT('',(20.5932315546898,44.3089877309516,98.));
#431=CARTESIAN_POINT('Origin',(-40.4067684453102,49.3089877309516,98.));
#432=CARTESIAN_POINT('',(-40.4067684453102,48.0589877309516,100.));
#433=CARTESIAN_POINT('Origin',(20.5932315546898,44.3089877309516,98.));
#434=CARTESIAN_POINT('',(20.5932315546898,45.5589877309516,100.));
#435=CARTESIAN_POINT('Origin',(-9.90676844531016,46.8089877309516,100.));
#436=UNCERTAINTY_MEASURE_WITH_UNIT(LENGTH_MEASURE(0.01),#440,
'DISTANCE_ACCURACY_VALUE',
'Maximum model space distance between geometric entities at asserted c
onnectivities');
#437=UNCERTAINTY_MEASURE_WITH_UNIT(LENGTH_MEASURE(0.01),#440,
'DISTANCE_ACCURACY_VALUE',
'Maximum model space distance between geometric entities at asserted c
onnectivities');
#438=(
GEOMETRIC_REPRESENTATION_CONTEXT(3)
GLOBAL_UNCERTAINTY_ASSIGNED_CONTEXT((#436))
GLOBAL_UNIT_ASSIGNED_CONTEXT((#440,#441,#442))
REPRESENTATION_CONTEXT('','3D')
);
#439=(
GEOMETRIC_REPRESENTATION_CONTEXT(3)
GLOBAL_UNCERTAINTY_ASSIGNED_CONTEXT((#437))
GLOBAL_UNIT_ASSIGNED_CONTEXT((#440,#441,#442))
REPRESENTATION_CONTEXT('','3D')
);
#440=(
LENGTH_UNIT()
NAMED_UNIT(*)
SI_UNIT(.MILLI.,.METRE.)
);
#441=(
NAMED_UNIT(*)
PLANE_ANGLE_UNIT()
SI_UNIT($,.RADIAN.)
);
#442=(
NAMED_UNIT(*)
SI_UNIT($,.STERADIAN.)
SOLID_ANGLE_UNIT()
);
#443=SHAPE_DEFINITION_REPRESENTATION(#444,#445);
#444=PRODUCT_DEFINITION_SHAPE('',$,#447);
#445=SHAPE_REPRESENTATION('',(#280),#438);
#446=PRODUCT_DEFINITION_CONTEXT('part definition',#451,'design');
#447=PRODUCT_DEFINITION('2026-04-22-14-29-57-430','Reworked body',#448,
#446);
#448=PRODUCT_DEFINITION_FORMATION('',$,#453);
#449=PRODUCT_RELATED_PRODUCT_CATEGORY('Reworked body','Reworked body',(#453));
#450=APPLICATION_PROTOCOL_DEFINITION('international standard',
'automotive_design',2009,#451);
#451=APPLICATION_CONTEXT(
'Core Data for Automotive Mechanical Design Process');
#452=PRODUCT_CONTEXT('part definition',#451,'mechanical');
#453=PRODUCT('2026-04-22-14-29-57-430','Reworked body',$,(#452));
#454=PRESENTATION_STYLE_ASSIGNMENT((#458));
#455=PRESENTATION_STYLE_ASSIGNMENT((#459));
#456=PRESENTATION_STYLE_ASSIGNMENT((#460));
#457=PRESENTATION_STYLE_ASSIGNMENT((#461));
#458=SURFACE_STYLE_USAGE(.BOTH.,#462);
#459=SURFACE_STYLE_USAGE(.BOTH.,#463);
#460=SURFACE_STYLE_USAGE(.BOTH.,#464);
#461=SURFACE_STYLE_USAGE(.BOTH.,#465);
#462=SURFACE_SIDE_STYLE('',(#466));
#463=SURFACE_SIDE_STYLE('',(#467));
#464=SURFACE_SIDE_STYLE('',(#468));
#465=SURFACE_SIDE_STYLE('',(#469));
#466=SURFACE_STYLE_FILL_AREA(#470);
#467=SURFACE_STYLE_FILL_AREA(#471);
#468=SURFACE_STYLE_FILL_AREA(#472);
#469=SURFACE_STYLE_FILL_AREA(#473);
#470=FILL_AREA_STYLE('Steel - Satin',(#474));
#471=FILL_AREA_STYLE('Opaque(255,255,255)',(#475));
#472=FILL_AREA_STYLE('Opaque(198,193,188)',(#476));
#473=FILL_AREA_STYLE('Opaque(255,220,64)',(#477));
#474=FILL_AREA_STYLE_COLOUR('Steel - Satin',#478);
#475=FILL_AREA_STYLE_COLOUR('Opaque(255,255,255)',#479);
#476=FILL_AREA_STYLE_COLOUR('Opaque(198,193,188)',#480);
#477=FILL_AREA_STYLE_COLOUR('Opaque(255,220,64)',#481);
#478=COLOUR_RGB('Steel - Satin',0.627450980392157,0.627450980392157,0.627450980392157);
#479=COLOUR_RGB('Opaque(255,255,255)',1.,1.,1.);
#480=COLOUR_RGB('Opaque(198,193,188)',0.776470588235294,0.756862745098039,
0.737254901960784);
#481=COLOUR_RGB('Opaque(255,220,64)',1.,0.862745098039216,0.250980392156863);
ENDSEC;
END-ISO-10303-21;
