ISO-10303-21;
HEADER;
/* Generated by software containing ST-Developer
 * from STEP Tools, Inc. (www.steptools.com) 
 */

FILE_DESCRIPTION(
/* description */ (''),
/* implementation_level */ '2;1');

FILE_NAME(
/* name */ 'internal Plate (Top).step',
/* time_stamp */ '2026-05-27T22:06:01+02:00',
/* author */ (''),
/* organization */ (''),
/* preprocessor_version */ 'ST-DEVELOPER v20.1',
/* originating_system */ 'Autodesk Translation Framework v15.8.0.0',
/* authorisation */ '');

FILE_SCHEMA (('AUTOMOTIVE_DESIGN { 1 0 10303 214 3 1 1 }'));
ENDSEC;

DATA;
#10=MECHANICAL_DESIGN_GEOMETRIC_PRESENTATION_REPRESENTATION('',(#13),#1020);
#11=SHAPE_REPRESENTATION_RELATIONSHIP('SRR','None',#1026,#12);
#12=ADVANCED_BREP_SHAPE_REPRESENTATION('',(#14),#1019);
#13=STYLED_ITEM('',(#1035),#14);
#14=MANIFOLD_SOLID_BREP('Body9',#620);
#15=FACE_BOUND('',#105,.T.);
#16=FACE_BOUND('',#106,.T.);
#17=FACE_BOUND('',#107,.T.);
#18=FACE_BOUND('',#108,.T.);
#19=FACE_BOUND('',#109,.T.);
#20=FACE_BOUND('',#110,.T.);
#21=FACE_BOUND('',#111,.T.);
#22=FACE_BOUND('',#112,.T.);
#23=FACE_BOUND('',#113,.T.);
#24=FACE_BOUND('',#114,.T.);
#25=FACE_BOUND('',#115,.T.);
#26=FACE_BOUND('',#116,.T.);
#27=FACE_BOUND('',#117,.T.);
#28=FACE_BOUND('',#118,.T.);
#29=FACE_BOUND('',#119,.T.);
#30=FACE_BOUND('',#123,.T.);
#31=FACE_BOUND('',#124,.T.);
#32=FACE_BOUND('',#125,.T.);
#33=FACE_BOUND('',#126,.T.);
#34=FACE_BOUND('',#127,.T.);
#35=FACE_BOUND('',#128,.T.);
#36=FACE_BOUND('',#129,.T.);
#37=FACE_BOUND('',#130,.T.);
#38=FACE_BOUND('',#131,.T.);
#39=FACE_BOUND('',#132,.T.);
#40=FACE_BOUND('',#133,.T.);
#41=FACE_BOUND('',#134,.T.);
#42=FACE_BOUND('',#135,.T.);
#43=FACE_BOUND('',#136,.T.);
#44=FACE_BOUND('',#137,.T.);
#45=PLANE('',#667);
#46=PLANE('',#668);
#47=PLANE('',#669);
#48=PLANE('',#670);
#49=PLANE('',#671);
#50=PLANE('',#672);
#51=PLANE('',#673);
#52=PLANE('',#674);
#53=PLANE('',#675);
#54=PLANE('',#676);
#55=PLANE('',#677);
#56=PLANE('',#678);
#57=PLANE('',#679);
#58=PLANE('',#680);
#59=FACE_OUTER_BOUND('',#88,.T.);
#60=FACE_OUTER_BOUND('',#89,.T.);
#61=FACE_OUTER_BOUND('',#90,.T.);
#62=FACE_OUTER_BOUND('',#91,.T.);
#63=FACE_OUTER_BOUND('',#92,.T.);
#64=FACE_OUTER_BOUND('',#93,.T.);
#65=FACE_OUTER_BOUND('',#94,.T.);
#66=FACE_OUTER_BOUND('',#95,.T.);
#67=FACE_OUTER_BOUND('',#96,.T.);
#68=FACE_OUTER_BOUND('',#97,.T.);
#69=FACE_OUTER_BOUND('',#98,.T.);
#70=FACE_OUTER_BOUND('',#99,.T.);
#71=FACE_OUTER_BOUND('',#100,.T.);
#72=FACE_OUTER_BOUND('',#101,.T.);
#73=FACE_OUTER_BOUND('',#102,.T.);
#74=FACE_OUTER_BOUND('',#103,.T.);
#75=FACE_OUTER_BOUND('',#104,.T.);
#76=FACE_OUTER_BOUND('',#120,.T.);
#77=FACE_OUTER_BOUND('',#121,.T.);
#78=FACE_OUTER_BOUND('',#122,.T.);
#79=FACE_OUTER_BOUND('',#138,.T.);
#80=FACE_OUTER_BOUND('',#139,.T.);
#81=FACE_OUTER_BOUND('',#140,.T.);
#82=FACE_OUTER_BOUND('',#141,.T.);
#83=FACE_OUTER_BOUND('',#142,.T.);
#84=FACE_OUTER_BOUND('',#143,.T.);
#85=FACE_OUTER_BOUND('',#144,.T.);
#86=FACE_OUTER_BOUND('',#145,.T.);
#87=FACE_OUTER_BOUND('',#146,.T.);
#88=EDGE_LOOP('',(#414,#415,#416,#417));
#89=EDGE_LOOP('',(#418,#419,#420,#421));
#90=EDGE_LOOP('',(#422,#423,#424,#425));
#91=EDGE_LOOP('',(#426,#427,#428,#429));
#92=EDGE_LOOP('',(#430,#431,#432,#433));
#93=EDGE_LOOP('',(#434,#435,#436,#437));
#94=EDGE_LOOP('',(#438,#439,#440,#441));
#95=EDGE_LOOP('',(#442,#443,#444,#445));
#96=EDGE_LOOP('',(#446,#447,#448,#449));
#97=EDGE_LOOP('',(#450,#451,#452,#453));
#98=EDGE_LOOP('',(#454,#455,#456,#457));
#99=EDGE_LOOP('',(#458,#459,#460,#461));
#100=EDGE_LOOP('',(#462,#463,#464,#465));
#101=EDGE_LOOP('',(#466,#467,#468,#469));
#102=EDGE_LOOP('',(#470,#471,#472,#473));
#103=EDGE_LOOP('',(#474,#475,#476,#477));
#104=EDGE_LOOP('',(#478,#479,#480,#481,#482,#483,#484,#485,#486,#487,#488,
#489));
#105=EDGE_LOOP('',(#490));
#106=EDGE_LOOP('',(#491));
#107=EDGE_LOOP('',(#492));
#108=EDGE_LOOP('',(#493));
#109=EDGE_LOOP('',(#494));
#110=EDGE_LOOP('',(#495));
#111=EDGE_LOOP('',(#496));
#112=EDGE_LOOP('',(#497));
#113=EDGE_LOOP('',(#498));
#114=EDGE_LOOP('',(#499));
#115=EDGE_LOOP('',(#500));
#116=EDGE_LOOP('',(#501));
#117=EDGE_LOOP('',(#502));
#118=EDGE_LOOP('',(#503));
#119=EDGE_LOOP('',(#504));
#120=EDGE_LOOP('',(#505,#506,#507,#508));
#121=EDGE_LOOP('',(#509,#510,#511,#512));
#122=EDGE_LOOP('',(#513,#514,#515,#516,#517,#518,#519,#520,#521,#522,#523,
#524));
#123=EDGE_LOOP('',(#525));
#124=EDGE_LOOP('',(#526));
#125=EDGE_LOOP('',(#527));
#126=EDGE_LOOP('',(#528));
#127=EDGE_LOOP('',(#529));
#128=EDGE_LOOP('',(#530));
#129=EDGE_LOOP('',(#531));
#130=EDGE_LOOP('',(#532));
#131=EDGE_LOOP('',(#533));
#132=EDGE_LOOP('',(#534));
#133=EDGE_LOOP('',(#535));
#134=EDGE_LOOP('',(#536));
#135=EDGE_LOOP('',(#537));
#136=EDGE_LOOP('',(#538));
#137=EDGE_LOOP('',(#539));
#138=EDGE_LOOP('',(#540,#541,#542,#543));
#139=EDGE_LOOP('',(#544,#545,#546,#547));
#140=EDGE_LOOP('',(#548,#549,#550,#551));
#141=EDGE_LOOP('',(#552,#553,#554,#555));
#142=EDGE_LOOP('',(#556,#557,#558,#559));
#143=EDGE_LOOP('',(#560,#561,#562,#563));
#144=EDGE_LOOP('',(#564,#565,#566,#567));
#145=EDGE_LOOP('',(#568,#569,#570,#571));
#146=EDGE_LOOP('',(#572,#573,#574,#575));
#147=LINE('',#857,#198);
#148=LINE('',#863,#199);
#149=LINE('',#869,#200);
#150=LINE('',#875,#201);
#151=LINE('',#881,#202);
#152=LINE('',#887,#203);
#153=LINE('',#893,#204);
#154=LINE('',#899,#205);
#155=LINE('',#905,#206);
#156=LINE('',#911,#207);
#157=LINE('',#917,#208);
#158=LINE('',#923,#209);
#159=LINE('',#929,#210);
#160=LINE('',#935,#211);
#161=LINE('',#941,#212);
#162=LINE('',#946,#213);
#163=LINE('',#948,#214);
#164=LINE('',#950,#215);
#165=LINE('',#951,#216);
#166=LINE('',#954,#217);
#167=LINE('',#956,#218);
#168=LINE('',#958,#219);
#169=LINE('',#960,#220);
#170=LINE('',#962,#221);
#171=LINE('',#964,#222);
#172=LINE('',#966,#223);
#173=LINE('',#968,#224);
#174=LINE('',#970,#225);
#175=LINE('',#972,#226);
#176=LINE('',#973,#227);
#177=LINE('',#976,#228);
#178=LINE('',#978,#229);
#179=LINE('',#979,#230);
#180=LINE('',#982,#231);
#181=LINE('',#984,#232);
#182=LINE('',#985,#233);
#183=LINE('',#987,#234);
#184=LINE('',#988,#235);
#185=LINE('',#990,#236);
#186=LINE('',#992,#237);
#187=LINE('',#994,#238);
#188=LINE('',#996,#239);
#189=LINE('',#998,#240);
#190=LINE('',#1000,#241);
#191=LINE('',#1001,#242);
#192=LINE('',#1004,#243);
#193=LINE('',#1005,#244);
#194=LINE('',#1007,#245);
#195=LINE('',#1009,#246);
#196=LINE('',#1011,#247);
#197=LINE('',#1013,#248);
#198=VECTOR('',#687,1.5);
#199=VECTOR('',#694,1.49999999999999);
#200=VECTOR('',#701,1.5);
#201=VECTOR('',#708,1.51406193318093);
#202=VECTOR('',#715,1.51406155338591);
#203=VECTOR('',#722,1.51406187387041);
#204=VECTOR('',#729,1.51406225366733);
#205=VECTOR('',#736,1.25);
#206=VECTOR('',#743,1.25);
#207=VECTOR('',#750,1.25);
#208=VECTOR('',#757,1.25);
#209=VECTOR('',#764,2.25000000000001);
#210=VECTOR('',#771,2.25000000000001);
#211=VECTOR('',#778,1.75);
#212=VECTOR('',#785,2.25000000000001);
#213=VECTOR('',#790,10.);
#214=VECTOR('',#791,10.);
#215=VECTOR('',#792,10.);
#216=VECTOR('',#793,10.);
#217=VECTOR('',#796,10.);
#218=VECTOR('',#797,10.);
#219=VECTOR('',#798,10.);
#220=VECTOR('',#799,10.);
#221=VECTOR('',#800,10.);
#222=VECTOR('',#801,10.);
#223=VECTOR('',#802,10.);
#224=VECTOR('',#803,10.);
#225=VECTOR('',#804,10.);
#226=VECTOR('',#805,10.);
#227=VECTOR('',#806,10.);
#228=VECTOR('',#809,10.);
#229=VECTOR('',#810,10.);
#230=VECTOR('',#811,10.);
#231=VECTOR('',#814,10.);
#232=VECTOR('',#815,10.);
#233=VECTOR('',#816,10.);
#234=VECTOR('',#819,10.);
#235=VECTOR('',#820,10.);
#236=VECTOR('',#821,10.);
#237=VECTOR('',#822,10.);
#238=VECTOR('',#823,10.);
#239=VECTOR('',#824,10.);
#240=VECTOR('',#825,10.);
#241=VECTOR('',#826,10.);
#242=VECTOR('',#827,10.);
#243=VECTOR('',#832,10.);
#244=VECTOR('',#833,10.);
#245=VECTOR('',#836,10.);
#246=VECTOR('',#839,10.);
#247=VECTOR('',#842,10.);
#248=VECTOR('',#845,10.);
#249=CIRCLE('',#623,1.5);
#250=CIRCLE('',#624,1.5);
#251=CIRCLE('',#626,1.49999999999999);
#252=CIRCLE('',#627,1.49999999999999);
#253=CIRCLE('',#629,1.5);
#254=CIRCLE('',#630,1.5);
#255=CIRCLE('',#632,1.51406193318093);
#256=CIRCLE('',#633,1.51406193318093);
#257=CIRCLE('',#635,1.51406155338591);
#258=CIRCLE('',#636,1.51406155338591);
#259=CIRCLE('',#638,1.51406187387041);
#260=CIRCLE('',#639,1.51406187387041);
#261=CIRCLE('',#641,1.51406225366733);
#262=CIRCLE('',#642,1.51406225366733);
#263=CIRCLE('',#644,1.25);
#264=CIRCLE('',#645,1.25);
#265=CIRCLE('',#647,1.25);
#266=CIRCLE('',#648,1.25);
#267=CIRCLE('',#650,1.25);
#268=CIRCLE('',#651,1.25);
#269=CIRCLE('',#653,1.25);
#270=CIRCLE('',#654,1.25);
#271=CIRCLE('',#656,2.25000000000001);
#272=CIRCLE('',#657,2.25000000000001);
#273=CIRCLE('',#659,2.25000000000001);
#274=CIRCLE('',#660,2.25000000000001);
#275=CIRCLE('',#662,1.75);
#276=CIRCLE('',#663,1.75);
#277=CIRCLE('',#665,2.25000000000001);
#278=CIRCLE('',#666,2.25000000000001);
#279=VERTEX_POINT('',#854);
#280=VERTEX_POINT('',#856);
#281=VERTEX_POINT('',#860);
#282=VERTEX_POINT('',#862);
#283=VERTEX_POINT('',#866);
#284=VERTEX_POINT('',#868);
#285=VERTEX_POINT('',#872);
#286=VERTEX_POINT('',#874);
#287=VERTEX_POINT('',#878);
#288=VERTEX_POINT('',#880);
#289=VERTEX_POINT('',#884);
#290=VERTEX_POINT('',#886);
#291=VERTEX_POINT('',#890);
#292=VERTEX_POINT('',#892);
#293=VERTEX_POINT('',#896);
#294=VERTEX_POINT('',#898);
#295=VERTEX_POINT('',#902);
#296=VERTEX_POINT('',#904);
#297=VERTEX_POINT('',#908);
#298=VERTEX_POINT('',#910);
#299=VERTEX_POINT('',#914);
#300=VERTEX_POINT('',#916);
#301=VERTEX_POINT('',#920);
#302=VERTEX_POINT('',#922);
#303=VERTEX_POINT('',#926);
#304=VERTEX_POINT('',#928);
#305=VERTEX_POINT('',#932);
#306=VERTEX_POINT('',#934);
#307=VERTEX_POINT('',#938);
#308=VERTEX_POINT('',#940);
#309=VERTEX_POINT('',#944);
#310=VERTEX_POINT('',#945);
#311=VERTEX_POINT('',#947);
#312=VERTEX_POINT('',#949);
#313=VERTEX_POINT('',#953);
#314=VERTEX_POINT('',#955);
#315=VERTEX_POINT('',#957);
#316=VERTEX_POINT('',#959);
#317=VERTEX_POINT('',#961);
#318=VERTEX_POINT('',#963);
#319=VERTEX_POINT('',#965);
#320=VERTEX_POINT('',#967);
#321=VERTEX_POINT('',#969);
#322=VERTEX_POINT('',#971);
#323=VERTEX_POINT('',#975);
#324=VERTEX_POINT('',#977);
#325=VERTEX_POINT('',#981);
#326=VERTEX_POINT('',#983);
#327=VERTEX_POINT('',#989);
#328=VERTEX_POINT('',#991);
#329=VERTEX_POINT('',#993);
#330=VERTEX_POINT('',#995);
#331=VERTEX_POINT('',#997);
#332=VERTEX_POINT('',#999);
#333=EDGE_CURVE('',#279,#279,#249,.T.);
#334=EDGE_CURVE('',#279,#280,#147,.T.);
#335=EDGE_CURVE('',#280,#280,#250,.T.);
#336=EDGE_CURVE('',#281,#281,#251,.T.);
#337=EDGE_CURVE('',#281,#282,#148,.T.);
#338=EDGE_CURVE('',#282,#282,#252,.T.);
#339=EDGE_CURVE('',#283,#283,#253,.T.);
#340=EDGE_CURVE('',#283,#284,#149,.T.);
#341=EDGE_CURVE('',#284,#284,#254,.T.);
#342=EDGE_CURVE('',#285,#285,#255,.T.);
#343=EDGE_CURVE('',#285,#286,#150,.T.);
#344=EDGE_CURVE('',#286,#286,#256,.T.);
#345=EDGE_CURVE('',#287,#287,#257,.T.);
#346=EDGE_CURVE('',#287,#288,#151,.T.);
#347=EDGE_CURVE('',#288,#288,#258,.T.);
#348=EDGE_CURVE('',#289,#289,#259,.T.);
#349=EDGE_CURVE('',#289,#290,#152,.T.);
#350=EDGE_CURVE('',#290,#290,#260,.T.);
#351=EDGE_CURVE('',#291,#291,#261,.T.);
#352=EDGE_CURVE('',#291,#292,#153,.T.);
#353=EDGE_CURVE('',#292,#292,#262,.T.);
#354=EDGE_CURVE('',#293,#293,#263,.T.);
#355=EDGE_CURVE('',#293,#294,#154,.T.);
#356=EDGE_CURVE('',#294,#294,#264,.T.);
#357=EDGE_CURVE('',#295,#295,#265,.T.);
#358=EDGE_CURVE('',#295,#296,#155,.T.);
#359=EDGE_CURVE('',#296,#296,#266,.T.);
#360=EDGE_CURVE('',#297,#297,#267,.T.);
#361=EDGE_CURVE('',#297,#298,#156,.T.);
#362=EDGE_CURVE('',#298,#298,#268,.T.);
#363=EDGE_CURVE('',#299,#299,#269,.T.);
#364=EDGE_CURVE('',#299,#300,#157,.T.);
#365=EDGE_CURVE('',#300,#300,#270,.T.);
#366=EDGE_CURVE('',#301,#301,#271,.T.);
#367=EDGE_CURVE('',#301,#302,#158,.T.);
#368=EDGE_CURVE('',#302,#302,#272,.T.);
#369=EDGE_CURVE('',#303,#303,#273,.T.);
#370=EDGE_CURVE('',#303,#304,#159,.T.);
#371=EDGE_CURVE('',#304,#304,#274,.T.);
#372=EDGE_CURVE('',#305,#305,#275,.T.);
#373=EDGE_CURVE('',#305,#306,#160,.T.);
#374=EDGE_CURVE('',#306,#306,#276,.T.);
#375=EDGE_CURVE('',#307,#307,#277,.T.);
#376=EDGE_CURVE('',#307,#308,#161,.T.);
#377=EDGE_CURVE('',#308,#308,#278,.T.);
#378=EDGE_CURVE('',#309,#310,#162,.T.);
#379=EDGE_CURVE('',#309,#311,#163,.T.);
#380=EDGE_CURVE('',#311,#312,#164,.T.);
#381=EDGE_CURVE('',#312,#310,#165,.T.);
#382=EDGE_CURVE('',#313,#311,#166,.T.);
#383=EDGE_CURVE('',#314,#309,#167,.T.);
#384=EDGE_CURVE('',#315,#314,#168,.T.);
#385=EDGE_CURVE('',#315,#316,#169,.T.);
#386=EDGE_CURVE('',#317,#316,#170,.T.);
#387=EDGE_CURVE('',#318,#317,#171,.T.);
#388=EDGE_CURVE('',#319,#318,#172,.T.);
#389=EDGE_CURVE('',#319,#320,#173,.T.);
#390=EDGE_CURVE('',#321,#320,#174,.T.);
#391=EDGE_CURVE('',#322,#321,#175,.T.);
#392=EDGE_CURVE('',#313,#322,#176,.T.);
#393=EDGE_CURVE('',#323,#322,#177,.T.);
#394=EDGE_CURVE('',#323,#324,#178,.T.);
#395=EDGE_CURVE('',#324,#313,#179,.T.);
#396=EDGE_CURVE('',#321,#325,#180,.T.);
#397=EDGE_CURVE('',#320,#326,#181,.T.);
#398=EDGE_CURVE('',#326,#325,#182,.T.);
#399=EDGE_CURVE('',#312,#324,#183,.T.);
#400=EDGE_CURVE('',#325,#323,#184,.T.);
#401=EDGE_CURVE('',#326,#327,#185,.T.);
#402=EDGE_CURVE('',#328,#327,#186,.T.);
#403=EDGE_CURVE('',#329,#328,#187,.T.);
#404=EDGE_CURVE('',#330,#329,#188,.T.);
#405=EDGE_CURVE('',#330,#331,#189,.T.);
#406=EDGE_CURVE('',#332,#331,#190,.T.);
#407=EDGE_CURVE('',#310,#332,#191,.T.);
#408=EDGE_CURVE('',#328,#318,#192,.T.);
#409=EDGE_CURVE('',#327,#319,#193,.T.);
#410=EDGE_CURVE('',#314,#332,#194,.T.);
#411=EDGE_CURVE('',#331,#315,#195,.T.);
#412=EDGE_CURVE('',#329,#317,#196,.T.);
#413=EDGE_CURVE('',#316,#330,#197,.T.);
#414=ORIENTED_EDGE('',*,*,#333,.F.);
#415=ORIENTED_EDGE('',*,*,#334,.T.);
#416=ORIENTED_EDGE('',*,*,#335,.F.);
#417=ORIENTED_EDGE('',*,*,#334,.F.);
#418=ORIENTED_EDGE('',*,*,#336,.F.);
#419=ORIENTED_EDGE('',*,*,#337,.T.);
#420=ORIENTED_EDGE('',*,*,#338,.F.);
#421=ORIENTED_EDGE('',*,*,#337,.F.);
#422=ORIENTED_EDGE('',*,*,#339,.F.);
#423=ORIENTED_EDGE('',*,*,#340,.T.);
#424=ORIENTED_EDGE('',*,*,#341,.F.);
#425=ORIENTED_EDGE('',*,*,#340,.F.);
#426=ORIENTED_EDGE('',*,*,#342,.F.);
#427=ORIENTED_EDGE('',*,*,#343,.T.);
#428=ORIENTED_EDGE('',*,*,#344,.F.);
#429=ORIENTED_EDGE('',*,*,#343,.F.);
#430=ORIENTED_EDGE('',*,*,#345,.F.);
#431=ORIENTED_EDGE('',*,*,#346,.T.);
#432=ORIENTED_EDGE('',*,*,#347,.F.);
#433=ORIENTED_EDGE('',*,*,#346,.F.);
#434=ORIENTED_EDGE('',*,*,#348,.F.);
#435=ORIENTED_EDGE('',*,*,#349,.T.);
#436=ORIENTED_EDGE('',*,*,#350,.F.);
#437=ORIENTED_EDGE('',*,*,#349,.F.);
#438=ORIENTED_EDGE('',*,*,#351,.F.);
#439=ORIENTED_EDGE('',*,*,#352,.T.);
#440=ORIENTED_EDGE('',*,*,#353,.F.);
#441=ORIENTED_EDGE('',*,*,#352,.F.);
#442=ORIENTED_EDGE('',*,*,#354,.F.);
#443=ORIENTED_EDGE('',*,*,#355,.T.);
#444=ORIENTED_EDGE('',*,*,#356,.F.);
#445=ORIENTED_EDGE('',*,*,#355,.F.);
#446=ORIENTED_EDGE('',*,*,#357,.F.);
#447=ORIENTED_EDGE('',*,*,#358,.T.);
#448=ORIENTED_EDGE('',*,*,#359,.F.);
#449=ORIENTED_EDGE('',*,*,#358,.F.);
#450=ORIENTED_EDGE('',*,*,#360,.F.);
#451=ORIENTED_EDGE('',*,*,#361,.T.);
#452=ORIENTED_EDGE('',*,*,#362,.F.);
#453=ORIENTED_EDGE('',*,*,#361,.F.);
#454=ORIENTED_EDGE('',*,*,#363,.F.);
#455=ORIENTED_EDGE('',*,*,#364,.T.);
#456=ORIENTED_EDGE('',*,*,#365,.F.);
#457=ORIENTED_EDGE('',*,*,#364,.F.);
#458=ORIENTED_EDGE('',*,*,#366,.F.);
#459=ORIENTED_EDGE('',*,*,#367,.T.);
#460=ORIENTED_EDGE('',*,*,#368,.F.);
#461=ORIENTED_EDGE('',*,*,#367,.F.);
#462=ORIENTED_EDGE('',*,*,#369,.F.);
#463=ORIENTED_EDGE('',*,*,#370,.T.);
#464=ORIENTED_EDGE('',*,*,#371,.F.);
#465=ORIENTED_EDGE('',*,*,#370,.F.);
#466=ORIENTED_EDGE('',*,*,#372,.F.);
#467=ORIENTED_EDGE('',*,*,#373,.T.);
#468=ORIENTED_EDGE('',*,*,#374,.F.);
#469=ORIENTED_EDGE('',*,*,#373,.F.);
#470=ORIENTED_EDGE('',*,*,#375,.F.);
#471=ORIENTED_EDGE('',*,*,#376,.T.);
#472=ORIENTED_EDGE('',*,*,#377,.F.);
#473=ORIENTED_EDGE('',*,*,#376,.F.);
#474=ORIENTED_EDGE('',*,*,#378,.F.);
#475=ORIENTED_EDGE('',*,*,#379,.T.);
#476=ORIENTED_EDGE('',*,*,#380,.T.);
#477=ORIENTED_EDGE('',*,*,#381,.T.);
#478=ORIENTED_EDGE('',*,*,#382,.T.);
#479=ORIENTED_EDGE('',*,*,#379,.F.);
#480=ORIENTED_EDGE('',*,*,#383,.F.);
#481=ORIENTED_EDGE('',*,*,#384,.F.);
#482=ORIENTED_EDGE('',*,*,#385,.T.);
#483=ORIENTED_EDGE('',*,*,#386,.F.);
#484=ORIENTED_EDGE('',*,*,#387,.F.);
#485=ORIENTED_EDGE('',*,*,#388,.F.);
#486=ORIENTED_EDGE('',*,*,#389,.T.);
#487=ORIENTED_EDGE('',*,*,#390,.F.);
#488=ORIENTED_EDGE('',*,*,#391,.F.);
#489=ORIENTED_EDGE('',*,*,#392,.F.);
#490=ORIENTED_EDGE('',*,*,#342,.T.);
#491=ORIENTED_EDGE('',*,*,#348,.T.);
#492=ORIENTED_EDGE('',*,*,#351,.T.);
#493=ORIENTED_EDGE('',*,*,#366,.T.);
#494=ORIENTED_EDGE('',*,*,#369,.T.);
#495=ORIENTED_EDGE('',*,*,#372,.T.);
#496=ORIENTED_EDGE('',*,*,#375,.T.);
#497=ORIENTED_EDGE('',*,*,#363,.T.);
#498=ORIENTED_EDGE('',*,*,#360,.T.);
#499=ORIENTED_EDGE('',*,*,#357,.T.);
#500=ORIENTED_EDGE('',*,*,#354,.T.);
#501=ORIENTED_EDGE('',*,*,#345,.T.);
#502=ORIENTED_EDGE('',*,*,#341,.T.);
#503=ORIENTED_EDGE('',*,*,#338,.T.);
#504=ORIENTED_EDGE('',*,*,#335,.T.);
#505=ORIENTED_EDGE('',*,*,#393,.F.);
#506=ORIENTED_EDGE('',*,*,#394,.T.);
#507=ORIENTED_EDGE('',*,*,#395,.T.);
#508=ORIENTED_EDGE('',*,*,#392,.T.);
#509=ORIENTED_EDGE('',*,*,#396,.F.);
#510=ORIENTED_EDGE('',*,*,#390,.T.);
#511=ORIENTED_EDGE('',*,*,#397,.T.);
#512=ORIENTED_EDGE('',*,*,#398,.T.);
#513=ORIENTED_EDGE('',*,*,#399,.T.);
#514=ORIENTED_EDGE('',*,*,#394,.F.);
#515=ORIENTED_EDGE('',*,*,#400,.F.);
#516=ORIENTED_EDGE('',*,*,#398,.F.);
#517=ORIENTED_EDGE('',*,*,#401,.T.);
#518=ORIENTED_EDGE('',*,*,#402,.F.);
#519=ORIENTED_EDGE('',*,*,#403,.F.);
#520=ORIENTED_EDGE('',*,*,#404,.F.);
#521=ORIENTED_EDGE('',*,*,#405,.T.);
#522=ORIENTED_EDGE('',*,*,#406,.F.);
#523=ORIENTED_EDGE('',*,*,#407,.F.);
#524=ORIENTED_EDGE('',*,*,#381,.F.);
#525=ORIENTED_EDGE('',*,*,#344,.T.);
#526=ORIENTED_EDGE('',*,*,#350,.T.);
#527=ORIENTED_EDGE('',*,*,#353,.T.);
#528=ORIENTED_EDGE('',*,*,#368,.T.);
#529=ORIENTED_EDGE('',*,*,#371,.T.);
#530=ORIENTED_EDGE('',*,*,#374,.T.);
#531=ORIENTED_EDGE('',*,*,#377,.T.);
#532=ORIENTED_EDGE('',*,*,#365,.T.);
#533=ORIENTED_EDGE('',*,*,#362,.T.);
#534=ORIENTED_EDGE('',*,*,#359,.T.);
#535=ORIENTED_EDGE('',*,*,#356,.T.);
#536=ORIENTED_EDGE('',*,*,#347,.T.);
#537=ORIENTED_EDGE('',*,*,#339,.T.);
#538=ORIENTED_EDGE('',*,*,#336,.T.);
#539=ORIENTED_EDGE('',*,*,#333,.T.);
#540=ORIENTED_EDGE('',*,*,#393,.T.);
#541=ORIENTED_EDGE('',*,*,#391,.T.);
#542=ORIENTED_EDGE('',*,*,#396,.T.);
#543=ORIENTED_EDGE('',*,*,#400,.T.);
#544=ORIENTED_EDGE('',*,*,#408,.F.);
#545=ORIENTED_EDGE('',*,*,#402,.T.);
#546=ORIENTED_EDGE('',*,*,#409,.T.);
#547=ORIENTED_EDGE('',*,*,#388,.T.);
#548=ORIENTED_EDGE('',*,*,#378,.T.);
#549=ORIENTED_EDGE('',*,*,#407,.T.);
#550=ORIENTED_EDGE('',*,*,#410,.F.);
#551=ORIENTED_EDGE('',*,*,#383,.T.);
#552=ORIENTED_EDGE('',*,*,#410,.T.);
#553=ORIENTED_EDGE('',*,*,#406,.T.);
#554=ORIENTED_EDGE('',*,*,#411,.T.);
#555=ORIENTED_EDGE('',*,*,#384,.T.);
#556=ORIENTED_EDGE('',*,*,#408,.T.);
#557=ORIENTED_EDGE('',*,*,#387,.T.);
#558=ORIENTED_EDGE('',*,*,#412,.F.);
#559=ORIENTED_EDGE('',*,*,#403,.T.);
#560=ORIENTED_EDGE('',*,*,#412,.T.);
#561=ORIENTED_EDGE('',*,*,#386,.T.);
#562=ORIENTED_EDGE('',*,*,#413,.T.);
#563=ORIENTED_EDGE('',*,*,#404,.T.);
#564=ORIENTED_EDGE('',*,*,#399,.F.);
#565=ORIENTED_EDGE('',*,*,#380,.F.);
#566=ORIENTED_EDGE('',*,*,#382,.F.);
#567=ORIENTED_EDGE('',*,*,#395,.F.);
#568=ORIENTED_EDGE('',*,*,#401,.F.);
#569=ORIENTED_EDGE('',*,*,#397,.F.);
#570=ORIENTED_EDGE('',*,*,#389,.F.);
#571=ORIENTED_EDGE('',*,*,#409,.F.);
#572=ORIENTED_EDGE('',*,*,#405,.F.);
#573=ORIENTED_EDGE('',*,*,#413,.F.);
#574=ORIENTED_EDGE('',*,*,#385,.F.);
#575=ORIENTED_EDGE('',*,*,#411,.F.);
#576=CYLINDRICAL_SURFACE('',#622,1.5);
#577=CYLINDRICAL_SURFACE('',#625,1.49999999999999);
#578=CYLINDRICAL_SURFACE('',#628,1.5);
#579=CYLINDRICAL_SURFACE('',#631,1.51406193318093);
#580=CYLINDRICAL_SURFACE('',#634,1.51406155338591);
#581=CYLINDRICAL_SURFACE('',#637,1.51406187387041);
#582=CYLINDRICAL_SURFACE('',#640,1.51406225366733);
#583=CYLINDRICAL_SURFACE('',#643,1.25);
#584=CYLINDRICAL_SURFACE('',#646,1.25);
#585=CYLINDRICAL_SURFACE('',#649,1.25);
#586=CYLINDRICAL_SURFACE('',#652,1.25);
#587=CYLINDRICAL_SURFACE('',#655,2.25000000000001);
#588=CYLINDRICAL_SURFACE('',#658,2.25000000000001);
#589=CYLINDRICAL_SURFACE('',#661,1.75);
#590=CYLINDRICAL_SURFACE('',#664,2.25000000000001);
#591=ADVANCED_FACE('',(#59),#576,.F.);
#592=ADVANCED_FACE('',(#60),#577,.F.);
#593=ADVANCED_FACE('',(#61),#578,.F.);
#594=ADVANCED_FACE('',(#62),#579,.F.);
#595=ADVANCED_FACE('',(#63),#580,.F.);
#596=ADVANCED_FACE('',(#64),#581,.F.);
#597=ADVANCED_FACE('',(#65),#582,.F.);
#598=ADVANCED_FACE('',(#66),#583,.F.);
#599=ADVANCED_FACE('',(#67),#584,.F.);
#600=ADVANCED_FACE('',(#68),#585,.F.);
#601=ADVANCED_FACE('',(#69),#586,.F.);
#602=ADVANCED_FACE('',(#70),#587,.F.);
#603=ADVANCED_FACE('',(#71),#588,.F.);
#604=ADVANCED_FACE('',(#72),#589,.F.);
#605=ADVANCED_FACE('',(#73),#590,.F.);
#606=ADVANCED_FACE('',(#74),#45,.T.);
#607=ADVANCED_FACE('',(#75,#15,#16,#17,#18,#19,#20,#21,#22,#23,#24,#25,
#26,#27,#28,#29),#46,.T.);
#608=ADVANCED_FACE('',(#76),#47,.T.);
#609=ADVANCED_FACE('',(#77),#48,.T.);
#610=ADVANCED_FACE('',(#78,#30,#31,#32,#33,#34,#35,#36,#37,#38,#39,#40,
#41,#42,#43,#44),#49,.T.);
#611=ADVANCED_FACE('',(#79),#50,.T.);
#612=ADVANCED_FACE('',(#80),#51,.T.);
#613=ADVANCED_FACE('',(#81),#52,.T.);
#614=ADVANCED_FACE('',(#82),#53,.T.);
#615=ADVANCED_FACE('',(#83),#54,.T.);
#616=ADVANCED_FACE('',(#84),#55,.T.);
#617=ADVANCED_FACE('',(#85),#56,.T.);
#618=ADVANCED_FACE('',(#86),#57,.T.);
#619=ADVANCED_FACE('',(#87),#58,.T.);
#620=CLOSED_SHELL('',(#591,#592,#593,#594,#595,#596,#597,#598,#599,#600,
#601,#602,#603,#604,#605,#606,#607,#608,#609,#610,#611,#612,#613,#614,#615,
#616,#617,#618,#619));
#621=AXIS2_PLACEMENT_3D('',#852,#681,#682);
#622=AXIS2_PLACEMENT_3D('',#853,#683,#684);
#623=AXIS2_PLACEMENT_3D('',#855,#685,#686);
#624=AXIS2_PLACEMENT_3D('',#858,#688,#689);
#625=AXIS2_PLACEMENT_3D('',#859,#690,#691);
#626=AXIS2_PLACEMENT_3D('',#861,#692,#693);
#627=AXIS2_PLACEMENT_3D('',#864,#695,#696);
#628=AXIS2_PLACEMENT_3D('',#865,#697,#698);
#629=AXIS2_PLACEMENT_3D('',#867,#699,#700);
#630=AXIS2_PLACEMENT_3D('',#870,#702,#703);
#631=AXIS2_PLACEMENT_3D('',#871,#704,#705);
#632=AXIS2_PLACEMENT_3D('',#873,#706,#707);
#633=AXIS2_PLACEMENT_3D('',#876,#709,#710);
#634=AXIS2_PLACEMENT_3D('',#877,#711,#712);
#635=AXIS2_PLACEMENT_3D('',#879,#713,#714);
#636=AXIS2_PLACEMENT_3D('',#882,#716,#717);
#637=AXIS2_PLACEMENT_3D('',#883,#718,#719);
#638=AXIS2_PLACEMENT_3D('',#885,#720,#721);
#639=AXIS2_PLACEMENT_3D('',#888,#723,#724);
#640=AXIS2_PLACEMENT_3D('',#889,#725,#726);
#641=AXIS2_PLACEMENT_3D('',#891,#727,#728);
#642=AXIS2_PLACEMENT_3D('',#894,#730,#731);
#643=AXIS2_PLACEMENT_3D('',#895,#732,#733);
#644=AXIS2_PLACEMENT_3D('',#897,#734,#735);
#645=AXIS2_PLACEMENT_3D('',#900,#737,#738);
#646=AXIS2_PLACEMENT_3D('',#901,#739,#740);
#647=AXIS2_PLACEMENT_3D('',#903,#741,#742);
#648=AXIS2_PLACEMENT_3D('',#906,#744,#745);
#649=AXIS2_PLACEMENT_3D('',#907,#746,#747);
#650=AXIS2_PLACEMENT_3D('',#909,#748,#749);
#651=AXIS2_PLACEMENT_3D('',#912,#751,#752);
#652=AXIS2_PLACEMENT_3D('',#913,#753,#754);
#653=AXIS2_PLACEMENT_3D('',#915,#755,#756);
#654=AXIS2_PLACEMENT_3D('',#918,#758,#759);
#655=AXIS2_PLACEMENT_3D('',#919,#760,#761);
#656=AXIS2_PLACEMENT_3D('',#921,#762,#763);
#657=AXIS2_PLACEMENT_3D('',#924,#765,#766);
#658=AXIS2_PLACEMENT_3D('',#925,#767,#768);
#659=AXIS2_PLACEMENT_3D('',#927,#769,#770);
#660=AXIS2_PLACEMENT_3D('',#930,#772,#773);
#661=AXIS2_PLACEMENT_3D('',#931,#774,#775);
#662=AXIS2_PLACEMENT_3D('',#933,#776,#777);
#663=AXIS2_PLACEMENT_3D('',#936,#779,#780);
#664=AXIS2_PLACEMENT_3D('',#937,#781,#782);
#665=AXIS2_PLACEMENT_3D('',#939,#783,#784);
#666=AXIS2_PLACEMENT_3D('',#942,#786,#787);
#667=AXIS2_PLACEMENT_3D('',#943,#788,#789);
#668=AXIS2_PLACEMENT_3D('',#952,#794,#795);
#669=AXIS2_PLACEMENT_3D('',#974,#807,#808);
#670=AXIS2_PLACEMENT_3D('',#980,#812,#813);
#671=AXIS2_PLACEMENT_3D('',#986,#817,#818);
#672=AXIS2_PLACEMENT_3D('',#1002,#828,#829);
#673=AXIS2_PLACEMENT_3D('',#1003,#830,#831);
#674=AXIS2_PLACEMENT_3D('',#1006,#834,#835);
#675=AXIS2_PLACEMENT_3D('',#1008,#837,#838);
#676=AXIS2_PLACEMENT_3D('',#1010,#840,#841);
#677=AXIS2_PLACEMENT_3D('',#1012,#843,#844);
#678=AXIS2_PLACEMENT_3D('',#1014,#846,#847);
#679=AXIS2_PLACEMENT_3D('',#1015,#848,#849);
#680=AXIS2_PLACEMENT_3D('',#1016,#850,#851);
#681=DIRECTION('axis',(0.,0.,1.));
#682=DIRECTION('refdir',(1.,0.,0.));
#683=DIRECTION('center_axis',(0.,0.,1.));
#684=DIRECTION('ref_axis',(1.,0.,0.));
#685=DIRECTION('center_axis',(0.,0.,1.));
#686=DIRECTION('ref_axis',(1.,0.,0.));
#687=DIRECTION('',(0.,0.,1.));
#688=DIRECTION('center_axis',(0.,0.,-1.));
#689=DIRECTION('ref_axis',(1.,0.,0.));
#690=DIRECTION('center_axis',(0.,0.,1.));
#691=DIRECTION('ref_axis',(-1.,0.,0.));
#692=DIRECTION('center_axis',(0.,0.,1.));
#693=DIRECTION('ref_axis',(-1.,0.,0.));
#694=DIRECTION('',(0.,0.,1.));
#695=DIRECTION('center_axis',(0.,0.,-1.));
#696=DIRECTION('ref_axis',(-1.,0.,0.));
#697=DIRECTION('center_axis',(0.,0.,1.));
#698=DIRECTION('ref_axis',(-1.,0.,0.));
#699=DIRECTION('center_axis',(0.,0.,1.));
#700=DIRECTION('ref_axis',(-1.,0.,0.));
#701=DIRECTION('',(0.,0.,1.));
#702=DIRECTION('center_axis',(0.,0.,-1.));
#703=DIRECTION('ref_axis',(-1.,0.,0.));
#704=DIRECTION('center_axis',(8.07434927000114E-16,0.,-1.));
#705=DIRECTION('ref_axis',(-1.,-1.26217744835362E-29,-8.07434927000114E-16));
#706=DIRECTION('center_axis',(0.,0.,-1.));
#707=DIRECTION('ref_axis',(-1.,-1.26217744835362E-29,-8.07434927000114E-16));
#708=DIRECTION('',(8.07434927000114E-16,0.,-1.));
#709=DIRECTION('center_axis',(0.,0.,1.));
#710=DIRECTION('ref_axis',(-1.,-1.26217744835362E-29,-8.07434927000114E-16));
#711=DIRECTION('center_axis',(0.,-1.11022302462516E-16,-1.));
#712=DIRECTION('ref_axis',(-1.,-1.25663077011378E-29,0.));
#713=DIRECTION('center_axis',(0.,0.,-1.));
#714=DIRECTION('ref_axis',(-1.,-1.25663077011378E-29,0.));
#715=DIRECTION('',(0.,-1.11022302462516E-16,-1.));
#716=DIRECTION('center_axis',(0.,0.,1.));
#717=DIRECTION('ref_axis',(-1.,-1.25663077011378E-29,0.));
#718=DIRECTION('center_axis',(0.,-2.22044604925031E-16,-1.));
#719=DIRECTION('ref_axis',(-1.,-1.25108409187395E-29,0.));
#720=DIRECTION('center_axis',(0.,0.,-1.));
#721=DIRECTION('ref_axis',(-1.,-1.25108409187395E-29,0.));
#722=DIRECTION('',(0.,-2.22044604925031E-16,-1.));
#723=DIRECTION('center_axis',(0.,0.,1.));
#724=DIRECTION('ref_axis',(-1.,-1.25108409187395E-29,0.));
#725=DIRECTION('center_axis',(8.88178419700125E-16,0.,-1.));
#726=DIRECTION('ref_axis',(-1.,-1.26217744835362E-29,-8.88178419700125E-16));
#727=DIRECTION('center_axis',(0.,0.,-1.));
#728=DIRECTION('ref_axis',(-1.,-1.26217744835362E-29,-8.88178419700125E-16));
#729=DIRECTION('',(8.88178419700125E-16,0.,-1.));
#730=DIRECTION('center_axis',(0.,0.,1.));
#731=DIRECTION('ref_axis',(-1.,-1.26217744835362E-29,-8.88178419700125E-16));
#732=DIRECTION('center_axis',(0.,0.,-1.));
#733=DIRECTION('ref_axis',(-1.,0.,0.));
#734=DIRECTION('center_axis',(0.,0.,-1.));
#735=DIRECTION('ref_axis',(-1.,0.,0.));
#736=DIRECTION('',(0.,0.,-1.));
#737=DIRECTION('center_axis',(0.,0.,1.));
#738=DIRECTION('ref_axis',(-1.,0.,0.));
#739=DIRECTION('center_axis',(0.,0.,-1.));
#740=DIRECTION('ref_axis',(-1.,0.,0.));
#741=DIRECTION('center_axis',(0.,0.,-1.));
#742=DIRECTION('ref_axis',(-1.,0.,0.));
#743=DIRECTION('',(0.,0.,-1.));
#744=DIRECTION('center_axis',(0.,0.,1.));
#745=DIRECTION('ref_axis',(-1.,0.,0.));
#746=DIRECTION('center_axis',(0.,0.,-1.));
#747=DIRECTION('ref_axis',(-1.,0.,0.));
#748=DIRECTION('center_axis',(0.,0.,-1.));
#749=DIRECTION('ref_axis',(-1.,0.,0.));
#750=DIRECTION('',(0.,0.,-1.));
#751=DIRECTION('center_axis',(0.,0.,1.));
#752=DIRECTION('ref_axis',(-1.,0.,0.));
#753=DIRECTION('center_axis',(0.,0.,-1.));
#754=DIRECTION('ref_axis',(-1.,0.,0.));
#755=DIRECTION('center_axis',(0.,0.,-1.));
#756=DIRECTION('ref_axis',(-1.,0.,0.));
#757=DIRECTION('',(0.,0.,-1.));
#758=DIRECTION('center_axis',(0.,0.,1.));
#759=DIRECTION('ref_axis',(-1.,0.,0.));
#760=DIRECTION('center_axis',(-2.8260222445004E-15,-1.61486985400023E-15,
-1.));
#761=DIRECTION('ref_axis',(-1.,5.55111512312579E-17,2.8260222445004E-15));
#762=DIRECTION('center_axis',(0.,0.,-1.));
#763=DIRECTION('ref_axis',(-1.,5.55111512312579E-17,2.8260222445004E-15));
#764=DIRECTION('',(-2.8260222445004E-15,-1.61486985400023E-15,-1.));
#765=DIRECTION('center_axis',(0.,0.,1.));
#766=DIRECTION('ref_axis',(-1.,5.55111512312579E-17,2.8260222445004E-15));
#767=DIRECTION('center_axis',(-2.72509287862539E-15,-1.61486985400023E-15,
-1.));
#768=DIRECTION('ref_axis',(-1.,5.55111512312578E-17,2.72509287862539E-15));
#769=DIRECTION('center_axis',(0.,0.,-1.));
#770=DIRECTION('ref_axis',(-1.,5.55111512312578E-17,2.72509287862539E-15));
#771=DIRECTION('',(-2.72509287862539E-15,-1.61486985400023E-15,-1.));
#772=DIRECTION('center_axis',(0.,0.,1.));
#773=DIRECTION('ref_axis',(-1.,5.55111512312578E-17,2.72509287862539E-15));
#774=DIRECTION('center_axis',(-2.8260222445004E-15,-1.61486985400023E-15,
-1.));
#775=DIRECTION('ref_axis',(-1.,5.55111512312579E-17,2.8260222445004E-15));
#776=DIRECTION('center_axis',(0.,0.,-1.));
#777=DIRECTION('ref_axis',(-1.,5.55111512312579E-17,2.8260222445004E-15));
#778=DIRECTION('',(-2.8260222445004E-15,-1.61486985400023E-15,-1.));
#779=DIRECTION('center_axis',(0.,0.,1.));
#780=DIRECTION('ref_axis',(-1.,5.55111512312579E-17,2.8260222445004E-15));
#781=DIRECTION('center_axis',(-2.72509287862539E-15,-1.61486985400023E-15,
-1.));
#782=DIRECTION('ref_axis',(-1.,5.55111512312578E-17,2.72509287862539E-15));
#783=DIRECTION('center_axis',(0.,0.,-1.));
#784=DIRECTION('ref_axis',(-1.,5.55111512312578E-17,2.72509287862539E-15));
#785=DIRECTION('',(-2.72509287862539E-15,-1.61486985400023E-15,-1.));
#786=DIRECTION('center_axis',(0.,0.,1.));
#787=DIRECTION('ref_axis',(-1.,5.55111512312578E-17,2.72509287862539E-15));
#788=DIRECTION('center_axis',(-0.504845897461513,-0.863209487793247,0.));
#789=DIRECTION('ref_axis',(0.,0.,1.));
#790=DIRECTION('',(0.,0.,-1.));
#791=DIRECTION('',(-0.863209487793247,0.504845897461513,0.));
#792=DIRECTION('',(0.,0.,-1.));
#793=DIRECTION('',(0.863209487793247,-0.504845897461513,0.));
#794=DIRECTION('center_axis',(0.,0.,1.));
#795=DIRECTION('ref_axis',(-0.999984293947461,0.00560462830140107,0.));
#796=DIRECTION('',(-0.504845897461513,-0.863209487793247,0.));
#797=DIRECTION('',(-0.495138396485948,0.868814116094648,0.));
#798=DIRECTION('',(0.00560462830140098,0.999984293947462,0.));
#799=DIRECTION('',(0.999984293947461,-0.00560462830140077,0.));
#800=DIRECTION('',(-0.00560462830140098,-0.999984293947462,0.));
#801=DIRECTION('',(-0.504845897461513,-0.863209487793247,0.));
#802=DIRECTION('',(-0.868814116094648,-0.495138396485948,0.));
#803=DIRECTION('',(-0.495138396485949,0.868814116094647,0.));
#804=DIRECTION('',(0.868814116094648,0.495138396485948,0.));
#805=DIRECTION('',(0.999984293947461,-0.00560462830140078,0.));
#806=DIRECTION('',(0.863209487793247,-0.504845897461513,0.));
#807=DIRECTION('center_axis',(0.504845897461513,0.863209487793247,0.));
#808=DIRECTION('ref_axis',(0.,0.,-1.));
#809=DIRECTION('',(0.,0.,1.));
#810=DIRECTION('',(-0.863209487793247,0.504845897461513,0.));
#811=DIRECTION('',(0.,0.,1.));
#812=DIRECTION('center_axis',(-0.495138396485949,0.868814116094647,0.));
#813=DIRECTION('ref_axis',(0.,0.,1.));
#814=DIRECTION('',(0.,0.,-1.));
#815=DIRECTION('',(0.,0.,-1.));
#816=DIRECTION('',(-0.868814116094648,-0.495138396485948,0.));
#817=DIRECTION('center_axis',(0.,0.,-1.));
#818=DIRECTION('ref_axis',(0.999984293947461,-0.00560462830140107,0.));
#819=DIRECTION('',(0.504845897461513,0.863209487793247,0.));
#820=DIRECTION('',(-0.999984293947461,0.00560462830140078,0.));
#821=DIRECTION('',(0.495138396485949,-0.868814116094647,0.));
#822=DIRECTION('',(0.868814116094648,0.495138396485948,0.));
#823=DIRECTION('',(0.504845897461513,0.863209487793247,0.));
#824=DIRECTION('',(0.00560462830140098,0.999984293947462,0.));
#825=DIRECTION('',(-0.999984293947461,0.00560462830140077,0.));
#826=DIRECTION('',(-0.00560462830140098,-0.999984293947462,0.));
#827=DIRECTION('',(0.495138396485948,-0.868814116094648,0.));
#828=DIRECTION('center_axis',(0.00560462830140078,0.999984293947462,0.));
#829=DIRECTION('ref_axis',(0.,0.,1.));
#830=DIRECTION('center_axis',(0.495138396485949,-0.868814116094647,0.));
#831=DIRECTION('ref_axis',(0.,0.,-1.));
#832=DIRECTION('',(0.,0.,1.));
#833=DIRECTION('',(0.,0.,1.));
#834=DIRECTION('center_axis',(-0.868814116094648,-0.495138396485948,0.));
#835=DIRECTION('ref_axis',(0.,0.,1.));
#836=DIRECTION('',(0.,0.,-1.));
#837=DIRECTION('center_axis',(-0.999984293947462,0.00560462830140077,0.));
#838=DIRECTION('ref_axis',(0.,0.,1.));
#839=DIRECTION('',(0.,0.,1.));
#840=DIRECTION('center_axis',(0.863209487793247,-0.504845897461513,0.));
#841=DIRECTION('ref_axis',(0.,0.,-1.));
#842=DIRECTION('',(0.,0.,1.));
#843=DIRECTION('center_axis',(0.999984293947462,-0.00560462830140077,0.));
#844=DIRECTION('ref_axis',(0.,0.,-1.));
#845=DIRECTION('',(0.,0.,-1.));
#846=DIRECTION('center_axis',(-0.863209487793247,0.504845897461513,0.));
#847=DIRECTION('ref_axis',(0.,0.,1.));
#848=DIRECTION('center_axis',(0.868814116094648,0.495138396485948,0.));
#849=DIRECTION('ref_axis',(0.,0.,-1.));
#850=DIRECTION('center_axis',(-0.00560462830140098,-0.999984293947462,0.));
#851=DIRECTION('ref_axis',(0.,0.,-1.));
#852=CARTESIAN_POINT('',(0.,0.,0.));
#853=CARTESIAN_POINT('Origin',(32.0000004768372,-18.0000002682209,100.));
#854=CARTESIAN_POINT('',(30.5000004768372,-18.0000002682209,100.));
#855=CARTESIAN_POINT('Origin',(32.0000004768372,-18.0000002682209,100.));
#856=CARTESIAN_POINT('',(30.5000004768372,-18.0000002682209,105.));
#857=CARTESIAN_POINT('',(30.5000004768372,-18.0000002682209,100.));
#858=CARTESIAN_POINT('Origin',(32.0000004768372,-18.0000002682209,105.));
#859=CARTESIAN_POINT('Origin',(-54.0000008046627,-13.0000001937151,100.));
#860=CARTESIAN_POINT('',(-52.5000008046627,-13.0000001937151,100.));
#861=CARTESIAN_POINT('Origin',(-54.0000008046627,-13.0000001937151,100.));
#862=CARTESIAN_POINT('',(-52.5000008046627,-13.0000001937151,105.));
#863=CARTESIAN_POINT('',(-52.5000008046627,-13.0000001937151,100.));
#864=CARTESIAN_POINT('Origin',(-54.0000008046627,-13.0000001937151,105.));
#865=CARTESIAN_POINT('Origin',(-10.9159223077466,46.8592784384299,100.));
#866=CARTESIAN_POINT('',(-9.41592230774658,46.8592784384299,100.));
#867=CARTESIAN_POINT('Origin',(-10.9159223077466,46.8592784384299,100.));
#868=CARTESIAN_POINT('',(-9.41592230774658,46.8592784384299,105.));
#869=CARTESIAN_POINT('',(-9.41592230774658,46.8592784384299,100.));
#870=CARTESIAN_POINT('Origin',(-10.9159223077466,46.8592784384299,105.));
#871=CARTESIAN_POINT('Origin',(-44.5008328923578,67.7428757899155,106.83927937732));
#872=CARTESIAN_POINT('',(-42.9867709591769,67.7428757899155,105.));
#873=CARTESIAN_POINT('Origin',(-44.5008328923578,67.7428757899155,105.));
#874=CARTESIAN_POINT('',(-42.9867709591769,67.7428757899155,100.));
#875=CARTESIAN_POINT('',(-42.9867709591769,67.7428757899155,106.83927937732));
#876=CARTESIAN_POINT('Origin',(-44.5008328923578,67.7428757899155,100.));
#877=CARTESIAN_POINT('Origin',(-83.8664573642442,-0.44038640029143,106.839279377321));
#878=CARTESIAN_POINT('',(-82.3523958108583,-0.440386400291431,105.));
#879=CARTESIAN_POINT('Origin',(-83.8664573642442,-0.440386400291431,105.));
#880=CARTESIAN_POINT('',(-82.3523958108583,-0.440386400291431,100.));
#881=CARTESIAN_POINT('',(-82.3523958108583,-0.440386400291431,106.839279377321));
#882=CARTESIAN_POINT('Origin',(-83.8664573642442,-0.440386400291431,100.));
#883=CARTESIAN_POINT('Origin',(-111.855127009104,15.7188795534252,108.858029377321));
#884=CARTESIAN_POINT('',(-110.341065135233,15.7188795534252,105.));
#885=CARTESIAN_POINT('Origin',(-111.855127009104,15.7188795534252,105.));
#886=CARTESIAN_POINT('',(-110.341065135233,15.7188795534252,100.));
#887=CARTESIAN_POINT('',(-110.341065135233,15.7188795534252,108.858029377321));
#888=CARTESIAN_POINT('Origin',(-111.855127009104,15.7188795534252,100.));
#889=CARTESIAN_POINT('Origin',(-72.4895025372166,83.9021417436317,108.858029377321));
#890=CARTESIAN_POINT('',(-70.9754402835493,83.9021417436317,105.));
#891=CARTESIAN_POINT('Origin',(-72.4895025372166,83.9021417436317,105.));
#892=CARTESIAN_POINT('',(-70.9754402835493,83.9021417436317,100.));
#893=CARTESIAN_POINT('',(-70.9754402835493,83.9021417436317,108.858029377321));
#894=CARTESIAN_POINT('Origin',(-72.4895025372166,83.9021417436317,100.));
#895=CARTESIAN_POINT('Origin',(-10.,-10.9917993198599,107.000000000001));
#896=CARTESIAN_POINT('',(-8.75000000000002,-10.9917993198599,105.));
#897=CARTESIAN_POINT('Origin',(-10.,-10.9917993198599,105.));
#898=CARTESIAN_POINT('',(-8.75000000000002,-10.9917993198599,100.));
#899=CARTESIAN_POINT('',(-8.75000000000002,-10.9917993198599,107.000000000001));
#900=CARTESIAN_POINT('Origin',(-10.,-10.9917993198599,100.));
#901=CARTESIAN_POINT('Origin',(4.84453320612084,3.85273388626099,107.000000000001));
#902=CARTESIAN_POINT('',(6.09453320612084,3.85273388626099,105.));
#903=CARTESIAN_POINT('Origin',(4.84453320612084,3.85273388626099,105.));
#904=CARTESIAN_POINT('',(6.09453320612084,3.85273388626099,100.));
#905=CARTESIAN_POINT('',(6.09453320612084,3.85273388626099,107.000000000001));
#906=CARTESIAN_POINT('Origin',(4.84453320612084,3.85273388626099,100.));
#907=CARTESIAN_POINT('Origin',(-24.8445332061209,3.85273388626099,107.000000000001));
#908=CARTESIAN_POINT('',(-23.5945332061209,3.85273388626099,105.));
#909=CARTESIAN_POINT('Origin',(-24.8445332061209,3.85273388626099,105.));
#910=CARTESIAN_POINT('',(-23.5945332061209,3.85273388626099,100.));
#911=CARTESIAN_POINT('',(-23.5945332061209,3.85273388626099,107.000000000001));
#912=CARTESIAN_POINT('Origin',(-24.8445332061209,3.85273388626099,100.));
#913=CARTESIAN_POINT('Origin',(-10.,18.6972670923818,107.000000000001));
#914=CARTESIAN_POINT('',(-8.75000000000002,18.6972670923818,105.));
#915=CARTESIAN_POINT('Origin',(-10.,18.6972670923818,105.));
#916=CARTESIAN_POINT('',(-8.75000000000002,18.6972670923818,100.));
#917=CARTESIAN_POINT('',(-8.75000000000002,18.6972670923818,107.000000000001));
#918=CARTESIAN_POINT('Origin',(-10.,18.6972670923818,100.));
#919=CARTESIAN_POINT('Origin',(-28.9939602453277,-95.1853045014794,105.927911242737));
#920=CARTESIAN_POINT('',(-26.7439602453277,-95.1853045014794,105.));
#921=CARTESIAN_POINT('Origin',(-28.9939602453277,-95.1853045014794,105.));
#922=CARTESIAN_POINT('',(-26.7439602453277,-95.1853045014794,100.));
#923=CARTESIAN_POINT('',(-26.7439602453277,-95.1853045014794,105.927911242737));
#924=CARTESIAN_POINT('Origin',(-28.9939602453277,-95.1853045014794,100.));
#925=CARTESIAN_POINT('Origin',(7.00603975467252,-59.1853045014794,105.927911242737));
#926=CARTESIAN_POINT('',(9.25603975467253,-59.1853045014794,105.));
#927=CARTESIAN_POINT('Origin',(7.00603975467252,-59.1853045014794,105.));
#928=CARTESIAN_POINT('',(9.25603975467251,-59.1853045014794,99.9999999999999));
#929=CARTESIAN_POINT('',(9.25603975467253,-59.1853045014794,105.927911242737));
#930=CARTESIAN_POINT('Origin',(7.00603975467251,-59.1853045014794,99.9999999999999));
#931=CARTESIAN_POINT('Origin',(-28.9939602453276,-59.1853045014793,105.927911242737));
#932=CARTESIAN_POINT('',(-27.2439602453276,-59.1853045014793,105.));
#933=CARTESIAN_POINT('Origin',(-28.9939602453276,-59.1853045014793,105.));
#934=CARTESIAN_POINT('',(-27.2439602453276,-59.1853045014793,100.));
#935=CARTESIAN_POINT('',(-27.2439602453276,-59.1853045014793,105.927911242737));
#936=CARTESIAN_POINT('Origin',(-28.9939602453276,-59.1853045014793,100.));
#937=CARTESIAN_POINT('Origin',(7.00603975467243,-95.1853045014795,105.927911242737));
#938=CARTESIAN_POINT('',(9.25603975467243,-95.1853045014795,105.));
#939=CARTESIAN_POINT('Origin',(7.00603975467243,-95.1853045014795,105.));
#940=CARTESIAN_POINT('',(9.25603975467242,-95.1853045014795,99.9999999999999));
#941=CARTESIAN_POINT('',(9.25603975467243,-95.1853045014795,105.927911242737));
#942=CARTESIAN_POINT('Origin',(7.00603975467241,-95.1853045014795,99.9999999999999));
#943=CARTESIAN_POINT('Origin',(-77.2800498879273,-10.4830176531358,100.));
#944=CARTESIAN_POINT('',(-80.7494941652236,-8.4539218952311,105.));
#945=CARTESIAN_POINT('',(-80.7494941652236,-8.45392189523111,100.));
#946=CARTESIAN_POINT('',(-80.7494941652236,-8.45392189523111,100.));
#947=CARTESIAN_POINT('',(-120.44052427759,14.7592772199399,105.));
#948=CARTESIAN_POINT('',(-77.2800498879273,-10.4830176531358,105.));
#949=CARTESIAN_POINT('',(-120.44052427759,14.7592772199399,100.));
#950=CARTESIAN_POINT('',(-120.44052427759,14.7592772199399,100.));
#951=CARTESIAN_POINT('',(-77.2800498879273,-10.4830176531358,100.));
#952=CARTESIAN_POINT('Origin',(20.,-50.,105.));
#953=CARTESIAN_POINT('',(-75.0043935060535,92.448131121332,105.));
#954=CARTESIAN_POINT('',(-112.867835815667,27.7074195368386,105.));
#955=CARTESIAN_POINT('',(-55.0213483804682,-53.5988276375003,105.));
#956=CARTESIAN_POINT('',(-82.7395731674243,-4.96195128352631,105.));
#957=CARTESIAN_POINT('',(-55.2790534611297,-99.578867574768,105.));
#958=CARTESIAN_POINT('',(-54.9988220460596,-49.5796528773949,105.));
#959=CARTESIAN_POINT('',(34.7195329941419,-100.083284121894,105.));
#960=CARTESIAN_POINT('',(19.7197685849299,-99.9992146973731,105.));
#961=CARTESIAN_POINT('',(34.9772380748034,-54.1032441846264,105.));
#962=CARTESIAN_POINT('',(34.9997644092119,-50.084069424521,105.));
#963=CARTESIAN_POINT('',(61.2098004066848,-9.24956347162413,105.));
#964=CARTESIAN_POINT('',(32.9481423168987,-57.5726884619227,105.));
#965=CARTESIAN_POINT('',(101.158535599712,13.5172773504725,105.));
#966=CARTESIAN_POINT('',(57.71782979498,-11.2396424738249,105.));
#967=CARTESIAN_POINT('',(56.596079915977,91.7105477989908,105.));
#968=CARTESIAN_POINT('',(64.0231558632662,78.6783360575711,105.));
#969=CARTESIAN_POINT('',(16.6473447229495,68.9437069768941,105.));
#970=CARTESIAN_POINT('',(13.1553741112446,66.9536279746934,105.));
#971=CARTESIAN_POINT('',(-35.3133633936874,69.2349320061611,105.));
#972=CARTESIAN_POINT('',(20.6665194830549,68.9211806424856,105.));
#973=CARTESIAN_POINT('',(-31.8439191163911,67.2058362482564,105.));
#974=CARTESIAN_POINT('Origin',(-31.8439191163911,67.2058362482564,105.));
#975=CARTESIAN_POINT('',(-35.3133633936874,69.2349320061611,100.));
#976=CARTESIAN_POINT('',(-35.3133633936874,69.2349320061611,102.5));
#977=CARTESIAN_POINT('',(-75.0043935060535,92.448131121332,100.));
#978=CARTESIAN_POINT('',(-31.8439191163911,67.2058362482564,100.));
#979=CARTESIAN_POINT('',(-75.0043935060534,92.448131121332,100.));
#980=CARTESIAN_POINT('Origin',(13.1553741112446,66.9536279746934,100.));
#981=CARTESIAN_POINT('',(16.6473447229495,68.9437069768941,100.));
#982=CARTESIAN_POINT('',(16.6473447229495,68.9437069768941,100.));
#983=CARTESIAN_POINT('',(56.596079915977,91.7105477989908,100.));
#984=CARTESIAN_POINT('',(56.596079915977,91.7105477989908,100.));
#985=CARTESIAN_POINT('',(13.1553741112446,66.9536279746934,100.));
#986=CARTESIAN_POINT('Origin',(-39.9990576368477,-49.6637223019159,100.));
#987=CARTESIAN_POINT('',(-82.5770819679762,79.4999888044334,100.));
#988=CARTESIAN_POINT('',(20.6665194830549,68.9211806424856,100.));
#989=CARTESIAN_POINT('',(101.158535599712,13.5172773504725,100.));
#990=CARTESIAN_POINT('',(93.7314596524232,26.5494890918922,100.));
#991=CARTESIAN_POINT('',(61.2098004066848,-9.24956347162413,100.));
#992=CARTESIAN_POINT('',(57.71782979498,-11.2396424738249,100.));
#993=CARTESIAN_POINT('',(34.9772380748034,-54.1032441846264,100.));
#994=CARTESIAN_POINT('',(32.9481423168987,-57.5726884619227,100.));
#995=CARTESIAN_POINT('',(34.7195329941419,-100.083284121894,100.));
#996=CARTESIAN_POINT('',(34.9997644092119,-50.084069424521,100.));
#997=CARTESIAN_POINT('',(-55.2790534611297,-99.578867574768,100.));
#998=CARTESIAN_POINT('',(-40.2792890519178,-99.662936999289,100.));
#999=CARTESIAN_POINT('',(-55.0213483804682,-53.5988276375003,100.));
#1000=CARTESIAN_POINT('',(-54.9988220460596,-49.5796528773949,100.));
#1001=CARTESIAN_POINT('',(-82.7395731674243,-4.96195128352631,100.));
#1002=CARTESIAN_POINT('Origin',(20.6665194830549,68.9211806424856,100.));
#1003=CARTESIAN_POINT('Origin',(57.71782979498,-11.2396424738249,105.));
#1004=CARTESIAN_POINT('',(61.2098004066848,-9.24956347162412,102.5));
#1005=CARTESIAN_POINT('',(101.158535599712,13.5172773504725,100.));
#1006=CARTESIAN_POINT('Origin',(-82.7395731674243,-4.96195128352631,100.));
#1007=CARTESIAN_POINT('',(-55.0213483804682,-53.5988276375003,102.5));
#1008=CARTESIAN_POINT('Origin',(-54.9988220460596,-49.5796528773949,105.));
#1009=CARTESIAN_POINT('',(-55.2790534611297,-99.578867574768,100.));
#1010=CARTESIAN_POINT('Origin',(32.9481423168987,-57.5726884619227,100.));
#1011=CARTESIAN_POINT('',(34.9772380748034,-54.1032441846264,100.));
#1012=CARTESIAN_POINT('Origin',(34.9997644092119,-50.084069424521,100.));
#1013=CARTESIAN_POINT('',(34.7195329941419,-100.083284121894,100.));
#1014=CARTESIAN_POINT('Origin',(-82.5770819679762,79.4999888044334,100.));
#1015=CARTESIAN_POINT('Origin',(93.7314596524232,26.5494890918922,100.));
#1016=CARTESIAN_POINT('Origin',(-40.2792890519178,-99.662936999289,100.));
#1017=UNCERTAINTY_MEASURE_WITH_UNIT(LENGTH_MEASURE(0.01),#1021,
'DISTANCE_ACCURACY_VALUE',
'Maximum model space distance between geometric entities at asserted c
onnectivities');
#1018=UNCERTAINTY_MEASURE_WITH_UNIT(LENGTH_MEASURE(0.01),#1021,
'DISTANCE_ACCURACY_VALUE',
'Maximum model space distance between geometric entities at asserted c
onnectivities');
#1019=(
GEOMETRIC_REPRESENTATION_CONTEXT(3)
GLOBAL_UNCERTAINTY_ASSIGNED_CONTEXT((#1017))
GLOBAL_UNIT_ASSIGNED_CONTEXT((#1021,#1022,#1023))
REPRESENTATION_CONTEXT('','3D')
);
#1020=(
GEOMETRIC_REPRESENTATION_CONTEXT(3)
GLOBAL_UNCERTAINTY_ASSIGNED_CONTEXT((#1018))
GLOBAL_UNIT_ASSIGNED_CONTEXT((#1021,#1022,#1023))
REPRESENTATION_CONTEXT('','3D')
);
#1021=(
LENGTH_UNIT()
NAMED_UNIT(*)
SI_UNIT(.MILLI.,.METRE.)
);
#1022=(
NAMED_UNIT(*)
PLANE_ANGLE_UNIT()
SI_UNIT($,.RADIAN.)
);
#1023=(
NAMED_UNIT(*)
SI_UNIT($,.STERADIAN.)
SOLID_ANGLE_UNIT()
);
#1024=SHAPE_DEFINITION_REPRESENTATION(#1025,#1026);
#1025=PRODUCT_DEFINITION_SHAPE('',$,#1028);
#1026=SHAPE_REPRESENTATION('',(#621),#1019);
#1027=PRODUCT_DEFINITION_CONTEXT('part definition',#1032,'design');
#1028=PRODUCT_DEFINITION('2026-04-22-14-29-57-430','Reworked body',#1029,
#1027);
#1029=PRODUCT_DEFINITION_FORMATION('',$,#1034);
#1030=PRODUCT_RELATED_PRODUCT_CATEGORY('Reworked body','Reworked body',
(#1034));
#1031=APPLICATION_PROTOCOL_DEFINITION('international standard',
'automotive_design',2009,#1032);
#1032=APPLICATION_CONTEXT(
'Core Data for Automotive Mechanical Design Process');
#1033=PRODUCT_CONTEXT('part definition',#1032,'mechanical');
#1034=PRODUCT('2026-04-22-14-29-57-430','Reworked body',$,(#1033));
#1035=PRESENTATION_STYLE_ASSIGNMENT((#1039));
#1036=PRESENTATION_STYLE_ASSIGNMENT((#1040));
#1037=PRESENTATION_STYLE_ASSIGNMENT((#1041));
#1038=PRESENTATION_STYLE_ASSIGNMENT((#1042));
#1039=SURFACE_STYLE_USAGE(.BOTH.,#1043);
#1040=SURFACE_STYLE_USAGE(.BOTH.,#1044);
#1041=SURFACE_STYLE_USAGE(.BOTH.,#1045);
#1042=SURFACE_STYLE_USAGE(.BOTH.,#1046);
#1043=SURFACE_SIDE_STYLE('',(#1047));
#1044=SURFACE_SIDE_STYLE('',(#1048));
#1045=SURFACE_SIDE_STYLE('',(#1049));
#1046=SURFACE_SIDE_STYLE('',(#1050));
#1047=SURFACE_STYLE_FILL_AREA(#1051);
#1048=SURFACE_STYLE_FILL_AREA(#1052);
#1049=SURFACE_STYLE_FILL_AREA(#1053);
#1050=SURFACE_STYLE_FILL_AREA(#1054);
#1051=FILL_AREA_STYLE('Steel - Satin',(#1055));
#1052=FILL_AREA_STYLE('Opaque(255,255,255)',(#1056));
#1053=FILL_AREA_STYLE('Opaque(198,193,188)',(#1057));
#1054=FILL_AREA_STYLE('Opaque(255,220,64)',(#1058));
#1055=FILL_AREA_STYLE_COLOUR('Steel - Satin',#1059);
#1056=FILL_AREA_STYLE_COLOUR('Opaque(255,255,255)',#1060);
#1057=FILL_AREA_STYLE_COLOUR('Opaque(198,193,188)',#1061);
#1058=FILL_AREA_STYLE_COLOUR('Opaque(255,220,64)',#1062);
#1059=COLOUR_RGB('Steel - Satin',0.627450980392157,0.627450980392157,0.627450980392157);
#1060=COLOUR_RGB('Opaque(255,255,255)',1.,1.,1.);
#1061=COLOUR_RGB('Opaque(198,193,188)',0.776470588235294,0.756862745098039,
0.737254901960784);
#1062=COLOUR_RGB('Opaque(255,220,64)',1.,0.862745098039216,0.250980392156863);
ENDSEC;
END-ISO-10303-21;
