ISO-10303-21;
HEADER;
/* Generated by software containing ST-Developer
 * from STEP Tools, Inc. (www.steptools.com) 
 */

FILE_DESCRIPTION(
/* description */ (''),
/* implementation_level */ '2;1');

FILE_NAME(
/* name */ 'Pipe Holder.step',
/* time_stamp */ '2026-05-27T21:57:29+02:00',
/* author */ (''),
/* organization */ (''),
/* preprocessor_version */ 'ST-DEVELOPER v20.1',
/* originating_system */ 'Autodesk Translation Framework v15.8.0.0',
/* authorisation */ '');

FILE_SCHEMA (('AUTOMOTIVE_DESIGN { 1 0 10303 214 3 1 1 }'));
ENDSEC;

DATA;
#10=MECHANICAL_DESIGN_GEOMETRIC_PRESENTATION_REPRESENTATION('',(#13),#314);
#11=SHAPE_REPRESENTATION_RELATIONSHIP('SRR','None',#320,#12);
#12=ADVANCED_BREP_SHAPE_REPRESENTATION('',(#14),#313);
#13=STYLED_ITEM('',(#331),#14);
#14=MANIFOLD_SOLID_BREP('Body22',#182);
#15=LINE('',#293,#22);
#16=LINE('',#295,#23);
#17=LINE('',#297,#24);
#18=LINE('',#299,#25);
#19=LINE('',#301,#26);
#20=LINE('',#304,#27);
#21=LINE('',#308,#28);
#22=VECTOR('',#240,17.);
#23=VECTOR('',#243,1.25);
#24=VECTOR('',#246,1.25);
#25=VECTOR('',#249,1.25);
#26=VECTOR('',#252,1.25);
#27=VECTOR('',#255,10.);
#28=VECTOR('',#260,13.);
#29=CYLINDRICAL_SURFACE('',#198,17.);
#30=CYLINDRICAL_SURFACE('',#199,1.25);
#31=CYLINDRICAL_SURFACE('',#200,1.25);
#32=CYLINDRICAL_SURFACE('',#201,1.25);
#33=CYLINDRICAL_SURFACE('',#202,1.25);
#34=CYLINDRICAL_SURFACE('',#203,10.);
#35=CYLINDRICAL_SURFACE('',#205,13.);
#36=FACE_BOUND('',#58,.T.);
#37=FACE_BOUND('',#59,.T.);
#38=FACE_BOUND('',#60,.T.);
#39=FACE_BOUND('',#61,.T.);
#40=FACE_BOUND('',#62,.T.);
#41=FACE_BOUND('',#64,.T.);
#42=FACE_BOUND('',#65,.T.);
#43=FACE_BOUND('',#66,.T.);
#44=FACE_BOUND('',#67,.T.);
#45=FACE_BOUND('',#68,.T.);
#46=FACE_BOUND('',#77,.T.);
#47=FACE_OUTER_BOUND('',#57,.T.);
#48=FACE_OUTER_BOUND('',#63,.T.);
#49=FACE_OUTER_BOUND('',#69,.T.);
#50=FACE_OUTER_BOUND('',#70,.T.);
#51=FACE_OUTER_BOUND('',#71,.T.);
#52=FACE_OUTER_BOUND('',#72,.T.);
#53=FACE_OUTER_BOUND('',#73,.T.);
#54=FACE_OUTER_BOUND('',#74,.T.);
#55=FACE_OUTER_BOUND('',#75,.T.);
#56=FACE_OUTER_BOUND('',#76,.T.);
#57=EDGE_LOOP('',(#127));
#58=EDGE_LOOP('',(#128));
#59=EDGE_LOOP('',(#129));
#60=EDGE_LOOP('',(#130));
#61=EDGE_LOOP('',(#131));
#62=EDGE_LOOP('',(#132));
#63=EDGE_LOOP('',(#133));
#64=EDGE_LOOP('',(#134));
#65=EDGE_LOOP('',(#135));
#66=EDGE_LOOP('',(#136));
#67=EDGE_LOOP('',(#137));
#68=EDGE_LOOP('',(#138));
#69=EDGE_LOOP('',(#139,#140,#141,#142));
#70=EDGE_LOOP('',(#143,#144,#145,#146));
#71=EDGE_LOOP('',(#147,#148,#149,#150));
#72=EDGE_LOOP('',(#151,#152,#153,#154));
#73=EDGE_LOOP('',(#155,#156,#157,#158));
#74=EDGE_LOOP('',(#159,#160,#161,#162));
#75=EDGE_LOOP('',(#163,#164,#165,#166));
#76=EDGE_LOOP('',(#167));
#77=EDGE_LOOP('',(#168));
#78=CIRCLE('',#185,17.);
#79=CIRCLE('',#186,10.);
#80=CIRCLE('',#187,1.25);
#81=CIRCLE('',#188,1.25);
#82=CIRCLE('',#189,1.25);
#83=CIRCLE('',#190,1.25);
#84=CIRCLE('',#192,17.);
#85=CIRCLE('',#193,13.);
#86=CIRCLE('',#194,1.25);
#87=CIRCLE('',#195,1.25);
#88=CIRCLE('',#196,1.25);
#89=CIRCLE('',#197,1.25);
#90=CIRCLE('',#204,10.);
#91=CIRCLE('',#206,13.);
#92=VERTEX_POINT('',#267);
#93=VERTEX_POINT('',#269);
#94=VERTEX_POINT('',#271);
#95=VERTEX_POINT('',#273);
#96=VERTEX_POINT('',#275);
#97=VERTEX_POINT('',#277);
#98=VERTEX_POINT('',#280);
#99=VERTEX_POINT('',#282);
#100=VERTEX_POINT('',#284);
#101=VERTEX_POINT('',#286);
#102=VERTEX_POINT('',#288);
#103=VERTEX_POINT('',#290);
#104=VERTEX_POINT('',#303);
#105=VERTEX_POINT('',#307);
#106=EDGE_CURVE('',#92,#92,#78,.T.);
#107=EDGE_CURVE('',#93,#93,#79,.T.);
#108=EDGE_CURVE('',#94,#94,#80,.T.);
#109=EDGE_CURVE('',#95,#95,#81,.T.);
#110=EDGE_CURVE('',#96,#96,#82,.T.);
#111=EDGE_CURVE('',#97,#97,#83,.T.);
#112=EDGE_CURVE('',#98,#98,#84,.T.);
#113=EDGE_CURVE('',#99,#99,#85,.T.);
#114=EDGE_CURVE('',#100,#100,#86,.T.);
#115=EDGE_CURVE('',#101,#101,#87,.T.);
#116=EDGE_CURVE('',#102,#102,#88,.T.);
#117=EDGE_CURVE('',#103,#103,#89,.T.);
#118=EDGE_CURVE('',#92,#98,#15,.T.);
#119=EDGE_CURVE('',#103,#97,#16,.T.);
#120=EDGE_CURVE('',#102,#96,#17,.T.);
#121=EDGE_CURVE('',#101,#95,#18,.T.);
#122=EDGE_CURVE('',#100,#94,#19,.T.);
#123=EDGE_CURVE('',#93,#104,#20,.T.);
#124=EDGE_CURVE('',#104,#104,#90,.T.);
#125=EDGE_CURVE('',#99,#105,#21,.T.);
#126=EDGE_CURVE('',#105,#105,#91,.T.);
#127=ORIENTED_EDGE('',*,*,#106,.T.);
#128=ORIENTED_EDGE('',*,*,#107,.T.);
#129=ORIENTED_EDGE('',*,*,#108,.T.);
#130=ORIENTED_EDGE('',*,*,#109,.T.);
#131=ORIENTED_EDGE('',*,*,#110,.T.);
#132=ORIENTED_EDGE('',*,*,#111,.T.);
#133=ORIENTED_EDGE('',*,*,#112,.F.);
#134=ORIENTED_EDGE('',*,*,#113,.F.);
#135=ORIENTED_EDGE('',*,*,#114,.T.);
#136=ORIENTED_EDGE('',*,*,#115,.T.);
#137=ORIENTED_EDGE('',*,*,#116,.T.);
#138=ORIENTED_EDGE('',*,*,#117,.T.);
#139=ORIENTED_EDGE('',*,*,#106,.F.);
#140=ORIENTED_EDGE('',*,*,#118,.T.);
#141=ORIENTED_EDGE('',*,*,#112,.T.);
#142=ORIENTED_EDGE('',*,*,#118,.F.);
#143=ORIENTED_EDGE('',*,*,#117,.F.);
#144=ORIENTED_EDGE('',*,*,#119,.T.);
#145=ORIENTED_EDGE('',*,*,#111,.F.);
#146=ORIENTED_EDGE('',*,*,#119,.F.);
#147=ORIENTED_EDGE('',*,*,#116,.F.);
#148=ORIENTED_EDGE('',*,*,#120,.T.);
#149=ORIENTED_EDGE('',*,*,#110,.F.);
#150=ORIENTED_EDGE('',*,*,#120,.F.);
#151=ORIENTED_EDGE('',*,*,#115,.F.);
#152=ORIENTED_EDGE('',*,*,#121,.T.);
#153=ORIENTED_EDGE('',*,*,#109,.F.);
#154=ORIENTED_EDGE('',*,*,#121,.F.);
#155=ORIENTED_EDGE('',*,*,#114,.F.);
#156=ORIENTED_EDGE('',*,*,#122,.T.);
#157=ORIENTED_EDGE('',*,*,#108,.F.);
#158=ORIENTED_EDGE('',*,*,#122,.F.);
#159=ORIENTED_EDGE('',*,*,#107,.F.);
#160=ORIENTED_EDGE('',*,*,#123,.T.);
#161=ORIENTED_EDGE('',*,*,#124,.F.);
#162=ORIENTED_EDGE('',*,*,#123,.F.);
#163=ORIENTED_EDGE('',*,*,#113,.T.);
#164=ORIENTED_EDGE('',*,*,#125,.T.);
#165=ORIENTED_EDGE('',*,*,#126,.F.);
#166=ORIENTED_EDGE('',*,*,#125,.F.);
#167=ORIENTED_EDGE('',*,*,#126,.T.);
#168=ORIENTED_EDGE('',*,*,#124,.T.);
#169=PLANE('',#184);
#170=PLANE('',#191);
#171=PLANE('',#207);
#172=ADVANCED_FACE('',(#47,#36,#37,#38,#39,#40),#169,.F.);
#173=ADVANCED_FACE('',(#48,#41,#42,#43,#44,#45),#170,.T.);
#174=ADVANCED_FACE('',(#49),#29,.T.);
#175=ADVANCED_FACE('',(#50),#30,.F.);
#176=ADVANCED_FACE('',(#51),#31,.F.);
#177=ADVANCED_FACE('',(#52),#32,.F.);
#178=ADVANCED_FACE('',(#53),#33,.F.);
#179=ADVANCED_FACE('',(#54),#34,.F.);
#180=ADVANCED_FACE('',(#55),#35,.T.);
#181=ADVANCED_FACE('',(#56,#46),#171,.T.);
#182=CLOSED_SHELL('',(#172,#173,#174,#175,#176,#177,#178,#179,#180,#181));
#183=AXIS2_PLACEMENT_3D('',#265,#208,#209);
#184=AXIS2_PLACEMENT_3D('',#266,#210,#211);
#185=AXIS2_PLACEMENT_3D('',#268,#212,#213);
#186=AXIS2_PLACEMENT_3D('',#270,#214,#215);
#187=AXIS2_PLACEMENT_3D('',#272,#216,#217);
#188=AXIS2_PLACEMENT_3D('',#274,#218,#219);
#189=AXIS2_PLACEMENT_3D('',#276,#220,#221);
#190=AXIS2_PLACEMENT_3D('',#278,#222,#223);
#191=AXIS2_PLACEMENT_3D('',#279,#224,#225);
#192=AXIS2_PLACEMENT_3D('',#281,#226,#227);
#193=AXIS2_PLACEMENT_3D('',#283,#228,#229);
#194=AXIS2_PLACEMENT_3D('',#285,#230,#231);
#195=AXIS2_PLACEMENT_3D('',#287,#232,#233);
#196=AXIS2_PLACEMENT_3D('',#289,#234,#235);
#197=AXIS2_PLACEMENT_3D('',#291,#236,#237);
#198=AXIS2_PLACEMENT_3D('',#292,#238,#239);
#199=AXIS2_PLACEMENT_3D('',#294,#241,#242);
#200=AXIS2_PLACEMENT_3D('',#296,#244,#245);
#201=AXIS2_PLACEMENT_3D('',#298,#247,#248);
#202=AXIS2_PLACEMENT_3D('',#300,#250,#251);
#203=AXIS2_PLACEMENT_3D('',#302,#253,#254);
#204=AXIS2_PLACEMENT_3D('',#305,#256,#257);
#205=AXIS2_PLACEMENT_3D('',#306,#258,#259);
#206=AXIS2_PLACEMENT_3D('',#309,#261,#262);
#207=AXIS2_PLACEMENT_3D('',#310,#263,#264);
#208=DIRECTION('axis',(0.,0.,1.));
#209=DIRECTION('refdir',(1.,0.,0.));
#210=DIRECTION('center_axis',(0.,0.,1.));
#211=DIRECTION('ref_axis',(-1.,0.,0.));
#212=DIRECTION('center_axis',(0.,0.,-1.));
#213=DIRECTION('ref_axis',(-1.,0.,0.));
#214=DIRECTION('center_axis',(0.,0.,1.));
#215=DIRECTION('ref_axis',(-1.,0.,0.));
#216=DIRECTION('center_axis',(0.,0.,1.));
#217=DIRECTION('ref_axis',(-1.,0.,0.));
#218=DIRECTION('center_axis',(0.,0.,1.));
#219=DIRECTION('ref_axis',(-1.,0.,0.));
#220=DIRECTION('center_axis',(0.,0.,1.));
#221=DIRECTION('ref_axis',(-1.,0.,0.));
#222=DIRECTION('center_axis',(0.,0.,1.));
#223=DIRECTION('ref_axis',(-1.,0.,0.));
#224=DIRECTION('center_axis',(0.,0.,1.));
#225=DIRECTION('ref_axis',(-1.,0.,0.));
#226=DIRECTION('center_axis',(0.,0.,-1.));
#227=DIRECTION('ref_axis',(-1.,0.,0.));
#228=DIRECTION('center_axis',(0.,0.,1.));
#229=DIRECTION('ref_axis',(-1.,0.,0.));
#230=DIRECTION('center_axis',(0.,0.,-1.));
#231=DIRECTION('ref_axis',(-1.,0.,0.));
#232=DIRECTION('center_axis',(0.,0.,-1.));
#233=DIRECTION('ref_axis',(-1.,0.,0.));
#234=DIRECTION('center_axis',(0.,0.,-1.));
#235=DIRECTION('ref_axis',(-1.,0.,0.));
#236=DIRECTION('center_axis',(0.,0.,-1.));
#237=DIRECTION('ref_axis',(-1.,0.,0.));
#238=DIRECTION('center_axis',(0.,0.,-1.));
#239=DIRECTION('ref_axis',(-1.,0.,0.));
#240=DIRECTION('',(0.,0.,1.));
#241=DIRECTION('center_axis',(0.,0.,-1.));
#242=DIRECTION('ref_axis',(-1.,0.,0.));
#243=DIRECTION('',(0.,0.,-1.));
#244=DIRECTION('center_axis',(0.,0.,-1.));
#245=DIRECTION('ref_axis',(-1.,0.,0.));
#246=DIRECTION('',(0.,0.,-1.));
#247=DIRECTION('center_axis',(0.,0.,-1.));
#248=DIRECTION('ref_axis',(-1.,0.,0.));
#249=DIRECTION('',(0.,0.,-1.));
#250=DIRECTION('center_axis',(0.,0.,-1.));
#251=DIRECTION('ref_axis',(-1.,0.,0.));
#252=DIRECTION('',(0.,0.,-1.));
#253=DIRECTION('center_axis',(0.,0.,-1.));
#254=DIRECTION('ref_axis',(-1.,0.,0.));
#255=DIRECTION('',(0.,0.,1.));
#256=DIRECTION('center_axis',(0.,0.,-1.));
#257=DIRECTION('ref_axis',(-1.,0.,0.));
#258=DIRECTION('center_axis',(0.,0.,-1.));
#259=DIRECTION('ref_axis',(-1.,0.,0.));
#260=DIRECTION('',(0.,0.,1.));
#261=DIRECTION('center_axis',(0.,0.,1.));
#262=DIRECTION('ref_axis',(-1.,0.,0.));
#263=DIRECTION('center_axis',(0.,0.,1.));
#264=DIRECTION('ref_axis',(-1.,0.,0.));
#265=CARTESIAN_POINT('',(0.,0.,0.));
#266=CARTESIAN_POINT('Origin',(-10.,3.85273388626099,120.000000000001));
#267=CARTESIAN_POINT('',(7.,3.85273388626098,120.000000000001));
#268=CARTESIAN_POINT('Origin',(-10.,3.85273388626099,120.000000000001));
#269=CARTESIAN_POINT('',(-8.88178419700125E-15,3.85273388626099,120.000000000001));
#270=CARTESIAN_POINT('Origin',(-10.,3.85273388626099,120.000000000001));
#271=CARTESIAN_POINT('',(-23.5945332061209,3.85273388626099,120.000000000001));
#272=CARTESIAN_POINT('Origin',(-24.8445332061209,3.85273388626099,120.000000000001));
#273=CARTESIAN_POINT('',(-8.75000000000001,18.6972670923818,120.000000000001));
#274=CARTESIAN_POINT('Origin',(-10.,18.6972670923818,120.000000000001));
#275=CARTESIAN_POINT('',(-8.75000000000001,-10.9917993198599,120.000000000001));
#276=CARTESIAN_POINT('Origin',(-10.,-10.9917993198599,120.000000000001));
#277=CARTESIAN_POINT('',(6.09453320612085,3.85273388626099,120.000000000001));
#278=CARTESIAN_POINT('Origin',(4.84453320612085,3.85273388626099,120.000000000001));
#279=CARTESIAN_POINT('Origin',(-10.,3.85273388626099,122.000000000001));
#280=CARTESIAN_POINT('',(7.,3.85273388626098,122.000000000001));
#281=CARTESIAN_POINT('Origin',(-10.,3.85273388626099,122.000000000001));
#282=CARTESIAN_POINT('',(2.99999999999999,3.85273388626099,122.000000000001));
#283=CARTESIAN_POINT('Origin',(-10.,3.85273388626099,122.000000000001));
#284=CARTESIAN_POINT('',(-23.5945332061209,3.85273388626099,122.000000000001));
#285=CARTESIAN_POINT('Origin',(-24.8445332061209,3.85273388626099,122.000000000001));
#286=CARTESIAN_POINT('',(-8.75000000000001,18.6972670923818,122.000000000001));
#287=CARTESIAN_POINT('Origin',(-10.,18.6972670923818,122.000000000001));
#288=CARTESIAN_POINT('',(-8.75000000000001,-10.9917993198599,122.000000000001));
#289=CARTESIAN_POINT('Origin',(-10.,-10.9917993198599,122.000000000001));
#290=CARTESIAN_POINT('',(6.09453320612085,3.85273388626099,122.000000000001));
#291=CARTESIAN_POINT('Origin',(4.84453320612085,3.85273388626099,122.000000000001));
#292=CARTESIAN_POINT('Origin',(-10.,3.85273388626099,124.000000000001));
#293=CARTESIAN_POINT('',(7.,3.85273388626098,124.000000000001));
#294=CARTESIAN_POINT('Origin',(4.84453320612085,3.85273388626099,122.000000000001));
#295=CARTESIAN_POINT('',(6.09453320612085,3.85273388626099,122.000000000001));
#296=CARTESIAN_POINT('Origin',(-10.,-10.9917993198599,122.000000000001));
#297=CARTESIAN_POINT('',(-8.75000000000001,-10.9917993198599,122.000000000001));
#298=CARTESIAN_POINT('Origin',(-10.,18.6972670923818,122.000000000001));
#299=CARTESIAN_POINT('',(-8.75000000000001,18.6972670923818,122.000000000001));
#300=CARTESIAN_POINT('Origin',(-24.8445332061209,3.85273388626099,122.000000000001));
#301=CARTESIAN_POINT('',(-23.5945332061209,3.85273388626099,122.000000000001));
#302=CARTESIAN_POINT('Origin',(-10.,3.85273388626099,146.000000000001));
#303=CARTESIAN_POINT('',(-8.88178419700125E-15,3.85273388626099,146.000000000001));
#304=CARTESIAN_POINT('',(-8.88178419700125E-15,3.85273388626099,146.000000000001));
#305=CARTESIAN_POINT('Origin',(-10.,3.85273388626099,146.000000000001));
#306=CARTESIAN_POINT('Origin',(-10.,3.85273388626099,146.000000000001));
#307=CARTESIAN_POINT('',(2.99999999999999,3.85273388626099,146.000000000001));
#308=CARTESIAN_POINT('',(2.99999999999999,3.85273388626098,146.000000000001));
#309=CARTESIAN_POINT('Origin',(-10.,3.85273388626099,146.000000000001));
#310=CARTESIAN_POINT('Origin',(-10.,3.85273388626099,146.000000000001));
#311=UNCERTAINTY_MEASURE_WITH_UNIT(LENGTH_MEASURE(0.01),#315,
'DISTANCE_ACCURACY_VALUE',
'Maximum model space distance between geometric entities at asserted c
onnectivities');
#312=UNCERTAINTY_MEASURE_WITH_UNIT(LENGTH_MEASURE(0.01),#315,
'DISTANCE_ACCURACY_VALUE',
'Maximum model space distance between geometric entities at asserted c
onnectivities');
#313=(
GEOMETRIC_REPRESENTATION_CONTEXT(3)
GLOBAL_UNCERTAINTY_ASSIGNED_CONTEXT((#311))
GLOBAL_UNIT_ASSIGNED_CONTEXT((#315,#316,#317))
REPRESENTATION_CONTEXT('','3D')
);
#314=(
GEOMETRIC_REPRESENTATION_CONTEXT(3)
GLOBAL_UNCERTAINTY_ASSIGNED_CONTEXT((#312))
GLOBAL_UNIT_ASSIGNED_CONTEXT((#315,#316,#317))
REPRESENTATION_CONTEXT('','3D')
);
#315=(
LENGTH_UNIT()
NAMED_UNIT(*)
SI_UNIT(.MILLI.,.METRE.)
);
#316=(
NAMED_UNIT(*)
PLANE_ANGLE_UNIT()
SI_UNIT($,.RADIAN.)
);
#317=(
NAMED_UNIT(*)
SI_UNIT($,.STERADIAN.)
SOLID_ANGLE_UNIT()
);
#318=SHAPE_DEFINITION_REPRESENTATION(#319,#320);
#319=PRODUCT_DEFINITION_SHAPE('',$,#322);
#320=SHAPE_REPRESENTATION('',(#183),#313);
#321=PRODUCT_DEFINITION_CONTEXT('part definition',#326,'design');
#322=PRODUCT_DEFINITION('2026-03-25-12-22-38-456','BB8',#323,#321);
#323=PRODUCT_DEFINITION_FORMATION('',$,#328);
#324=PRODUCT_RELATED_PRODUCT_CATEGORY('BB8','BB8',(#328));
#325=APPLICATION_PROTOCOL_DEFINITION('international standard',
'automotive_design',2009,#326);
#326=APPLICATION_CONTEXT(
'Core Data for Automotive Mechanical Design Process');
#327=PRODUCT_CONTEXT('part definition',#326,'mechanical');
#328=PRODUCT('2026-03-25-12-22-38-456','BB8',$,(#327));
#329=PRESENTATION_STYLE_ASSIGNMENT((#368));
#330=PRESENTATION_STYLE_ASSIGNMENT((#369));
#331=PRESENTATION_STYLE_ASSIGNMENT((#370));
#332=PRESENTATION_STYLE_ASSIGNMENT((#371));
#333=PRESENTATION_STYLE_ASSIGNMENT((#372));
#334=PRESENTATION_STYLE_ASSIGNMENT((#373));
#335=PRESENTATION_STYLE_ASSIGNMENT((#374));
#336=PRESENTATION_STYLE_ASSIGNMENT((#375));
#337=PRESENTATION_STYLE_ASSIGNMENT((#376));
#338=PRESENTATION_STYLE_ASSIGNMENT((#377));
#339=PRESENTATION_STYLE_ASSIGNMENT((#378));
#340=PRESENTATION_STYLE_ASSIGNMENT((#379));
#341=PRESENTATION_STYLE_ASSIGNMENT((#380));
#342=PRESENTATION_STYLE_ASSIGNMENT((#381));
#343=PRESENTATION_STYLE_ASSIGNMENT((#382));
#344=PRESENTATION_STYLE_ASSIGNMENT((#383));
#345=PRESENTATION_STYLE_ASSIGNMENT((#384));
#346=PRESENTATION_STYLE_ASSIGNMENT((#385));
#347=PRESENTATION_STYLE_ASSIGNMENT((#386));
#348=PRESENTATION_STYLE_ASSIGNMENT((#387));
#349=PRESENTATION_STYLE_ASSIGNMENT((#388));
#350=PRESENTATION_STYLE_ASSIGNMENT((#389));
#351=PRESENTATION_STYLE_ASSIGNMENT((#390));
#352=PRESENTATION_STYLE_ASSIGNMENT((#391));
#353=PRESENTATION_STYLE_ASSIGNMENT((#392));
#354=PRESENTATION_STYLE_ASSIGNMENT((#393));
#355=PRESENTATION_STYLE_ASSIGNMENT((#394));
#356=PRESENTATION_STYLE_ASSIGNMENT((#395));
#357=PRESENTATION_STYLE_ASSIGNMENT((#396));
#358=PRESENTATION_STYLE_ASSIGNMENT((#397));
#359=PRESENTATION_STYLE_ASSIGNMENT((#398));
#360=PRESENTATION_STYLE_ASSIGNMENT((#399));
#361=PRESENTATION_STYLE_ASSIGNMENT((#400));
#362=PRESENTATION_STYLE_ASSIGNMENT((#401));
#363=PRESENTATION_STYLE_ASSIGNMENT((#402));
#364=PRESENTATION_STYLE_ASSIGNMENT((#403));
#365=PRESENTATION_STYLE_ASSIGNMENT((#404));
#366=PRESENTATION_STYLE_ASSIGNMENT((#405));
#367=PRESENTATION_STYLE_ASSIGNMENT((#406));
#368=SURFACE_STYLE_USAGE(.BOTH.,#407);
#369=SURFACE_STYLE_USAGE(.BOTH.,#408);
#370=SURFACE_STYLE_USAGE(.BOTH.,#409);
#371=SURFACE_STYLE_USAGE(.BOTH.,#410);
#372=SURFACE_STYLE_USAGE(.BOTH.,#411);
#373=SURFACE_STYLE_USAGE(.BOTH.,#412);
#374=SURFACE_STYLE_USAGE(.BOTH.,#413);
#375=SURFACE_STYLE_USAGE(.BOTH.,#414);
#376=SURFACE_STYLE_USAGE(.BOTH.,#415);
#377=SURFACE_STYLE_USAGE(.BOTH.,#416);
#378=SURFACE_STYLE_USAGE(.BOTH.,#417);
#379=SURFACE_STYLE_USAGE(.BOTH.,#418);
#380=SURFACE_STYLE_USAGE(.BOTH.,#419);
#381=SURFACE_STYLE_USAGE(.BOTH.,#420);
#382=SURFACE_STYLE_USAGE(.BOTH.,#421);
#383=SURFACE_STYLE_USAGE(.BOTH.,#422);
#384=SURFACE_STYLE_USAGE(.BOTH.,#423);
#385=SURFACE_STYLE_USAGE(.BOTH.,#424);
#386=SURFACE_STYLE_USAGE(.BOTH.,#425);
#387=SURFACE_STYLE_USAGE(.BOTH.,#426);
#388=SURFACE_STYLE_USAGE(.BOTH.,#427);
#389=SURFACE_STYLE_USAGE(.BOTH.,#428);
#390=SURFACE_STYLE_USAGE(.BOTH.,#429);
#391=SURFACE_STYLE_USAGE(.BOTH.,#430);
#392=SURFACE_STYLE_USAGE(.BOTH.,#431);
#393=SURFACE_STYLE_USAGE(.BOTH.,#432);
#394=SURFACE_STYLE_USAGE(.BOTH.,#433);
#395=SURFACE_STYLE_USAGE(.BOTH.,#434);
#396=SURFACE_STYLE_USAGE(.BOTH.,#435);
#397=SURFACE_STYLE_USAGE(.BOTH.,#436);
#398=SURFACE_STYLE_USAGE(.BOTH.,#437);
#399=SURFACE_STYLE_USAGE(.BOTH.,#438);
#400=SURFACE_STYLE_USAGE(.BOTH.,#439);
#401=SURFACE_STYLE_USAGE(.BOTH.,#440);
#402=SURFACE_STYLE_USAGE(.BOTH.,#441);
#403=SURFACE_STYLE_USAGE(.BOTH.,#442);
#404=SURFACE_STYLE_USAGE(.BOTH.,#443);
#405=SURFACE_STYLE_USAGE(.BOTH.,#444);
#406=SURFACE_STYLE_USAGE(.BOTH.,#445);
#407=SURFACE_SIDE_STYLE('',(#446));
#408=SURFACE_SIDE_STYLE('',(#447));
#409=SURFACE_SIDE_STYLE('',(#448));
#410=SURFACE_SIDE_STYLE('',(#449));
#411=SURFACE_SIDE_STYLE('',(#450));
#412=SURFACE_SIDE_STYLE('',(#451));
#413=SURFACE_SIDE_STYLE('',(#452));
#414=SURFACE_SIDE_STYLE('',(#453));
#415=SURFACE_SIDE_STYLE('',(#454));
#416=SURFACE_SIDE_STYLE('',(#455));
#417=SURFACE_SIDE_STYLE('',(#456));
#418=SURFACE_SIDE_STYLE('',(#457));
#419=SURFACE_SIDE_STYLE('',(#458));
#420=SURFACE_SIDE_STYLE('',(#459));
#421=SURFACE_SIDE_STYLE('',(#460));
#422=SURFACE_SIDE_STYLE('',(#461));
#423=SURFACE_SIDE_STYLE('',(#462));
#424=SURFACE_SIDE_STYLE('',(#463));
#425=SURFACE_SIDE_STYLE('',(#464));
#426=SURFACE_SIDE_STYLE('',(#465));
#427=SURFACE_SIDE_STYLE('',(#466));
#428=SURFACE_SIDE_STYLE('',(#467));
#429=SURFACE_SIDE_STYLE('',(#468));
#430=SURFACE_SIDE_STYLE('',(#469));
#431=SURFACE_SIDE_STYLE('',(#470));
#432=SURFACE_SIDE_STYLE('',(#471));
#433=SURFACE_SIDE_STYLE('',(#472));
#434=SURFACE_SIDE_STYLE('',(#473));
#435=SURFACE_SIDE_STYLE('',(#474));
#436=SURFACE_SIDE_STYLE('',(#475));
#437=SURFACE_SIDE_STYLE('',(#476));
#438=SURFACE_SIDE_STYLE('',(#477));
#439=SURFACE_SIDE_STYLE('',(#478));
#440=SURFACE_SIDE_STYLE('',(#479));
#441=SURFACE_SIDE_STYLE('',(#480));
#442=SURFACE_SIDE_STYLE('',(#481));
#443=SURFACE_SIDE_STYLE('',(#482));
#444=SURFACE_SIDE_STYLE('',(#483));
#445=SURFACE_SIDE_STYLE('',(#484));
#446=SURFACE_STYLE_FILL_AREA(#485);
#447=SURFACE_STYLE_FILL_AREA(#486);
#448=SURFACE_STYLE_FILL_AREA(#487);
#449=SURFACE_STYLE_FILL_AREA(#488);
#450=SURFACE_STYLE_FILL_AREA(#489);
#451=SURFACE_STYLE_FILL_AREA(#490);
#452=SURFACE_STYLE_FILL_AREA(#491);
#453=SURFACE_STYLE_FILL_AREA(#492);
#454=SURFACE_STYLE_FILL_AREA(#493);
#455=SURFACE_STYLE_FILL_AREA(#494);
#456=SURFACE_STYLE_FILL_AREA(#495);
#457=SURFACE_STYLE_FILL_AREA(#496);
#458=SURFACE_STYLE_FILL_AREA(#497);
#459=SURFACE_STYLE_FILL_AREA(#498);
#460=SURFACE_STYLE_FILL_AREA(#499);
#461=SURFACE_STYLE_FILL_AREA(#500);
#462=SURFACE_STYLE_FILL_AREA(#501);
#463=SURFACE_STYLE_FILL_AREA(#502);
#464=SURFACE_STYLE_FILL_AREA(#503);
#465=SURFACE_STYLE_FILL_AREA(#504);
#466=SURFACE_STYLE_FILL_AREA(#505);
#467=SURFACE_STYLE_FILL_AREA(#506);
#468=SURFACE_STYLE_FILL_AREA(#507);
#469=SURFACE_STYLE_FILL_AREA(#508);
#470=SURFACE_STYLE_FILL_AREA(#509);
#471=SURFACE_STYLE_FILL_AREA(#510);
#472=SURFACE_STYLE_FILL_AREA(#511);
#473=SURFACE_STYLE_FILL_AREA(#512);
#474=SURFACE_STYLE_FILL_AREA(#513);
#475=SURFACE_STYLE_FILL_AREA(#514);
#476=SURFACE_STYLE_FILL_AREA(#515);
#477=SURFACE_STYLE_FILL_AREA(#516);
#478=SURFACE_STYLE_FILL_AREA(#517);
#479=SURFACE_STYLE_FILL_AREA(#518);
#480=SURFACE_STYLE_FILL_AREA(#519);
#481=SURFACE_STYLE_FILL_AREA(#520);
#482=SURFACE_STYLE_FILL_AREA(#521);
#483=SURFACE_STYLE_FILL_AREA(#522);
#484=SURFACE_STYLE_FILL_AREA(#523);
#485=FILL_AREA_STYLE('Opaque(229,234,237)',(#524));
#486=FILL_AREA_STYLE('Opaque(166,158,150)',(#525));
#487=FILL_AREA_STYLE('Opaque(198,193,188)',(#526));
#488=FILL_AREA_STYLE('Opaque(26,26,26)',(#527));
#489=FILL_AREA_STYLE('Opaque(199,194,189)',(#528));
#490=FILL_AREA_STYLE('Opaque(0,138,231)',(#529));
#491=FILL_AREA_STYLE('Opaque(202,209,238)',(#530));
#492=FILL_AREA_STYLE('Opaque(128,128,128)',(#531));
#493=FILL_AREA_STYLE('Opaque(128,255,128)',(#532));
#494=FILL_AREA_STYLE('Opaque(0,64,128)',(#533));
#495=FILL_AREA_STYLE('Glass - Light Color (Blue)',(#534));
#496=FILL_AREA_STYLE('Opaque(85,87,89)',(#535));
#497=FILL_AREA_STYLE('Opaque(130,116,95)',(#536));
#498=FILL_AREA_STYLE('Opaque(160,160,160)',(#537));
#499=FILL_AREA_STYLE('Opaque(76,76,76)',(#538));
#500=FILL_AREA_STYLE('Opaque(251,250,245)',(#539));
#501=FILL_AREA_STYLE('Opaque(77,77,77)',(#540));
#502=FILL_AREA_STYLE('Opaque(187,197,203)',(#541));
#503=FILL_AREA_STYLE('Opaque(25,25,25)',(#542));
#504=FILL_AREA_STYLE('Opaque(63,63,63)',(#543));
#505=FILL_AREA_STYLE('Opaque(191,191,191)',(#544));
#506=FILL_AREA_STYLE('Opaque(255,255,255)',(#545));
#507=FILL_AREA_STYLE('Opaque(64,64,64)',(#546));
#508=FILL_AREA_STYLE('Opaque(144,96,0)',(#547));
#509=FILL_AREA_STYLE('Opaque(246,246,243)',(#548));
#510=FILL_AREA_STYLE('Opaque(153,130,94)',(#549));
#511=FILL_AREA_STYLE('Opaque(48,59,150)',(#550));
#512=FILL_AREA_STYLE('Opaque(123,129,122)',(#551));
#513=FILL_AREA_STYLE('Opaque(212,214,212)',(#552));
#514=FILL_AREA_STYLE('Opaque(73,169,84)',(#553));
#515=FILL_AREA_STYLE('Opaque(211,214,211)',(#554));
#516=FILL_AREA_STYLE('Opaque(244,229,167)',(#555));
#517=FILL_AREA_STYLE('Opaque(163,169,170)',(#556));
#518=FILL_AREA_STYLE('Opaque(73,73,73)',(#557));
#519=FILL_AREA_STYLE('Opaque(165,159,143)',(#558));
#520=FILL_AREA_STYLE('Opaque(217,196,147)',(#559));
#521=FILL_AREA_STYLE('Opaque(12,12,12)',(#560));
#522=FILL_AREA_STYLE('Opaque(255,220,64)',(#561));
#523=FILL_AREA_STYLE('Opaque(127,127,127)',(#562));
#524=FILL_AREA_STYLE_COLOUR('Opaque(229,234,237)',#563);
#525=FILL_AREA_STYLE_COLOUR('Opaque(166,158,150)',#564);
#526=FILL_AREA_STYLE_COLOUR('Opaque(198,193,188)',#565);
#527=FILL_AREA_STYLE_COLOUR('Opaque(26,26,26)',#566);
#528=FILL_AREA_STYLE_COLOUR('Opaque(199,194,189)',#567);
#529=FILL_AREA_STYLE_COLOUR('Opaque(0,138,231)',#568);
#530=FILL_AREA_STYLE_COLOUR('Opaque(202,209,238)',#569);
#531=FILL_AREA_STYLE_COLOUR('Opaque(128,128,128)',#570);
#532=FILL_AREA_STYLE_COLOUR('Opaque(128,255,128)',#571);
#533=FILL_AREA_STYLE_COLOUR('Opaque(0,64,128)',#572);
#534=FILL_AREA_STYLE_COLOUR('Glass - Light Color (Blue)',#573);
#535=FILL_AREA_STYLE_COLOUR('Opaque(85,87,89)',#574);
#536=FILL_AREA_STYLE_COLOUR('Opaque(130,116,95)',#575);
#537=FILL_AREA_STYLE_COLOUR('Opaque(160,160,160)',#576);
#538=FILL_AREA_STYLE_COLOUR('Opaque(76,76,76)',#577);
#539=FILL_AREA_STYLE_COLOUR('Opaque(251,250,245)',#578);
#540=FILL_AREA_STYLE_COLOUR('Opaque(77,77,77)',#579);
#541=FILL_AREA_STYLE_COLOUR('Opaque(187,197,203)',#580);
#542=FILL_AREA_STYLE_COLOUR('Opaque(25,25,25)',#581);
#543=FILL_AREA_STYLE_COLOUR('Opaque(63,63,63)',#582);
#544=FILL_AREA_STYLE_COLOUR('Opaque(191,191,191)',#583);
#545=FILL_AREA_STYLE_COLOUR('Opaque(255,255,255)',#584);
#546=FILL_AREA_STYLE_COLOUR('Opaque(64,64,64)',#585);
#547=FILL_AREA_STYLE_COLOUR('Opaque(144,96,0)',#586);
#548=FILL_AREA_STYLE_COLOUR('Opaque(246,246,243)',#587);
#549=FILL_AREA_STYLE_COLOUR('Opaque(153,130,94)',#588);
#550=FILL_AREA_STYLE_COLOUR('Opaque(48,59,150)',#589);
#551=FILL_AREA_STYLE_COLOUR('Opaque(123,129,122)',#590);
#552=FILL_AREA_STYLE_COLOUR('Opaque(212,214,212)',#591);
#553=FILL_AREA_STYLE_COLOUR('Opaque(73,169,84)',#592);
#554=FILL_AREA_STYLE_COLOUR('Opaque(211,214,211)',#593);
#555=FILL_AREA_STYLE_COLOUR('Opaque(244,229,167)',#594);
#556=FILL_AREA_STYLE_COLOUR('Opaque(163,169,170)',#595);
#557=FILL_AREA_STYLE_COLOUR('Opaque(73,73,73)',#596);
#558=FILL_AREA_STYLE_COLOUR('Opaque(165,159,143)',#597);
#559=FILL_AREA_STYLE_COLOUR('Opaque(217,196,147)',#598);
#560=FILL_AREA_STYLE_COLOUR('Opaque(12,12,12)',#599);
#561=FILL_AREA_STYLE_COLOUR('Opaque(255,220,64)',#600);
#562=FILL_AREA_STYLE_COLOUR('Opaque(127,127,127)',#601);
#563=COLOUR_RGB('Opaque(229,234,237)',0.898039215686275,0.917647058823529,
0.929411764705882);
#564=COLOUR_RGB('Opaque(166,158,150)',0.650980392156863,0.619607843137255,
0.588235294117647);
#565=COLOUR_RGB('Opaque(198,193,188)',0.776470588235294,0.756862745098039,
0.737254901960784);
#566=COLOUR_RGB('Opaque(26,26,26)',0.101960784313725,0.101960784313725,
0.101960784313725);
#567=COLOUR_RGB('Opaque(199,194,189)',0.780392156862745,0.76078431372549,
0.741176470588235);
#568=COLOUR_RGB('Opaque(0,138,231)',0.,0.541176470588235,0.905882352941176);
#569=COLOUR_RGB('Opaque(202,209,238)',0.792156862745098,0.819607843137255,
0.933333333333333);
#570=COLOUR_RGB('Opaque(128,128,128)',0.501960784313725,0.501960784313725,
0.501960784313725);
#571=COLOUR_RGB('Opaque(128,255,128)',0.501960784313725,1.,0.501960784313725);
#572=COLOUR_RGB('Opaque(0,64,128)',0.,0.250980392156863,0.501960784313725);
#573=COLOUR_RGB('Glass - Light Color (Blue)',0.423529411764706,0.768627450980392,
0.854901960784314);
#574=COLOUR_RGB('Opaque(85,87,89)',0.333333333333333,0.345098039215686,
0.349019607843137);
#575=COLOUR_RGB('Opaque(130,116,95)',0.509803921568627,0.454901960784314,
0.372549019607843);
#576=COLOUR_RGB('Opaque(160,160,160)',0.627450980392157,0.627450980392157,
0.627450980392157);
#577=COLOUR_RGB('Opaque(76,76,76)',0.298039215686275,0.298039215686275,
0.298039215686275);
#578=COLOUR_RGB('Opaque(251,250,245)',0.984313725490196,0.980392156862745,
0.96078431372549);
#579=COLOUR_RGB('Opaque(77,77,77)',0.301960784313725,0.301960784313725,
0.301960784313725);
#580=COLOUR_RGB('Opaque(187,197,203)',0.733333333333333,0.772549019607843,
0.796078431372549);
#581=COLOUR_RGB('Opaque(25,25,25)',0.0980392156862745,0.0980392156862745,
0.0980392156862745);
#582=COLOUR_RGB('Opaque(63,63,63)',0.250980392156863,0.250980392156863,
0.250980392156863);
#583=COLOUR_RGB('Opaque(191,191,191)',0.749019607843137,0.749019607843137,
0.749019607843137);
#584=COLOUR_RGB('Opaque(255,255,255)',1.,1.,1.);
#585=COLOUR_RGB('Opaque(64,64,64)',0.250980392156863,0.250980392156863,
0.250980392156863);
#586=COLOUR_RGB('Opaque(144,96,0)',0.564705882352941,0.376470588235294,
0.);
#587=COLOUR_RGB('Opaque(246,246,243)',0.964705882352941,0.964705882352941,
0.952941176470588);
#588=COLOUR_RGB('Opaque(153,130,94)',0.6,0.509803921568627,0.368627450980392);
#589=COLOUR_RGB('Opaque(48,59,150)',0.188235294117647,0.231372549019608,
0.588235294117647);
#590=COLOUR_RGB('Opaque(123,129,122)',0.482352941176471,0.505882352941176,
0.47843137254902);
#591=COLOUR_RGB('Opaque(212,214,212)',0.831372549019608,0.83921568627451,
0.831372549019608);
#592=COLOUR_RGB('Opaque(73,169,84)',0.286274509803922,0.662745098039216,
0.329411764705882);
#593=COLOUR_RGB('Opaque(211,214,211)',0.827450980392157,0.83921568627451,
0.827450980392157);
#594=COLOUR_RGB('Opaque(244,229,167)',0.956862745098039,0.898039215686275,
0.654901960784314);
#595=COLOUR_RGB('Opaque(163,169,170)',0.63921568627451,0.662745098039216,
0.666666666666667);
#596=COLOUR_RGB('Opaque(73,73,73)',0.286274509803922,0.286274509803922,
0.286274509803922);
#597=COLOUR_RGB('Opaque(165,159,143)',0.647058823529412,0.623529411764706,
0.56078431372549);
#598=COLOUR_RGB('Opaque(217,196,147)',0.850980392156863,0.768627450980392,
0.576470588235294);
#599=COLOUR_RGB('Opaque(12,12,12)',0.0509803921568627,0.0509803921568627,
0.0509803921568627);
#600=COLOUR_RGB('Opaque(255,220,64)',1.,0.862745098039216,0.250980392156863);
#601=COLOUR_RGB('Opaque(127,127,127)',0.498039215686275,0.498039215686275,
0.498039215686275);
ENDSEC;
END-ISO-10303-21;
