ISO-10303-21;
HEADER;
/* Generated by software containing ST-Developer
 * from STEP Tools, Inc. (www.steptools.com) 
 */

FILE_DESCRIPTION(
/* description */ (''),
/* implementation_level */ '2;1');

FILE_NAME(
/* name */ 'Sphere Shell (Rail).step',
/* time_stamp */ '2026-05-27T22:15:02+02:00',
/* author */ (''),
/* organization */ (''),
/* preprocessor_version */ 'ST-DEVELOPER v20.1',
/* originating_system */ 'Autodesk Translation Framework v15.8.0.0',
/* authorisation */ '');

FILE_SCHEMA (('AUTOMOTIVE_DESIGN { 1 0 10303 214 3 1 1 }'));
ENDSEC;

DATA;
#10=MECHANICAL_DESIGN_GEOMETRIC_PRESENTATION_REPRESENTATION('',(#13),#187);
#11=SHAPE_REPRESENTATION_RELATIONSHIP('SRR','None',#194,#12);
#12=ADVANCED_BREP_SHAPE_REPRESENTATION('',(#14),#186);
#13=STYLED_ITEM('',(#204),#14);
#14=MANIFOLD_SOLID_BREP('RailMid',#103);
#15=CYLINDRICAL_SURFACE('',#120,176.1);
#16=CYLINDRICAL_SURFACE('',#123,176.9);
#17=FACE_OUTER_BOUND('',#23,.T.);
#18=FACE_OUTER_BOUND('',#24,.T.);
#19=FACE_OUTER_BOUND('',#25,.T.);
#20=FACE_OUTER_BOUND('',#26,.T.);
#21=FACE_OUTER_BOUND('',#27,.T.);
#22=FACE_OUTER_BOUND('',#28,.T.);
#23=EDGE_LOOP('',(#69,#70,#71,#72));
#24=EDGE_LOOP('',(#73,#74,#75,#76));
#25=EDGE_LOOP('',(#77,#78,#79,#80));
#26=EDGE_LOOP('',(#81,#82,#83,#84));
#27=EDGE_LOOP('',(#85,#86,#87,#88));
#28=EDGE_LOOP('',(#89,#90,#91,#92));
#29=CIRCLE('',#118,176.9);
#30=CIRCLE('',#119,176.1);
#31=CIRCLE('',#121,176.1);
#32=CIRCLE('',#124,176.9);
#33=LINE('',#161,#41);
#34=LINE('',#165,#42);
#35=LINE('',#169,#43);
#36=LINE('',#172,#44);
#37=LINE('',#175,#45);
#38=LINE('',#176,#46);
#39=LINE('',#180,#47);
#40=LINE('',#182,#48);
#41=VECTOR('',#131,10.);
#42=VECTOR('',#134,10.);
#43=VECTOR('',#139,10.);
#44=VECTOR('',#142,10.);
#45=VECTOR('',#145,10.);
#46=VECTOR('',#146,10.);
#47=VECTOR('',#151,10.);
#48=VECTOR('',#154,10.);
#49=VERTEX_POINT('',#159);
#50=VERTEX_POINT('',#160);
#51=VERTEX_POINT('',#162);
#52=VERTEX_POINT('',#164);
#53=VERTEX_POINT('',#168);
#54=VERTEX_POINT('',#170);
#55=VERTEX_POINT('',#174);
#56=VERTEX_POINT('',#178);
#57=EDGE_CURVE('',#49,#50,#33,.T.);
#58=EDGE_CURVE('',#50,#51,#29,.T.);
#59=EDGE_CURVE('',#51,#52,#34,.T.);
#60=EDGE_CURVE('',#52,#49,#30,.T.);
#61=EDGE_CURVE('',#53,#52,#35,.T.);
#62=EDGE_CURVE('',#54,#53,#31,.T.);
#63=EDGE_CURVE('',#54,#49,#36,.T.);
#64=EDGE_CURVE('',#54,#55,#37,.T.);
#65=EDGE_CURVE('',#55,#50,#38,.T.);
#66=EDGE_CURVE('',#55,#56,#32,.T.);
#67=EDGE_CURVE('',#56,#51,#39,.T.);
#68=EDGE_CURVE('',#56,#53,#40,.T.);
#69=ORIENTED_EDGE('',*,*,#57,.T.);
#70=ORIENTED_EDGE('',*,*,#58,.T.);
#71=ORIENTED_EDGE('',*,*,#59,.T.);
#72=ORIENTED_EDGE('',*,*,#60,.T.);
#73=ORIENTED_EDGE('',*,*,#61,.F.);
#74=ORIENTED_EDGE('',*,*,#62,.F.);
#75=ORIENTED_EDGE('',*,*,#63,.T.);
#76=ORIENTED_EDGE('',*,*,#60,.F.);
#77=ORIENTED_EDGE('',*,*,#63,.F.);
#78=ORIENTED_EDGE('',*,*,#64,.T.);
#79=ORIENTED_EDGE('',*,*,#65,.T.);
#80=ORIENTED_EDGE('',*,*,#57,.F.);
#81=ORIENTED_EDGE('',*,*,#65,.F.);
#82=ORIENTED_EDGE('',*,*,#66,.T.);
#83=ORIENTED_EDGE('',*,*,#67,.T.);
#84=ORIENTED_EDGE('',*,*,#58,.F.);
#85=ORIENTED_EDGE('',*,*,#67,.F.);
#86=ORIENTED_EDGE('',*,*,#68,.T.);
#87=ORIENTED_EDGE('',*,*,#61,.T.);
#88=ORIENTED_EDGE('',*,*,#59,.F.);
#89=ORIENTED_EDGE('',*,*,#62,.T.);
#90=ORIENTED_EDGE('',*,*,#68,.F.);
#91=ORIENTED_EDGE('',*,*,#66,.F.);
#92=ORIENTED_EDGE('',*,*,#64,.F.);
#93=PLANE('',#117);
#94=PLANE('',#122);
#95=PLANE('',#125);
#96=PLANE('',#126);
#97=ADVANCED_FACE('',(#17),#93,.T.);
#98=ADVANCED_FACE('',(#18),#15,.F.);
#99=ADVANCED_FACE('',(#19),#94,.T.);
#100=ADVANCED_FACE('',(#20),#16,.T.);
#101=ADVANCED_FACE('',(#21),#95,.T.);
#102=ADVANCED_FACE('',(#22),#96,.F.);
#103=CLOSED_SHELL('',(#97,#98,#99,#100,#101,#102));
#104=DERIVED_UNIT_ELEMENT(#106,1.);
#105=DERIVED_UNIT_ELEMENT(#189,-3.);
#106=(
MASS_UNIT()
NAMED_UNIT(*)
SI_UNIT(.KILO.,.GRAM.)
);
#107=DERIVED_UNIT((#104,#105));
#108=MEASURE_REPRESENTATION_ITEM('density measure',
POSITIVE_RATIO_MEASURE(7850.),#107);
#109=PROPERTY_DEFINITION_REPRESENTATION(#114,#111);
#110=PROPERTY_DEFINITION_REPRESENTATION(#115,#112);
#111=REPRESENTATION('material name',(#113),#186);
#112=REPRESENTATION('density',(#108),#186);
#113=DESCRIPTIVE_REPRESENTATION_ITEM('Steel','Steel');
#114=PROPERTY_DEFINITION('material property','material name',#196);
#115=PROPERTY_DEFINITION('material property','density of part',#196);
#116=AXIS2_PLACEMENT_3D('',#157,#127,#128);
#117=AXIS2_PLACEMENT_3D('',#158,#129,#130);
#118=AXIS2_PLACEMENT_3D('',#163,#132,#133);
#119=AXIS2_PLACEMENT_3D('',#166,#135,#136);
#120=AXIS2_PLACEMENT_3D('',#167,#137,#138);
#121=AXIS2_PLACEMENT_3D('',#171,#140,#141);
#122=AXIS2_PLACEMENT_3D('',#173,#143,#144);
#123=AXIS2_PLACEMENT_3D('',#177,#147,#148);
#124=AXIS2_PLACEMENT_3D('',#179,#149,#150);
#125=AXIS2_PLACEMENT_3D('',#181,#152,#153);
#126=AXIS2_PLACEMENT_3D('',#183,#155,#156);
#127=DIRECTION('axis',(0.,0.,1.));
#128=DIRECTION('refdir',(1.,0.,0.));
#129=DIRECTION('center_axis',(0.,0.,1.));
#130=DIRECTION('ref_axis',(-0.978147600733805,0.20791169081776,0.));
#131=DIRECTION('',(-0.918320069470046,0.395838666641513,0.));
#132=DIRECTION('center_axis',(0.,0.,1.));
#133=DIRECTION('ref_axis',(-0.978147600733806,0.20791169081776,0.));
#134=DIRECTION('',(0.975604673015873,-0.219534785374875,0.));
#135=DIRECTION('center_axis',(0.,0.,-1.));
#136=DIRECTION('ref_axis',(-0.978147600733806,0.20791169081776,0.));
#137=DIRECTION('center_axis',(0.,0.,1.));
#138=DIRECTION('ref_axis',(-0.978147600733806,0.20791169081776,0.));
#139=DIRECTION('',(0.,0.,1.));
#140=DIRECTION('center_axis',(0.,0.,1.));
#141=DIRECTION('ref_axis',(-0.978147600733806,0.20791169081776,0.));
#142=DIRECTION('',(0.,0.,1.));
#143=DIRECTION('center_axis',(0.395838666641513,0.918320069470046,0.));
#144=DIRECTION('ref_axis',(-0.918320069470046,0.395838666641513,0.));
#145=DIRECTION('',(-0.918320069470046,0.395838666641513,0.));
#146=DIRECTION('',(0.,0.,1.));
#147=DIRECTION('center_axis',(0.,0.,1.));
#148=DIRECTION('ref_axis',(-0.978147600733806,0.20791169081776,0.));
#149=DIRECTION('center_axis',(0.,0.,1.));
#150=DIRECTION('ref_axis',(-0.978147600733806,0.20791169081776,0.));
#151=DIRECTION('',(0.,0.,1.));
#152=DIRECTION('center_axis',(-0.219534785374875,-0.975604673015873,0.));
#153=DIRECTION('ref_axis',(0.975604673015873,-0.219534785374875,0.));
#154=DIRECTION('',(0.975604673015873,-0.219534785374875,0.));
#155=DIRECTION('center_axis',(0.,0.,1.));
#156=DIRECTION('ref_axis',(-0.978147600733805,0.20791169081776,0.));
#157=CARTESIAN_POINT('',(0.,0.,0.));
#158=CARTESIAN_POINT('Origin',(-167.152506173022,54.3492730303901,1.99999999999998));
#159=CARTESIAN_POINT('',(-161.795227671674,69.5234802255398,1.99999999999998));
#160=CARTESIAN_POINT('',(-162.529884198908,69.8401513621596,1.99999999999998));
#161=CARTESIAN_POINT('',(-161.296193454995,69.3083732650082,1.99999999999998));
#162=CARTESIAN_POINT('',(-172.540449399261,39.0307996472164,1.99999999999998));
#163=CARTESIAN_POINT('Origin',(0.,0.,1.99999999999998));
#164=CARTESIAN_POINT('',(-171.759965159768,38.8551717061613,1.99999999999998));
#165=CARTESIAN_POINT('',(-171.616764054264,38.8229479737091,1.99999999999998));
#166=CARTESIAN_POINT('Origin',(0.,0.,1.99999999999998));
#167=CARTESIAN_POINT('Origin',(0.,0.,-2.14313189850787E-14));
#168=CARTESIAN_POINT('',(-171.759965159768,38.8551717061613,-1.49999999999994));
#169=CARTESIAN_POINT('',(-171.759965159768,38.8551717061613,1.49999999999998));
#170=CARTESIAN_POINT('',(-161.795227671674,69.5234802255398,-1.49999999999994));
#171=CARTESIAN_POINT('Origin',(0.,0.,-1.49999999999994));
#172=CARTESIAN_POINT('',(-161.795227671674,69.5234802255398,-2.14313189850787E-14));
#173=CARTESIAN_POINT('Origin',(-161.795227671674,69.5234802255398,-2.14313189850787E-14));
#174=CARTESIAN_POINT('',(-162.529884198908,69.8401513621596,-1.49999999999994));
#175=CARTESIAN_POINT('',(-161.296193454995,69.3083732650082,-1.49999999999994));
#176=CARTESIAN_POINT('',(-162.529884198908,69.8401513621596,1.49999999999998));
#177=CARTESIAN_POINT('Origin',(0.,0.,-2.14313189850787E-14));
#178=CARTESIAN_POINT('',(-172.540449399261,39.0307996472164,-1.49999999999994));
#179=CARTESIAN_POINT('Origin',(0.,0.,-1.49999999999994));
#180=CARTESIAN_POINT('',(-172.540449399261,39.0307996472164,1.49999999999998));
#181=CARTESIAN_POINT('Origin',(-172.540449399261,39.0307996472164,-2.14313189850787E-14));
#182=CARTESIAN_POINT('',(-171.616764054264,38.8229479737091,-1.49999999999994));
#183=CARTESIAN_POINT('Origin',(-167.152506173022,54.3492730303901,-1.49999999999994));
#184=UNCERTAINTY_MEASURE_WITH_UNIT(LENGTH_MEASURE(0.01),#188,
'DISTANCE_ACCURACY_VALUE',
'Maximum model space distance between geometric entities at asserted c
onnectivities');
#185=UNCERTAINTY_MEASURE_WITH_UNIT(LENGTH_MEASURE(0.01),#188,
'DISTANCE_ACCURACY_VALUE',
'Maximum model space distance between geometric entities at asserted c
onnectivities');
#186=(
GEOMETRIC_REPRESENTATION_CONTEXT(3)
GLOBAL_UNCERTAINTY_ASSIGNED_CONTEXT((#184))
GLOBAL_UNIT_ASSIGNED_CONTEXT((#188,#190,#191))
REPRESENTATION_CONTEXT('','3D')
);
#187=(
GEOMETRIC_REPRESENTATION_CONTEXT(3)
GLOBAL_UNCERTAINTY_ASSIGNED_CONTEXT((#185))
GLOBAL_UNIT_ASSIGNED_CONTEXT((#188,#190,#191))
REPRESENTATION_CONTEXT('','3D')
);
#188=(
LENGTH_UNIT()
NAMED_UNIT(*)
SI_UNIT(.MILLI.,.METRE.)
);
#189=(
LENGTH_UNIT()
NAMED_UNIT(*)
SI_UNIT($,.METRE.)
);
#190=(
NAMED_UNIT(*)
PLANE_ANGLE_UNIT()
SI_UNIT($,.RADIAN.)
);
#191=(
NAMED_UNIT(*)
SI_UNIT($,.STERADIAN.)
SOLID_ANGLE_UNIT()
);
#192=SHAPE_DEFINITION_REPRESENTATION(#193,#194);
#193=PRODUCT_DEFINITION_SHAPE('',$,#196);
#194=SHAPE_REPRESENTATION('',(#116),#186);
#195=PRODUCT_DEFINITION_CONTEXT('part definition',#200,'design');
#196=PRODUCT_DEFINITION('2026-03-24-17-32-21-542','Sphere Rail',#197,#195);
#197=PRODUCT_DEFINITION_FORMATION('',$,#202);
#198=PRODUCT_RELATED_PRODUCT_CATEGORY('Sphere Rail','Sphere Rail',(#202));
#199=APPLICATION_PROTOCOL_DEFINITION('international standard',
'automotive_design',2009,#200);
#200=APPLICATION_CONTEXT(
'Core Data for Automotive Mechanical Design Process');
#201=PRODUCT_CONTEXT('part definition',#200,'mechanical');
#202=PRODUCT('2026-03-24-17-32-21-542','Sphere Rail',$,(#201));
#203=PRESENTATION_STYLE_ASSIGNMENT((#205));
#204=PRESENTATION_STYLE_ASSIGNMENT((#206));
#205=SURFACE_STYLE_USAGE(.BOTH.,#207);
#206=SURFACE_STYLE_USAGE(.BOTH.,#208);
#207=SURFACE_SIDE_STYLE('',(#209));
#208=SURFACE_SIDE_STYLE('',(#210));
#209=SURFACE_STYLE_FILL_AREA(#211);
#210=SURFACE_STYLE_FILL_AREA(#212);
#211=FILL_AREA_STYLE('Steel - Satin',(#213));
#212=FILL_AREA_STYLE('Opaque(108,196,218)',(#214));
#213=FILL_AREA_STYLE_COLOUR('Steel - Satin',#215);
#214=FILL_AREA_STYLE_COLOUR('Opaque(108,196,218)',#216);
#215=COLOUR_RGB('Steel - Satin',0.627450980392157,0.627450980392157,0.627450980392157);
#216=COLOUR_RGB('Opaque(108,196,218)',0.423529411764706,0.768627450980392,
0.854901960784314);
ENDSEC;
END-ISO-10303-21;
