ISO-10303-21;
HEADER;
/* Generated by software containing ST-Developer
 * from STEP Tools, Inc. (www.steptools.com) 
 */

FILE_DESCRIPTION(
/* description */ (''),
/* implementation_level */ '2;1');

FILE_NAME(
/* name */ 'Ball WheelTUBE.step',
/* time_stamp */ '2026-04-22T18:40:38+02:00',
/* author */ (''),
/* organization */ (''),
/* preprocessor_version */ 'ST-DEVELOPER v20.1',
/* originating_system */ 'Autodesk Translation Framework v15.8.0.0',
/* authorisation */ '');

FILE_SCHEMA (('AUTOMOTIVE_DESIGN { 1 0 10303 214 3 1 1 }'));
ENDSEC;

DATA;
#10=MECHANICAL_DESIGN_GEOMETRIC_PRESENTATION_REPRESENTATION('',(#13),#197);
#11=SHAPE_REPRESENTATION_RELATIONSHIP('SRR','None',#204,#12);
#12=ADVANCED_BREP_SHAPE_REPRESENTATION('',(#14),#196);
#13=STYLED_ITEM('',(#214),#14);
#14=MANIFOLD_SOLID_BREP('Tube',#101);
#15=LINE('',#191,#17);
#16=LINE('',#193,#18);
#17=VECTOR('',#163,7.49980011175573);
#18=VECTOR('',#166,8.0355);
#19=CYLINDRICAL_SURFACE('',#129,7.49980011175573);
#20=CYLINDRICAL_SURFACE('',#130,8.0355);
#21=TOROIDAL_SURFACE('',#118,6.47606571436283,1.6071);
#22=TOROIDAL_SURFACE('',#127,5.98453370732911,1.52489551748335);
#23=FACE_BOUND('',#32,.T.);
#24=FACE_BOUND('',#35,.T.);
#25=FACE_OUTER_BOUND('',#31,.T.);
#26=FACE_OUTER_BOUND('',#33,.T.);
#27=FACE_OUTER_BOUND('',#34,.T.);
#28=FACE_OUTER_BOUND('',#36,.T.);
#29=FACE_OUTER_BOUND('',#37,.T.);
#30=FACE_OUTER_BOUND('',#38,.T.);
#31=EDGE_LOOP('',(#69));
#32=EDGE_LOOP('',(#70));
#33=EDGE_LOOP('',(#71,#72,#73,#74,#75,#76));
#34=EDGE_LOOP('',(#77));
#35=EDGE_LOOP('',(#78));
#36=EDGE_LOOP('',(#79,#80,#81,#82,#83));
#37=EDGE_LOOP('',(#84,#85,#86,#87));
#38=EDGE_LOOP('',(#88,#89,#90,#91,#92));
#39=CIRCLE('',#116,8.0355);
#40=CIRCLE('',#117,7.49980011175573);
#41=CIRCLE('',#119,6.55086581730537);
#42=CIRCLE('',#120,1.6071);
#43=CIRCLE('',#121,8.0355);
#44=CIRCLE('',#122,8.0355);
#45=CIRCLE('',#123,6.55086581730537);
#46=CIRCLE('',#125,7.49980011175573);
#47=CIRCLE('',#126,7.49639189718705);
#48=CIRCLE('',#128,1.52489551748335);
#49=VERTEX_POINT('',#169);
#50=VERTEX_POINT('',#171);
#51=VERTEX_POINT('',#174);
#52=VERTEX_POINT('',#175);
#53=VERTEX_POINT('',#177);
#54=VERTEX_POINT('',#179);
#55=VERTEX_POINT('',#184);
#56=VERTEX_POINT('',#186);
#57=EDGE_CURVE('',#49,#49,#39,.T.);
#58=EDGE_CURVE('',#50,#50,#40,.T.);
#59=EDGE_CURVE('',#51,#52,#41,.T.);
#60=EDGE_CURVE('',#52,#53,#42,.T.);
#61=EDGE_CURVE('',#53,#54,#43,.T.);
#62=EDGE_CURVE('',#54,#53,#44,.T.);
#63=EDGE_CURVE('',#52,#51,#45,.T.);
#64=EDGE_CURVE('',#55,#55,#46,.T.);
#65=EDGE_CURVE('',#56,#56,#47,.T.);
#66=EDGE_CURVE('',#51,#56,#48,.T.);
#67=EDGE_CURVE('',#50,#55,#15,.T.);
#68=EDGE_CURVE('',#54,#49,#16,.T.);
#69=ORIENTED_EDGE('',*,*,#57,.T.);
#70=ORIENTED_EDGE('',*,*,#58,.T.);
#71=ORIENTED_EDGE('',*,*,#59,.T.);
#72=ORIENTED_EDGE('',*,*,#60,.T.);
#73=ORIENTED_EDGE('',*,*,#61,.T.);
#74=ORIENTED_EDGE('',*,*,#62,.T.);
#75=ORIENTED_EDGE('',*,*,#60,.F.);
#76=ORIENTED_EDGE('',*,*,#63,.T.);
#77=ORIENTED_EDGE('',*,*,#64,.T.);
#78=ORIENTED_EDGE('',*,*,#65,.F.);
#79=ORIENTED_EDGE('',*,*,#59,.F.);
#80=ORIENTED_EDGE('',*,*,#66,.T.);
#81=ORIENTED_EDGE('',*,*,#65,.T.);
#82=ORIENTED_EDGE('',*,*,#66,.F.);
#83=ORIENTED_EDGE('',*,*,#63,.F.);
#84=ORIENTED_EDGE('',*,*,#58,.F.);
#85=ORIENTED_EDGE('',*,*,#67,.T.);
#86=ORIENTED_EDGE('',*,*,#64,.F.);
#87=ORIENTED_EDGE('',*,*,#67,.F.);
#88=ORIENTED_EDGE('',*,*,#62,.F.);
#89=ORIENTED_EDGE('',*,*,#68,.T.);
#90=ORIENTED_EDGE('',*,*,#57,.F.);
#91=ORIENTED_EDGE('',*,*,#68,.F.);
#92=ORIENTED_EDGE('',*,*,#61,.F.);
#93=PLANE('',#115);
#94=PLANE('',#124);
#95=ADVANCED_FACE('',(#25,#23),#93,.F.);
#96=ADVANCED_FACE('',(#26),#21,.T.);
#97=ADVANCED_FACE('',(#27,#24),#94,.T.);
#98=ADVANCED_FACE('',(#28),#22,.F.);
#99=ADVANCED_FACE('',(#29),#19,.F.);
#100=ADVANCED_FACE('',(#30),#20,.T.);
#101=CLOSED_SHELL('',(#95,#96,#97,#98,#99,#100));
#102=DERIVED_UNIT_ELEMENT(#104,1.);
#103=DERIVED_UNIT_ELEMENT(#199,-3.);
#104=(
MASS_UNIT()
NAMED_UNIT(*)
SI_UNIT(.KILO.,.GRAM.)
);
#105=DERIVED_UNIT((#102,#103));
#106=MEASURE_REPRESENTATION_ITEM('density measure',
POSITIVE_RATIO_MEASURE(7850.),#105);
#107=PROPERTY_DEFINITION_REPRESENTATION(#112,#109);
#108=PROPERTY_DEFINITION_REPRESENTATION(#113,#110);
#109=REPRESENTATION('material name',(#111),#196);
#110=REPRESENTATION('density',(#106),#196);
#111=DESCRIPTIVE_REPRESENTATION_ITEM('Acier','Acier');
#112=PROPERTY_DEFINITION('material property','material name',#206);
#113=PROPERTY_DEFINITION('material property','density of part',#206);
#114=AXIS2_PLACEMENT_3D('',#167,#131,#132);
#115=AXIS2_PLACEMENT_3D('',#168,#133,#134);
#116=AXIS2_PLACEMENT_3D('',#170,#135,#136);
#117=AXIS2_PLACEMENT_3D('',#172,#137,#138);
#118=AXIS2_PLACEMENT_3D('',#173,#139,#140);
#119=AXIS2_PLACEMENT_3D('',#176,#141,#142);
#120=AXIS2_PLACEMENT_3D('',#178,#143,#144);
#121=AXIS2_PLACEMENT_3D('',#180,#145,#146);
#122=AXIS2_PLACEMENT_3D('',#181,#147,#148);
#123=AXIS2_PLACEMENT_3D('',#182,#149,#150);
#124=AXIS2_PLACEMENT_3D('',#183,#151,#152);
#125=AXIS2_PLACEMENT_3D('',#185,#153,#154);
#126=AXIS2_PLACEMENT_3D('',#187,#155,#156);
#127=AXIS2_PLACEMENT_3D('',#188,#157,#158);
#128=AXIS2_PLACEMENT_3D('',#189,#159,#160);
#129=AXIS2_PLACEMENT_3D('',#190,#161,#162);
#130=AXIS2_PLACEMENT_3D('',#192,#164,#165);
#131=DIRECTION('axis',(0.,0.,1.));
#132=DIRECTION('refdir',(1.,0.,0.));
#133=DIRECTION('center_axis',(0.,0.,1.));
#134=DIRECTION('ref_axis',(1.,0.,0.));
#135=DIRECTION('center_axis',(0.,0.,-1.));
#136=DIRECTION('ref_axis',(-1.,0.,0.));
#137=DIRECTION('center_axis',(0.,0.,1.));
#138=DIRECTION('ref_axis',(-1.,0.,0.));
#139=DIRECTION('center_axis',(0.,0.,1.));
#140=DIRECTION('ref_axis',(0.000420072038869446,0.999999911769737,0.));
#141=DIRECTION('center_axis',(0.,0.,-1.));
#142=DIRECTION('ref_axis',(1.,0.,0.));
#143=DIRECTION('center_axis',(0.999999911769737,-0.000420072038869324,0.));
#144=DIRECTION('ref_axis',(-0.000420072038869324,-0.999999911769737,0.));
#145=DIRECTION('center_axis',(0.,0.,1.));
#146=DIRECTION('ref_axis',(-1.,0.,0.));
#147=DIRECTION('center_axis',(0.,0.,1.));
#148=DIRECTION('ref_axis',(-1.,0.,0.));
#149=DIRECTION('center_axis',(0.,0.,-1.));
#150=DIRECTION('ref_axis',(1.,0.,0.));
#151=DIRECTION('center_axis',(0.,0.,-1.));
#152=DIRECTION('ref_axis',(-1.,0.,0.));
#153=DIRECTION('center_axis',(0.,0.,-1.));
#154=DIRECTION('ref_axis',(-1.,0.,0.));
#155=DIRECTION('center_axis',(0.,0.,-1.));
#156=DIRECTION('ref_axis',(1.,0.,0.));
#157=DIRECTION('center_axis',(0.,0.,-1.));
#158=DIRECTION('ref_axis',(-1.,0.,0.));
#159=DIRECTION('center_axis',(1.22464679914735E-16,1.,0.));
#160=DIRECTION('ref_axis',(1.,-1.22464679914735E-16,0.));
#161=DIRECTION('center_axis',(0.,0.,1.));
#162=DIRECTION('ref_axis',(-1.,0.,0.));
#163=DIRECTION('',(0.,0.,1.));
#164=DIRECTION('center_axis',(0.,0.,1.));
#165=DIRECTION('ref_axis',(-1.,0.,0.));
#166=DIRECTION('',(0.,0.,-1.));
#167=CARTESIAN_POINT('',(0.,0.,0.));
#168=CARTESIAN_POINT('Origin',(-3.36594196150184E-13,-9.8260392832925E-14,
13.));
#169=CARTESIAN_POINT('',(8.03549999999966,-9.72763278974702E-14,13.));
#170=CARTESIAN_POINT('Origin',(-3.36594196150184E-13,-9.8260392832925E-14,
13.));
#171=CARTESIAN_POINT('',(7.49980011175539,-9.73419322128144E-14,13.));
#172=CARTESIAN_POINT('Origin',(-3.36594196150184E-13,-9.8260392832925E-14,
13.));
#173=CARTESIAN_POINT('Origin',(-3.36594196150184E-13,-9.8260392832925E-14,
27.3753963078949));
#174=CARTESIAN_POINT('',(6.55086581730503,-9.90626425184057E-14,28.9807546338146));
#175=CARTESIAN_POINT('',(-0.00275183556057142,-6.55086523932085,28.9807546338146));
#176=CARTESIAN_POINT('Origin',(-3.36594196150184E-13,-9.8260392832925E-14,
28.9807546338146));
#177=CARTESIAN_POINT('',(-0.00337548886867104,-8.03549929102582,27.7639));
#178=CARTESIAN_POINT('Origin',(-0.00272041412882071,-6.47606514297795,27.3753963078949));
#179=CARTESIAN_POINT('',(8.03549999999966,-9.72763278974702E-14,27.7639));
#180=CARTESIAN_POINT('Origin',(-3.36594196150184E-13,-9.8260392832925E-14,
27.7639));
#181=CARTESIAN_POINT('Origin',(-3.36594196150184E-13,-9.8260392832925E-14,
27.7639));
#182=CARTESIAN_POINT('Origin',(-3.36594196150184E-13,-9.8260392832925E-14,
28.9807546338146));
#183=CARTESIAN_POINT('Origin',(-3.36594196150184E-13,7.49639189718695,27.7639));
#184=CARTESIAN_POINT('',(7.49980011175539,-9.73419322128144E-14,27.7639));
#185=CARTESIAN_POINT('Origin',(-3.36594196150184E-13,-9.8260392832925E-14,
27.7639));
#186=CARTESIAN_POINT('',(7.49639189718671,-9.91784360671295E-14,27.7639));
#187=CARTESIAN_POINT('Origin',(-3.36594196150184E-13,-9.8260392832925E-14,
27.7639));
#188=CARTESIAN_POINT('Origin',(-3.36594196150184E-13,-9.8260392832925E-14,
27.5649247427434));
#189=CARTESIAN_POINT('Origin',(5.98453370732878,-9.8993286837832E-14,27.5649247427434));
#190=CARTESIAN_POINT('Origin',(-3.36594196150184E-13,-9.8260392832925E-14,
11.6929));
#191=CARTESIAN_POINT('',(7.49980011175539,-9.73419322128144E-14,11.6929));
#192=CARTESIAN_POINT('Origin',(-3.36594196150184E-13,-9.8260392832925E-14,
11.6929));
#193=CARTESIAN_POINT('',(8.03549999999966,-9.72763278974702E-14,11.6929));
#194=UNCERTAINTY_MEASURE_WITH_UNIT(LENGTH_MEASURE(0.01),#198,
'DISTANCE_ACCURACY_VALUE',
'Maximum model space distance between geometric entities at asserted c
onnectivities');
#195=UNCERTAINTY_MEASURE_WITH_UNIT(LENGTH_MEASURE(0.01),#198,
'DISTANCE_ACCURACY_VALUE',
'Maximum model space distance between geometric entities at asserted c
onnectivities');
#196=(
GEOMETRIC_REPRESENTATION_CONTEXT(3)
GLOBAL_UNCERTAINTY_ASSIGNED_CONTEXT((#194))
GLOBAL_UNIT_ASSIGNED_CONTEXT((#198,#200,#201))
REPRESENTATION_CONTEXT('','3D')
);
#197=(
GEOMETRIC_REPRESENTATION_CONTEXT(3)
GLOBAL_UNCERTAINTY_ASSIGNED_CONTEXT((#195))
GLOBAL_UNIT_ASSIGNED_CONTEXT((#198,#200,#201))
REPRESENTATION_CONTEXT('','3D')
);
#198=(
LENGTH_UNIT()
NAMED_UNIT(*)
SI_UNIT(.MILLI.,.METRE.)
);
#199=(
LENGTH_UNIT()
NAMED_UNIT(*)
SI_UNIT($,.METRE.)
);
#200=(
NAMED_UNIT(*)
PLANE_ANGLE_UNIT()
SI_UNIT($,.RADIAN.)
);
#201=(
NAMED_UNIT(*)
SI_UNIT($,.STERADIAN.)
SOLID_ANGLE_UNIT()
);
#202=SHAPE_DEFINITION_REPRESENTATION(#203,#204);
#203=PRODUCT_DEFINITION_SHAPE('',$,#206);
#204=SHAPE_REPRESENTATION('',(#114),#196);
#205=PRODUCT_DEFINITION_CONTEXT('part definition',#210,'design');
#206=PRODUCT_DEFINITION('Ball Caster Wheel','Ball Wheel',#207,#205);
#207=PRODUCT_DEFINITION_FORMATION('',$,#212);
#208=PRODUCT_RELATED_PRODUCT_CATEGORY('Ball Wheel','Ball Wheel',(#212));
#209=APPLICATION_PROTOCOL_DEFINITION('international standard',
'automotive_design',2009,#210);
#210=APPLICATION_CONTEXT(
'Core Data for Automotive Mechanical Design Process');
#211=PRODUCT_CONTEXT('part definition',#210,'mechanical');
#212=PRODUCT('Ball Caster Wheel','Ball Wheel',$,(#211));
#213=PRESENTATION_STYLE_ASSIGNMENT((#215));
#214=PRESENTATION_STYLE_ASSIGNMENT((#216));
#215=SURFACE_STYLE_USAGE(.BOTH.,#217);
#216=SURFACE_STYLE_USAGE(.BOTH.,#218);
#217=SURFACE_SIDE_STYLE('',(#219));
#218=SURFACE_SIDE_STYLE('',(#220));
#219=SURFACE_STYLE_FILL_AREA(#221);
#220=SURFACE_STYLE_FILL_AREA(#222);
#221=FILL_AREA_STYLE('Acier - Satin\X\E9',(#223));
#222=FILL_AREA_STYLE('Opaque(160,160,160)',(#224));
#223=FILL_AREA_STYLE_COLOUR('Acier - Satin\X\E9',#225);
#224=FILL_AREA_STYLE_COLOUR('Opaque(160,160,160)',#226);
#225=COLOUR_RGB('Acier - Satin\X\E9',0.627450980392157,0.627450980392157,
0.627450980392157);
#226=COLOUR_RGB('Opaque(160,160,160)',0.627450980392157,0.627450980392157,
0.627450980392157);
ENDSEC;
END-ISO-10303-21;
